<?xml version="1.0" encoding="UTF-8" standalone="no"?>
<svg
   version="1.1"
   viewBox="0 0 360.84 170.33417"
   id="svg126"
   sodipodi:docname="anatoliki-logo.svg"
   inkscape:version="1.4 (86a8ad7, 2024-10-11)"
   width="360.84"
   height="170.33417"
   xmlns:inkscape="http://www.inkscape.org/namespaces/inkscape"
   xmlns:sodipodi="http://sodipodi.sourceforge.net/DTD/sodipodi-0.dtd"
   xmlns="http://www.w3.org/2000/svg"
   xmlns:svg="http://www.w3.org/2000/svg">
  <sodipodi:namedview
     id="namedview126"
     pagecolor="#ffffff"
     bordercolor="#000000"
     borderopacity="0.25"
     inkscape:showpageshadow="2"
     inkscape:pageopacity="0.0"
     inkscape:pagecheckerboard="0"
     inkscape:deskcolor="#d1d1d1"
     inkscape:zoom="0.29648329"
     inkscape:cx="67.457426"
     inkscape:cy="209.11802"
     inkscape:window-width="1920"
     inkscape:window-height="1010"
     inkscape:window-x="-6"
     inkscape:window-y="-6"
     inkscape:window-maximized="1"
     inkscape:current-layer="g126" />
  <!-- Generator: Adobe Illustrator 29.1.0, SVG Export Plug-In . SVG Version: 2.1.0 Build 142)  -->
  <defs
     id="defs24">
    <style
       id="style1">
      .stl0 {
        fill: #624025;
      }

      .stl1 {
        fill: #7e7e7e;
        opacity: .08;
      }

      .stl1, .stl2, .stl3, .stl4, .stl5, .stl6, .stl7, .stl8, .stl9, .stl10, .stl11, .stl12, .stl13, .stl14, .stl15, .stl16, .stl17, .stl18, .stl19, .stl20, .stl21, .stl22, .stl23, .stl24, .stl25, .stl26, .stl27, .stl28, .stl29, .stl30, .stl31, .stl32 {
        mix-blend-mode: darken;
      }

      .stl33 {
        fill: url(#linear-gradient2);
      }

      .stl2 {
        fill: #3f3f3f;
        opacity: .27;
      }

      .stl3 {
        fill: #929292;
        opacity: .02;
      }

      .stl34 {
        stroke: #fff;
        stroke-width: 1.92px;
      }

      .stl34, .stl35, .stl36 {
        fill: none;
      }

      .stl4 {
        fill: #6b6b6b;
        opacity: .14;
      }

      .stl5 {
        fill: #797979;
        opacity: .09;
      }

      .stl6 {
        fill: #181818;
        opacity: .39;
      }

      .stl7 {
        fill: #888;
        opacity: .05;
      }

      .stl37 {
        fill: #231f20;
      }

      .stl8 {
        fill: #0f0f0f;
        opacity: .42;
      }

      .stl9 {
        fill: #838383;
        opacity: .06;
      }

      .stl10 {
        fill: #313131;
        opacity: .32;
      }

      .stl11 {
        fill: #747474;
        opacity: .11;
      }

      .stl12 {
        fill: #050505;
        opacity: .45;
      }

      .stl38 {
        fill: #fff;
      }

      .stl13 {
        fill: #4e4e4e;
        opacity: .23;
      }

      .stl39 {
        fill: url(#linear-gradient1);
      }

      .stl14 {
        fill: #666;
        opacity: .15;
      }

      .stl40 {
        fill: #ed1c24;
      }

      .stl15 {
        fill: #969696;
        opacity: 0;
      }

      .stl16 {
        fill: #616161;
        opacity: .17;
      }

      .stl17 {
        fill: #353535;
        opacity: .3;
      }

      .stl41 {
        fill: #808285;
      }

      .stl18 {
        fill: #444;
        opacity: .26;
      }

      .stl19 {
        fill: #575757;
        opacity: .2;
      }

      .stl35 {
        stroke-width: 2.65px;
      }

      .stl35, .stl36 {
        stroke: #000;
      }

      .stl20 {
        fill: #3a3a3a;
        opacity: .29;
      }

      .stl42 {
        isolation: isolate;
      }

      .stl21 {
        fill: #272727;
        opacity: .35;
      }

      .stl36 {
        stroke-width: .69px;
      }

      .stl43 {
        fill: #b3b3b3;
      }

      .stl22 {
        fill: #707070;
        opacity: .12;
      }

      .stl44 {
        fill: #999;
      }

      .stl23 {
        fill: #131313;
        opacity: .41;
      }

      .stl24 {
        fill: #0a0a0a;
        opacity: .44;
      }

      .stl25 {
        fill: #5c5c5c;
        opacity: .18;
      }

      .stl26 {
        fill: #2c2c2c;
        opacity: .33;
      }

      .stl27 {
        opacity: .47;
      }

      .stl28 {
        fill: #222;
        opacity: .36;
      }

      .stl29 {
        fill: #1d1d1d;
        opacity: .38;
      }

      .stl30 {
        fill: #494949;
        opacity: .24;
      }

      .stl45 {
        fill: url(#linear-gradient);
      }

      .stl31 {
        fill: #8d8d8d;
        opacity: .03;
      }

      .stl32 {
        fill: #535353;
        opacity: .21;
      }
    </style>
    <linearGradient
       id="linear-gradient"
       x1="277.26999"
       y1="156.92999"
       x2="223.47"
       y2="74.809998"
       gradientUnits="userSpaceOnUse">
      <stop
         offset="0"
         stop-color="#dd2027"
         id="stop1" />
      <stop
         offset=".2"
         stop-color="#da1f26"
         id="stop2" />
      <stop
         offset=".34"
         stop-color="#d11e24"
         id="stop3" />
      <stop
         offset=".47"
         stop-color="#c11c22"
         id="stop4" />
      <stop
         offset=".58"
         stop-color="#ab181e"
         id="stop5" />
      <stop
         offset=".68"
         stop-color="#8f1419"
         id="stop6" />
      <stop
         offset=".78"
         stop-color="#6d0f13"
         id="stop7" />
      <stop
         offset=".87"
         stop-color="#44090c"
         id="stop8" />
      <stop
         offset=".96"
         stop-color="#150303"
         id="stop9" />
      <stop
         offset="1"
         stop-color="#000"
         id="stop10" />
    </linearGradient>
    <linearGradient
       id="linear-gradient1"
       x1="135.55"
       y1="36.439999"
       x2="245.75"
       y2="116.88"
       gradientUnits="userSpaceOnUse">
      <stop
         offset=".23"
         stop-color="#fff"
         id="stop11" />
      <stop
         offset=".34"
         stop-color="#f7f7f7"
         id="stop12" />
      <stop
         offset=".51"
         stop-color="#e1e1e1"
         id="stop13" />
      <stop
         offset=".71"
         stop-color="#bdbdbd"
         id="stop14" />
      <stop
         offset=".95"
         stop-color="#8c8c8c"
         id="stop15" />
      <stop
         offset="1"
         stop-color="#818181"
         id="stop16" />
    </linearGradient>
    <linearGradient
       id="linear-gradient2"
       x1="226.28"
       y1="27.860001"
       x2="262.19"
       y2="63.349998"
       gradientUnits="userSpaceOnUse">
      <stop
         offset="0"
         stop-color="#f5f6f6"
         id="stop17" />
      <stop
         offset=".25"
         stop-color="#fff"
         id="stop18" />
      <stop
         offset=".5"
         stop-color="#fcfcfc"
         id="stop19" />
      <stop
         offset=".64"
         stop-color="#f4f4f4"
         id="stop20" />
      <stop
         offset=".75"
         stop-color="#e6e6e6"
         id="stop21" />
      <stop
         offset=".85"
         stop-color="#d3d2d2"
         id="stop22" />
      <stop
         offset=".94"
         stop-color="#b9b9b9"
         id="stop23" />
      <stop
         offset="1"
         stop-color="#a7a6a6"
         id="stop24" />
    </linearGradient>
  </defs>
  <g
     class="stl42"
     id="g126"
     transform="translate(0,0.00417196)">
    <g
       id="Layer_1">
      <rect
         class="stl0"
         x="105.25"
         y="54.419998"
         width="255.59"
         height="68.900002"
         rx="12.6"
         ry="12.6"
         id="rect24" />
      <path
         class="stl45"
         d="m 360.84,110.92 c 0,6.85 -5.64,12.4 -12.6,12.4 H 117.85 c -6.96,0 -12.6,-5.55 -12.6,-12.4 V 67.93 c 0,-6.85 5.64,-12.4 12.6,-12.4 h 230.39 c 6.96,0 12.6,5.55 12.6,12.4 z"
         id="path24"
         style="fill:url(#linear-gradient)" />
      <g
         id="g56">
        <path
           class="stl15"
           d="m 298.6,157.73 c 0,6.96 -5.64,12.6 -12.6,12.6 0,0 -17.43,-11.76 -44.8,-23.38 -13.69,-5.81 -29.86,-11.58 -47.58,-15.83 -17.72,-4.25 -37,-6.97 -56.89,-6.68 -6.96,0.1 -12.6,-5.64 -12.6,-12.6 v -43.7 c 0,-6.96 2.77,-12.6 12.6,-12.6 31.44,0 56.57,2.79 76.57,6.97 20,4.18 34.89,9.76 45.85,15.34 21.91,11.16 28.11,22.32 28.11,22.32 0,0 11.34,6.9 11.34,13.86 z"
           id="path25" />
        <path
           class="stl3"
           d="m 124.53,67.73 c 0,-6.73 3.06,-12.19 12.58,-12.19 7.66,0 15.36,0.17 22.26,0.49 20.68,0.95 38.45,3.17 53.28,6.26 5.83,1.21 11.2,2.55 16.13,4 11.9,3.53 21.58,7.39 29.06,11.2 21.29,10.9 27.5,21.7 27.61,21.8 0,0 0.58,0.35 1.45,0.97 3.02,2.12 9.6,7.36 9.58,12.66 -0.02,0.11 -0.09,42.56 -0.25,42.78 -0.04,6.8 -5.55,12.32 -12.35,12.39 -0.04,0.05 -17.39,-11.19 -44.37,-22.29 -0.48,-0.2 -0.97,-0.4 -1.46,-0.59 -13.41,-5.33 -29.07,-10.47 -45.6,-14.44 -17.15,-4.11 -35.8,-6.75 -55.05,-6.47"
           id="path26" />
        <path
           class="stl31"
           d="m 124.94,67.32 c 0,-6.51 3.35,-11.79 12.55,-11.79 7.41,0 15.28,0.17 21.95,0.48 20.16,0.92 37.86,3.01 52.55,6.05 5.76,1.19 11.07,2.51 15.89,3.99 11.73,3.6 21.41,7.38 28.64,11.07 20.69,10.59 26.9,21.08 27.12,21.27 0.01,0.01 0.57,0.35 1.42,0.95 2.96,2.1 9.34,7.22 9.31,12.44 -0.04,0.22 -0.19,41.41 -0.51,41.86 -0.09,6.63 -5.47,12.04 -12.09,12.19 -0.08,0.09 -17.32,-10.68 -43.93,-21.19 -0.48,-0.19 -0.96,-0.38 -1.45,-0.56 -13.46,-5.06 -29.11,-9.83 -45.1,-13.67 -15.99,-3.84 -34.61,-6.52 -53.22,-6.25"
           id="path27" />
        <path
           class="stl7"
           d="m 125.34,66.92 c 0,-6.29 3.65,-11.38 12.53,-11.38 7.15,0 15.2,0.16 21.65,0.46 19.64,0.89 37.27,2.85 51.82,5.84 5.7,1.17 10.94,2.47 15.65,3.97 11.56,3.69 21.24,7.37 28.22,10.95 20.08,10.3 26.29,20.46 26.63,20.75 0.02,0.02 0.56,0.35 1.39,0.94 2.91,2.06 9.09,7.09 9.04,12.22 -0.06,0.33 -0.28,40.27 -0.76,40.93 -0.13,6.47 -5.38,11.77 -11.84,11.98 -0.11,0.14 -17.27,-10.14 -43.5,-20.09 -0.47,-0.18 -0.95,-0.36 -1.43,-0.53 -13.5,-4.8 -29.16,-9.19 -44.6,-12.89 -16.01,-3.84 -33.42,-6.3 -51.38,-6.04"
           id="path28" />
        <path
           class="stl9"
           d="m 125.75,66.51 c 0,-6.06 3.94,-10.97 12.51,-10.97 6.89,0 15.13,0.15 21.34,0.44 19.12,0.86 36.68,2.69 51.1,5.63 5.64,1.15 10.81,2.43 15.41,3.95 11.4,3.77 21.07,7.37 27.79,10.83 19.46,10.02 25.69,19.84 26.13,20.23 0.02,0.02 0.56,0.35 1.36,0.92 2.85,2.04 8.83,6.95 8.77,12 -0.08,0.44 -0.38,39.12 -1.01,40.01 -0.18,6.31 -5.29,11.49 -11.58,11.78 -0.15,0.19 -17.22,-9.59 -43.06,-18.99 -0.47,-0.17 -0.94,-0.34 -1.42,-0.5 -13.56,-4.53 -29.21,-8.56 -44.1,-12.12 -15.44,-3.7 -32.22,-6.07 -49.55,-5.82"
           id="path29" />
        <path
           class="stl1"
           d="m 126.16,66.1 c 0,-5.84 4.24,-10.57 12.49,-10.57 6.64,0 15.05,0.15 21.03,0.43 18.6,0.83 36.09,2.53 50.37,5.43 5.57,1.13 10.68,2.4 15.17,3.94 11.23,3.85 20.9,7.36 27.37,10.7 18.85,9.73 25.08,19.22 25.64,19.7 0.03,0.03 0.55,0.35 1.33,0.91 2.79,2.01 8.58,6.81 8.49,11.79 -0.1,0.55 -0.47,37.98 -1.27,39.09 -0.22,6.14 -5.2,11.21 -11.33,11.57 -0.19,0.24 -17.17,-9.05 -42.63,-17.9 -0.46,-0.16 -0.93,-0.33 -1.4,-0.47 -13.61,-4.25 -29.26,-7.92 -43.59,-11.35 -14.86,-3.56 -31.03,-5.85 -47.71,-5.6"
           id="path30" />
        <path
           class="stl5"
           d="m 126.56,65.7 c 0,-5.61 4.53,-10.16 12.46,-10.16 6.38,0 14.97,0.14 20.73,0.41 18.08,0.79 35.51,2.36 49.64,5.22 5.51,1.11 10.55,2.36 14.93,3.92 11.06,3.93 20.73,7.36 26.95,10.58 18.24,9.45 24.47,18.6 25.14,19.18 0.04,0.03 0.54,0.34 1.3,0.89 2.74,1.98 8.32,6.68 8.22,11.57 -0.12,0.67 -0.57,36.84 -1.52,38.17 -0.26,5.98 -5.12,10.93 -11.08,11.37 -0.23,0.28 -17.13,-8.5 -42.19,-16.8 -0.46,-0.15 -0.92,-0.31 -1.39,-0.44 -13.67,-3.98 -29.31,-7.28 -43.09,-10.58 -14.29,-3.43 -29.84,-5.62 -45.88,-5.39"
           id="path31" />
        <path
           class="stl11"
           d="m 126.97,65.29 c 0,-5.39 4.83,-9.75 12.44,-9.75 6.13,0 14.9,0.14 20.42,0.39 17.56,0.76 34.92,2.2 48.92,5.01 5.45,1.09 10.42,2.32 14.69,3.9 10.9,4.02 20.56,7.36 26.52,10.45 17.63,9.16 23.87,17.98 24.65,18.66 0.04,0.04 0.53,0.34 1.27,0.87 2.68,1.95 8.06,6.54 7.95,11.35 -0.14,0.78 -0.66,35.69 -1.77,37.25 -0.31,5.82 -5.03,10.65 -10.82,11.16 -0.26,0.33 -17.08,-7.95 -41.76,-15.7 -0.45,-0.14 -0.91,-0.29 -1.37,-0.41 -13.73,-3.7 -29.36,-6.64 -42.59,-9.81 -13.72,-3.29 -28.64,-5.4 -44.04,-5.17"
           id="path32" />
        <path
           class="stl22"
           d="m 127.38,64.89 c 0,-5.16 5.12,-9.35 12.42,-9.35 5.87,0 14.82,0.13 20.11,0.38 17.04,0.73 34.33,2.04 48.19,4.8 5.38,1.07 10.28,2.29 14.45,3.88 10.73,4.1 20.39,7.35 26.1,10.33 17.01,8.88 23.26,17.36 24.15,18.13 0.05,0.04 0.53,0.34 1.23,0.86 2.63,1.93 7.81,6.41 7.68,11.13 -0.16,0.89 -0.75,34.55 -2.02,36.32 -0.35,5.66 -4.94,10.38 -10.57,10.95 -0.3,0.38 -17.04,-7.4 -41.32,-14.6 -0.45,-0.13 -0.9,-0.27 -1.36,-0.38 -13.8,-3.42 -29.41,-6 -42.09,-9.04 -13.15,-3.15 -27.45,-5.17 -42.21,-4.96"
           id="path33" />
        <path
           class="stl4"
           d="m 127.78,64.48 c 0,-4.94 5.41,-8.94 12.39,-8.94 5.62,0 14.74,0.13 19.81,0.36 16.52,0.7 33.74,1.88 47.46,4.59 5.32,1.05 10.15,2.26 14.21,3.87 10.57,4.19 20.22,7.35 25.68,10.21 16.4,8.59 22.66,16.74 23.66,17.61 0.05,0.05 0.52,0.34 1.2,0.84 2.57,1.9 7.55,6.27 7.4,10.92 -0.18,1 -0.85,33.4 -2.28,35.4 -0.4,5.49 -4.86,10.1 -10.31,10.75 -0.34,0.43 -17,-6.84 -40.89,-13.5 -0.44,-0.12 -0.89,-0.25 -1.34,-0.36 -13.86,-3.14 -29.46,-5.36 -41.59,-8.27 -12.58,-3.02 -26.26,-4.95 -40.37,-4.74"
           id="path34" />
        <path
           class="stl14"
           d="m 128.19,64.07 c 0,-4.71 5.71,-8.54 12.37,-8.54 5.36,0 14.67,0.12 19.5,0.34 16,0.67 33.15,1.72 46.73,4.38 5.26,1.04 10.02,2.22 13.98,3.85 10.4,4.28 20.05,7.35 25.25,10.08 15.79,8.31 22.05,16.12 23.16,17.09 0.06,0.05 0.51,0.34 1.17,0.83 2.51,1.87 7.3,6.13 7.13,10.7 -0.2,1.11 -0.94,32.26 -2.53,34.48 -0.44,5.33 -4.77,9.82 -10.06,10.54 -0.38,0.47 -16.96,-6.29 -40.45,-12.41 -0.44,-0.11 -0.88,-0.23 -1.33,-0.33 -13.93,-2.85 -29.51,-4.72 -41.08,-7.5 -12.01,-2.88 -25.06,-4.72 -38.54,-4.53"
           id="path35" />
        <path
           class="stl16"
           d="m 128.6,63.67 c 0,-4.49 6,-8.13 12.35,-8.13 5.11,0 14.59,0.11 19.19,0.33 15.48,0.64 32.56,1.56 46.01,4.18 5.19,1.02 9.89,2.19 13.74,3.83 10.23,4.37 19.88,7.34 24.83,9.96 15.18,8.02 21.44,15.5 22.67,16.57 0.06,0.06 0.51,0.34 1.14,0.81 2.46,1.84 7.04,6 6.86,10.48 -0.22,1.22 -1.04,31.12 -2.78,33.56 -0.48,5.17 -4.68,9.54 -9.8,10.34 -0.41,0.52 -16.92,-5.73 -40.02,-11.31 -0.43,-0.1 -0.87,-0.21 -1.31,-0.3 -14.01,-2.56 -29.56,-4.08 -40.58,-6.72 -11.02,-2.64 -23.87,-4.5 -36.7,-4.31"
           id="path36" />
        <path
           class="stl25"
           d="m 129,63.26 c 0,-4.27 6.3,-7.72 12.33,-7.72 4.85,0 14.51,0.11 18.89,0.31 14.96,0.6 31.97,1.39 45.28,3.97 5.13,1 9.76,2.16 13.5,3.82 10.07,4.46 19.71,7.34 24.41,9.83 14.57,7.74 20.84,14.88 22.17,16.04 0.07,0.06 0.5,0.33 1.11,0.79 2.4,1.82 6.78,5.86 6.59,10.26 -0.24,1.33 -1.13,29.97 -3.04,32.64 -0.53,5 -4.59,9.26 -9.55,10.13 -0.45,0.57 -16.88,-5.17 -39.58,-10.21 -0.43,-0.1 -0.86,-0.2 -1.3,-0.27 -14.08,-2.26 -29.61,-3.44 -40.08,-5.95 -10.86,-2.6 -22.68,-4.27 -34.87,-4.1"
           id="path37" />
        <path
           class="stl19"
           d="m 129.41,62.85 c 0,-4.04 6.59,-7.32 12.3,-7.32 4.6,0 14.44,0.1 18.58,0.3 14.44,0.57 31.38,1.23 44.55,3.76 5.07,0.98 9.63,2.13 13.26,3.8 9.9,4.55 19.54,7.34 23.99,9.71 13.96,7.45 20.23,14.26 21.68,15.52 0.08,0.07 0.49,0.33 1.08,0.78 2.35,1.79 6.53,5.73 6.31,10.04 -0.26,1.44 -1.23,28.83 -3.29,31.72 -0.57,4.84 -4.51,8.99 -9.3,9.93 -0.49,0.61 -16.85,-4.61 -39.15,-9.11 -0.43,-0.09 -0.85,-0.18 -1.28,-0.24 -14.16,-1.96 -29.65,-2.8 -39.58,-5.18 -9.93,-2.38 -21.48,-4.05 -33.03,-3.88"
           id="path38" />
        <path
           class="stl32"
           d="m 129.81,62.45 c 0,-3.82 6.89,-6.91 12.28,-6.91 4.34,0 14.36,0.1 18.27,0.28 13.92,0.54 30.8,1.07 43.82,3.55 5,0.96 9.49,2.1 13.02,3.78 9.73,4.65 19.37,7.33 23.56,9.59 13.35,7.17 19.62,13.65 21.18,15 0.08,0.07 0.49,0.33 1.05,0.76 2.29,1.76 6.27,5.59 6.04,9.83 -0.28,1.55 -1.32,27.69 -3.54,30.79 -0.62,4.68 -4.42,8.71 -9.04,9.72 -0.53,0.66 -16.81,-4.04 -38.71,-8.01 -0.42,-0.08 -0.84,-0.16 -1.27,-0.21 -14.23,-1.66 -29.7,-2.16 -39.08,-4.41 -9.72,-2.33 -20.29,-3.82 -31.2,-3.66"
           id="path39" />
        <path
           class="stl13"
           d="m 130.22,62.04 c 0,-3.59 7.18,-6.5 12.26,-6.5 4.09,0 14.29,0.09 17.97,0.26 13.4,0.51 30.21,0.91 43.1,3.34 4.94,0.94 9.36,2.07 12.78,3.76 9.57,4.75 19.2,7.33 23.14,9.46 12.73,6.88 19.02,13.03 20.69,14.47 0.09,0.08 0.48,0.33 1.02,0.75 2.23,1.74 6.02,5.45 5.77,9.61 -0.3,1.66 -1.41,26.54 -3.8,29.87 -0.66,4.52 -4.33,8.43 -8.79,9.52 -0.56,0.71 -16.78,-3.47 -38.28,-6.92 -0.42,-0.07 -0.83,-0.14 -1.25,-0.18 -14.31,-1.35 -29.75,-1.52 -38.57,-3.64 -9.15,-2.19 -19.1,-3.6 -29.36,-3.45"
           id="path40" />
        <path
           class="stl30"
           d="m 130.63,61.63 c 0,-3.37 7.48,-6.1 12.23,-6.1 3.83,0 14.21,0.09 17.66,0.25 12.88,0.48 29.62,0.75 42.37,3.14 4.88,0.92 9.23,2.04 12.54,3.75 9.4,4.85 19.03,7.33 22.72,9.34 12.12,6.6 18.41,12.41 20.19,13.95 0.09,0.08 0.47,0.33 0.98,0.73 2.18,1.71 5.76,5.32 5.5,9.39 -0.32,1.77 -1.51,25.4 -4.05,28.95 -0.71,4.35 -4.24,8.15 -8.53,9.31 -0.6,0.76 -16.75,-2.9 -37.84,-5.82 -0.41,-0.06 -0.82,-0.12 -1.24,-0.15 -14.39,-1.03 -29.8,-0.89 -38.07,-2.87 -8.27,-1.98 -17.9,-3.37 -27.53,-3.23"
           id="path41" />
        <path
           class="stl18"
           d="m 131.03,61.23 c 0,-3.14 7.77,-5.69 12.21,-5.69 3.57,0 14.13,0.08 17.35,0.23 12.36,0.44 29.03,0.59 41.64,2.93 4.81,0.9 9.1,2.01 12.3,3.73 9.23,4.95 18.86,7.33 22.29,9.21 11.51,6.32 17.81,11.79 19.7,13.43 0.1,0.09 0.46,0.33 0.95,0.72 2.12,1.68 5.51,5.18 5.22,9.17 -0.34,1.88 -1.6,24.25 -4.3,28.03 -0.75,4.19 -4.16,7.87 -8.28,9.1 -0.64,0.8 -16.72,-2.33 -37.41,-4.72 -0.41,-0.05 -0.81,-0.1 -1.23,-0.12 -14.48,-0.71 -29.85,-0.25 -37.57,-2.1 -7.72,-1.85 -16.71,-3.15 -25.69,-3.02"
           id="path42" />
        <path
           class="stl2"
           d="m 131.44,60.82 c 0,-2.92 8.06,-5.28 12.19,-5.28 3.32,0 14.06,0.07 17.05,0.21 11.84,0.41 28.44,0.42 40.91,2.72 4.75,0.88 8.96,1.98 12.06,3.71 9.06,5.05 18.69,7.33 21.87,9.09 10.9,6.03 17.2,11.17 19.2,12.9 0.11,0.09 0.46,0.33 0.92,0.7 2.06,1.66 5.25,5.04 4.95,8.95 -0.36,2 -1.7,23.11 -4.55,27.11 -0.79,4.03 -4.07,7.59 -8.03,8.9 -0.68,0.85 -16.69,-1.75 -36.97,-3.62 -0.4,-0.04 -0.8,-0.08 -1.21,-0.09 -14.56,-0.38 -29.9,0.39 -37.07,-1.32 -7.43,-1.78 -15.52,-2.92 -23.86,-2.8"
           id="path43" />
        <path
           class="stl20"
           d="m 131.85,60.41 c 0,-2.69 8.36,-4.88 12.17,-4.88 3.06,0 13.98,0.07 16.74,0.2 11.33,0.38 27.85,0.26 40.19,2.51 4.69,0.86 8.83,1.96 11.82,3.69 8.89,5.16 18.51,7.33 21.45,8.97 10.29,5.75 16.59,10.55 18.71,12.38 0.11,0.1 0.45,0.33 0.89,0.68 2.01,1.63 4.99,4.91 4.68,8.74 -0.38,2.11 -1.79,21.97 -4.81,26.18 -0.84,3.86 -3.98,7.32 -7.77,8.69 -0.72,0.9 -16.66,-1.16 -36.53,-2.53 -0.4,-0.03 -0.8,-0.06 -1.2,-0.06 -14.64,-0.04 -29.95,1.03 -36.56,-0.55 -6.61,-1.58 -14.32,-2.7 -22.02,-2.59"
           id="path44" />
        <path
           class="stl17"
           d="m 132.25,60.01 c 0,-2.47 8.65,-4.47 12.14,-4.47 2.81,0 13.9,0.06 16.44,0.18 10.81,0.35 27.26,0.1 39.46,2.3 4.62,0.84 8.7,1.93 11.59,3.68 8.72,5.26 18.34,7.33 21.02,8.84 9.69,5.46 15.99,9.93 18.21,11.86 0.12,0.1 0.44,0.32 0.86,0.67 1.95,1.61 4.74,4.77 4.41,8.52 -0.4,2.22 -1.89,20.82 -5.06,25.26 -0.88,3.7 -3.89,7.04 -7.52,8.49 -0.75,0.95 -16.63,-0.57 -36.1,-1.43 -0.39,-0.02 -0.79,-0.04 -1.18,-0.03 -14.72,0.3 -30,1.67 -36.06,0.22 -6.06,-1.45 -13.13,-2.47 -20.19,-2.37"
           id="path45" />
        <path
           class="stl10"
           d="m 132.66,59.6 c 0,-2.24 8.95,-4.06 12.12,-4.06 2.55,0 13.83,0.06 16.13,0.16 10.29,0.32 26.67,-0.06 38.73,2.09 4.56,0.82 8.56,1.91 11.35,3.66 8.54,5.38 18.17,7.33 20.6,8.72 9.08,5.18 15.38,9.31 17.72,11.33 0.12,0.11 0.43,0.32 0.83,0.65 1.89,1.58 4.48,4.64 4.14,8.3 -0.42,2.33 -1.98,19.68 -5.31,24.34 -0.93,3.54 -3.81,6.76 -7.26,8.28 -0.79,0.99 -16.6,0.02 -35.66,-0.33 -0.39,0 -0.78,-0.01 -1.17,0 -14.8,0.65 -30.05,2.31 -35.56,0.99 -5.51,-1.32 -11.93,-2.25 -18.35,-2.16"
           id="path46" />
        <path
           class="stl26"
           d="m 133.07,59.2 c 0,-2.02 9.24,-3.66 12.1,-3.66 2.3,0 13.75,0.05 15.82,0.15 9.77,0.29 26.09,-0.22 38,1.89 4.5,0.8 8.43,1.88 11.11,3.64 8.37,5.49 18,7.33 20.18,8.59 8.47,4.9 14.78,8.69 17.22,10.81 0.13,0.11 0.43,0.32 0.8,0.64 1.83,1.56 4.23,4.5 3.86,8.08 -0.44,2.44 -2.07,18.54 -5.57,23.42 -0.97,3.38 -3.72,6.48 -7.01,8.08 -0.83,1.04 -16.58,0.61 -35.23,0.77 -0.38,0 -0.77,0 -1.15,0.03 -14.87,1 -30.1,2.95 -35.06,1.76 -4.96,-1.19 -10.74,-2.02 -16.52,-1.94"
           id="path47" />
        <path
           class="stl21"
           d="m 133.47,58.79 c 0,-1.8 9.54,-3.25 12.07,-3.25 2.04,0 13.67,0.05 15.52,0.13 9.25,0.25 25.5,-0.39 37.28,1.68 4.43,0.78 8.29,1.86 10.87,3.63 8.19,5.61 17.82,7.34 19.75,8.47 7.86,4.62 14.17,8.07 16.73,10.29 0.13,0.12 0.42,0.32 0.76,0.62 1.77,1.53 3.97,4.36 3.59,7.87 -0.46,2.55 -2.17,17.39 -5.82,22.5 -1.01,3.21 -3.63,6.2 -6.76,7.87 -0.87,1.09 -16.55,1.22 -34.79,1.87 -0.38,0.01 -0.76,0.03 -1.14,0.06 -14.95,1.37 -30.15,3.59 -34.56,2.53 -4.41,-1.06 -9.55,-1.8 -14.68,-1.72"
           id="path48" />
        <path
           class="stl28"
           d="m 133.88,58.38 c 0,-1.57 9.83,-2.85 12.05,-2.85 1.79,0 13.6,0.04 15.21,0.11 8.73,0.22 24.91,-0.55 36.55,1.47 4.37,0.76 8.15,1.84 10.63,3.61 8.01,5.72 17.65,7.34 19.33,8.35 7.26,4.34 13.56,7.45 16.24,9.77 0.14,0.12 0.41,0.32 0.73,0.61 1.72,1.51 3.71,4.23 3.32,7.65 -0.48,2.66 -2.26,16.25 -6.07,21.57 -1.06,3.05 -3.55,5.93 -6.5,7.66 -0.9,1.13 -16.52,1.82 -34.36,2.96 -0.37,0.02 -0.75,0.05 -1.12,0.09 -15.02,1.74 -30.19,4.23 -34.05,3.3 -3.86,-0.93 -8.35,-1.57 -12.85,-1.51"
           id="path49" />
        <path
           class="stl29"
           d="m 134.29,57.98 c 0,-1.35 10.13,-2.44 12.03,-2.44 1.53,0 13.52,0.03 14.9,0.1 8.21,0.19 24.32,-0.71 35.82,1.26 4.3,0.74 8.02,1.82 10.39,3.59 7.83,5.85 17.47,7.35 18.91,8.22 6.65,4.06 12.96,6.83 15.74,9.24 0.15,0.13 0.4,0.32 0.7,0.59 1.66,1.48 3.46,4.09 3.05,7.43 -0.5,2.77 -2.36,15.1 -6.33,20.65 -1.1,2.89 -3.46,5.65 -6.25,7.46 -0.94,1.18 -16.48,2.43 -33.92,4.06 -0.37,0.03 -0.74,0.07 -1.11,0.12 -15.09,2.12 -30.24,4.87 -33.55,4.07 -3.31,-0.8 -7.16,-1.35 -11.01,-1.29"
           id="path50" />
        <path
           class="stl6"
           d="m 134.69,57.57 c 0,-1.12 10.42,-2.03 12.01,-2.03 1.28,0 13.45,0.03 14.6,0.08 7.69,0.16 23.73,-0.87 35.09,1.05 4.24,0.72 7.88,1.8 10.15,3.57 7.64,5.97 17.3,7.36 18.49,8.1 6.05,3.78 12.35,6.21 15.25,8.72 0.15,0.13 0.39,0.32 0.67,0.57 1.6,1.46 3.2,3.96 2.77,7.21 -0.52,2.88 -2.45,13.96 -6.58,19.73 -1.15,2.72 -3.37,5.37 -5.99,7.25 -0.98,1.23 -16.45,3.05 -33.49,5.16 -0.36,0.05 -0.73,0.09 -1.09,0.15 -15.16,2.5 -30.29,5.51 -33.05,4.85 -2.76,-0.66 -5.97,-1.12 -9.18,-1.08"
           id="path51" />
        <path
           class="stl23"
           d="m 135.1,57.16 c 0,-0.9 10.71,-1.63 11.98,-1.63 1.02,0 13.37,0.02 14.29,0.07 7.17,0.13 23.14,-1.03 34.37,0.85 4.18,0.7 7.74,1.78 9.91,3.56 7.45,6.1 17.12,7.37 18.06,7.97 5.45,3.5 11.75,5.59 14.75,8.2 0.16,0.14 0.39,0.32 0.64,0.56 1.54,1.44 2.95,3.82 2.5,6.99 -0.54,2.99 -2.55,12.82 -6.83,18.81 -1.19,2.56 -3.28,5.09 -5.74,7.05 -1.02,1.28 -16.41,3.67 -33.05,6.26 -0.36,0.06 -0.72,0.11 -1.08,0.18 -15.22,2.89 -30.34,6.15 -32.55,5.62 -2.21,-0.53 -4.77,-0.9 -7.34,-0.86"
           id="path52" />
        <path
           class="stl8"
           d="m 135.5,56.76 c 0,-0.67 11.01,-1.22 11.96,-1.22 0.77,0 13.29,0.02 13.98,0.05 6.65,0.1 22.55,-1.19 33.64,0.64 4.11,0.68 7.6,1.76 9.67,3.54 7.26,6.23 16.94,7.39 17.64,7.85 4.86,3.22 11.14,4.97 14.26,7.67 0.16,0.14 0.38,0.32 0.61,0.54 1.47,1.42 2.69,3.68 2.23,6.78 -0.56,3.1 -2.64,11.67 -7.09,17.89 -1.23,2.4 -3.2,4.81 -5.49,6.84 -1.05,1.32 -16.37,4.3 -32.62,7.36 -0.35,0.07 -0.71,0.13 -1.06,0.21 -15.28,3.3 -30.39,6.78 -32.04,6.39 -1.65,-0.39 -3.58,-0.67 -5.51,-0.65"
           id="path53" />
        <path
           class="stl24"
           d="m 135.91,56.35 c 0,-0.45 11.3,-0.81 11.94,-0.81 0.51,0 13.22,0.01 13.68,0.03 6.13,0.06 21.96,-1.36 32.91,0.43 4.05,0.66 7.46,1.74 9.43,3.52 7.06,6.37 16.76,7.41 17.22,7.73 4.26,2.95 10.53,4.35 13.76,7.15 0.17,0.15 0.37,0.32 0.58,0.53 1.41,1.4 2.44,3.55 1.96,6.56 -0.58,3.21 -2.74,10.53 -7.34,16.97 -1.28,2.24 -3.11,4.54 -5.23,6.64 -1.09,1.37 -16.33,4.93 -32.18,8.45 -0.35,0.08 -0.7,0.16 -1.05,0.24 -15.33,3.7 -30.44,7.42 -31.54,7.16 -1.1,-0.26 -2.39,-0.45 -3.67,-0.43"
           id="path54" />
        <path
           class="stl12"
           d="m 136.32,55.94 c 0,-0.22 11.6,-0.41 11.91,-0.41 0.26,0 13.14,0 13.37,0.02 5.61,0.03 21.38,-1.52 32.18,0.22 3.99,0.64 7.31,1.72 9.19,3.5 6.85,6.5 16.57,7.44 16.79,7.6 3.68,2.68 9.93,3.73 13.27,6.63 0.18,0.15 0.36,0.32 0.55,0.51 1.35,1.38 2.18,3.41 1.68,6.34 -0.6,3.33 -2.83,9.38 -7.59,16.04 -1.32,2.07 -3.02,4.26 -4.98,6.43 -1.13,1.42 -16.28,5.56 -31.75,9.55 -0.34,0.09 -0.69,0.18 -1.03,0.27 -15.38,4.12 -30.49,8.06 -31.04,7.93 -0.55,-0.13 -1.19,-0.22 -1.84,-0.22"
           id="path55" />
        <path
           class="stl27"
           d="m 136.72,55.54 h 24.95 c 6.96,0 33.77,-3.14 40.41,3.5 6.64,6.64 16.37,7.48 16.37,7.48 2.72,3.12 10.04,3.12 13.29,6.6 3.25,3.48 2.42,10.44 -11.16,27.47 -1.19,1.5 -16.91,6.41 -32.33,10.95 -15.42,4.54 -30.54,8.7 -30.54,8.7"
           id="path56" />
      </g>
      <path
         class="stl44"
         d="m 222.8,100.38 c -19.58,25.25 -101.23,23.36 -101.23,23.36 h -3.73 c -6.96,0 -12.6,-5.64 -12.6,-12.6 v -43.7 c 0,-6.96 5.64,-12.6 12.6,-12.6 h 60.83 c 0,0 93.34,3.12 105.66,-11.65 z"
         id="path57" />
      <path
         class="stl39"
         d="m 223.12,100.03 c -19.81,25.66 -102.37,23.75 -102.37,23.75 h -3.77 c -7.04,0 -12.74,-5.73 -12.74,-12.81 V 66.55 c 0,-7.07 5.71,-12.81 12.74,-12.81 h 61.52 c 0,0 94.39,3.17 106.85,-11.85 z"
         id="path58"
         style="fill:url(#linear-gradient1)" />
      <path
         class="stl43"
         d="m 222.8,99.54 c 19.58,-25.25 -4.51,-64.13 -4.51,-64.13 -2.82,-6.36 0.05,-13.81 6.42,-16.62 L 264.66,1.08 c 6.36,-2.82 13.81,0.05 16.62,6.42 0,0 15.37,20.07 3.05,34.84 L 222.8,99.53 Z"
         id="path59" />
      <path
         class="stl33"
         d="m 222.8,99.96 c 19.58,-25.25 -4.51,-64.13 -4.51,-64.13 -2.82,-6.36 0.05,-13.81 6.42,-16.62 L 264.66,1.5 c 6.36,-2.82 13.81,0.05 16.62,6.42 0,0 15.37,20.07 3.05,34.84 L 222.8,99.95 Z"
         id="path60"
         style="fill:url(#linear-gradient2)" />
      <g
         id="g62">
        <path
           class="stl40"
           d="m 105.71,115.33 c 17.28,0 31.29,-14.01 31.29,-31.28 0,-17.27 -14.01,-31.29 -31.29,-31.29 -17.28,0 -31.28,14.01 -31.28,31.29 0,17.28 14.01,31.28 31.28,31.28 z"
           id="path61" />
        <path
           class="stl40"
           d="M 105.71,84.04"
           id="path62" />
      </g>
      <line
         class="stl36"
         x1="105.71"
         y1="117.48"
         x2="105.71"
         y2="134.46001"
         id="line62" />
      <line
         class="stl36"
         x1="105.71"
         y1="33.25"
         x2="105.71"
         y2="50.23"
         id="line63" />
      <path
         class="stl34"
         d="M 105.71,118 V 51.12 m 12.87,32.92 H 92.91"
         id="path63" />
      <path
         class="stl37"
         d="m 12.16,89.22 -0.89,3.15 c -0.25,0.97 -0.64,2.36 -0.64,3.38 0,1.3 0.68,1.99 1.35,2.59 v 0.09 H 4.57 v -0.09 c 1.35,-1.53 1.92,-2.96 2.56,-5.32 l 5.06,-18.47 c 0.28,-0.93 0.82,-2.73 0.82,-3.7 0.04,-1.25 -0.68,-2.13 -1.39,-2.73 v -0.05 h 8.72 l 6.55,23.8 c 0.75,2.87 1.32,4.49 3.1,6.48 v 0.09 H 19.13 v -0.09 c 0.82,-0.65 1.53,-1.34 1.57,-2.82 0,-0.79 -0.11,-1.11 -0.28,-1.81 l -1.14,-4.49 h -7.12 z m 1.07,-4.21 h 4.95 l -2.46,-9.35 z"
         id="path64" />
      <path
         class="stl37"
         d="m 52.39,99.41 c -1.32,-0.05 -3.2,-1.07 -4.31,-1.9 -2.28,-1.62 -3.1,-3.01 -4.95,-6.2 L 36.19,79.32 h -0.07 v 12.41 c 0,2.68 0.11,4.72 1.67,6.62 v 0.09 h -6.98 v -0.09 c 1.57,-1.85 1.67,-3.94 1.67,-6.62 V 74.88 c 0,-3.56 -0.57,-4.95 -2.14,-6.71 v -0.09 h 7.37 L 48.75,86.92 V 74.79 c 0,-2.69 -0.07,-4.77 -1.64,-6.67 v -0.05 h 6.91 v 0.05 c -1.53,1.9 -1.64,3.98 -1.64,6.67 v 24.63 z"
         id="path65" />
      <path
         class="stl37"
         d="m 61.21,89.22 -0.89,3.15 c -0.25,0.97 -0.64,2.36 -0.64,3.38 0,1.3 0.68,1.99 1.35,2.59 v 0.09 h -7.41 v -0.09 c 1.35,-1.53 1.92,-2.96 2.56,-5.32 l 5.06,-18.47 c 0.28,-0.93 0.82,-2.73 0.82,-3.7 0.04,-1.25 -0.68,-2.13 -1.39,-2.73 v -0.05 h 8.72 l 6.55,23.8 c 0.75,2.87 1.32,4.49 3.1,6.48 v 0.09 H 68.18 v -0.09 c 0.82,-0.65 1.53,-1.34 1.57,-2.82 0,-0.79 -0.11,-1.11 -0.28,-1.81 l -1.14,-4.49 h -7.12 z m 1.07,-4.21 h 4.95 l -2.46,-9.35 z"
         id="path66" />
      <path
         class="stl37"
         d="m 90.72,91.77 c 0,2.64 0.11,4.72 1.67,6.57 v 0.09 H 82.6 v -0.09 c 1.75,-1.43 1.6,-4.07 1.6,-6.48 V 73.34 c -0.68,-0.28 -1.42,-0.37 -2.07,-0.37 -1.71,0 -3.35,1.11 -4.27,1.99 l 1.5,-7.22 c 0,0 0.61,0.33 1.1,0.33 h 15.17 c 0.68,0 1.43,-0.33 1.43,-0.33 l -1.35,7.13 c -0.53,-1.53 -1.64,-1.94 -2.88,-1.94 -0.64,0 -1.42,0.09 -2.1,0.37 v 18.47 z"
         id="path67" />
      <g
         id="g69">
        <path
           class="stl35"
           d="M 105.71,84.04"
           id="path68" />
        <path
           class="stl35"
           d="m 105.71,96.85 c 7.07,0 12.81,-5.73 12.81,-12.8 0,-7.07 -5.73,-12.81 -12.81,-12.81 -7.08,0 -12.8,5.73 -12.8,12.81 0,7.08 5.73,12.8 12.8,12.8 z"
           id="path69" />
      </g>
      <path
         class="stl37"
         d="m 123.67,92.37 c -0.21,0.97 -0.61,2.36 -0.61,3.38 0,1.3 0.68,1.99 1.35,2.59 v 0.09 H 117 v -0.09 c 1.39,-1.43 1.96,-2.92 2.53,-5.32 l 4.56,-18.47 c 0.25,-0.93 0.78,-2.73 0.78,-3.7 0,-1.25 -0.71,-2.13 -1.42,-2.73 v -0.05 h 8.72 l 6.37,23.8 c 0.78,2.87 1.35,4.58 3.17,6.48 v 0.09 h -10.86 v -0.09 c 0.82,-0.65 1.53,-1.34 1.53,-2.82 0,-0.79 -0.11,-1.11 -0.28,-1.81 l -4.49,-18.06 -3.95,16.71 z"
         id="path70" />
      <path
         class="stl37"
         d="m 150.61,91.91 c 0,2.41 -0.18,5 1.6,6.43 v 0.09 h -9.68 v -0.09 c 1.74,-1.43 1.57,-4.03 1.57,-6.43 V 74.64 c 0,-2.41 0.21,-5.05 -1.57,-6.53 v -0.05 h 9.65 v 0.05 c -1.74,1.43 -1.57,4.12 -1.57,6.53 z"
         id="path71" />
      <path
         class="stl37"
         d="m 175.16,94.55 c 0.68,1.34 1.71,2.73 2.63,3.56 v 0.05 l -4.41,0.46 c -3.85,0.37 -4.7,-1.2 -6.09,-4.31 L 162.45,83.8 v 8.06 c 0,2.41 -0.21,5.05 1.57,6.48 v 0.09 h -9.65 v -0.09 c 1.74,-1.43 1.57,-4.07 1.57,-6.48 V 74.64 c 0,-2.45 0.18,-5.05 -1.57,-6.53 v -0.05 h 9.65 v 0.05 c -1.74,1.43 -1.57,4.12 -1.57,6.53 v 7.18 l 4.52,-7.45 c 0.57,-0.97 1.64,-2.36 1.64,-3.7 0,-1.2 -0.82,-2.04 -1.49,-2.55 v -0.05 h 8.72 v 0.05 l -7.91,12.27 7.23,14.17 z"
         id="path72" />
      <path
         class="stl37"
         d="m 185.15,91.86 c 0,2.41 -0.18,5.05 1.6,6.53 v 0.05 h -9.68 v -0.09 c 1.75,-1.43 1.57,-4.07 1.57,-6.48 V 74.65 c 0,-2.41 0.21,-5.05 -1.57,-6.53 v -0.05 h 9.65 v 0.05 c -1.78,1.43 -1.57,4.12 -1.57,6.53 v 5.32 h 6.45 v -5.32 c 0,-2.41 0.21,-5.05 -1.57,-6.53 v -0.05 h 9.65 v 0.05 c -1.74,1.43 -1.57,4.12 -1.57,6.53 v 17.22 c 0,2.41 -0.18,5.05 1.6,6.53 v 0.05 h -9.68 v -0.09 c 1.74,-1.43 1.57,-4.07 1.57,-6.48 v -7.32 h -6.45 v 7.32 z"
         id="path73" />
      <path
         class="stl37"
         d="m 101.99,117.84 2.51,7.12 h -2.28 l -0.26,-0.94 h -2.28 l -0.27,0.94 h -2.24 l 2.5,-7.12 z m -1.16,2.22 -0.72,2.47 h 1.45 l -0.72,-2.47 z"
         id="path74" />
      <path
         class="stl37"
         d="m 114.11,117.84 v 1.69 h -3.4 v 0.96 h 2.87 v 1.63 h -2.87 v 1.11 h 3.55 v 1.73 h -5.83 v -7.12 h 5.69 z"
         id="path75" />
      <g
         id="g77">
        <path
           class="stl38"
           d="m 279.29,89.08 c 0,0.91 -0.1,1.78 -0.29,2.59 -1.15,4.8 -4.25,8.69 -9.29,11.66 -2.88,1.68 -5.98,2.86 -9.29,3.53 -0.19,0 -2.5,0.7 -6.91,2.09 -0.1,0.05 -0.19,0.07 -0.29,0.07 -0.1,0 -0.17,0.02 -0.22,0.07 -0.1,-0.05 -0.17,-0.07 -0.22,-0.07 -0.1,0 -0.19,-0.03 -0.29,-0.07 0,-0.05 0.07,-0.12 0.22,-0.22 1.87,-1.3 5.83,-3.46 11.88,-6.48 2.26,-1.1 4.32,-2.78 6.19,-5.04 2.3,-2.59 3.46,-5.01 3.46,-7.27 0,-0.24 -0.01,-0.44 -0.04,-0.61 -0.02,-0.17 -0.06,-0.35 -0.11,-0.54 -0.14,-0.91 -0.72,-2.02 -1.73,-3.31 -1.2,-1.49 -2.38,-2.23 -3.53,-2.23 -0.43,0 -0.84,0.1 -1.22,0.29 l -0.36,0.22 c -0.48,0.29 -0.91,0.43 -1.3,0.43 -0.62,0 -0.98,-0.41 -1.08,-1.22 -0.14,-0.96 0.41,-2.42 1.66,-4.39 0.05,-0.1 0.07,-0.22 0.07,-0.36 0,-0.33 0.33,-0.5 1.01,-0.5 0.38,0 0.58,0.19 0.58,0.58 v 0.07 c 0.53,-0.24 1.15,-0.64 1.87,-1.19 0.72,-0.55 1.51,-1.24 2.38,-2.05 2.02,-1.92 2.9,-3.38 2.66,-4.39 -0.05,-0.29 -0.62,-0.62 -1.73,-1.01 -1.06,-0.29 -2.3,-0.43 -3.74,-0.43 -0.38,0 -0.76,0.01 -1.12,0.04 -0.36,0.02 -0.73,0.06 -1.12,0.11 -1.63,0.24 -2.79,0.79 -3.46,1.66 -0.62,0.86 -1.25,1.3 -1.87,1.3 -0.43,0 -0.89,-0.19 -1.37,-0.58 -0.38,-0.33 -0.58,-0.72 -0.58,-1.15 0.1,-1.78 0.96,-3.1 2.59,-3.96 1.39,-0.72 3.17,-1.08 5.33,-1.08 0.91,0 1.82,0.07 2.74,0.22 1.82,0.29 3.48,0.96 4.97,2.02 1.68,1.2 2.57,2.59 2.66,4.18 0.1,2.45 -1.83,5.3 -5.76,8.57 1.87,0.58 3.41,1.54 4.61,2.88 1.34,1.54 2.02,3.41 2.02,5.62 z"
           id="path76" />
        <path
           class="stl38"
           d="m 300.31,79.87 c 0,0.77 -0.01,1.52 -0.04,2.27 -0.02,0.75 -0.06,1.45 -0.11,2.12 -0.58,5.95 -2.42,10.87 -5.54,14.76 -2.64,3.41 -5.26,5.11 -7.85,5.11 -2.45,0 -4.2,-1.46 -5.26,-4.39 -0.82,-2.11 -1.22,-4.99 -1.22,-8.64 v -1.87 c 0,-0.62 0.05,-1.22 0.14,-1.8 0.29,-3.07 1.25,-6.34 2.88,-9.79 1.39,-2.98 2.54,-4.92 3.46,-5.83 0.05,-0.24 0.19,-0.48 0.43,-0.72 0.14,-0.1 0.29,-0.22 0.43,-0.36 0.29,-0.67 0.7,-1.01 1.22,-1.01 0.58,0 0.89,0.17 0.94,0.5 0.24,-0.43 0.47,-0.83 0.68,-1.19 0.22,-0.36 0.4,-0.66 0.54,-0.9 0.29,-0.58 0.82,-1.1 1.58,-1.58 0.72,-0.53 1.54,-0.79 2.45,-0.79 1.44,0 2.54,0.82 3.31,2.45 1.3,2.5 1.94,6.38 1.94,11.66 z m -4.68,1.08 c 0,-1.54 -0.06,-2.98 -0.18,-4.32 -0.12,-1.34 -0.3,-2.64 -0.54,-3.89 -0.48,-2.45 -1.05,-3.62 -1.72,-3.53 -0.91,-0.1 -2.1,0.86 -3.58,2.88 -1.48,1.92 -2.67,4.1 -3.58,6.55 -0.57,1.73 -1,3.65 -1.29,5.76 0,0.1 -0.04,0.54 -0.11,1.33 -0.07,0.79 -0.16,1.96 -0.25,3.49 v 1.73 c 0,1.2 0.04,2.4 0.11,3.6 0.07,1.2 0.2,2.42 0.4,3.67 0.38,2.69 0.79,3.99 1.22,3.89 2.24,0 4.27,-1.85 6.08,-5.54 1.38,-2.88 2.38,-6.22 3,-10.01 0.29,-1.68 0.43,-3.55 0.43,-5.62 z m -6.55,-9.58 c -0.24,0 -0.43,0.1 -0.58,0.29 -0.14,0.34 -0.28,0.66 -0.4,0.97 -0.12,0.31 -0.25,0.61 -0.4,0.9 l 1.37,-2.16 z"
           id="path77" />
      </g>
      <g
         id="g83">
        <path
           class="stl38"
           d="m 296.56,109.87 -3.54,-8.16 h 2.99 l 2.08,5.24 2.2,-5.24 h 2.87 l -3.53,8.33 3.7,8.61 h -3.01 l -2.23,-5.5 -2.32,5.5 h -2.9 l 3.68,-8.79 z"
           id="path78" />
        <path
           class="stl38"
           d="m 305.04,101.71 h 4.72 c 1.38,-0.02 2.47,0.34 3.28,1.05 0.79,0.77 1.19,2.23 1.21,4.37 0.01,1.38 -0.29,2.62 -0.89,3.74 -0.61,1.16 -1.66,1.75 -3.13,1.78 h -2.62 v 6 h -2.55 V 101.7 Z m 2.56,7.88 h 2.18 c 0.56,0 1.02,-0.18 1.36,-0.55 0.35,-0.37 0.53,-0.97 0.54,-1.8 0,-0.81 -0.15,-1.43 -0.46,-1.84 -0.32,-0.41 -0.87,-0.61 -1.64,-0.61 h -1.99 v 4.8 z"
           id="path79" />
        <path
           class="stl38"
           d="m 315.77,110.18 c 0,-2.64 0.5,-4.78 1.5,-6.41 0.96,-1.65 2.36,-2.48 4.18,-2.5 1.85,0.02 3.25,0.85 4.22,2.5 0.96,1.63 1.45,3.77 1.46,6.41 -0.01,2.62 -0.5,4.75 -1.46,6.39 -0.96,1.65 -2.37,2.49 -4.22,2.52 -1.83,-0.03 -3.22,-0.87 -4.18,-2.52 -1,-1.63 -1.5,-3.76 -1.5,-6.39 z m 2.55,0 c 0.01,1.98 0.32,3.45 0.92,4.39 0.57,0.96 1.31,1.44 2.21,1.44 0.9,0 1.66,-0.48 2.23,-1.44 0.58,-0.95 0.88,-2.41 0.89,-4.39 -0.02,-1.98 -0.31,-3.46 -0.89,-4.42 -0.57,-0.95 -1.31,-1.42 -2.23,-1.42 -0.92,0 -1.63,0.47 -2.21,1.42 -0.6,0.96 -0.91,2.43 -0.92,4.42 z"
           id="path80" />
        <path
           class="stl38"
           d="m 329.51,101.71 h 2.64 l 4.89,11.45 h 0.03 v -11.45 h 2.45 v 16.95 h -2.69 L 331.99,107 h -0.03 v 11.66 h -2.45 z"
           id="path81" />
        <path
           class="stl38"
           d="m 342.25,101.71 h 2.56 v 16.95 h -2.56 z"
           id="path82" />
        <path
           class="stl38"
           d="m 350.67,101.71 h 2.79 l 4.23,16.95 h -2.79 l -0.75,-3.46 h -4.23 l -0.77,3.46 h -2.67 l 4.2,-16.95 z m 1.38,3.94 h -0.03 l -1.46,6.62 h 2.95 z"
           id="path83" />
      </g>
      <g
         id="g125">
        <path
           class="stl41"
           d="m 3.15,141.78 h 2.09 l 3.17,12.71 H 6.32 L 5.75,151.9 H 2.58 L 2,154.49 H 0 Z m 1.03,2.96 H 4.16 l -1.1,4.97 h 2.21 l -1.1,-4.97 z"
           id="path84" />
        <path
           class="stl41"
           d="m 9.91,141.78 h 1.98 l 3.67,8.59 h 0.02 v -8.59 h 1.84 v 12.71 H 15.4 l -3.63,-8.75 h -0.02 v 8.75 H 9.91 Z"
           id="path85" />
        <path
           class="stl41"
           d="m 22.05,141.78 h 2.09 l 3.17,12.71 h -2.09 l -0.57,-2.59 h -3.17 l -0.58,2.59 h -2.01 l 3.15,-12.71 z m 1.03,2.96 h -0.02 l -1.1,4.97 h 2.21 l -1.1,-4.97 z"
           id="path86" />
        <path
           class="stl41"
           d="m 28.66,141.78 h 7.11 v 12.71 h -1.92 v -10.41 h -3.27 v 10.41 h -1.91 v -12.71 z"
           id="path87" />
        <path
           class="stl41"
           d="m 39.66,144.09 h -2.65 v -2.3 h 7.2 v 2.3 h -2.65 v 10.41 h -1.91 v -10.41 z"
           id="path88" />
        <path
           class="stl41"
           d="m 47.77,150.35 -3.06,-8.57 h 2.2 l 1.84,5.51 1.78,-5.51 h 2.1 l -2.95,8.57 v 4.14 h -1.91 z"
           id="path89" />
        <path
           class="stl41"
           d="m 53.38,152.19 h 6.69 v 2.3 h -6.69 z m 0.07,-10.41 h 6.54 v 2.3 h -6.54 z m 0.48,5.07 h 5.58 v 2.3 h -5.58 z"
           id="path90" />
        <path
           class="stl41"
           d="m 61.47,141.78 h 1.92 v 12.71 h -1.92 z"
           id="path91" />
        <path
           class="stl41"
           d="m 67.79,141.78 h 2.09 l 3.17,12.71 h -2.09 l -0.57,-2.59 h -3.17 l -0.58,2.59 h -2.01 l 3.15,-12.71 z m 1.03,2.96 H 68.8 l -1.1,4.97 h 2.21 l -1.1,-4.97 z"
           id="path92" />
        <path
           class="stl41"
           d="m 74.39,141.78 h 1.91 v 5.17 l 3.41,-5.17 h 2.31 l -3.44,5.2 3.6,7.51 H 79.8 l -2.65,-5.53 -0.85,1.3 v 4.23 h -1.91 z"
           id="path93" />
        <path
           class="stl41"
           d="m 83.14,148.14 c 0,-1.98 0.38,-3.58 1.13,-4.81 0.72,-1.24 1.77,-1.86 3.14,-1.87 1.39,0.01 2.44,0.64 3.16,1.87 0.72,1.22 1.09,2.83 1.09,4.81 0,1.97 -0.37,3.57 -1.09,4.79 -0.72,1.24 -1.78,1.87 -3.16,1.89 -1.37,-0.02 -2.42,-0.65 -3.14,-1.89 -0.75,-1.22 -1.13,-2.82 -1.13,-4.79 z m 1.92,0 c 0,1.49 0.24,2.59 0.69,3.3 0.43,0.72 0.98,1.08 1.65,1.08 0.67,0 1.25,-0.36 1.67,-1.08 0.44,-0.71 0.66,-1.81 0.67,-3.3 -0.01,-1.49 -0.24,-2.59 -0.67,-3.31 -0.43,-0.71 -0.98,-1.06 -1.67,-1.06 -0.69,0 -1.22,0.35 -1.65,1.06 -0.45,0.72 -0.68,1.83 -0.69,3.31 z"
           id="path94" />
        <path
           class="stl41"
           d="m 92.59,152.52 3.2,-4.61 -3.02,-4.14 v -1.98 h 6.5 v 2.3 H 95.3 l 2.8,4 -2.91,4.1 h 4.2 v 2.3 H 92.6 v -1.98 z"
           id="path95" />
        <path
           class="stl41"
           d="m 104.13,148.14 c 0,-1.98 0.38,-3.58 1.13,-4.81 0.72,-1.24 1.77,-1.86 3.14,-1.87 1.39,0.01 2.44,0.64 3.16,1.87 0.72,1.22 1.09,2.83 1.09,4.81 0,1.97 -0.37,3.57 -1.09,4.79 -0.72,1.24 -1.78,1.87 -3.16,1.89 -1.37,-0.02 -2.42,-0.65 -3.14,-1.89 -0.75,-1.22 -1.13,-2.82 -1.13,-4.79 z m 1.92,0 c 0,1.49 0.24,2.59 0.69,3.3 0.43,0.72 0.98,1.08 1.65,1.08 0.67,0 1.25,-0.36 1.67,-1.08 0.44,-0.71 0.66,-1.81 0.67,-3.3 -0.01,-1.49 -0.24,-2.59 -0.67,-3.31 -0.43,-0.71 -0.98,-1.06 -1.67,-1.06 -0.69,0 -1.22,0.35 -1.65,1.06 -0.45,0.72 -0.68,1.83 -0.69,3.31 z"
           id="path96" />
        <path
           class="stl41"
           d="m 114.29,141.78 h 3.54 c 1.03,-0.01 1.85,0.25 2.46,0.79 0.59,0.58 0.9,1.67 0.9,3.28 0,1.03 -0.22,1.97 -0.67,2.8 -0.46,0.87 -1.24,1.31 -2.35,1.34 h -1.97 v 4.5 h -1.91 z m 1.93,5.91 h 1.64 c 0.42,0 0.76,-0.14 1.02,-0.41 0.26,-0.28 0.4,-0.73 0.41,-1.35 0,-0.61 -0.11,-1.07 -0.34,-1.38 -0.24,-0.3 -0.65,-0.46 -1.23,-0.46 h -1.49 v 3.6 z"
           id="path97" />
        <path
           class="stl41"
           d="m 122.7,141.78 h 6.28 v 2.42 h -4.36 v 10.29 h -1.91 v -12.71 z"
           id="path98" />
        <path
           class="stl41"
           d="m 132.88,141.78 h 2.09 l 3.17,12.71 h -2.09 l -0.57,-2.59 h -3.17 l -0.58,2.59 h -2.01 l 3.15,-12.71 z m 1.04,2.96 h -0.02 l -1.1,4.97 h 2.21 l -1.1,-4.97 z"
           id="path99" />
        <path
           class="stl41"
           d="m 139.64,141.78 h 1.98 l 3.67,8.59 h 0.02 v -8.59 h 1.84 v 12.71 h -2.02 l -3.63,-8.75 h -0.02 v 8.75 h -1.84 z"
           id="path100" />
        <path
           class="stl41"
           d="m 149.2,141.78 h 1.92 v 12.71 h -1.92 z"
           id="path101" />
        <path
           class="stl41"
           d="m 152.31,152.52 3.2,-4.61 -3.02,-4.14 v -1.98 h 6.5 v 2.3 h -3.97 l 2.8,4 -2.91,4.1 h 4.2 v 2.3 h -6.79 v -1.98 z"
           id="path102" />
        <path
           class="stl41"
           d="m 160.79,141.78 h 2.85 l 1.66,9.65 h 0.02 l 1.67,-9.65 h 2.84 v 12.71 h -1.69 v -10.62 h -0.02 l -1.9,10.62 h -1.81 l -1.9,-10.62 h -0.03 v 10.62 h -1.69 z"
           id="path103" />
        <path
           class="stl41"
           d="m 171.55,148.14 c 0,-1.98 0.38,-3.58 1.13,-4.81 0.72,-1.24 1.77,-1.86 3.14,-1.87 1.39,0.01 2.44,0.64 3.16,1.87 0.72,1.22 1.09,2.83 1.1,4.81 0,1.97 -0.37,3.57 -1.1,4.79 -0.72,1.24 -1.78,1.87 -3.16,1.89 -1.37,-0.02 -2.42,-0.65 -3.14,-1.89 -0.75,-1.22 -1.13,-2.82 -1.13,-4.79 z m 1.92,0 c 0,1.49 0.24,2.59 0.69,3.3 0.43,0.72 0.98,1.08 1.65,1.08 0.67,0 1.25,-0.36 1.67,-1.08 0.44,-0.71 0.66,-1.81 0.67,-3.3 -0.01,-1.49 -0.24,-2.59 -0.67,-3.31 -0.43,-0.71 -0.98,-1.06 -1.67,-1.06 -0.69,0 -1.22,0.35 -1.65,1.06 -0.45,0.72 -0.68,1.83 -0.69,3.31 z"
           id="path104" />
        <path
           class="stl41"
           d="m 181,152.52 3.2,-4.61 -3.02,-4.14 v -1.98 h 6.5 v 2.3 h -3.97 l 2.8,4 -2.91,4.1 h 4.2 v 2.3 h -6.79 v -1.98 z"
           id="path105" />
        <path
           class="stl41"
           d="m 194.8,144.09 h -2.65 v -2.3 h 7.21 v 2.3 h -2.65 v 10.41 h -1.91 z"
           id="path106" />
        <path
           class="stl41"
           d="m 200.25,148.14 c 0,-1.98 0.38,-3.58 1.13,-4.81 0.72,-1.24 1.77,-1.86 3.14,-1.87 1.39,0.01 2.44,0.64 3.16,1.87 0.72,1.22 1.09,2.83 1.1,4.81 0,1.97 -0.37,3.57 -1.1,4.79 -0.72,1.24 -1.78,1.87 -3.16,1.89 -1.37,-0.02 -2.42,-0.65 -3.14,-1.89 -0.75,-1.22 -1.13,-2.82 -1.13,-4.79 z m 1.92,0 c 0,1.49 0.24,2.59 0.69,3.3 0.43,0.72 0.98,1.08 1.66,1.08 0.68,0 1.25,-0.36 1.67,-1.08 0.43,-0.71 0.66,-1.81 0.67,-3.3 -0.01,-1.49 -0.24,-2.59 -0.67,-3.31 -0.43,-0.71 -0.98,-1.06 -1.67,-1.06 -0.69,0 -1.22,0.35 -1.66,1.06 -0.45,0.72 -0.68,1.83 -0.69,3.31 z"
           id="path107" />
        <path
           class="stl41"
           d="m 210.41,141.78 h 7.11 v 12.71 h -1.92 v -10.41 h -3.27 v 10.41 h -1.91 v -12.71 z"
           id="path108" />
        <path
           class="stl41"
           d="m 219.42,141.78 h 1.92 v 12.71 h -1.92 z"
           id="path109" />
        <path
           class="stl41"
           d="m 223.24,141.78 h 1.91 v 5.17 l 3.41,-5.17 h 2.31 l -3.44,5.2 3.6,7.51 h -2.38 l -2.65,-5.53 -0.86,1.3 v 4.23 h -1.91 v -12.71 z"
           id="path110" />
        <path
           class="stl41"
           d="m 232.34,141.78 h 1.91 v 4.83 h 3.27 v -4.83 h 1.92 v 12.71 h -1.92 v -5.58 h -3.27 v 5.58 h -1.91 z"
           id="path111" />
        <path
           class="stl41"
           d="m 240.73,152.52 3.2,-4.61 -3.02,-4.14 v -1.98 h 6.5 v 2.3 h -3.97 l 2.8,4 -2.91,4.1 h 4.2 v 2.3 h -6.79 v -1.98 z"
           id="path112" />
        <path
           class="stl41"
           d="m 255.13,141.78 h 2.09 l 3.17,12.71 h -2.09 l -0.57,-2.59 h -3.17 l -0.58,2.59 h -2.01 l 3.15,-12.71 z m 1.03,2.96 h -0.02 l -1.09,4.97 h 2.21 z"
           id="path113" />
        <path
           class="stl41"
           d="m 264.04,150.35 -3.06,-8.57 h 2.2 l 1.84,5.51 1.78,-5.51 h 2.1 l -2.95,8.57 v 4.14 h -1.91 z"
           id="path114" />
        <path
           class="stl41"
           d="m 272.04,144.09 h -2.65 v -2.3 h 7.21 v 2.3 h -2.65 v 10.41 h -1.91 z"
           id="path115" />
        <path
           class="stl41"
           d="m 277.49,148.14 c 0,-1.98 0.38,-3.58 1.13,-4.81 0.72,-1.24 1.77,-1.86 3.14,-1.87 1.39,0.01 2.44,0.64 3.16,1.87 0.72,1.22 1.09,2.83 1.1,4.81 0,1.97 -0.37,3.57 -1.1,4.79 -0.72,1.24 -1.78,1.87 -3.16,1.89 -1.37,-0.02 -2.42,-0.65 -3.14,-1.89 -0.75,-1.22 -1.13,-2.82 -1.13,-4.79 z m 1.92,0 c 0,1.49 0.24,2.59 0.69,3.3 0.43,0.72 0.98,1.08 1.66,1.08 0.68,0 1.25,-0.36 1.67,-1.08 0.43,-0.71 0.66,-1.81 0.67,-3.3 -0.01,-1.49 -0.24,-2.59 -0.67,-3.31 -0.43,-0.71 -0.98,-1.06 -1.67,-1.06 -0.69,0 -1.22,0.35 -1.66,1.06 -0.45,0.72 -0.68,1.83 -0.69,3.31 z"
           id="path116" />
        <path
           class="stl41"
           d="m 290.28,141.78 h 1.84 l 3.46,12.71 h -8.77 l 3.46,-12.71 z m -1.18,10.52 h 4.15 l -2.09,-7.78 -2.05,7.78 z"
           id="path117" />
        <path
           class="stl41"
           d="m 296.66,141.78 h 1.92 v 12.71 h -1.92 z"
           id="path118" />
        <path
           class="stl41"
           d="m 300.12,148.14 c 0,-1.98 0.38,-3.58 1.13,-4.81 0.72,-1.24 1.77,-1.86 3.14,-1.87 1.39,0.01 2.44,0.64 3.16,1.87 0.72,1.22 1.09,2.83 1.1,4.81 0,1.97 -0.37,3.57 -1.1,4.79 -0.72,1.24 -1.78,1.87 -3.16,1.89 -1.37,-0.02 -2.42,-0.65 -3.14,-1.89 -0.75,-1.22 -1.13,-2.82 -1.13,-4.79 z m 1.92,0 c 0,1.49 0.24,2.59 0.69,3.3 0.43,0.72 0.98,1.08 1.66,1.08 0.68,0 1.25,-0.36 1.67,-1.08 0.43,-0.71 0.66,-1.81 0.67,-3.3 -0.01,-1.49 -0.24,-2.59 -0.67,-3.31 -0.43,-0.71 -0.98,-1.06 -1.67,-1.06 -0.69,0 -1.22,0.35 -1.66,1.06 -0.45,0.72 -0.68,1.83 -0.69,3.31 z"
           id="path119" />
        <path
           class="stl41"
           d="m 310.19,141.78 h 1.92 v 12.71 h -1.92 z"
           id="path120" />
        <path
           class="stl41"
           d="m 314.01,141.78 h 1.91 v 5.17 l 3.41,-5.17 h 2.31 l -3.44,5.2 3.6,7.51 h -2.38 l -2.65,-5.53 -0.86,1.3 v 4.23 H 314 v -12.71 z"
           id="path121" />
        <path
           class="stl41"
           d="m 323.11,141.78 h 1.91 v 4.83 h 3.27 v -4.83 h 1.92 v 12.71 h -1.92 v -5.58 h -3.27 v 5.58 h -1.91 z"
           id="path122" />
        <path
           class="stl41"
           d="m 331.5,152.52 3.2,-4.61 -3.02,-4.14 v -1.98 h 6.5 v 2.3 h -3.97 l 2.8,4 -2.91,4.1 h 4.2 v 2.3 h -6.79 v -1.98 z"
           id="path123" />
        <path
           class="stl41"
           d="m 339.9,141.78 h 1.91 v 4.83 h 3.27 v -4.83 H 347 v 12.71 h -1.92 v -5.58 h -3.27 v 5.58 h -1.91 z"
           id="path124" />
        <path
           class="stl41"
           d="m 348.29,152.52 3.2,-4.61 -3.02,-4.14 v -1.98 h 6.5 v 2.3 H 351 l 2.8,4 -2.91,4.1 h 4.2 v 2.3 h -6.79 v -1.98 z"
           id="path125" />
      </g>
    </g>
  </g>
</svg>
