<?xml version="1.0" encoding="utf-8"?>
<!-- Generator: Adobe Illustrator 27.9.0, SVG Export Plug-In . SVG Version: 6.00 Build 0)  -->
<svg version="1.1" id="Layer_1" xmlns="http://www.w3.org/2000/svg" xmlns:xlink="http://www.w3.org/1999/xlink" x="0px" y="0px"
	 viewBox="0 0 283.5 34.4" style="enable-background:new 0 0 283.5 34.4;" xml:space="preserve">
<style type="text/css">
	.st0{fill:#2E804A;}
	.st1{clip-path:url(#SVGID_00000026139549940856385010000002229463407613782428_);fill:#2E804A;}
	.st2{fill:#3D559B;}
	.st3{stroke:#000000;stroke-width:0.27;}
	.st4{clip-path:url(#SVGID_00000163791705854435468560000015058382638816708757_);fill:none;stroke:#000000;stroke-width:0.27;}
</style>
<polygon class="st0" points="10.4,21.1 10.4,15.9 13.9,15.9 13.9,16.3 11.7,16.3 11.7,18.2 13.7,18.2 13.7,18.6 11.7,18.6 
	11.7,20.6 14,20.6 14,21.1 "/>
<path class="st0" d="M17.6,21.1L16,18.5l2-2.6h0.7L17.1,18l2,3.1H17.6z M14.6,15.9h1.3v5.2h-1.3V15.9z"/>
<g>
	<path class="st0" d="M22.2,17.2c0,0.7-0.6,0.9-1.2,0.9h-0.3v-1.8h0.4C21.7,16.3,22.2,16.7,22.2,17.2 M23.8,19.7
		c0-0.3-0.1-0.5-0.2-0.7c-0.3-0.4-0.7-0.6-1.2-0.6c0,0,0,0,0,0c0.6-0.1,1.1-0.4,1.1-1.2c0-0.4-0.2-0.7-0.5-1
		c-0.3-0.2-0.9-0.3-1.6-0.3h-1.9v5.2h2.5C23,21.1,23.8,20.6,23.8,19.7 M22.5,19.6c0,0.7-0.5,1-1.2,1h-0.6v-2.1h0.6
		C22,18.5,22.5,19,22.5,19.6"/>
</g>
<g>
	<defs>
		<rect id="SVGID_1_" x="0" width="283.5" height="34.4"/>
	</defs>
	<clipPath id="SVGID_00000068648933966588397720000000873654260535308707_">
		<use xlink:href="#SVGID_1_"  style="overflow:visible;"/>
	</clipPath>
	<polygon style="clip-path:url(#SVGID_00000068648933966588397720000000873654260535308707_);fill:#2E804A;" points="26.7,18.4 
		26.7,21.1 25.5,21.1 25.5,18.5 23.4,15.9 24.9,15.9 26.5,17.8 28,15.9 28.7,15.9 	"/>
	<path style="clip-path:url(#SVGID_00000068648933966588397720000000873654260535308707_);fill:#2E804A;" d="M21.2,2.3
		c5.2,2.3,9.1,7.7,9.5,13.3c0.2,2.5-0.1,4.9-0.9,7.1c0.3,0.1,0.6,0.2,0.9,0.3c0.9,0.2,1.6,0,2.2-0.2l0.1,0h0c0,0,0.1,0,0.1,0
		c1.3-3.9,1.2-8.4-0.4-12.2c-0.7-1.5-1.5-3-2.6-4.3c-4.5-5.5-11.8-7.5-18.5-5.4c-0.1,0.1-0.5,0.1-0.4,0.3
		C14.6,0.5,18.3,0.9,21.2,2.3"/>
	<path style="clip-path:url(#SVGID_00000068648933966588397720000000873654260535308707_);fill:#2E804A;" d="M30.5,26
		c-0.1,0-0.1,0-0.2,0c-0.2,0.3-0.5,0.5-1,0.8c-0.5,0.3-1,0.6-1.7,0.7c-0.1,0.3-0.4,0.7-1,1.1c-0.2,0.1-0.4,0.3-0.7,0.4
		c-1.2,1.2-2.6,2.2-4.1,2.9c-2.3,1.3-5.8,1.1-8.1-0.1C9.6,29.7,7,25.4,7.1,20.7c0-4.6,2.9-9,7.1-10.8c4.3-2,9.7-1,13.1,2.3h0.1
		c0,0,0.1-0.1,0.1-0.1C24,8,18.5,6.5,13.5,8.2c-4.2,1.3-7.9,5.7-8.5,10l-0.1,0.1c0-2.3,0.8-4.4,1.8-6.4c1.9-3.6,5.6-6.1,9.3-7
		c0-0.1,0-0.2-0.1-0.2c-1.7,0.2-3.3,0.7-4.9,1.5C5.8,8.8,2.5,14.3,2.5,20c-0.3-1.3-0.4-2.8-0.3-4.3c0.2-5.1,1.8-9.9,6.2-13.1
		c0-0.1,0-0.1,0-0.2c-0.1,0-0.1,0.1-0.2,0C1.9,6.5-1.1,13.4,0.3,20.7c1,6,6.3,11.7,12.2,13.2c6.4,1.6,13-0.2,17.4-5.2
		c0.7-0.8,1.3-1.7,1.9-2.6C31.4,26,31,26,30.5,26"/>
</g>
<g>
	<path class="st2" d="M33.3,23.7c-0.6,0.2-1.5,0.4-2.7,0.2c-1.2-0.2-2.5-1-4-1.6c-0.8-0.3-1.5-0.4-2.4-0.3c-0.8,0.1-1.7,0.4-2.5,0.8
		c-0.9,0.4-1.7,0.7-2.5,0.9c-0.8,0.1-1.6,0-2.4-0.2c-1.5-0.5-2.9-1.2-4-1.2c-1.2-0.1-2.1,0.3-2.7,0.7c-0.6,0.3-1,0.6-1,0.7
		c0,0.1,0.3,0,1-0.1c0.6-0.2,1.5-0.4,2.7-0.2c1.2,0.2,2.5,1,4,1.6c0.4,0.2,0.9,0.3,1.4,0.3c-0.2,0.1-0.4,0.1-0.6,0.2
		c-0.7,0.1-1.3,0-1.9-0.2c-1.2-0.4-2.3-1.1-3.2-1.1c-0.9,0-1.6,0.3-2.2,0.6c-0.5,0.3-0.8,0.5-0.8,0.7c0,0.1,0.3,0,0.8-0.1
		c0.5-0.1,1.2-0.4,2.2-0.2c0.9,0.2,2,0.9,3.2,1.4c0.6,0.3,1.2,0.4,1.9,0.3c0.4-0.1,0.8-0.2,1.2-0.4c0,0-0.1,0.1-0.1,0.1
		c-0.6,0.3-1.1,0.6-1.6,0.8c-0.5,0.1-1,0-1.5-0.2c-1-0.4-1.8-1-2.6-1.1c-0.7,0-1.3,0.3-1.7,0.6c-0.4,0.3-0.6,0.5-0.6,0.6
		c0,0.1,0.2,0,0.6-0.1c0.4-0.1,1-0.3,1.7-0.2c0.7,0.2,1.6,0.9,2.6,1.4c0.5,0.2,1,0.4,1.5,0.3c0.5-0.1,1.1-0.4,1.6-0.7
		c0.6-0.3,1.1-0.6,1.6-0.7c0.5-0.1,1,0,1.5,0.2c1,0.4,1.8,1,2.6,1.1c0.7,0,1.3-0.3,1.7-0.6c0.4-0.3,0.6-0.5,0.6-0.6
		c0-0.1-0.2,0-0.6,0.1c-0.4,0.1-1,0.3-1.7,0.2c-0.7-0.2-1.6-0.9-2.6-1.4c-0.5-0.2-1-0.4-1.5-0.3c-0.1,0-0.2,0-0.3,0.1
		c0.6-0.3,1.1-0.5,1.6-0.6c0.7-0.1,1.3,0,1.9,0.2c1.2,0.4,2.3,1.1,3.2,1.1c0.9,0,1.6-0.3,2.2-0.6c0.5-0.3,0.8-0.6,0.8-0.7
		c0-0.1-0.3,0-0.8,0.1c-0.5,0.1-1.2,0.4-2.2,0.2c-0.9-0.2-2-0.9-3.2-1.4C23.2,24.1,23,24,22.7,24c0.5-0.2,1-0.3,1.5-0.4
		c0.8-0.1,1.6,0,2.4,0.2c1.5,0.5,2.9,1.2,4,1.2c1.2,0.1,2.1-0.3,2.7-0.7c0.6-0.3,1-0.6,1-0.7C34.3,23.5,33.9,23.6,33.3,23.7"/>
	<path d="M48.8,12.5V8.1c0-0.1,0-1.3,0-1.6l0,0.1l-1.9,3.1l-2-3.1c0,0.3,0,0.5,0,0.6v0.1v5.4h-0.7V5.2h0.7l1.3,2.2
		c0,0.1,0.6,0.8,0.6,1c0-0.1,0.6-0.9,0.6-1l1.3-2.2h0.7v7.4H48.8z"/>
	<path class="st3" d="M48.8,12.5V8.1c0-0.1,0-1.3,0-1.6l0,0.1l-1.9,3.1l-2-3.1c0,0.3,0,0.5,0,0.6v0.1v5.4h-0.7V5.2h0.7l1.3,2.2
		c0,0.1,0.6,0.8,0.6,1c0-0.1,0.6-0.9,0.6-1l1.3-2.2h0.7v7.4H48.8z"/>
	<path d="M56,12.7c-1.7,0-2.9-1.5-2.9-3.8c0-2.3,1.2-3.8,2.9-3.8c1.8,0,3,1.5,3,3.8C58.9,11.2,57.7,12.7,56,12.7 M56,5.7
		c-1.3,0-2.2,1.2-2.2,3.1c0,1.9,0.9,3.1,2.2,3.1c1.3,0,2.2-1.2,2.2-3.1C58.1,6.9,57.2,5.7,56,5.7"/>
	<path class="st3" d="M56,12.7c-1.7,0-2.9-1.5-2.9-3.8c0-2.3,1.2-3.8,2.9-3.8c1.8,0,3,1.5,3,3.8C58.9,11.2,57.7,12.7,56,12.7z
		 M56,5.7c-1.3,0-2.2,1.2-2.2,3.1c0,1.9,0.9,3.1,2.2,3.1c1.3,0,2.2-1.2,2.2-3.1C58.1,6.9,57.2,5.7,56,5.7z"/>
	<polygon points="64.5,8.9 64.5,12.5 63.8,12.5 63.8,8.9 61.8,5.2 62.6,5.2 64.2,8 65.8,5.2 66.6,5.2 	"/>
	<polygon class="st3" points="64.5,8.9 64.5,12.5 63.8,12.5 63.8,8.9 61.8,5.2 62.6,5.2 64.2,8 65.8,5.2 66.6,5.2 	"/>
	<polygon points="69.1,12.5 69.1,12.1 71.2,8.7 69.2,5.6 69.2,5.2 73.3,5.2 73.3,5.8 70.1,5.8 72,8.7 70,11.9 73.4,11.9 73.4,12.5 	
		"/>
	<polygon class="st3" points="69.1,12.5 69.1,12.1 71.2,8.7 69.2,5.6 69.2,5.2 73.3,5.2 73.3,5.8 70.1,5.8 72,8.7 70,11.9 
		73.4,11.9 73.4,12.5 	"/>
	<polygon points="76.7,12.5 76.7,5.2 80,5.2 80,5.8 77.4,5.8 77.4,8.4 79.9,8.4 79.9,9.1 77.4,9.1 77.4,11.9 80.1,11.9 80.1,12.5 	
		"/>
	<polygon class="st3" points="76.7,12.5 76.7,5.2 80,5.2 80,5.8 77.4,5.8 77.4,8.4 79.9,8.4 79.9,9.1 77.4,9.1 77.4,11.9 80.1,11.9 
		80.1,12.5 	"/>
	<rect x="83.6" y="5.2" width="0.7" height="7.4"/>
	<rect x="83.6" y="5.2" class="st3" width="0.7" height="7.4"/>
	<path d="M90.8,12.7c-1.7,0-2.9-1.5-2.9-3.8c0-2.3,1.2-3.8,2.9-3.8c1.7,0,3,1.5,3,3.8C93.7,11.2,92.5,12.7,90.8,12.7 M90.8,5.7
		c-1.3,0-2.2,1.2-2.2,3.1c0,1.9,0.9,3.1,2.2,3.1c1.3,0,2.2-1.2,2.2-3.1C92.9,6.9,92,5.7,90.8,5.7"/>
	<path class="st3" d="M90.8,12.7c-1.7,0-2.9-1.5-2.9-3.8c0-2.3,1.2-3.8,2.9-3.8c1.7,0,3,1.5,3,3.8C93.7,11.2,92.5,12.7,90.8,12.7z
		 M90.8,5.7c-1.3,0-2.2,1.2-2.2,3.1c0,1.9,0.9,3.1,2.2,3.1c1.3,0,2.2-1.2,2.2-3.1C92.9,6.9,92,5.7,90.8,5.7z"/>
	<polygon points="102.8,5.8 102.8,12.5 102,12.5 102,5.2 105,5.2 105,5.8 	"/>
	<polygon class="st3" points="102.8,5.8 102.8,12.5 102,12.5 102,5.2 105,5.2 105,5.8 	"/>
	<path d="M110.7,12.7c-1.7,0-2.9-1.5-2.9-3.8c0-2.3,1.2-3.8,2.9-3.8c1.8,0,3,1.5,3,3.8C113.6,11.2,112.4,12.7,110.7,12.7 M110.7,5.7
		c-1.3,0-2.2,1.2-2.2,3.1c0,1.9,0.9,3.1,2.2,3.1c1.3,0,2.2-1.2,2.2-3.1C112.9,6.9,112,5.7,110.7,5.7"/>
	<path class="st3" d="M110.7,12.7c-1.7,0-2.9-1.5-2.9-3.8c0-2.3,1.2-3.8,2.9-3.8c1.8,0,3,1.5,3,3.8
		C113.6,11.2,112.4,12.7,110.7,12.7z M110.7,5.7c-1.3,0-2.2,1.2-2.2,3.1c0,1.9,0.9,3.1,2.2,3.1c1.3,0,2.2-1.2,2.2-3.1
		C112.9,6.9,112,5.7,110.7,5.7z"/>
	<polygon points="119.3,8.9 119.3,12.5 118.5,12.5 118.5,8.9 116.5,5.2 117.3,5.2 118.9,8 120.5,5.2 121.3,5.2 	"/>
	<polygon class="st3" points="119.3,8.9 119.3,12.5 118.5,12.5 118.5,8.9 116.5,5.2 117.3,5.2 118.9,8 120.5,5.2 121.3,5.2 	"/>
	<path d="M128.4,12.5l-1.5-4.8c0-0.1-0.5-1.2-0.5-1.5c0,0.2-0.5,1.3-0.5,1.5l-1.5,4.8h-0.8l2.4-7.4h0.7l2.4,7.4H128.4z"/>
	<path class="st3" d="M128.4,12.5l-1.5-4.8c0-0.1-0.5-1.2-0.5-1.5c0,0.2-0.5,1.3-0.5,1.5l-1.5,4.8h-0.8l2.4-7.4h0.7l2.4,7.4H128.4z"
		/>
	<path d="M136.2,12.5l-0.7-2.1H133l-0.7,2.1h-0.8l2.4-7.4h0.7l2.4,7.4H136.2z M134.6,7.5c0-0.1-0.3-0.9-0.4-1.2c0,0.2-0.3,1-0.4,1.2
		l-0.7,2.3h2.1L134.6,7.5z"/>
	<path class="st3" d="M136.2,12.5l-0.7-2.1H133l-0.7,2.1h-0.8l2.4-7.4h0.7l2.4,7.4H136.2z M134.6,7.5c0-0.1-0.3-0.9-0.4-1.2
		c0,0.2-0.3,1-0.4,1.2l-0.7,2.3h2.1L134.6,7.5z"/>
	<path d="M144.4,12.5l-2.5-3.9c-0.1-0.2-1.1-1.5-1.2-1.8c0,0.3,0,1.9,0,2.2v3.5h-0.7V5.2h0.6l2.5,3.9c0.1,0.2,1.1,1.5,1.2,1.8
		c0-0.3,0-1.9,0-2.2V5.2h0.7v7.4H144.4z"/>
	<path class="st3" d="M144.4,12.5l-2.5-3.9c-0.1-0.2-1.1-1.5-1.2-1.8c0,0.3,0,1.9,0,2.2v3.5h-0.7V5.2h0.6l2.5,3.9
		c0.1,0.2,1.1,1.5,1.2,1.8c0-0.3,0-1.9,0-2.2V5.2h0.7v7.4H144.4z"/>
	<path d="M148.1,12.5l2.4-7.4h0.7l2.4,7.4H148.1z M151.3,7.8c0-0.1-0.5-1.2-0.5-1.5c0,0.2-0.5,1.3-0.5,1.5l-1.3,4.1h3.6L151.3,7.8z"
		/>
	<path class="st3" d="M148.1,12.5l2.4-7.4h0.7l2.4,7.4H148.1z M151.3,7.8c0-0.1-0.5-1.2-0.5-1.5c0,0.2-0.5,1.3-0.5,1.5l-1.3,4.1h3.6
		L151.3,7.8z"/>
	<path d="M158.2,9.2h-0.8v3.4h-0.7V5.2h1.5c1.5,0,2.3,0.8,2.3,2C160.4,8.3,159.7,9.2,158.2,9.2 M158.2,5.8h-0.7v2.7h0.7
		c1.1,0,1.5-0.5,1.5-1.3C159.6,6.4,159.2,5.8,158.2,5.8"/>
	<path class="st3" d="M158.2,9.2h-0.8v3.4h-0.7V5.2h1.5c1.5,0,2.3,0.8,2.3,2C160.4,8.3,159.7,9.2,158.2,9.2z M158.2,5.8h-0.7v2.7
		h0.7c1.1,0,1.5-0.5,1.5-1.3C159.6,6.4,159.2,5.8,158.2,5.8z"/>
	<polygon points="167.6,12.5 167.6,9.2 164.4,9.2 164.4,12.5 163.7,12.5 163.7,5.2 164.4,5.2 164.4,8.5 167.6,8.5 167.6,5.2 
		168.4,5.2 168.4,12.5 	"/>
	<polygon class="st3" points="167.6,12.5 167.6,9.2 164.4,9.2 164.4,12.5 163.7,12.5 163.7,5.2 164.4,5.2 164.4,8.5 167.6,8.5 
		167.6,5.2 168.4,5.2 168.4,12.5 	"/>
	<path d="M180,11.7v0.8h-0.7v-0.8c-1.5-0.1-2.7-1.1-2.7-2.9c0-1.8,1.2-2.7,2.7-2.9V5.2h0.7V6c1.5,0.1,2.7,1.1,2.7,2.9
		C182.7,10.6,181.5,11.6,180,11.7 M179.3,6.7c-1,0.1-1.9,0.9-1.9,2.2c0,1.3,0.9,2.1,1.9,2.2V6.7z M180,6.7V11c1-0.1,1.9-0.9,1.9-2.2
		C181.9,7.6,181,6.8,180,6.7"/>
	<path class="st3" d="M180,11.7v0.8h-0.7v-0.8c-1.5-0.1-2.7-1.1-2.7-2.9c0-1.8,1.2-2.7,2.7-2.9V5.2h0.7V6c1.5,0.1,2.7,1.1,2.7,2.9
		C182.7,10.6,181.5,11.6,180,11.7z M179.3,6.7c-1,0.1-1.9,0.9-1.9,2.2c0,1.3,0.9,2.1,1.9,2.2V6.7z M180,6.7V11
		c1-0.1,1.9-0.9,1.9-2.2C181.9,7.6,181,6.8,180,6.7z"/>
	<polygon points="188.2,8.9 188.2,12.5 187.5,12.5 187.5,8.9 185.4,5.2 186.3,5.2 187.9,8 189.5,5.2 190.3,5.2 	"/>
	<polygon class="st3" points="188.2,8.9 188.2,12.5 187.5,12.5 187.5,8.9 185.4,5.2 186.3,5.2 187.9,8 189.5,5.2 190.3,5.2 	"/>
	<polygon points="192.8,12.5 192.8,12.1 194.9,8.7 192.9,5.6 192.9,5.2 197,5.2 197,5.8 193.8,5.8 195.7,8.7 193.7,11.9 197.1,11.9 
		197.1,12.5 	"/>
	<polygon class="st3" points="192.8,12.5 192.8,12.1 194.9,8.7 192.9,5.6 192.9,5.2 197,5.2 197,5.8 193.8,5.8 195.7,8.7 
		193.7,11.9 197.1,11.9 197.1,12.5 	"/>
	<rect x="200.4" y="5.2" width="0.7" height="7.4"/>
	<rect x="200.4" y="5.2" class="st3" width="0.7" height="7.4"/>
	<polygon points="208.2,12.5 205.7,8.9 205.7,12.5 204.9,12.5 204.9,5.2 205.7,5.2 205.7,8.8 208,5.2 208.8,5.2 206.4,8.8 
		209.1,12.5 	"/>
	<polygon class="st3" points="208.2,12.5 205.7,8.9 205.7,12.5 204.9,12.5 204.9,5.2 205.7,5.2 205.7,8.8 208,5.2 208.8,5.2 
		206.4,8.8 209.1,12.5 	"/>
	<polygon points="216,12.5 216,9.2 212.8,9.2 212.8,12.5 212,12.5 212,5.2 212.8,5.2 212.8,8.5 216,8.5 216,5.2 216.7,5.2 
		216.7,12.5 	"/>
	<polygon class="st3" points="216,12.5 216,9.2 212.8,9.2 212.8,12.5 212,12.5 212,5.2 212.8,5.2 212.8,8.5 216,8.5 216,5.2 
		216.7,5.2 216.7,12.5 	"/>
	<polygon points="220,12.5 220,12.1 222.1,8.7 220,5.6 220,5.2 224.1,5.2 224.1,5.8 221,5.8 222.9,8.7 220.9,11.9 224.2,11.9 
		224.2,12.5 	"/>
	<polygon class="st3" points="220,12.5 220,12.1 222.1,8.7 220,5.6 220,5.2 224.1,5.2 224.1,5.8 221,5.8 222.9,8.7 220.9,11.9 
		224.2,11.9 224.2,12.5 	"/>
	<rect x="232.3" y="5.2" width="0.7" height="7.4"/>
	<rect x="232.3" y="5.2" class="st3" width="0.7" height="7.4"/>
	<polygon points="236.3,12.5 236.3,12.1 238.4,8.7 236.4,5.6 236.4,5.2 240.5,5.2 240.5,5.8 237.3,5.8 239.2,8.7 237.2,11.9 
		240.6,11.9 240.6,12.5 	"/>
	<polygon class="st3" points="236.3,12.5 236.3,12.1 238.4,8.7 236.4,5.6 236.4,5.2 240.5,5.2 240.5,5.8 237.3,5.8 239.2,8.7 
		237.2,11.9 240.6,11.9 240.6,12.5 	"/>
	<polygon points="245.9,5.8 245.9,12.5 245.2,12.5 245.2,5.8 243.2,5.8 243.2,5.2 247.9,5.2 247.9,5.8 	"/>
	<polygon class="st3" points="245.9,5.8 245.9,12.5 245.2,12.5 245.2,5.8 243.2,5.8 243.2,5.2 247.9,5.2 247.9,5.8 	"/>
	<path d="M253.6,12.7c-1.7,0-2.9-1.5-2.9-3.8c0-2.3,1.2-3.8,2.9-3.8c1.8,0,3,1.5,3,3.8C256.6,11.2,255.4,12.7,253.6,12.7 M253.7,5.7
		c-1.3,0-2.2,1.2-2.2,3.1c0,1.9,0.9,3.1,2.2,3.1c1.3,0,2.2-1.2,2.2-3.1C255.8,6.9,254.9,5.7,253.7,5.7"/>
	<path class="st3" d="M253.6,12.7c-1.7,0-2.9-1.5-2.9-3.8c0-2.3,1.2-3.8,2.9-3.8c1.8,0,3,1.5,3,3.8
		C256.6,11.2,255.4,12.7,253.6,12.7z M253.7,5.7c-1.3,0-2.2,1.2-2.2,3.1c0,1.9,0.9,3.1,2.2,3.1c1.3,0,2.2-1.2,2.2-3.1
		C255.8,6.9,254.9,5.7,253.7,5.7z"/>
	<path d="M261.7,9.2h-0.8v3.4h-0.7V5.2h1.5c1.5,0,2.3,0.8,2.3,2C263.9,8.3,263.2,9.2,261.7,9.2 M261.6,5.8h-0.7v2.7h0.7
		c1.1,0,1.5-0.5,1.5-1.3C263.1,6.4,262.7,5.8,261.6,5.8"/>
	<path class="st3" d="M261.7,9.2h-0.8v3.4h-0.7V5.2h1.5c1.5,0,2.3,0.8,2.3,2C263.9,8.3,263.2,9.2,261.7,9.2z M261.6,5.8h-0.7v2.7
		h0.7c1.1,0,1.5-0.5,1.5-1.3C263.1,6.4,262.7,5.8,261.6,5.8z"/>
	<rect x="267.2" y="5.2" width="0.7" height="7.4"/>
	<rect x="267.2" y="5.2" class="st3" width="0.7" height="7.4"/>
	<path d="M275.8,12.5l-0.7-2.1h-2.5l-0.7,2.1h-0.8l2.4-7.4h0.7l2.4,7.4H275.8z M274.2,7.5c0-0.1-0.3-0.9-0.4-1.2
		c0,0.2-0.3,1-0.4,1.2l-0.7,2.3h2.1L274.2,7.5z"/>
	<path class="st3" d="M275.8,12.5l-0.7-2.1h-2.5l-0.7,2.1h-0.8l2.4-7.4h0.7l2.4,7.4H275.8z M274.2,7.5c0-0.1-0.3-0.9-0.4-1.2
		c0,0.2-0.3,1-0.4,1.2l-0.7,2.3h2.1L274.2,7.5z"/>
	<polygon points="279.1,12.5 279.1,12.1 281.2,8.7 279.1,5.6 279.1,5.2 283.2,5.2 283.2,5.8 280.1,5.8 282,8.7 280,11.9 283.3,11.9 
		283.3,12.5 	"/>
</g>
<g>
	<defs>
		<rect id="SVGID_00000042698014853981241410000015203868752606206883_" x="0" width="283.5" height="34.4"/>
	</defs>
	<clipPath id="SVGID_00000116955779410964172690000010283922452505729200_">
		<use xlink:href="#SVGID_00000042698014853981241410000015203868752606206883_"  style="overflow:visible;"/>
	</clipPath>
	
		<polygon style="clip-path:url(#SVGID_00000116955779410964172690000010283922452505729200_);fill:none;stroke:#000000;stroke-width:0.27;" points="
		279.1,12.5 279.1,12.1 281.2,8.7 279.1,5.6 279.1,5.2 283.2,5.2 283.2,5.8 280.1,5.8 282,8.7 280,11.9 283.3,11.9 283.3,12.5 	"/>
</g>
<g>
	<polygon points="44.1,26.1 44.1,17.2 48.7,17.2 48.7,18.5 45.6,18.5 45.6,20.9 48.6,20.9 48.6,22.2 45.6,22.2 45.6,24.7 48.8,24.7 
		48.8,26.1 	"/>
	<path d="M55.1,26.1l-1.6-5.2c0-0.2-0.5-1.4-0.5-1.7c0,0.2-0.5,1.4-0.5,1.7l-1.6,5.2h-1.6l3-8.9h1.5l3,8.9H55.1z"/>
	<path d="M62.5,26.1l-1.6-5.2c0-0.2-0.5-1.4-0.5-1.7c0,0.2-0.5,1.4-0.5,1.7l-1.6,5.2h-1.6l3-8.9h1.5l3,8.9H62.5z"/>
	<polygon points="69.9,26.1 69.9,22.3 66.6,22.3 66.6,26.1 65,26.1 65,17.2 66.6,17.2 66.6,20.9 69.9,20.9 69.9,17.2 71.5,17.2 
		71.5,26.1 	"/>
	<path d="M78.7,26.1l-2.7-4c0-0.1-1.4-1.9-1.4-2c0,0.3,0,2,0,2.3v3.7h-1.4v-8.8h1.4l2.7,4c0.1,0.1,1.4,1.9,1.4,2c0-0.3,0-2,0-2.3
		v-3.7h1.4v8.8H78.7z"/>
	<rect x="81.9" y="17.2" width="1.6" height="8.8"/>
	<polygon points="89.9,26.1 86.8,21.7 86.8,26.1 85.3,26.1 85.3,17.2 86.8,17.2 86.8,21.2 89.4,17.2 91.2,17.2 88.4,21.4 91.8,26.1 
			"/>
	<path d="M96.2,26.2c-2.4,0-3.9-1.9-3.9-4.6s1.6-4.5,3.9-4.5c2.4,0,3.9,1.8,3.9,4.5C100.1,24.3,98.6,26.2,96.2,26.2 M96.2,18.4
		c-1.4,0-2.3,1.2-2.3,3.2c0,2,0.9,3.2,2.3,3.2c1.4,0,2.3-1.2,2.3-3.2C98.5,19.7,97.5,18.4,96.2,18.4"/>
	<polygon points="109.6,26.1 106.5,21.7 106.5,26.1 105,26.1 105,17.2 106.5,17.2 106.5,21.2 109.1,17.2 110.9,17.2 108.1,21.4 
		111.5,26.1 	"/>
	<polygon points="112.3,26.1 112.3,17.2 116.9,17.2 116.9,18.5 113.9,18.5 113.9,20.9 116.8,20.9 116.8,22.2 113.9,22.2 113.9,24.7 
		117,24.7 117,26.1 	"/>
	<path d="M123.9,26.1l-2.7-4c0-0.1-1.4-1.9-1.4-2c0,0.3,0,2,0,2.3v3.7h-1.4v-8.8h1.4l2.7,4c0.1,0.1,1.4,1.9,1.4,2c0-0.3,0-2,0-2.3
		v-3.7h1.4v8.8H123.9z"/>
	<polygon points="130.2,18.5 130.2,26 128.6,26 128.6,18.5 126.3,18.5 126.3,17.2 132.6,17.2 132.6,18.5 	"/>
	<path d="M136,22.3h-0.9v3.7h-1.5v-8.8h2.4c1.9,0,2.8,1,2.8,2.6C138.8,21.3,137.8,22.3,136,22.3 M135.9,18.5h-0.8v2.6h0.8
		c0.9,0,1.4-0.5,1.4-1.3C137.3,19,136.9,18.5,135.9,18.5"/>
	<path d="M143.5,26.2c-2.4,0-3.9-1.9-3.9-4.6s1.6-4.5,3.9-4.5c2.4,0,3.9,1.8,3.9,4.5C147.4,24.3,145.9,26.2,143.5,26.2 M143.5,18.4
		c-1.4,0-2.3,1.2-2.3,3.2c0,2,0.9,3.2,2.3,3.2c1.4,0,2.3-1.2,2.3-3.2C145.8,19.7,144.8,18.4,143.5,18.4"/>
	<path d="M154.9,26.1h-2.7v-8.8h2.4c1.9,0,2.7,1,2.7,2.2c0,0.9-0.4,1.5-1.3,1.9c0,0,0,0,0,0c1.1,0.3,1.7,1.1,1.7,2.2
		C157.9,25,156.9,26.1,154.9,26.1 M154.6,18.5h-0.8v2.5h0.5c1,0,1.5-0.4,1.5-1.3C155.8,18.9,155.5,18.5,154.6,18.5 M154.7,22.1h-0.9
		v2.7h0.9c1.2,0,1.6-0.6,1.6-1.3C156.3,22.6,155.8,22.1,154.7,22.1"/>
	<rect x="159.2" y="17.2" width="1.6" height="8.8"/>
	<path d="M166.1,26.2c-2.4,0-3.9-1.9-3.9-4.6s1.6-4.5,3.9-4.5c2.4,0,3.9,1.8,3.9,4.5C170,24.3,168.5,26.2,166.1,26.2 M166.1,18.4
		c-1.4,0-2.3,1.2-2.3,3.2c0,2,0.9,3.2,2.3,3.2c1.4,0,2.3-1.2,2.3-3.2C168.4,19.7,167.5,18.4,166.1,18.4"/>
	<polygon points="174.7,18.5 174.7,26 173.1,26 173.1,18.5 170.8,18.5 170.8,17.2 177.1,17.2 177.1,18.5 	"/>
	<path d="M181.6,26.2c-2.4,0-3.9-1.9-3.9-4.6s1.6-4.5,3.9-4.5c2.4,0,3.9,1.8,3.9,4.5C185.5,24.3,184,26.2,181.6,26.2 M181.6,18.4
		c-1.4,0-2.3,1.2-2.3,3.2c0,2,0.9,3.2,2.3,3.2c1.4,0,2.3-1.2,2.3-3.2C183.9,19.7,183,18.4,181.6,18.4"/>
	<polygon points="192,26.1 192,18.6 188.6,18.6 188.6,26.1 187,26.1 187,17.2 193.5,17.2 193.5,26.1 	"/>
	<path d="M200.3,24.8h1.6v1.3h-3.1v-1.1c1.1-0.8,1.6-2.6,1.6-3.7c0-1.6-0.7-2.9-2-2.9c-1.3,0-2,1.3-2,2.9c0,1.1,0.4,2.9,1.6,3.7v1.1
		H195v-1.3h1.6c-1.2-1-1.7-2.3-1.7-3.6c0-2.6,1.7-4.1,3.6-4.1c1.9,0,3.6,1.6,3.6,4.1C202,22.5,201.5,23.8,200.3,24.8"/>
	<path d="M208.9,26.1l-2.7-4c0-0.1-1.4-1.9-1.4-2c0,0.3,0,2,0,2.3v3.7h-1.4v-8.8h1.4l2.7,4c0.1,0.1,1.4,1.9,1.4,2c0-0.3,0-2,0-2.3
		v-3.7h1.4v8.8H208.9z"/>
	<rect x="212.7" y="22.4" width="3.1" height="1.3"/>
	<path d="M220.4,21.7v4.4h-1.5v-4.4l-2.6-4.5h1.8l1,1.7c0,0.1,0.7,1.2,0.7,1.3c0.1-0.1,0.8-1.4,0.9-1.5l0.9-1.5h1.6L220.4,21.7z"/>
	<polygon points="225.4,18.5 225.4,26.1 223.9,26.1 223.9,17.2 228.2,17.2 228.2,18.5 	"/>
	<path d="M231.7,22.3h-0.9v3.7h-1.5v-8.8h2.4c1.9,0,2.8,1,2.8,2.6C234.5,21.3,233.5,22.3,231.7,22.3 M231.6,18.5h-0.8v2.6h0.8
		c0.9,0,1.4-0.5,1.4-1.3C232.9,19,232.6,18.5,231.6,18.5"/>
	<path d="M239.2,26.2c-2.4,0-3.9-1.9-3.9-4.6s1.6-4.5,3.9-4.5c2.4,0,3.9,1.8,3.9,4.5C243.1,24.3,241.6,26.2,239.2,26.2 M239.2,18.4
		c-1.4,0-2.3,1.2-2.3,3.2c0,2,0.9,3.2,2.3,3.2c1.4,0,2.3-1.2,2.3-3.2C241.5,19.7,240.5,18.4,239.2,18.4"/>
	<polygon points="247.8,18.5 247.8,26 246.2,26 246.2,18.5 243.9,18.5 243.9,17.2 250.1,17.2 250.1,18.5 	"/>
	<path d="M254.7,26.2c-2.4,0-3.9-1.9-3.9-4.6s1.6-4.5,3.9-4.5c2.4,0,3.9,1.8,3.9,4.5C258.6,24.3,257.1,26.2,254.7,26.2 M254.7,18.4
		c-1.4,0-2.3,1.2-2.3,3.2c0,2,0.9,3.2,2.3,3.2c1.4,0,2.3-1.2,2.3-3.2C257,19.7,256.1,18.4,254.7,18.4"/>
	<polygon points="265,26.1 265,18.6 261.7,18.6 261.7,26.1 260.1,26.1 260.1,17.2 266.6,17.2 266.6,26.1 	"/>
	<path d="M273.4,24.8h1.6v1.3h-3.1v-1.1c1.1-0.8,1.6-2.6,1.6-3.7c0-1.6-0.7-2.9-2-2.9c-1.3,0-2,1.3-2,2.9c0,1.1,0.4,2.9,1.6,3.7v1.1
		H268v-1.3h1.6c-1.2-1-1.7-2.3-1.7-3.6c0-2.6,1.7-4.1,3.6-4.1c1.9,0,3.6,1.6,3.6,4.1C275.1,22.5,274.6,23.8,273.4,24.8"/>
	<path d="M282,26.1l-2.7-4c0-0.1-1.4-1.9-1.4-2c0,0.3,0,2,0,2.3v3.7h-1.4v-8.8h1.4l2.7,4c0.1,0.1,1.4,1.9,1.4,2c0-0.3,0-2,0-2.3
		v-3.7h1.4v8.8H282z"/>
</g>
</svg>
