<?xml version="1.0" encoding="utf-8"?>
<!-- Generator: Adobe Illustrator 27.9.0, SVG Export Plug-In . SVG Version: 6.00 Build 0)  -->
<svg version="1.1" id="Layer_1" xmlns="http://www.w3.org/2000/svg" xmlns:xlink="http://www.w3.org/1999/xlink" x="0px" y="0px"
	 viewBox="0 0 34.3 34.4" style="enable-background:new 0 0 34.3 34.4;" xml:space="preserve">
<style type="text/css">
	.st0{fill:#2E804A;}
	.st1{clip-path:url(#SVGID_00000130610819240661607440000016113567691114905267_);fill:#2E804A;}
	.st2{fill:#3D559B;}
</style>
<polygon class="st0" points="10.4,21.1 10.4,15.9 13.9,15.9 13.9,16.3 11.7,16.3 11.7,18.2 13.7,18.2 13.7,18.6 11.7,18.6 
	11.7,20.6 14,20.6 14,21.1 "/>
<path class="st0" d="M17.6,21.1L16,18.5l2-2.6h0.7L17.1,18l2,3.1H17.6z M14.6,15.9h1.3v5.2h-1.3V15.9z"/>
<g>
	<path class="st0" d="M22.2,17.2c0,0.7-0.6,0.9-1.2,0.9h-0.3v-1.8h0.4C21.7,16.3,22.2,16.7,22.2,17.2 M23.8,19.7
		c0-0.3-0.1-0.5-0.2-0.7c-0.3-0.4-0.7-0.6-1.2-0.6c0,0,0,0,0,0c0.6-0.1,1.1-0.4,1.1-1.2c0-0.4-0.2-0.7-0.5-1
		c-0.3-0.2-0.9-0.3-1.6-0.3h-1.9v5.2h2.5C23,21.1,23.8,20.6,23.8,19.7 M22.5,19.6c0,0.7-0.5,1-1.2,1h-0.6v-2.1h0.6
		C22,18.5,22.5,19,22.5,19.6"/>
</g>
<g>
	<defs>
		<rect id="SVGID_1_" x="0" width="34" height="34.4"/>
	</defs>
	<clipPath id="SVGID_00000170958117717466880360000015852387162578886837_">
		<use xlink:href="#SVGID_1_"  style="overflow:visible;"/>
	</clipPath>
	<polygon style="clip-path:url(#SVGID_00000170958117717466880360000015852387162578886837_);fill:#2E804A;" points="26.7,18.4 
		26.7,21.1 25.5,21.1 25.5,18.5 23.4,15.9 24.9,15.9 26.5,17.8 28,15.9 28.7,15.9 	"/>
	<path style="clip-path:url(#SVGID_00000170958117717466880360000015852387162578886837_);fill:#2E804A;" d="M21.2,2.3
		c5.2,2.3,9.1,7.7,9.5,13.3c0.2,2.5-0.1,4.9-0.9,7.1c0.3,0.1,0.6,0.2,0.9,0.3c0.9,0.2,1.6,0,2.2-0.2l0.1,0h0c0,0,0.1,0,0.1,0
		c1.3-3.9,1.2-8.4-0.4-12.2c-0.7-1.5-1.5-3-2.6-4.3c-4.5-5.5-11.8-7.5-18.5-5.4c-0.1,0.1-0.5,0.1-0.4,0.3
		C14.6,0.5,18.3,0.9,21.2,2.3"/>
	<path style="clip-path:url(#SVGID_00000170958117717466880360000015852387162578886837_);fill:#2E804A;" d="M30.5,26
		c-0.1,0-0.1,0-0.2,0c-0.2,0.3-0.5,0.5-1,0.8c-0.5,0.3-1,0.6-1.7,0.7c-0.1,0.3-0.4,0.7-1,1.1c-0.2,0.1-0.4,0.3-0.7,0.4
		c-1.2,1.2-2.6,2.2-4.1,2.9c-2.3,1.3-5.8,1.1-8.1-0.1C9.6,29.7,7,25.4,7.1,20.7c0-4.6,2.9-9,7.1-10.8c4.3-2,9.7-1,13.1,2.3h0.1
		c0,0,0.1-0.1,0.1-0.1C24,8,18.5,6.5,13.5,8.2c-4.2,1.3-7.9,5.7-8.5,10l-0.1,0.1c0-2.3,0.8-4.4,1.8-6.4c1.9-3.6,5.6-6.1,9.3-7
		c0-0.1,0-0.2-0.1-0.2c-1.7,0.2-3.3,0.7-4.9,1.5C5.8,8.8,2.5,14.3,2.5,20c-0.3-1.3-0.4-2.8-0.3-4.3c0.2-5.1,1.8-9.9,6.2-13.1
		c0-0.1,0-0.1,0-0.2c-0.1,0-0.1,0.1-0.2,0C1.9,6.5-1.1,13.4,0.3,20.7c1,6,6.3,11.7,12.2,13.2c6.4,1.6,13-0.2,17.4-5.2
		c0.7-0.8,1.3-1.7,1.9-2.6C31.4,26,31,26,30.5,26"/>
</g>
<g>
	<path class="st2" d="M33.3,23.7c-0.6,0.2-1.5,0.4-2.7,0.2c-1.2-0.2-2.5-1-4-1.6c-0.8-0.3-1.5-0.4-2.4-0.3c-0.8,0.1-1.7,0.4-2.5,0.8
		c-0.9,0.4-1.7,0.7-2.5,0.9c-0.8,0.1-1.6,0-2.4-0.2c-1.5-0.5-2.9-1.2-4-1.2c-1.2-0.1-2.1,0.3-2.7,0.7c-0.6,0.3-1,0.6-1,0.7
		c0,0.1,0.3,0,1-0.1c0.6-0.2,1.5-0.4,2.7-0.2c1.2,0.2,2.5,1,4,1.6c0.4,0.2,0.9,0.3,1.4,0.3c-0.2,0.1-0.4,0.1-0.6,0.2
		c-0.7,0.1-1.3,0-1.9-0.2c-1.2-0.4-2.3-1.1-3.2-1.1c-0.9,0-1.6,0.3-2.2,0.6c-0.5,0.3-0.8,0.5-0.8,0.7c0,0.1,0.3,0,0.8-0.1
		c0.5-0.1,1.2-0.4,2.2-0.2c0.9,0.2,2,0.9,3.2,1.4c0.6,0.3,1.2,0.4,1.9,0.3c0.4-0.1,0.8-0.2,1.2-0.4c0,0-0.1,0.1-0.1,0.1
		c-0.6,0.3-1.1,0.6-1.6,0.8c-0.5,0.1-1,0-1.5-0.2c-1-0.4-1.8-1-2.6-1.1c-0.7,0-1.3,0.3-1.7,0.6c-0.4,0.3-0.6,0.5-0.6,0.6
		c0,0.1,0.2,0,0.6-0.1c0.4-0.1,1-0.3,1.7-0.2c0.7,0.2,1.6,0.9,2.6,1.4c0.5,0.2,1,0.4,1.5,0.3c0.5-0.1,1.1-0.4,1.6-0.7
		c0.6-0.3,1.1-0.6,1.6-0.7c0.5-0.1,1,0,1.5,0.2c1,0.4,1.8,1,2.6,1.1c0.7,0,1.3-0.3,1.7-0.6c0.4-0.3,0.6-0.5,0.6-0.6
		c0-0.1-0.2,0-0.6,0.1c-0.4,0.1-1,0.3-1.7,0.2c-0.7-0.2-1.6-0.9-2.6-1.4c-0.5-0.2-1-0.4-1.5-0.3c-0.1,0-0.2,0-0.3,0.1
		c0.6-0.3,1.1-0.5,1.6-0.6c0.7-0.1,1.3,0,1.9,0.2c1.2,0.4,2.3,1.1,3.2,1.1c0.9,0,1.6-0.3,2.2-0.6c0.5-0.3,0.8-0.6,0.8-0.7
		c0-0.1-0.3,0-0.8,0.1c-0.5,0.1-1.2,0.4-2.2,0.2c-0.9-0.2-2-0.9-3.2-1.4C23.2,24.1,23,24,22.7,24c0.5-0.2,1-0.3,1.5-0.4
		c0.8-0.1,1.6,0,2.4,0.2c1.5,0.5,2.9,1.2,4,1.2c1.2,0.1,2.1-0.3,2.7-0.7c0.6-0.3,1-0.6,1-0.7C34.3,23.5,33.9,23.6,33.3,23.7"/>
</g>
</svg>
