<?xml version="1.0" encoding="UTF-8" standalone="no"?>
<svg
   width="283.464pt"
   height="127.559pt"
   viewBox="0 0 283.464 127.559"
   version="1.1"
   id="svg63"
   sodipodi:docname="eyath.svg"
   inkscape:version="1.4 (86a8ad7, 2024-10-11)"
   xmlns:inkscape="http://www.inkscape.org/namespaces/inkscape"
   xmlns:sodipodi="http://sodipodi.sourceforge.net/DTD/sodipodi-0.dtd"
   xmlns="http://www.w3.org/2000/svg"
   xmlns:svg="http://www.w3.org/2000/svg">
  <defs
     id="defs63" />
  <sodipodi:namedview
     id="namedview63"
     pagecolor="#ffffff"
     bordercolor="#000000"
     borderopacity="0.25"
     inkscape:showpageshadow="2"
     inkscape:pageopacity="0.0"
     inkscape:pagecheckerboard="0"
     inkscape:deskcolor="#d1d1d1"
     inkscape:document-units="pt"
     inkscape:zoom="4.6831345"
     inkscape:cx="188.97599"
     inkscape:cy="67.903238"
     inkscape:window-width="1920"
     inkscape:window-height="1010"
     inkscape:window-x="-6"
     inkscape:window-y="-6"
     inkscape:window-maximized="1"
     inkscape:current-layer="svg63" />
  <path
     fill-rule="nonzero"
     fill="rgb(15.699768%, 54.899597%, 90.59906%)"
     fill-opacity="1"
     d="M 256.027344 40.214844 C 256.027344 51.042969 247.222656 59.855469 236.390625 59.855469 C 225.5625 59.855469 216.75 51.042969 216.75 40.214844 C 216.75 29.386719 225.5625 20.574219 236.390625 20.574219 C 243.191406 20.574219 249.191406 24.050781 252.71875 29.316406 L 220.550781 43.613281 L 223.164062 49.492188 L 255.351562 35.183594 C 255.78125 36.792969 256.027344 38.472656 256.027344 40.214844 M 269.289062 28.984375 L 266.679688 23.109375 L 258.660156 26.675781 C 254.078125 19.164062 245.8125 14.140625 236.390625 14.140625 C 222.015625 14.140625 210.320312 25.839844 210.320312 40.214844 C 210.320312 54.589844 222.015625 66.289062 236.390625 66.289062 C 250.765625 66.289062 262.460938 54.589844 262.460938 40.214844 C 262.460938 37.542969 262.058594 34.964844 261.304688 32.535156 Z M 269.289062 28.984375 "
     id="path1" />
  <path
     fill-rule="nonzero"
     fill="rgb(15.699768%, 54.899597%, 90.59906%)"
     fill-opacity="1"
     d="M 154.734375 44.710938 C 152.691406 53.378906 144.914062 59.855469 135.632812 59.855469 C 128.375 59.855469 122.039062 55.890625 118.636719 50.019531 L 152.355469 35.027344 L 149.742188 29.152344 L 116.363281 43.992188 C 116.125 42.765625 115.992188 41.507812 115.992188 40.214844 C 115.992188 29.386719 124.804688 20.574219 135.632812 20.574219 C 137.511719 20.574219 139.320312 20.855469 141.039062 21.347656 L 142.742188 15.136719 C 140.480469 14.492188 138.097656 14.140625 135.632812 14.140625 C 121.257812 14.140625 109.5625 25.839844 109.5625 40.214844 C 109.5625 42.4375 109.84375 44.597656 110.367188 46.65625 L 103.621094 49.65625 L 106.230469 55.53125 L 112.722656 52.648438 C 117.144531 60.765625 125.757812 66.289062 135.632812 66.289062 C 148.058594 66.289062 158.472656 57.546875 161.074219 45.898438 Z M 154.734375 44.710938 "
     id="path2" />
  <path
     fill-rule="nonzero"
     fill="rgb(15.699768%, 54.899597%, 90.59906%)"
     fill-opacity="1"
     d="M 192.722656 13.851562 L 189.167969 21.832031 L 172.484375 59.277344 L 169.558594 65.839844 L 200.015625 52.613281 L 197.375 46.710938 L 182.09375 53.503906 L 192.632812 29.851562 L 208.191406 65.839844 L 215.199219 65.839844 L 196.191406 21.871094 Z M 192.722656 13.851562 "
     id="path3" />
  <path
     fill-rule="nonzero"
     fill="rgb(15.699768%, 54.899597%, 90.59906%)"
     fill-opacity="1"
     d="M 175.117188 42.21875 L 186.722656 16.175781 L 187.628906 14.140625 L 180.585938 14.140625 L 170.738281 36.242188 L 154.542969 14.140625 L 146.566406 14.140625 L 167.722656 43.011719 L 157.554688 65.839844 L 164.59375 65.839844 L 166.292969 62.03125 L 172.101562 48.984375 Z M 175.117188 42.21875 "
     id="path4" />
  <path
     fill-rule="nonzero"
     fill="rgb(21.199036%, 59.199524%, 35.299683%)"
     fill-opacity="1"
     d="M 29.917969 68.699219 C 29.917969 53.9375 43.769531 39.761719 55.023438 13.597656 L 54.992188 13.449219 C 54.992188 13.449219 54.910156 13.445312 54.867188 13.445312 C 32.480469 13.445312 14.328125 31.59375 14.328125 53.980469 C 14.328125 75.746094 31.484375 93.5 53.007812 94.46875 C 50.414062 93.980469 29.917969 88.921875 29.917969 68.699219 "
     id="path5" />
  <path
     fill-rule="nonzero"
     fill="rgb(15.699768%, 54.899597%, 90.59906%)"
     fill-opacity="1"
     d="M 80.128906 68.699219 C 80.128906 53.9375 66.277344 39.761719 55.023438 13.597656 L 55.050781 13.449219 C 55.050781 13.449219 55.136719 13.445312 55.175781 13.445312 C 77.5625 13.445312 95.714844 31.59375 95.714844 53.980469 C 95.714844 75.746094 78.5625 93.5 57.039062 94.46875 C 59.628906 93.980469 80.128906 88.921875 80.128906 68.699219 "
     id="path6" />
  <path
     fill-rule="nonzero"
     fill="rgb(21.199036%, 59.199524%, 35.299683%)"
     fill-opacity="1"
     d="M 120.238281 95.855469 L 123.886719 78.84375 L 113.589844 78.84375 L 109.941406 95.855469 L 108.285156 95.855469 L 112.273438 77.25 L 125.855469 77.25 L 121.867188 95.855469 Z M 120.238281 95.855469 "
     id="path7" />
  <path
     fill-rule="nonzero"
     fill="rgb(21.199036%, 59.199524%, 35.299683%)"
     fill-opacity="1"
     d="M 132.226562 85.15625 C 129.773438 85.15625 127.746094 87.105469 127.105469 90.085938 C 126.449219 93.136719 127.609375 95.039062 130.132812 95.039062 C 132.613281 95.039062 134.585938 93.113281 135.230469 90.109375 C 135.878906 87.082031 134.703125 85.15625 132.226562 85.15625 M 129.863281 96.191406 C 126.496094 96.191406 124.859375 93.835938 125.664062 90.085938 C 126.457031 86.386719 129.160156 83.980469 132.503906 83.980469 C 135.847656 83.980469 137.453125 86.359375 136.644531 90.132812 C 135.84375 93.859375 133.226562 96.191406 129.863281 96.191406 "
     id="path8" />
  <path
     fill-rule="nonzero"
     fill="rgb(21.199036%, 59.199524%, 35.299683%)"
     fill-opacity="1"
     d="M 137.691406 95.855469 L 140.167969 84.289062 L 141.5625 84.289062 L 139.082031 95.855469 Z M 137.691406 95.855469 "
     id="path9" />
  <path
     fill-rule="nonzero"
     fill="rgb(21.199036%, 59.199524%, 35.299683%)"
     fill-opacity="1"
     d="M 148.914062 82.367188 L 147.78125 82.367188 L 150.722656 79.195312 L 152.457031 79.195312 Z M 149.15625 85.15625 C 146.703125 85.15625 144.675781 87.105469 144.035156 90.085938 C 143.378906 93.136719 144.535156 95.039062 147.0625 95.039062 C 149.539062 95.039062 151.515625 93.113281 152.160156 90.109375 C 152.808594 87.082031 151.632812 85.15625 149.15625 85.15625 M 146.792969 96.191406 C 143.421875 96.191406 141.789062 93.835938 142.59375 90.085938 C 143.386719 86.386719 146.089844 83.980469 149.433594 83.980469 C 152.777344 83.980469 154.382812 86.359375 153.570312 90.132812 C 152.773438 93.859375 150.15625 96.191406 146.792969 96.191406 "
     id="path10" />
  <path
     fill-rule="nonzero"
     fill="rgb(21.199036%, 59.199524%, 35.299683%)"
     fill-opacity="1"
     d="M 159.914062 85.445312 L 157.683594 95.855469 L 156.265625 95.855469 L 158.496094 85.445312 L 155.320312 85.445312 L 155.566406 84.292969 L 163.289062 84.292969 L 163.042969 85.445312 Z M 159.914062 85.445312 "
     id="path11" />
  <path
     fill-rule="nonzero"
     fill="rgb(21.199036%, 59.199524%, 35.299683%)"
     fill-opacity="1"
     d="M 170.507812 95.855469 L 172 88.882812 C 172.433594 86.863281 172.429688 85.207031 169.902344 85.207031 C 166.941406 85.207031 165.667969 87.5625 165.132812 90.0625 L 163.890625 95.855469 L 162.496094 95.855469 L 164.976562 84.289062 L 166.296875 84.289062 L 165.828125 86.480469 C 167.097656 84.820312 168.480469 83.980469 170.453125 83.980469 C 173.511719 83.980469 174.09375 85.734375 173.511719 88.449219 L 171.925781 95.855469 Z M 170.507812 95.855469 "
     id="path12" />
  <path
     fill-rule="nonzero"
     fill="rgb(21.199036%, 59.199524%, 35.299683%)"
     fill-opacity="1"
     d="M 180.183594 85.445312 L 177.953125 95.855469 L 176.535156 95.855469 L 178.765625 85.445312 L 175.589844 85.445312 L 175.835938 84.292969 L 183.558594 84.292969 L 183.308594 85.445312 Z M 180.183594 85.445312 "
     id="path13" />
  <path
     fill-rule="nonzero"
     fill="rgb(21.199036%, 59.199524%, 35.299683%)"
     fill-opacity="1"
     d="M 189.515625 85.15625 C 187.113281 85.15625 185.183594 87.082031 184.546875 90.0625 C 183.890625 93.113281 185.011719 95.0625 187.417969 95.0625 C 189.871094 95.0625 191.820312 93.164062 192.460938 90.15625 C 193.128906 87.03125 192.019531 85.15625 189.515625 85.15625 M 191.265625 95.855469 L 191.75 93.59375 C 190.738281 95.277344 189.027344 96.191406 187.054688 96.191406 C 183.832031 96.191406 182.3125 93.859375 183.121094 90.085938 C 183.921875 86.359375 186.449219 83.980469 189.628906 83.980469 C 191.5 83.980469 192.769531 84.796875 193.207031 86.457031 L 193.632812 84.457031 L 195.007812 84.457031 L 192.5625 95.855469 Z M 191.265625 95.855469 "
     id="path14" />
  <path
     fill-rule="nonzero"
     fill="rgb(21.199036%, 59.199524%, 35.299683%)"
     fill-opacity="1"
     d="M 209.984375 91.191406 C 209.546875 93.21875 210.433594 94.175781 212.167969 94.175781 L 214.105469 94.175781 C 216.410156 94.175781 216.867188 95.160156 216.421875 97.246094 C 216.234375 98.113281 215.464844 99.535156 214.921875 100.375 L 213.472656 100.375 C 213.894531 99.507812 214.59375 98.175781 214.792969 97.246094 C 215.046875 96.058594 214.804688 95.855469 213.589844 95.855469 L 211.753906 95.855469 C 209.242188 95.855469 207.550781 94.8125 208.328125 91.191406 C 209.378906 86.289062 214.792969 80.703125 218.769531 77.976562 L 212.480469 77.976562 L 212.773438 76.613281 L 221.152344 76.613281 L 220.871094 77.945312 C 216.992188 80.582031 211.128906 85.855469 209.984375 91.191406 "
     id="path15" />
  <path
     fill-rule="nonzero"
     fill="rgb(21.199036%, 59.199524%, 35.299683%)"
     fill-opacity="1"
     d="M 227.585938 96.167969 C 225.996094 96.167969 225.296875 95.398438 224.9375 94.050781 C 224.179688 95.449219 222.894531 96.167969 221.429688 96.167969 C 218.515625 96.167969 217.839844 93.378906 218.386719 90.832031 C 218.921875 88.332031 220.601562 86 222.699219 84.292969 L 224.335938 84.292969 C 222.066406 86.023438 220.375 88.1875 219.804688 90.832031 C 219.433594 92.5625 219.554688 95.039062 221.671875 95.039062 C 223.617188 95.039062 224.507812 93.019531 224.847656 91.433594 L 225.828125 86.863281 L 227.171875 86.863281 L 226.195312 91.433594 C 225.886719 92.871094 225.710938 95.039062 227.613281 95.039062 C 229.75 95.039062 231.132812 92.632812 231.503906 90.902344 C 232.085938 88.1875 231.226562 86.144531 229.769531 84.292969 L 231.382812 84.292969 C 232.75 86.09375 233.460938 88.28125 232.914062 90.832031 C 232.375 93.355469 230.445312 96.167969 227.585938 96.167969 "
     id="path16" />
  <path
     fill-rule="nonzero"
     fill="rgb(21.199036%, 59.199524%, 35.299683%)"
     fill-opacity="1"
     d="M 242.230469 82.683594 L 241.101562 82.683594 L 244.039062 79.507812 L 245.773438 79.507812 Z M 242.125 95.855469 L 243.621094 88.882812 C 244.054688 86.863281 244.046875 85.207031 241.523438 85.207031 C 238.5625 85.207031 237.289062 87.5625 236.753906 90.0625 L 235.511719 95.855469 L 234.117188 95.855469 L 236.59375 84.289062 L 237.917969 84.289062 L 237.449219 86.480469 C 238.71875 84.820312 240.101562 83.980469 242.074219 83.980469 C 245.128906 83.980469 245.714844 85.734375 245.132812 88.449219 L 243.542969 95.855469 Z M 242.125 95.855469 "
     id="path17" />
  <path
     fill-rule="nonzero"
     fill="rgb(21.199036%, 59.199524%, 35.299683%)"
     fill-opacity="1"
     d="M 256.105469 87.972656 C 256.140625 86.117188 255.191406 85.15625 253.386719 85.15625 C 250.984375 85.15625 249.03125 87.082031 248.414062 89.96875 C 247.867188 92.515625 248.894531 93.882812 251.296875 94.242188 L 252.992188 94.507812 C 254.554688 94.75 255.523438 95.398438 255.15625 97.105469 C 255 97.824219 254.410156 98.910156 253.921875 99.605469 L 252.574219 99.605469 C 252.949219 98.882812 253.539062 97.921875 253.703125 97.152344 C 253.890625 96.289062 253.484375 95.929688 252.011719 95.734375 L 250.769531 95.566406 C 247.804688 95.15625 246.257812 93.1875 246.929688 90.035156 C 247.699219 86.457031 250.347656 83.980469 253.640625 83.980469 C 256.335938 83.980469 257.777344 85.445312 257.523438 87.972656 Z M 256.105469 87.972656 "
     id="path18" />
  <path
     fill-rule="nonzero"
     fill="rgb(21.199036%, 59.199524%, 35.299683%)"
     fill-opacity="1"
     d="M 260.464844 91.191406 L 259.585938 91.191406 L 261.042969 82.699219 L 262.210938 77.25 L 263.839844 77.25 L 262.675781 82.699219 Z M 258.148438 95.855469 L 258.699219 93.285156 L 260.480469 93.285156 L 259.929688 95.855469 Z M 258.148438 95.855469 "
     id="path19" />
  <path
     fill-rule="nonzero"
     fill="rgb(15.699768%, 54.899597%, 90.59906%)"
     fill-opacity="1"
     d="M 14.171875 113.96875 L 14.171875 107.394531 L 18.457031 107.394531 L 18.457031 108.148438 L 14.988281 108.148438 L 14.988281 110.238281 L 18.226562 110.238281 L 18.226562 110.9375 L 14.988281 110.9375 L 14.988281 113.210938 L 18.496094 113.210938 L 18.496094 113.96875 Z M 14.171875 113.96875 "
     id="path20" />
  <path
     fill-rule="nonzero"
     fill="rgb(15.699768%, 54.899597%, 90.59906%)"
     fill-opacity="1"
     d="M 22.140625 108.148438 L 22.140625 113.96875 L 21.332031 113.96875 L 21.332031 108.148438 L 19.25 108.148438 L 19.25 107.394531 L 24.214844 107.394531 L 24.214844 108.148438 Z M 22.140625 108.148438 "
     id="path21" />
  <path
     fill-rule="nonzero"
     fill="rgb(15.699768%, 54.899597%, 90.59906%)"
     fill-opacity="1"
     d="M 26.695312 108.167969 L 25.628906 111.257812 L 27.746094 111.257812 Z M 28.679688 113.96875 L 27.984375 111.957031 L 25.398438 111.957031 L 24.683594 113.96875 L 23.828125 113.96875 L 26.25 107.367188 L 27.167969 107.367188 L 29.582031 113.96875 Z M 28.679688 113.96875 "
     id="path22" />
  <path
     fill-rule="nonzero"
     fill="rgb(15.699768%, 54.899597%, 90.59906%)"
     fill-opacity="1"
     d="M 30.550781 107.394531 L 31.355469 107.394531 L 31.355469 113.96875 L 30.550781 113.96875 Z M 30.550781 107.394531 "
     id="path23" />
  <path
     fill-rule="nonzero"
     fill="rgb(15.699768%, 54.899597%, 90.59906%)"
     fill-opacity="1"
     d="M 36.191406 108.335938 C 35.957031 108.1875 35.734375 108.148438 35.167969 108.148438 L 33.710938 108.148438 L 33.710938 110.5625 L 35.28125 110.5625 C 35.753906 110.5625 36.050781 110.496094 36.261719 110.328125 C 36.523438 110.121094 36.679688 109.757812 36.679688 109.332031 C 36.679688 108.886719 36.503906 108.53125 36.191406 108.335938 M 36.78125 110.929688 C 36.421875 111.199219 36.097656 111.273438 35.382812 111.273438 L 33.710938 111.273438 L 33.710938 113.96875 L 32.894531 113.96875 L 32.894531 107.394531 L 35.355469 107.394531 C 36.078125 107.394531 36.429688 107.476562 36.792969 107.742188 C 37.265625 108.089844 37.496094 108.609375 37.496094 109.28125 C 37.496094 110.03125 37.253906 110.59375 36.78125 110.929688 "
     id="path24" />
  <path
     fill-rule="nonzero"
     fill="rgb(15.699768%, 54.899597%, 90.59906%)"
     fill-opacity="1"
     d="M 38.644531 113.96875 L 38.644531 107.394531 L 42.929688 107.394531 L 42.929688 108.148438 L 39.460938 108.148438 L 39.460938 110.238281 L 42.699219 110.238281 L 42.699219 110.9375 L 39.460938 110.9375 L 39.460938 113.210938 L 42.96875 113.210938 L 42.96875 113.96875 Z M 38.644531 113.96875 "
     id="path25" />
  <path
     fill-rule="nonzero"
     fill="rgb(15.699768%, 54.899597%, 90.59906%)"
     fill-opacity="1"
     d="M 44.125 107.394531 L 44.929688 107.394531 L 44.929688 113.96875 L 44.125 113.96875 Z M 44.125 107.394531 "
     id="path26" />
  <path
     fill-rule="nonzero"
     fill="rgb(15.699768%, 54.899597%, 90.59906%)"
     fill-opacity="1"
     d="M 48.753906 108.167969 L 47.6875 111.257812 L 49.800781 111.257812 Z M 50.738281 113.96875 L 50.042969 111.957031 L 47.453125 111.957031 L 46.738281 113.96875 L 45.886719 113.96875 L 48.308594 107.367188 L 49.226562 107.367188 L 51.640625 113.96875 Z M 50.738281 113.96875 "
     id="path27" />
  <path
     fill-rule="nonzero"
     fill="rgb(15.699768%, 54.899597%, 90.59906%)"
     fill-opacity="1"
     d="M 57.359375 111.28125 L 57.359375 113.96875 L 56.550781 113.96875 L 56.550781 111.28125 L 54.140625 107.394531 L 55.121094 107.394531 L 56.980469 110.5625 L 58.816406 107.394531 L 59.753906 107.394531 Z M 57.359375 111.28125 "
     id="path28" />
  <path
     fill-rule="nonzero"
     fill="rgb(15.699768%, 54.899597%, 90.59906%)"
     fill-opacity="1"
     d="M 62.105469 108.167969 L 60.324219 113.269531 L 63.851562 113.269531 Z M 59.433594 113.96875 L 59.425781 113.464844 L 61.660156 107.367188 L 62.578125 107.367188 L 64.777344 113.394531 L 64.777344 113.96875 Z M 59.433594 113.96875 "
     id="path29" />
  <path
     fill-rule="nonzero"
     fill="rgb(15.699768%, 54.899597%, 90.59906%)"
     fill-opacity="1"
     d="M 69.132812 108.335938 C 68.902344 108.1875 68.679688 108.148438 68.113281 108.148438 L 66.65625 108.148438 L 66.65625 110.5625 L 68.222656 110.5625 C 68.695312 110.5625 68.992188 110.496094 69.207031 110.328125 C 69.46875 110.121094 69.625 109.757812 69.625 109.332031 C 69.625 108.886719 69.449219 108.53125 69.132812 108.335938 M 69.726562 110.929688 C 69.363281 111.199219 69.039062 111.273438 68.324219 111.273438 L 66.65625 111.273438 L 66.65625 113.96875 L 65.839844 113.96875 L 65.839844 107.394531 L 68.296875 107.394531 C 69.023438 107.394531 69.375 107.476562 69.738281 107.742188 C 70.207031 108.089844 70.441406 108.609375 70.441406 109.28125 C 70.441406 110.03125 70.199219 110.59375 69.726562 110.929688 "
     id="path30" />
  <path
     fill-rule="nonzero"
     fill="rgb(15.699768%, 54.899597%, 90.59906%)"
     fill-opacity="1"
     d="M 71.589844 113.96875 L 71.589844 107.394531 L 75.875 107.394531 L 75.875 108.148438 L 72.40625 108.148438 L 72.40625 110.238281 L 75.644531 110.238281 L 75.644531 110.9375 L 72.40625 110.9375 L 72.40625 113.210938 L 75.914062 113.210938 L 75.914062 113.96875 Z M 71.589844 113.96875 "
     id="path31" />
  <path
     fill-rule="nonzero"
     fill="rgb(15.699768%, 54.899597%, 90.59906%)"
     fill-opacity="1"
     d="M 79.890625 111.28125 L 79.890625 113.96875 L 79.082031 113.96875 L 79.082031 111.28125 L 76.667969 107.394531 L 77.652344 107.394531 L 79.507812 110.5625 L 81.34375 107.394531 L 82.285156 107.394531 Z M 79.890625 111.28125 "
     id="path32" />
  <path
     fill-rule="nonzero"
     fill="rgb(15.699768%, 54.899597%, 90.59906%)"
     fill-opacity="1"
     d="M 82.90625 113.96875 L 82.90625 113.238281 L 85.003906 110.527344 L 83.066406 108.148438 L 83.066406 107.394531 L 87.667969 107.394531 L 87.667969 108.148438 L 83.957031 108.148438 L 85.933594 110.527344 L 83.84375 113.238281 L 87.84375 113.238281 L 87.84375 113.96875 Z M 82.90625 113.96875 "
     id="path33" />
  <path
     fill-rule="nonzero"
     fill="rgb(15.699768%, 54.899597%, 90.59906%)"
     fill-opacity="1"
     d="M 93.019531 113.96875 L 93.019531 110.890625 L 89.753906 110.890625 L 89.753906 113.96875 L 88.945312 113.96875 L 88.945312 107.394531 L 89.753906 107.394531 L 89.753906 110.140625 L 93.007812 110.140625 L 93.007812 107.394531 L 93.824219 107.394531 L 93.824219 113.96875 Z M 93.019531 113.96875 "
     id="path34" />
  <path
     fill-rule="nonzero"
     fill="rgb(15.699768%, 54.899597%, 90.59906%)"
     fill-opacity="1"
     d="M 94.886719 113.96875 L 94.886719 113.238281 L 96.984375 110.527344 L 95.042969 108.148438 L 95.042969 107.394531 L 99.644531 107.394531 L 99.644531 108.148438 L 95.933594 108.148438 L 97.910156 110.527344 L 95.824219 113.238281 L 99.824219 113.238281 L 99.824219 113.96875 Z M 94.886719 113.96875 "
     id="path35" />
  <path
     fill-rule="nonzero"
     fill="rgb(15.699768%, 54.899597%, 90.59906%)"
     fill-opacity="1"
     d="M 105.144531 108 C 104.726562 108 104.421875 108.316406 104.421875 108.71875 C 104.421875 108.984375 104.578125 109.332031 104.875 109.71875 C 105.015625 109.90625 104.984375 109.863281 105.03125 109.921875 C 105.597656 109.320312 105.847656 109.222656 105.847656 108.789062 C 105.847656 108.335938 105.550781 108 105.144531 108 M 104.78125 110.78125 C 104.375 111.214844 103.695312 111.273438 103.695312 112.230469 C 103.695312 112.894531 104.234375 113.445312 104.882812 113.445312 C 105.414062 113.445312 105.800781 113.199219 106.210938 112.605469 Z M 107.285156 113.96875 L 106.617188 113.152344 C 106.542969 113.289062 106.320312 113.535156 106.125 113.683594 C 105.765625 113.96875 105.335938 114.097656 104.816406 114.097656 C 103.6875 114.097656 102.933594 113.367188 102.933594 112.261719 C 102.933594 111.671875 103.167969 111.175781 103.632812 110.78125 C 103.882812 110.574219 104.179688 110.375 104.382812 110.277344 C 103.902344 109.667969 103.707031 109.222656 103.707031 108.75 C 103.707031 107.929688 104.300781 107.355469 105.144531 107.355469 C 105.976562 107.355469 106.5625 107.921875 106.5625 108.730469 C 106.5625 109.421875 106.175781 109.648438 105.429688 110.4375 L 106.550781 111.886719 C 106.664062 111.5625 106.757812 111.148438 106.757812 110.863281 L 107.453125 110.863281 C 107.453125 111.394531 107.25 112.132812 107.035156 112.488281 L 108.242188 113.96875 Z M 107.285156 113.96875 "
     id="path36" />
  <path
     fill-rule="nonzero"
     fill="rgb(15.699768%, 54.899597%, 90.59906%)"
     fill-opacity="1"
     d="M 113.507812 108.167969 L 112.441406 111.257812 L 114.554688 111.257812 Z M 115.492188 113.96875 L 114.796875 111.957031 L 112.207031 111.957031 L 111.492188 113.96875 L 110.640625 113.96875 L 113.0625 107.367188 L 113.980469 107.367188 L 116.394531 113.96875 Z M 115.492188 113.96875 "
     id="path37" />
  <path
     fill-rule="nonzero"
     fill="rgb(15.699768%, 54.899597%, 90.59906%)"
     fill-opacity="1"
     d="M 121.417969 113.96875 L 121.417969 108.136719 L 118.152344 108.136719 L 118.152344 113.96875 L 117.347656 113.96875 L 117.347656 107.394531 L 122.226562 107.394531 L 122.226562 113.96875 Z M 121.417969 113.96875 "
     id="path38" />
  <path
     fill-rule="nonzero"
     fill="rgb(15.699768%, 54.899597%, 90.59906%)"
     fill-opacity="1"
     d="M 126.398438 107.980469 C 125.109375 107.980469 124.261719 109.042969 124.261719 110.664062 C 124.261719 112.320312 125.109375 113.386719 126.417969 113.386719 C 127.695312 113.386719 128.542969 112.3125 128.542969 110.683594 C 128.542969 109.054688 127.695312 107.980469 126.398438 107.980469 M 126.398438 114.117188 C 124.617188 114.117188 123.445312 112.753906 123.445312 110.675781 C 123.445312 108.609375 124.625 107.242188 126.40625 107.242188 C 128.179688 107.242188 129.367188 108.621094 129.367188 110.675781 C 129.367188 112.746094 128.1875 114.117188 126.398438 114.117188 "
     id="path39" />
  <path
     fill-rule="nonzero"
     fill="rgb(15.699768%, 54.899597%, 90.59906%)"
     fill-opacity="1"
     d="M 133.988281 113.96875 L 132.308594 111.226562 L 130.585938 113.96875 L 129.65625 113.96875 L 131.828125 110.585938 L 129.785156 107.394531 L 130.769531 107.394531 L 132.320312 110.003906 L 133.933594 107.394531 L 134.863281 107.394531 L 132.800781 110.585938 L 134.984375 113.96875 Z M 133.988281 113.96875 "
     id="path40" />
  <path
     fill-rule="nonzero"
     fill="rgb(15.699768%, 54.899597%, 90.59906%)"
     fill-opacity="1"
     d="M 135.957031 113.96875 L 135.957031 107.394531 L 140.246094 107.394531 L 140.246094 108.148438 L 136.773438 108.148438 L 136.773438 110.238281 L 140.011719 110.238281 L 140.011719 110.9375 L 136.773438 110.9375 L 136.773438 113.210938 L 140.28125 113.210938 L 140.28125 113.96875 Z M 135.957031 113.96875 "
     id="path41" />
  <path
     fill-rule="nonzero"
     fill="rgb(15.699768%, 54.899597%, 90.59906%)"
     fill-opacity="1"
     d="M 143.925781 108.148438 L 143.925781 113.96875 L 143.117188 113.96875 L 143.117188 108.148438 L 141.039062 108.148438 L 141.039062 107.394531 L 146.003906 107.394531 L 146.003906 108.148438 Z M 143.925781 108.148438 "
     id="path42" />
  <path
     fill-rule="nonzero"
     fill="rgb(15.699768%, 54.899597%, 90.59906%)"
     fill-opacity="1"
     d="M 146.984375 113.96875 L 146.984375 107.394531 L 151.273438 107.394531 L 151.273438 108.148438 L 147.800781 108.148438 L 147.800781 110.238281 L 151.039062 110.238281 L 151.039062 110.9375 L 147.800781 110.9375 L 147.800781 113.210938 L 151.308594 113.210938 L 151.308594 113.96875 Z M 146.984375 113.96875 "
     id="path43" />
  <path
     fill-rule="nonzero"
     fill="rgb(15.699768%, 54.899597%, 90.59906%)"
     fill-opacity="1"
     d="M 155.285156 111.28125 L 155.285156 113.96875 L 154.476562 113.96875 L 154.476562 111.28125 L 152.066406 107.394531 L 153.050781 107.394531 L 154.90625 110.5625 L 156.742188 107.394531 L 157.675781 107.394531 Z M 155.285156 111.28125 "
     id="path44" />
  <path
     fill-rule="nonzero"
     fill="rgb(15.699768%, 54.899597%, 90.59906%)"
     fill-opacity="1"
     d="M 158.304688 113.96875 L 158.304688 113.238281 L 160.402344 110.527344 L 158.460938 108.148438 L 158.460938 107.394531 L 163.066406 107.394531 L 163.066406 108.148438 L 159.351562 108.148438 L 161.328125 110.527344 L 159.238281 113.238281 L 163.238281 113.238281 L 163.238281 113.96875 Z M 158.304688 113.96875 "
     id="path45" />
  <path
     fill-rule="nonzero"
     fill="rgb(15.699768%, 54.899597%, 90.59906%)"
     fill-opacity="1"
     d="M 168.414062 113.96875 L 168.414062 110.890625 L 165.148438 110.890625 L 165.148438 113.96875 L 164.34375 113.96875 L 164.34375 107.394531 L 165.148438 107.394531 L 165.148438 110.140625 L 168.40625 110.140625 L 168.40625 107.394531 L 169.222656 107.394531 L 169.222656 113.96875 Z M 168.414062 113.96875 "
     id="path46" />
  <path
     fill-rule="nonzero"
     fill="rgb(15.699768%, 54.899597%, 90.59906%)"
     fill-opacity="1"
     d="M 170.28125 113.96875 L 170.28125 113.238281 L 172.378906 110.527344 L 170.441406 108.148438 L 170.441406 107.394531 L 175.042969 107.394531 L 175.042969 108.148438 L 171.332031 108.148438 L 173.308594 110.527344 L 171.21875 113.238281 L 175.21875 113.238281 L 175.21875 113.96875 Z M 170.28125 113.96875 "
     id="path47" />
  <path
     fill-rule="nonzero"
     fill="rgb(15.699768%, 54.899597%, 90.59906%)"
     fill-opacity="1"
     d="M 181.28125 107.980469 C 180.140625 107.980469 179.34375 108.816406 179.175781 110.140625 L 183.386719 110.140625 C 183.222656 108.816406 182.433594 107.980469 181.28125 107.980469 M 179.15625 110.890625 C 179.230469 112.417969 180.058594 113.386719 181.296875 113.386719 C 182.527344 113.386719 183.351562 112.402344 183.414062 110.890625 Z M 181.28125 114.117188 C 179.5 114.117188 178.332031 112.753906 178.332031 110.675781 C 178.332031 108.609375 179.507812 107.242188 181.292969 107.242188 C 183.0625 107.242188 184.25 108.621094 184.25 110.675781 C 184.25 112.746094 183.074219 114.117188 181.28125 114.117188 "
     id="path48" />
  <path
     fill-rule="nonzero"
     fill="rgb(15.699768%, 54.899597%, 90.59906%)"
     fill-opacity="1"
     d="M 185.464844 113.96875 L 185.464844 107.394531 L 189.75 107.394531 L 189.75 108.148438 L 186.277344 108.148438 L 186.277344 110.238281 L 189.515625 110.238281 L 189.515625 110.9375 L 186.277344 110.9375 L 186.277344 113.210938 L 189.785156 113.210938 L 189.785156 113.96875 Z M 185.464844 113.96875 "
     id="path49" />
  <path
     fill-rule="nonzero"
     fill="rgb(15.699768%, 54.899597%, 90.59906%)"
     fill-opacity="1"
     d="M 190.632812 113.96875 L 190.632812 113.238281 L 192.730469 110.527344 L 190.792969 108.148438 L 190.792969 107.394531 L 195.394531 107.394531 L 195.394531 108.148438 L 191.683594 108.148438 L 193.660156 110.527344 L 191.566406 113.238281 L 195.570312 113.238281 L 195.570312 113.96875 Z M 190.632812 113.96875 "
     id="path50" />
  <path
     fill-rule="nonzero"
     fill="rgb(15.699768%, 54.899597%, 90.59906%)"
     fill-opacity="1"
     d="M 196.378906 113.96875 L 196.378906 113.238281 L 198.476562 110.527344 L 196.535156 108.148438 L 196.535156 107.394531 L 201.140625 107.394531 L 201.140625 108.148438 L 197.425781 108.148438 L 199.402344 110.527344 L 197.3125 113.238281 L 201.3125 113.238281 L 201.3125 113.96875 Z M 196.378906 113.96875 "
     id="path51" />
  <path
     fill-rule="nonzero"
     fill="rgb(15.699768%, 54.899597%, 90.59906%)"
     fill-opacity="1"
     d="M 204.878906 108.167969 L 203.8125 111.257812 L 205.925781 111.257812 Z M 206.867188 113.96875 L 206.167969 111.957031 L 203.582031 111.957031 L 202.867188 113.96875 L 202.011719 113.96875 L 204.4375 107.367188 L 205.355469 107.367188 L 207.765625 113.96875 Z M 206.867188 113.96875 "
     id="path52" />
  <path
     fill-rule="nonzero"
     fill="rgb(15.699768%, 54.899597%, 90.59906%)"
     fill-opacity="1"
     d="M 212.820312 113.96875 L 211.019531 108.128906 L 209.238281 113.96875 L 208.339844 113.96875 L 210.546875 107.394531 L 211.476562 107.394531 L 213.683594 113.96875 Z M 212.820312 113.96875 "
     id="path53" />
  <path
     fill-rule="nonzero"
     fill="rgb(15.699768%, 54.899597%, 90.59906%)"
     fill-opacity="1"
     d="M 217.054688 107.980469 C 215.765625 107.980469 214.921875 109.042969 214.921875 110.664062 C 214.921875 112.320312 215.765625 113.386719 217.074219 113.386719 C 218.351562 113.386719 219.195312 112.3125 219.195312 110.683594 C 219.195312 109.054688 218.351562 107.980469 217.054688 107.980469 M 217.054688 114.117188 C 215.273438 114.117188 214.105469 112.753906 214.105469 110.675781 C 214.105469 108.609375 215.28125 107.242188 217.0625 107.242188 C 218.835938 107.242188 220.023438 108.621094 220.023438 110.675781 C 220.023438 112.746094 218.847656 114.117188 217.054688 114.117188 "
     id="path54" />
  <path
     fill-rule="nonzero"
     fill="rgb(15.699768%, 54.899597%, 90.59906%)"
     fill-opacity="1"
     d="M 225.300781 113.96875 L 221.980469 108.464844 L 221.980469 113.96875 L 221.183594 113.96875 L 221.183594 107.394531 L 222.144531 107.394531 L 225.421875 112.933594 L 225.421875 107.394531 L 226.199219 107.394531 L 226.199219 113.96875 Z M 225.300781 113.96875 "
     id="path55" />
  <path
     fill-rule="nonzero"
     fill="rgb(15.699768%, 54.899597%, 90.59906%)"
     fill-opacity="1"
     d="M 227.746094 107.394531 L 228.554688 107.394531 L 228.554688 113.96875 L 227.746094 113.96875 Z M 227.746094 107.394531 "
     id="path56" />
  <path
     fill-rule="nonzero"
     fill="rgb(15.699768%, 54.899597%, 90.59906%)"
     fill-opacity="1"
     d="M 234.179688 113.96875 L 231.925781 110.632812 L 230.902344 111.671875 L 230.902344 113.96875 L 230.097656 113.96875 L 230.097656 107.394531 L 230.894531 107.394531 L 230.894531 110.675781 L 234.039062 107.394531 L 235.105469 107.394531 L 232.5 110.03125 L 235.210938 113.96875 Z M 234.179688 113.96875 "
     id="path57" />
  <path
     fill-rule="nonzero"
     fill="rgb(15.699768%, 54.899597%, 90.59906%)"
     fill-opacity="1"
     d="M 240.257812 113.96875 L 240.257812 110.890625 L 236.992188 110.890625 L 236.992188 113.96875 L 236.183594 113.96875 L 236.183594 107.394531 L 236.992188 107.394531 L 236.992188 110.140625 L 240.25 110.140625 L 240.25 107.394531 L 241.066406 107.394531 L 241.066406 113.96875 Z M 240.257812 113.96875 "
     id="path58" />
  <path
     fill-rule="nonzero"
     fill="rgb(15.699768%, 54.899597%, 90.59906%)"
     fill-opacity="1"
     d="M 242.128906 113.96875 L 242.128906 113.238281 L 244.222656 110.527344 L 242.285156 108.148438 L 242.285156 107.394531 L 246.886719 107.394531 L 246.886719 108.148438 L 243.175781 108.148438 L 245.152344 110.527344 L 243.0625 113.238281 L 247.0625 113.238281 L 247.0625 113.96875 Z M 242.128906 113.96875 "
     id="path59" />
  <path
     fill-rule="nonzero"
     fill="rgb(15.699768%, 54.899597%, 90.59906%)"
     fill-opacity="1"
     d="M 252.644531 108.167969 L 251.578125 111.257812 L 253.691406 111.257812 Z M 254.628906 113.96875 L 253.933594 111.957031 L 251.34375 111.957031 L 250.628906 113.96875 L 249.777344 113.96875 L 252.199219 107.367188 L 253.117188 107.367188 L 255.527344 113.96875 Z M 254.628906 113.96875 "
     id="path60" />
  <path
     fill-rule="nonzero"
     fill="rgb(15.699768%, 54.899597%, 90.59906%)"
     fill-opacity="1"
     d="M 256.496094 112.953125 L 257.507812 112.953125 L 257.507812 113.96875 L 256.496094 113.96875 Z M 256.496094 112.953125 "
     id="path61" />
  <path
     fill-rule="nonzero"
     fill="rgb(15.699768%, 54.899597%, 90.59906%)"
     fill-opacity="1"
     d="M 259.007812 113.96875 L 259.007812 107.394531 L 263.292969 107.394531 L 263.292969 108.148438 L 259.824219 108.148438 L 259.824219 110.238281 L 263.0625 110.238281 L 263.0625 110.9375 L 259.824219 110.9375 L 259.824219 113.210938 L 263.332031 113.210938 L 263.332031 113.96875 Z M 259.007812 113.96875 "
     id="path62" />
  <path
     fill-rule="nonzero"
     fill="rgb(15.699768%, 54.899597%, 90.59906%)"
     fill-opacity="1"
     d="M 264.472656 112.953125 L 265.480469 112.953125 L 265.480469 113.96875 L 264.472656 113.96875 Z M 264.472656 112.953125 "
     id="path63" />
</svg>
