<?xml version="1.0" encoding="UTF-8" standalone="no"?>
<svg
   xmlns:dc="http://purl.org/dc/elements/1.1/"
   xmlns:cc="http://creativecommons.org/ns#"
   xmlns:rdf="http://www.w3.org/1999/02/22-rdf-syntax-ns#"
   xmlns:svg="http://www.w3.org/2000/svg"
   xmlns="http://www.w3.org/2000/svg"
   xmlns:sodipodi="http://sodipodi.sourceforge.net/DTD/sodipodi-0.dtd"
   xmlns:inkscape="http://www.inkscape.org/namespaces/inkscape"
   inkscape:version="1.0 (4035a4fb49, 2020-05-01)"
   sodipodi:docname="IHU_LOGO_VEC_en.svg"
   id="svg7"
   version="1.1"
   viewBox="0 0 369 102"
   height="102"
   width="369">
  <metadata
     id="metadata13">
    <rdf:RDF>
      <cc:Work
         rdf:about="">
        <dc:format>image/svg+xml</dc:format>
        <dc:type
           rdf:resource="http://purl.org/dc/dcmitype/StillImage" />
        <dc:title>Logo_Muted_InternationalHellenicUniversity</dc:title>
      </cc:Work>
    </rdf:RDF>
  </metadata>
  <defs
     id="defs11" />
  <sodipodi:namedview
     fit-margin-bottom="0"
     fit-margin-right="0"
     fit-margin-left="0"
     fit-margin-top="0"
     inkscape:current-layer="Logo"
     inkscape:window-maximized="1"
     inkscape:window-y="-9"
     inkscape:window-x="-9"
     inkscape:cy="242.81082"
     inkscape:cx="379.01371"
     inkscape:zoom="1.0733881"
     showgrid="false"
     id="namedview9"
     inkscape:window-height="1001"
     inkscape:window-width="1920"
     inkscape:pageshadow="2"
     inkscape:pageopacity="0"
     guidetolerance="10"
     gridtolerance="10"
     objecttolerance="10"
     borderopacity="1"
     bordercolor="#666666"
     pagecolor="#ffffff" />
  <title
     id="title2">Logo_Muted_InternationalHellenicUniversity</title>
  <g
     transform="translate(-86.0803,-27.860342)"
     fill-rule="evenodd"
     fill="none"
     stroke-width="1"
     stroke="none"
     id="Logo_Muted_InternationalHellenicUniversity">
    <g
       fill="#a1afc0"
       transform="translate(64.999935,44)"
       id="Logo">
      <path
         style="fill:#213e5f;fill-opacity:1"
         id="Shape"
         d="m 27.511514,18.427209 0.140521,0.121909 0.147015,0.141974 0.152172,0.158946 0.155987,0.172824 0.158466,0.183611 0.319006,0.387203 0.709489,0.89358 0.297806,0.35759 v 0 l 0.150311,0.162558 c 2.065448,2.076679 2.77185,4.961554 3.125656,7.916259 l 0.08169,0.739703 0.07049,0.74005 0.12137,1.470881 0.08763,1.085001 0.06335,0.709879 c 0.05565,0.586191 0.119658,1.158053 0.201125,1.708911 l 0.07878,0.489255 0.536435,0.707824 0.202097,0.373475 c -0.195119,-0.624557 -0.375363,-1.715865 -0.419111,-2.512958 -0.03729,-0.725923 0.0823,-1.504002 0.226766,-2.282366 l 0.218836,-1.161276 c 0.310572,-1.764145 1.572147,-4.149685 2.725698,-5.444417 0.762475,-0.856486 1.063264,-0.644609 1.157029,-0.07038 l 0.02138,0.173315 0.01143,0.189375 0.0028,0.201776 -0.0091,0.317912 -0.02107,0.325231 -0.115035,1.127113 c -0.31436,3.237174 -1.238574,6.678279 -3.461035,9.112383 l -0.22314,0.233996 5.415466,9.932436 c 0.203078,0.398351 0.459289,0.837076 0.754689,1.303986 -0.64241,-2.887484 -1.103104,-6.980489 -0.390684,-9.205893 0.516295,-1.610353 1.069969,-2.684831 1.70107,-3.779084 l 0.938198,-1.601343 v 0 l 0.290057,-0.509689 v 0 l 0.224613,-0.406555 c 0.50478,-0.928556 0.8854,-0.787695 1.163625,-0.06795 l 0.07027,0.200568 0.06571,0.224896 0.03117,0.120966 v 0 l 0.08692,0.394068 v 0 l 0.05255,0.286269 0.07094,0.459898 0.06175,0.490687 0.05284,0.514946 0.04423,0.532672 0.02484,0.361738 0.02403,0.418299 c 0.03255,0.628987 0.0495,1.261621 0.05282,1.853626 l -0.0018,0.634061 -0.0088,0.469356 -0.01508,0.434006 -0.02105,0.392137 -0.02672,0.343749 c -0.01964,0.211588 -0.04287,0.386571 -0.0693,0.516257 -0.290515,1.424299 -1.036743,2.783278 -1.808461,4.095089 l -0.513534,0.867752 c -0.592512,1.00469 -1.142608,1.983286 -1.447864,2.944329 0.419714,0.613479 0.884485,1.257113 1.368407,1.908274 l 0.737008,0.979559 1.116868,1.453389 1.408347,1.818985 0.625821,0.820368 c 0.09833,0.130362 0.193407,0.257306 0.284821,0.380478 0.437136,0.588349 0.896876,1.159863 1.377203,1.715141 L 48.035665,57.989521 C 47.055343,54.4678 46.54295,50.976516 46.986711,46.976889 c 0.137423,-1.221473 0.858001,-2.78732 1.685445,-4.31153 l 0.387752,-0.699119 0.392521,-0.684773 1.102128,-1.883904 0.307544,-0.543052 v 0 c 0.337544,-0.611245 0.645922,-0.339756 0.911677,0.374412 l 0.09201,0.269724 0.08833,0.302187 0.08453,0.330351 0.0408,0.174394 v 0 l 0.07858,0.364535 0.07445,0.381951 0.07019,0.395066 0.06579,0.403884 0.09016,0.612952 0.103613,0.808002 0.08367,0.765881 0.06268,0.689366 0.04722,0.701711 0.01094,0.309899 -2.23e-4,0.151339 -0.0024,0.05748 c -0.214043,3.440333 -1.020841,5.787245 -2.217162,8.483163 l -0.390496,0.864627 -0.852994,1.839237 c -0.06706,0.145305 -0.131299,0.330032 -0.194124,0.527199 l -0.218696,0.70525 -0.08696,0.250831 c -0.05828,0.154922 -0.117367,0.281511 -0.17843,0.357354 5.900082,6.521426 14.656232,10.746435 22.81469,13.697711 -0.04067,-0.09301 -0.0769,-0.236577 -0.107905,-0.441919 -0.07909,-0.53867 -0.48997,-1.15237 -0.601853,-1.777612 L 70.58139,69.96333 C 70.55681,69.87861 70.53235,69.792423 70.50804,69.704821 L 70.364172,69.162728 70.225061,68.589593 70.091889,67.98828 C 70.00535,67.578649 69.92356,67.152144 69.848095,66.712585 l -0.108256,-0.668651 -0.09759,-0.685366 -0.08052,-0.653248 c -0.55018,-4.829138 -0.186911,-10.445657 2.804252,-12.695519 0.09783,-0.07366 0.235065,0.145974 0.394717,0.58409 l 0.123677,0.368384 v 0 l 0.184239,0.640032 v 0 l 0.165234,0.650887 0.169083,0.732518 0.170178,0.80203 0.112702,0.56732 0.165888,0.890957 0.107293,0.615385 0.103703,0.628327 0.147038,0.958905 0.09116,0.644977 0.08471,0.645353 0.07745,0.642138 0.100782,0.949329 0.05573,0.618396 0.04562,0.602615 0.03469,0.583246 0.02294,0.560284 c 0.0448,1.460285 -0.0444,2.637357 -0.337165,3.224837 -0.123456,0.247019 -0.236883,0.516123 -0.347562,0.796124 l -0.33108,0.861503 c -0.299918,0.774946 -0.6321,1.547813 -1.13467,2.106425 l -0.196721,0.199022 c -0.08421,0.07642 -0.169496,0.194102 -0.253616,0.320702 l -0.21941,0.335187 c -0.06663,0.09708 -0.131082,0.180562 -0.192093,0.231976 l 0.762535,0.270468 2.215284,0.773483 c 8.128444,2.818598 16.326858,5.415393 24.822664,6.825466 l 1.160379,0.184836 1.31945,3.393623 c -2.643786,-1.007003 -5.54678,-1.856201 -8.593281,-2.680011 l -1.844197,-0.492298 -3.769504,-0.991743 c -4.765591,-1.261523 -9.697882,-2.644688 -14.406391,-4.596408 0.913986,1.262175 1.245239,3.068208 1.276732,4.04421 l 0.002,0.118439 -0.0057,0.265683 -0.01874,0.29999 -0.03202,0.329373 c -0.0065,0.05707 -0.01347,0.115161 -0.02106,0.174168 l -0.05239,0.364222 c -0.0099,0.06226 -0.02034,0.125239 -0.03138,0.188823 l -0.0733,0.387997 -0.04197,0.197942 -0.09475,0.400698 -0.109355,0.403013 c -0.505863,1.7443 -1.429885,3.415195 -2.860425,3.21057 -2.238604,-0.319156 -3.12495,-2.751623 -3.412842,-4.632529 l -0.04982,-0.368038 c -0.007,-0.05985 -0.01349,-0.118891 -0.01935,-0.177023 l -0.02907,-0.347223 -0.01571,-0.318828 -0.004,-0.470739 0.0077,-0.356212 0.01816,-0.382682 0.03072,-0.403007 0.04538,-0.417186 c 0.213603,-1.688907 0.829092,-3.570631 2.448859,-3.875339 L 70.22574,74.04353 69.505434,73.69368 c -7.468143,7.572534 -17.765771,10.654988 -26.631382,8.251565 -1.485694,-0.402616 -1.502598,-0.923598 -0.877859,-1.448936 l 0.155185,-0.121257 0.175705,-0.121101 0.245049,-0.15068 v 0 l 0.269172,-0.149341 0.229741,-0.1181 0.240097,-0.116542 0.502227,-0.227164 0.387054,-0.163969 0.591686,-0.238123 0.913737,-0.351799 c 3.884711,-1.485267 7.857919,-2.343252 11.831402,-3.135467 l 2.978785,-0.590603 c 2.645404,-0.529616 5.281128,-1.092393 7.881032,-1.854703 l -2.282471,-1.110531 -1.47508,-0.726217 -1.439286,-0.720883 c -4.739353,-2.399746 -8.902997,-4.795948 -12.699511,-8.04217 l -0.906142,0.935069 -0.579819,0.588117 -0.284018,0.283875 -0.558567,0.548036 c -3.134704,3.032562 -5.810228,4.841374 -11.062592,6.287172 -2.957179,0.815701 -8.854176,1.252408 -11.753485,0.317431 -0.153962,-0.04955 -0.119791,-0.196404 0.04477,-0.406387 l 0.128392,-0.148967 c 0.02441,-0.02626 0.05027,-0.05321 0.0775,-0.0808 L 25.785972,70.7084 c 0.0324,-0.02996 0.06602,-0.06045 0.10077,-0.09145 l 0.257735,-0.221984 0.140637,-0.115883 v 0 l 0.301161,-0.239387 0.322813,-0.246671 0.512039,-0.376102 0.5279,-0.373053 0.524052,-0.358341 0.658678,-0.434748 0.438415,-0.278664 0.368861,-0.22508 0.279596,-0.159834 0.06996,-0.03676 C 35.14234,65.08419 39.26843,63.61534 44.336213,62.40098 l 0.795354,-0.185895 v 0 l 0.155523,-0.02895 v 0 l 0.292081,-0.04497 0.353012,-0.04603 0.62007,-0.06904 0.696242,-0.06634 0.896233,-0.07262 1.018472,-0.06596 v 0 l 0.474426,-0.02345 v 0 c -2.12882,-1.922375 -4.143373,-4.14154 -6.082599,-6.813706 l 0.08986,-0.126769 c -0.219426,0.330657 -0.438098,0.551596 -0.656016,0.755344 l -0.26114,0.242169 c -0.04346,0.04096 -0.0869,0.08271 -0.130299,0.125999 l -0.588881,0.160225 -1.653187,0.460782 c -1.59174,0.439338 -3.052335,0.799662 -4.860563,0.948832 -2.531005,0.20901 -4.777588,0.01327 -7.22626,-0.548709 l -1.065538,-0.256839 -0.362728,-0.09438 c -0.434296,-0.119225 -0.883281,-0.269289 -1.092784,-0.439052 -0.07266,-0.05836 0.14339,-0.202643 0.477396,-0.374504 l 0.269952,-0.133155 0.298178,-0.138024 0.616999,-0.268774 0.868342,-0.355266 c 3.950622,-1.554448 9.899702,-2.127747 13.906265,-0.786843 0.09716,0.03264 0.220714,0.05418 0.355547,0.07143 l 0.517305,0.05656 c -0.322699,-0.45782 -0.642577,-0.93051 -0.960622,-1.416953 l -0.37493,-0.576032 -0.715126,-1.113364 -0.34126,-0.539185 v 0 L 40.012958,49.5895 39.396752,48.575787 39.100957,48.079477 v 0 l -0.569636,-0.976163 c -0.185355,-0.322348 -0.366423,-0.642069 -0.543914,-0.960397 l -0.06332,0.0052 -0.407737,0.0081 c -0.336852,0.01114 -0.775989,0.05378 -1.150795,0.247654 -0.708431,0.368893 -2.033652,0.801758 -3.539105,1.156909 l -0.706033,0.157881 c -2.385503,0.50444 -5.038627,0.773349 -6.369721,0.290807 l -0.239979,-0.09909 -0.260704,-0.0911 -1.006842,-0.330671 -0.48087,-0.169151 -0.29967,-0.11478 -0.224263,-0.09446 c -0.349195,-0.15552 -0.563498,-0.29919 -0.462719,-0.396614 0.424383,-0.411698 1.932872,-0.977302 2.461422,-1.100427 l 1.830756,-0.433139 c 2.536471,-0.591678 4.887174,-1.036569 7.777665,-0.651896 0.250178,0.03285 0.568157,0.165289 0.932127,0.345295 l 0.378493,0.193935 0.614625,0.325081 0.960697,0.491504 0.164685,0.0913 C 36.81472,44.027263 35.863998,42.123819 34.87996,39.980554 l -0.595734,-1.317013 -0.303325,-0.684357 v 0 l -0.343426,-0.788055 c -0.08875,0.418158 -0.825506,0.765303 -1.603366,1.026726 l -0.581617,0.179765 v 0 l -0.540131,0.146239 -0.653487,0.165489 c -2.07778,0.555907 -5.627561,0.06397 -7.543208,-0.924325 l -0.303677,-0.169475 -0.499677,-0.310839 -0.309166,-0.203436 -0.191557,-0.133554 -0.161316,-0.121789 -0.057,-0.04737 v 0 l -0.08213,-0.08011 c -0.04852,-0.05742 -0.04353,-0.08948 0.04278,-0.08106 0.428242,0.04232 1.182486,0.08657 1.612656,0.0019 0.312994,-0.06183 0.658277,-0.119202 1.027456,-0.171484 l 0.57064,-0.07453 0.600188,-0.06641 0.623438,-0.05781 0.640394,-0.04874 0.651053,-0.03918 0.327556,-0.01586 v 0 l 0.655236,-0.02396 c 0.217915,-0.0062 0.434983,-0.01065 0.650155,-0.0132 l 0.638778,-0.002 0.621105,0.0097 c 0.20339,0.0052 0.402785,0.01253 0.597136,0.02192 l 0.566871,0.03459 0.493777,0.04388 c 0.952669,0.09934 1.685944,0.268988 2.018351,0.522741 l -0.0903,-0.20879 c -0.09661,-0.224005 -0.147855,-0.430921 -0.192587,-0.638089 l -0.14791,-0.116581 -0.324836,-0.264818 -0.523841,-0.442392 -0.810851,-0.706765 -0.420116,-0.374841 c -0.83096,-0.75621 -1.505544,-1.92792 -2.057996,-2.992362 L 28.415125,30.099388 C 27.316359,27.932395 27.09226,25.62041 26.984309,23.272366 l -0.09032,-2.208531 c -0.02052,-0.442489 -0.04529,-0.885049 -0.07931,-1.326962 l -0.03729,-0.441671 c -0.09194,-1.002723 0.126628,-1.218465 0.488262,-1.034057 l 0.11876,0.07108 v 0 l 0.1271,0.09498 z M 209.38773,62.159695 c 0.30521,0 0.47325,0.101844 0.50682,0.308233 l 0.006,0.0823 c 0,0.140439 -0.16976,0.290497 -0.51312,0.452098 -0.45911,0.219316 -0.85455,0.70989 -1.1767,1.471724 l -7.50772,17.714556 c -0.13889,0.380917 -0.29514,0.765681 -0.4649,1.158141 -0.17361,0.390536 -0.34915,0.584842 -0.53047,0.584842 -0.20062,0 -0.41088,-0.240478 -0.63272,-0.721434 -0.16011,-0.380916 -0.32215,-0.771452 -0.48226,-1.171607 L 191.14474,64.47405 c -0.28164,-0.681033 -0.76389,-1.142751 -1.44676,-1.381305 -0.58256,-0.202001 -0.87384,-0.373221 -0.87384,-0.511736 0,-0.280878 0.13889,-0.421317 0.42052,-0.421317 l 0.31194,0.0048 0.3832,0.01445 0.45394,0.02441 0.68436,0.04239 0.53687,0.02506 0.40361,0.0082 0.29418,-0.0048 0.36612,-0.01445 0.43725,-0.02441 1.1031,-0.06918 0.18169,-0.0065 c 0.28163,0 0.42245,0.100038 0.42245,0.300116 0,0.06284 -0.12369,0.179224 -0.3729,0.350948 l -0.24438,0.160789 c -0.41281,0.259716 -0.61922,0.602156 -0.61922,1.021549 0,0.361679 0.0907,0.757986 0.26621,1.17738 l 5.28164,12.385568 0.72917,1.744906 c 0.18132,0.359755 0.34143,0.540595 0.48225,0.540595 0.12847,0 0.28663,-0.225953 0.4801,-0.677859 l 5.30501,-13.064004 c 0.36073,-0.904197 0.50155,-1.58523 0.42246,-2.045023 0,-0.47791 -0.27069,-0.800631 -0.81059,-0.966682 l -0.15392,-0.0414 c -0.64429,-0.150058 -0.96644,-0.315507 -0.96644,-0.496346 0,-0.26164 0.1524,-0.390536 0.45332,-0.390536 l 0.25978,0.0065 v 0 l 0.33179,0.01974 0.80983,0.06684 0.33186,0.01974 0.13865,0.0049 v 0 l 0.12076,0.0016 c 0.45062,0 0.86667,-0.01231 1.25309,-0.03792 l 0.93935,-0.07487 z m -57.39782,0 c 0.22955,0 0.3572,0.08396 0.38552,0.253159 l 0.006,0.07774 c 0,0.175068 -0.1152,0.328042 -0.3456,0.457633 l -0.10579,0.0541 c -0.42246,0.200077 -0.71181,0.409774 -0.87385,0.631014 -0.30285,0.400155 -0.45331,1.002311 -0.45331,1.804545 v 9.322843 c 0,5.933068 -2.80479,8.901526 -8.41437,8.901526 -3.6169,0 -6.18056,-0.933054 -7.68712,-2.797238 -1.16705,-1.423629 -1.74961,-3.509052 -1.74961,-6.25627 V 64.474053 c 0,-0.450175 -0.17188,-0.788152 -0.51282,-1.011126 l -0.1199,-0.07006 c -0.0147,-0.01119 -0.0397,-0.02461 -0.075,-0.04028 l -0.13668,-0.05377 -0.32079,-0.106267 -0.45995,-0.137409 -0.18428,-0.0528 c -0.42245,-0.101963 -0.63079,-0.282802 -0.63079,-0.542518 0,-0.200078 0.21798,-0.300116 0.65973,-0.300116 l 0.25553,0.0048 0.31667,0.01445 0.37755,0.02441 0.42504,0.03205 0.38384,0.02441 0.3262,0.01445 0.26856,0.0048 0.42996,-0.0082 0.56505,-0.02506 0.90281,-0.05273 0.55627,-0.02506 0.41243,-0.0082 c 0.64236,0 0.96451,0.100038 0.96451,0.300116 0,0.200077 -0.16976,0.350136 -0.51505,0.450174 l -0.34433,0.104338 c -0.3125,0.101992 -0.52951,0.197222 -0.65104,0.288122 -0.33951,0.259716 -0.50926,0.702195 -0.50926,1.32359 v 10.794567 c 0,2.306663 0.69059,4.070808 2.07755,5.294359 1.26736,1.14275 2.97454,1.714126 5.12732,1.714126 4.64313,0 6.96567,-2.42594 6.96567,-7.27782 v -9.74416 c 0,-0.881111 -0.24113,-1.504429 -0.72338,-1.864184 -0.22184,-0.180839 -0.67323,-0.340517 -1.35803,-0.480956 -0.48225,-0.1212 -0.72338,-0.321278 -0.72338,-0.602156 0,-0.200078 0.10031,-0.300116 0.30286,-0.300116 l 0.33676,0.0036 0.63982,0.01938 1.5192,0.07004 0.58264,0.01974 0.44974,0.0065 0.10186,-0.0015 v 0 l 0.24207,-0.01203 v 0 l 0.29194,-0.02441 v 0 l 0.53905,-0.05513 0.27106,-0.01974 c 0.0803,-0.0043 0.1506,-0.0065 0.21105,-0.0065 z m 107.32071,-0.271259 c 1.06482,0 2.0081,0.09042 2.83372,0.271259 0.54206,0.119277 1.05324,0.300116 1.5355,0.540594 l 0.38123,0.165298 0.17398,0.06782 c 0.071,0.02543 0.11801,0.03815 0.14116,0.03815 0.0617,0 0.13951,-0.03571 0.22939,-0.106134 l 0.0696,-0.05931 c 0.12153,-0.111582 0.23148,-0.165449 0.33179,-0.165449 0.20062,0 0.32022,0.140439 0.36073,0.421317 l 0.45524,4.090047 c 0.0386,0.300116 -0.0714,0.450174 -0.33372,0.450174 -0.21797,0 -0.4321,-0.300116 -0.63078,-0.902273 -0.44561,-1.262027 -1.17284,-2.22971 -2.18944,-2.901124 -1.01273,-0.671414 -2.20486,-1.008083 -3.57253,-1.008083 -1.32716,0 -2.44213,0.30204 -3.34684,0.902273 -1.04553,0.721433 -1.56636,1.723745 -1.56636,3.006934 0,1.523668 1.05324,2.666418 3.16358,3.428252 1.97339,0.682957 3.94098,1.352447 5.91243,2.014242 2.02732,1.0803 3.08265,2.724442 3.16082,4.935847 l 0.005,0.268092 c 0,1.604468 -0.5845,2.966534 -1.74962,4.090046 -1.50656,1.483267 -3.79823,2.225863 -6.87308,2.225863 -1.04552,0 -2.16242,-0.211621 -3.34877,-0.632938 -1.10532,-0.380917 -1.68788,-0.721433 -1.74961,-1.02155 L 251.9495,78.12742 c -0.1196,-0.621395 -0.01,-0.933054 0.33179,-0.933054 0.18133,0 0.3125,0.09234 0.39352,0.271259 l 0.1794,0.723357 c 0.26235,1.000388 0.84684,1.923822 1.74962,2.766457 1.22492,1.161988 2.75463,1.742983 4.58333,1.742983 1.549,0 2.85495,-0.400155 3.92169,-1.202389 1.1632,-0.861873 1.74962,-2.045023 1.74962,-3.547529 0,-1.585229 -1.05903,-2.756837 -3.16937,-3.518671 l -5.90665,-1.985384 c -2.1142,-1.042712 -3.16937,-2.676037 -3.16937,-4.9019 0,-1.804545 0.6848,-3.228173 2.05247,-4.270885 1.22493,-0.921511 2.772,-1.383228 4.64507,-1.383228 z m -83.21382,0.271259 c 0.17526,0 0.27258,0.06502 0.29681,0.197475 l 0.006,0.07186 c 0,0.202001 -0.15046,0.361678 -0.45138,0.480955 -0.42246,0.202002 -0.71181,0.371298 -0.87385,0.511737 -0.30092,0.321278 -0.45332,0.802234 -0.45332,1.444791 v 17.410592 c 0,0.863796 -0.0907,1.294732 -0.27006,1.294732 -0.25849,0 -0.63272,-0.28665 -1.13812,-0.852253 l -12.97455,-14.546021 -0.20845,-0.225728 c -0.22081,-0.230431 -0.36318,-0.345647 -0.42619,-0.345647 -0.14082,0 -0.21027,0.230859 -0.21027,0.692576 V 80.59376 c 0,0.782996 0.23149,1.333209 0.69252,1.654487 0.24113,0.18084 0.66358,0.321279 1.26736,0.421317 0.46489,0.05964 0.69252,0.188535 0.69252,0.390536 0,0.259716 -0.10996,0.390536 -0.33179,0.390536 l -0.51479,-0.01814 -0.72171,-0.04149 c -0.64236,-0.0404 -1.24421,-0.06156 -1.80942,-0.06156 l -0.53961,0.0088 -0.67187,0.02607 -1.62224,0.0863 c -0.26041,0 -0.39159,-0.109658 -0.39159,-0.330897 0,-0.240478 0.23148,-0.421317 0.69445,-0.540594 0.58256,-0.18084 1.00309,-0.430937 1.26736,-0.752215 0.46103,-0.542518 0.69252,-1.423628 0.69252,-2.647179 V 68.083144 c 0,-1.823784 -0.3125,-3.156993 -0.93365,-3.999627 -0.40123,-0.500194 -0.9973,-0.852253 -1.77855,-1.052331 -0.625,-0.161601 -0.9375,-0.350135 -0.9375,-0.571375 0,-0.200078 0.15239,-0.300116 0.45525,-0.300116 0.0949,0 0.21759,0.0069 0.36805,0.02119 l 0.67522,0.07689 c 0.15079,0.01427 0.27463,0.02119 0.3707,0.02119 0.12808,0 0.30555,-0.01231 0.53043,-0.03792 l 0.46158,-0.05513 0.22662,-0.01974 c 0.0659,-0.0043 0.12203,-0.0065 0.16833,-0.0065 0.0613,0 0.17963,0.08311 0.35569,0.248912 l 0.19536,0.193351 0.23406,0.248389 v 0 l 14.43835,16.029826 v 0 l 0.0978,0.102176 v 0 l 0.11361,0.107969 c 0.047,0.04043 0.0794,0.06058 0.0975,0.06058 0.0579,0 0.0887,-0.109658 0.0887,-0.330897 v -12.57024 c 0,-1.142751 -0.29129,-1.985385 -0.87578,-2.525979 -0.28463,-0.26848 -0.73845,-0.488318 -1.35739,-0.659515 l -0.23983,-0.06192 c -0.58256,-0.140439 -0.87577,-0.321278 -0.87577,-0.542518 0,-0.200078 0.11188,-0.300116 0.33179,-0.300116 l 0.25532,0.0036 0.48838,0.01938 0.61432,0.03662 0.25004,0.01602 0.4479,0.02441 0.54245,0.01802 0.29051,2.78e-4 0.3396,-0.0073 0.63734,-0.02506 1.25603,-0.06481 0.59358,-0.02061 z m 9.90163,0 c 0.38194,0 0.57485,0.100038 0.57485,0.300116 0,0.158234 -0.14769,0.285537 -0.44049,0.381909 l -0.13436,0.03941 c -0.50154,0.140439 -0.84491,0.280878 -1.02238,0.421317 -0.3858,0.300116 -0.57291,0.781072 -0.57291,1.442867 V 80.8958 c 0,0.580994 0.22955,1.011931 0.69058,1.292809 0.0544,0.03001 0.13137,0.06366 0.23091,0.100891 l 0.22916,0.07923 0.28935,0.08869 0.54688,0.150583 v 0 c 0.41152,0.124835 0.64015,0.281591 0.68587,0.470268 l 0.009,0.07225 c 0,0.200077 -0.20255,0.300116 -0.60379,0.300116 l -0.42781,-0.01211 -1.61029,-0.07741 -0.5513,-0.02018 -0.48234,-0.01022 -0.2153,-0.0013 c -0.5787,0 -1.11543,0.01354 -1.61117,0.03965 l -1.28235,0.08155 c -0.42245,0 -0.63272,-0.150058 -0.63272,-0.450174 0,-0.202002 0.20062,-0.361679 0.60186,-0.480956 0.54205,-0.142363 0.92592,-0.311659 1.14583,-0.511737 0.40317,-0.380916 0.60378,-1.002311 0.60378,-1.866107 v -15.39635 c 0,-0.640633 -0.21026,-1.111969 -0.63271,-1.41401 -0.19411,-0.139717 -0.51818,-0.27207 -0.97352,-0.397058 l -0.20318,-0.05312 c -0.42246,-0.100039 -0.63272,-0.230859 -0.63272,-0.390536 0,-0.221239 0.10031,-0.330897 0.30093,-0.330897 l 0.3194,0.0036 0.60293,0.01938 1.49848,0.07325 0.41051,0.0148 0.48465,0.0082 0.42674,-0.0082 0.55227,-0.02506 0.87634,-0.05273 0.54349,-0.02506 z m 52.09699,4.78e-4 0.14458,-4.78e-4 c 1.6493,0 2.90702,0.140439 3.76929,0.421317 2.25116,0.761833 3.37771,2.350911 3.37771,4.776851 0,1.14275 -0.36266,2.185462 -1.08218,3.120439 -0.72145,0.942673 -1.62037,1.635249 -2.70255,2.075805 l 5.02122,7.618336 c 0.62308,0.961911 1.26544,1.654487 1.93095,2.075804 0.34143,0.219316 0.76196,0.390536 1.26543,0.511737 0.26331,0.05218 0.41142,0.142663 0.44434,0.272728 l 0.007,0.05817 c 0,0.126294 -0.18274,0.219696 -0.54851,0.279635 l -0.27097,0.035 -0.32522,0.02504 -0.37948,0.01505 c -0.13554,0.0033 -0.28013,0.005 -0.43377,0.005 -1.00695,0 -1.90201,-0.321278 -2.68519,-0.961911 -0.56327,-0.480956 -1.17477,-1.242789 -1.84028,-2.285501 l -3.34491,-5.263578 c -0.0837,-0.132595 -0.16382,-0.256175 -0.24037,-0.37074 l -0.21892,-0.316645 c -0.31225,-0.434397 -0.55181,-0.686224 -0.71741,-0.755481 -0.0572,-0.02354 -0.15314,-0.04431 -0.28794,-0.06231 l -0.23134,-0.02492 -0.28966,-0.02077 -0.34804,-0.01662 -0.63164,-0.01713 -0.7633,-0.0078 -0.28373,-5.2e-4 c -0.41859,0 -0.6713,0.100039 -0.75039,0.300117 l -0.009,0.03358 -0.0135,0.110538 -0.008,0.168825 -0.002,0.227651 v 6.34669 c 0,0.740671 0.27006,1.283189 0.81405,1.623706 0.0964,0.05618 0.23487,0.115429 0.41503,0.177884 l 0.30149,0.0961 c 0.0555,0.01642 0.11352,0.03305 0.17417,0.04988 l 0.39504,0.103474 0.22083,0.05362 c 0.54591,0.121201 0.81597,0.311659 0.81597,0.571375 0,0.139718 -0.13145,0.219046 -0.39175,0.236694 l -0.11449,6.87e-4 -0.89423,-0.05654 -0.55299,-0.02666 -0.6143,-0.01927 -0.33008,-0.0068 v 0 l -0.70593,-0.0078 h -0.52853 l -0.35846,0.0078 -0.67152,0.02607 -1.07398,0.05303 -0.67112,0.02506 -0.51161,0.0082 c -0.20062,0 -0.30093,-0.109658 -0.30093,-0.330897 0,-0.178916 0.1929,-0.350136 0.57292,-0.511737 0.52469,-0.200078 0.87384,-0.390536 1.05517,-0.569451 0.38195,-0.361679 0.57292,-0.873416 0.57292,-1.535211 v -15.30781 c 0,-0.84071 -0.21991,-1.423628 -0.66358,-1.742983 -0.22184,-0.161601 -0.64236,-0.300116 -1.26736,-0.421317 -0.44175,-0.100039 -0.66359,-0.271259 -0.66359,-0.511737 0,-0.240477 0.20448,-0.359754 0.60572,-0.359754 l 0.0574,0.0016 0.26941,0.02461 0.25964,0.03342 c 0.10995,0.01515 0.24133,0.02732 0.39455,0.03662 l 0.33568,0.0148 0.39464,0.0073 0.4076,3.27e-4 0.65924,-0.0088 1.41385,-0.03879 1.67134,-0.05364 z m -11.5086,-4.78e-4 c 0.20062,0 0.30093,0.221239 0.30093,0.661795 l -0.004,0.529335 -0.0106,0.486989 -0.0177,0.444642 -0.0321,0.496252 v 0 l -0.0432,0.430086 -0.0426,0.296428 c -0.10007,0.596385 -0.25053,0.894577 -0.45212,0.894577 -0.26234,0 -0.4128,-0.271259 -0.45524,-0.811853 -0.0366,-0.682957 -0.12925,-1.123512 -0.26814,-1.32359 -0.30066,-0.411185 -1.01975,-0.674894 -2.16039,-0.789563 l -0.30416,-0.0256 -0.46603,-0.01401 -1.67871,-0.01298 -1.01082,0.0022 -0.43907,0.0081 -0.38721,0.01358 -0.3353,0.01901 -0.28333,0.02444 c -0.30022,0.03169 -0.49422,0.07446 -0.58159,0.12833 -0.19524,0.121476 -0.29901,0.617841 -0.31283,1.490638 l -0.002,5.802572 c 0,0.521356 0.0444,0.821472 0.13503,0.902273 0.0532,0.04733 0.19676,0.0808 0.42848,0.100008 l 0.26103,0.01444 0.15242,0.0036 v 0 l 3.42312,0.0012 c 0.92593,0 1.59916,-0.209697 2.02161,-0.631014 0.22955,-0.210418 0.41037,-0.528359 0.54762,-0.953825 l 0.0562,-0.188925 c 0.1196,-0.421317 0.26042,-0.631014 0.42053,-0.631014 0.22183,0 0.33179,0.190459 0.33179,0.571375 l -0.007,0.657467 -0.0464,1.944484 -0.004,0.433841 0.02,0.958097 0.028,0.819722 0.009,0.471023 6e-4,0.127079 c 0,0.261639 -0.10996,0.392459 -0.33179,0.392459 -0.21798,0 -0.38002,-0.232782 -0.48226,-0.692576 -0.13888,-0.642556 -0.2797,-1.06195 -0.42245,-1.263951 -0.30093,-0.459794 -0.81404,-0.690652 -1.53742,-0.690652 h -4.46374 c -0.27971,0 -0.44946,0.100039 -0.51119,0.300116 l -0.0142,0.103606 -0.009,0.172123 -0.005,0.240371 4.5e-4,5.900104 0.0117,0.497112 v 0 l 0.025,0.416318 c 0.0339,0.40103 0.0909,0.664397 0.17245,0.79082 0.2392,0.380917 0.93365,0.571375 2.07948,0.571375 2.05247,0 3.77894,-0.271259 5.18905,-0.811853 0.85734,-0.321492 1.57903,-0.744828 2.16642,-1.271359 l 0.80679,-0.779267 0.15722,-0.158265 0.0529,-0.05747 c 0.0107,-0.01276 0.0144,-0.01914 0.0111,-0.01914 0.13723,0 0.21636,0.08763 0.23617,0.26532 l 0.005,0.09636 c 0,0.84071 -0.50348,1.812241 -1.50656,2.916515 -0.44368,0.480955 -0.89507,0.781071 -1.3561,0.900348 -0.18364,0.05656 -0.50056,0.09332 -0.95009,0.110293 l -0.41778,0.0097 -0.66979,-0.0025 -1.24954,-0.02915 -1.75139,-0.05759 -1.11652,-0.02623 -0.982,-0.01272 -0.5798,-0.0011 -0.90951,0.01102 -1.0188,0.03314 -0.66922,0.02666 -0.54468,0.02636 -0.71082,0.02506 -0.58285,0.0082 v 0 c -0.30286,0 -0.45332,-0.100039 -0.45332,-0.300116 0.0193,-0.159677 0.20062,-0.321278 0.54398,-0.480956 l 0.78318,-0.30204 c 0.36073,-0.178915 0.60185,-0.490574 0.72145,-0.93113 0.054,-0.214185 0.09,-0.53525 0.10803,-0.963193 l 0.012,-0.46357 -2.2e-4,-14.215913 -0.0138,-0.447237 c -0.0277,-0.559322 -0.0923,-0.970543 -0.19473,-1.232183 -0.21991,-0.642557 -0.69059,-1.01193 -1.4159,-1.111969 -0.60571,-0.161601 -0.90664,-0.321278 -0.90664,-0.48288 0,-0.240477 0.35301,-0.359754 1.0571,-0.359754 l 1.79175,0.0043 1.65979,0.01315 1.03311,0.01378 0.97429,0.01788 3.11754,0.06988 1.54663,-0.04435 2.14226,-0.06603 z m 49.91961,-5.77e-4 c 0.38002,0 0.57099,0.100038 0.57099,0.300116 0,0.158234 -0.14621,0.285537 -0.43735,0.381909 l -0.13364,0.03941 c -0.50154,0.140439 -0.84683,0.280878 -1.02623,0.421317 -0.38195,0.300116 -0.57292,0.781072 -0.57292,1.442867 v 16.150488 c 0,0.580994 0.23148,1.011931 0.69445,1.292809 0.0725,0.04001 0.18487,0.08649 0.33753,0.139315 l 0.25927,0.08397 0.32011,0.09339 0.38131,0.102717 c 0.45911,0.140439 0.69059,0.321278 0.69059,0.542518 0,0.177846 -0.15851,0.27665 -0.47554,0.296411 l -0.18251,0.0032 -0.49907,-0.017 -1.18072,-0.05829 -0.58573,-0.02506 -0.51784,-0.01523 -0.44941,-0.0051 c -0.57716,0 -1.11358,0.01354 -1.60926,0.03965 l -1.28426,0.08155 c -0.42053,0 -0.63272,-0.150058 -0.63272,-0.450174 0,-0.200078 0.20255,-0.361679 0.60571,-0.480956 0.54012,-0.142363 0.92207,-0.311659 1.14391,-0.511737 0.40316,-0.380917 0.60185,-1.002311 0.60185,-1.864184 V 64.744735 c 0,-0.640633 -0.20834,-1.11197 -0.63272,-1.41401 -0.19242,-0.139717 -0.51628,-0.27207 -0.97159,-0.397059 l -0.20318,-0.05312 c -0.42438,-0.100039 -0.63464,-0.230859 -0.63464,-0.390536 0,-0.22124 0.1003,-0.330897 0.30285,-0.330897 l 0.50239,0.0082 0.41811,0.0148 1.49923,0.07325 0.58899,0.01938 0.30533,0.0036 0.27012,-0.0036 0.51154,-0.01938 1.27004,-0.07325 0.34686,-0.0148 z m 22.08746,9.05e-4 -0.0253,-9.05e-4 c 0.34337,0 0.56713,0.05964 0.67901,0.180839 0.10996,0.119277 0.17554,0.350135 0.19483,0.690652 l 0.15047,2.406702 c 0.0212,0.440555 -0.0907,0.661795 -0.33179,0.661795 -0.28164,0 -0.44175,-0.202002 -0.48226,-0.602157 -0.0598,-0.542518 -0.1601,-0.902272 -0.30092,-1.083112 -0.30286,-0.400155 -0.89507,-0.602156 -1.77855,-0.602156 h -4.31328 c -0.12065,0 -0.23142,0.0015 -0.33234,0.0046 l -0.27323,0.01366 c -0.28439,0.02121 -0.44855,0.06083 -0.49397,0.118368 -0.0297,0.03768 -0.0531,0.137139 -0.0703,0.298393 l -0.0176,0.223164 -0.0117,0.282481 -0.006,0.341799 -7.2e-4,15.529855 c 0,0.721433 0.21026,1.242789 0.63271,1.564068 0.17723,0.122884 0.50067,0.244295 0.96774,0.366811 l 0.20896,0.05258 c 0.42246,0.101962 0.63465,0.26164 0.63465,0.482879 0,0.238554 -0.0907,0.359755 -0.27392,0.359755 l -0.19553,-0.0036 -0.259,-0.01103 -0.70481,-0.04497 -0.22949,-0.01613 -0.41247,-0.02506 -0.35092,-0.01523 -0.28992,-0.0051 -1.3872,0.0082 -1.14559,0.0226 v 0 l -0.83619,0.0399 -0.32508,0.01974 -0.43403,0.03078 c -0.24112,0 -0.36458,-0.128896 -0.36458,-0.390536 0,-0.180839 0.20255,-0.350136 0.60571,-0.511737 l 0.36929,-0.127421 0.30762,-0.115577 c 0.23051,-0.09141 0.39627,-0.170623 0.49593,-0.237957 0.40317,-0.300116 0.60571,-0.711814 0.60571,-1.23317 V 65.196833 c 0,-0.923435 -0.10224,-1.385152 -0.30285,-1.385152 h -4.91513 c -0.8642,0 -1.44676,0.140439 -1.74962,0.421317 -0.12088,0.134668 -0.26835,0.428371 -0.44239,0.882821 l -0.17094,0.473192 v 0 l -0.11005,0.329255 c -0.14082,0.459794 -0.3125,0.692576 -0.51119,0.692576 -0.20254,0 -0.30285,-0.1212 -0.30285,-0.361678 l 0.33179,-2.918439 0.0907,-0.719509 c 0.0791,-0.30204 0.23148,-0.452098 0.45139,-0.452098 l 0.98823,0.0082 4.6768,0.08805 1.7942,0.01938 1.1056,0.0036 1.64454,-0.0036 2.36159,-0.01938 v 0 l 1.50371,-0.02246 z m 20.8852,-9.05e-4 c 0.1941,0 0.30403,0.09132 0.32848,0.275253 l 0.005,0.0845 c 0,0.140439 -0.0849,0.255869 -0.25849,0.348212 l -0.32079,0.159036 -0.1441,0.06605 v 0 c -0.28151,0.160832 -0.6595,0.576172 -1.1332,1.244504 l -0.26786,0.389626 -0.14105,0.213613 v 0 l -4.47733,6.948324 -0.26966,0.435823 -0.13698,0.23913 -0.10272,0.197898 c -0.0713,0.14771 -0.10701,0.252382 -0.10701,0.313796 v 7.36824 c 0,0.761833 0.21219,1.312047 0.63271,1.654487 0.20255,0.159677 0.60378,0.330897 1.20564,0.509813 0.42245,0.140439 0.63464,0.321278 0.63464,0.542518 0,0.18007 -0.1875,0.279108 -0.5625,0.297115 l -0.16478,0.0026 -2.38436,-0.101534 -0.58599,-0.01615 -0.31279,-0.0031 c -0.40798,0 -0.83984,0.0119 -1.29801,0.0349 l -1.41611,0.0863 c -0.30286,0 -0.45139,-0.121201 -0.45139,-0.359755 0,-0.202001 0.20062,-0.361678 0.60185,-0.482879 l 0.38662,-0.103496 c 0.35075,-0.101632 0.5938,-0.197582 0.72835,-0.28704 0.40317,-0.259716 0.60378,-0.700271 0.60378,-1.321666 v -7.268201 c 0,-0.257471 -0.19775,-0.708928 -0.59771,-1.354371 l -5.13146,-8.218568 c -0.30093,-0.480956 -0.77353,-0.823396 -1.41397,-1.023474 -0.5652,-0.161601 -0.84683,-0.300116 -0.84683,-0.419393 0,-0.30204 0.13117,-0.452098 0.39159,-0.452098 l 0.56652,0.02119 0.68541,0.03845 c 0.67322,0.0404 1.40046,0.05964 2.1875,0.05964 0.30401,0 0.64506,-0.01231 1.02117,-0.03792 l 1.08724,-0.08135 c 0.38388,0 0.57292,0.100038 0.57292,0.300116 0,0.124835 -0.18595,0.289191 -0.5592,0.493068 l -0.14875,0.07831 c -0.47261,0.240478 -0.70988,0.521356 -0.70988,0.842634 0,0.240478 0.18326,0.652176 0.54398,1.23317 l 3.64777,5.804172 c 0.22184,0.359755 0.4186,0.540594 0.598,0.540594 0.12174,0 0.28616,-0.162646 0.49054,-0.483885 l 3.19387,-5.139447 c 0.42246,-0.681033 0.63465,-1.23317 0.63465,-1.654488 0,-0.519844 -0.326,-0.865513 -0.97492,-1.032387 l -0.15548,-0.03533 c -0.75618,-0.150058 -1.13426,-0.315507 -1.13426,-0.494422 0,-0.30204 0.21219,-0.452098 0.63464,-0.452098 l 0.23743,0.0048 0.29912,0.01445 1.12827,0.08087 0.2988,0.01445 0.23739,0.0048 0.29365,-0.0048 0.36194,-0.01445 0.43052,-0.02441 0.8338,-0.05265 0.32374,-0.0148 z M 54.153964,66.540623 c 2.304997,0.700971 2.3592,2.241428 1.91902,3.39734 l -0.0879,0.211928 c -0.01547,0.03447 -0.03132,0.06849 -0.04749,0.102024 l -0.100455,0.195048 c -0.05173,0.0943 -0.105395,0.183537 -0.159545,0.266707 l -0.108518,0.157947 -0.107241,0.139969 c -0.189602,0.233289 -0.537618,0.55701 -0.990025,0.901824 l -0.316477,0.232239 c -1.488405,1.05229 -3.80828,2.155724 -5.50099,1.438087 -1.935307,-0.820922 -1.925507,-2.239857 -1.443194,-3.379046 l 0.106048,-0.231415 0.05718,-0.112174 0.120841,-0.216201 0.06294,-0.103595 v 0 l 0.129112,-0.1971 0.131003,-0.182207 0.129997,-0.165587 0.14845,-0.173665 0.191334,-0.209918 c 0.03427,-0.0364 0.06972,-0.07344 0.106315,-0.111005 l 0.23321,-0.230932 c 0.08222,-0.07854 0.168845,-0.158352 0.259699,-0.2386 l 0.285045,-0.241197 c 1.189349,-0.963216 2.959583,-1.867 4.981644,-1.250471 z M 237.36808,63.152387 c -0.66551,0 -1.08796,0.03848 -1.26736,0.119277 -0.30286,0.140439 -0.45332,0.471336 -0.45332,0.992692 v 7.639499 c 0,0.238554 0.37423,0.380916 1.11497,0.419393 h 2.17207 c 1.00695,0 1.86922,-0.250097 2.5926,-0.750291 1.00399,-0.678996 1.53296,-1.758467 1.59171,-3.236808 l 0.006,-0.281863 c 0,-1.704506 -0.59221,-2.978077 -1.77855,-3.820711 -1.00502,-0.719509 -2.33218,-1.081188 -3.97763,-1.081188 z M 62.975539,43.280264 l 0.252152,1.804883 0.116454,0.888801 0.105011,0.881115 c 0.408464,3.656768 0.420686,7.140892 -1.19121,10.796154 l -0.15882,0.341328 -0.211389,0.423005 -0.257944,0.491059 -0.405946,0.737062 -0.343178,0.596873 -0.243881,0.411337 -0.384008,0.627045 -0.265532,0.418837 -0.271072,0.414773 -0.274832,0.406673 -0.276808,0.394536 -0.346075,0.469954 v 0 l -0.342897,0.436799 -0.269691,0.320271 c -0.800898,0.917378 -1.520206,1.425694 -1.941374,1.034517 l 0.0134,-0.570023 0.01858,-1.118383 0.02706,-2.687287 0.01595,-1.039412 c 0.07434,-3.780478 0.356136,-7.243635 1.933629,-11.062667 l 0.267292,-0.623211 0.497354,-1.124283 0.295501,-0.643277 0.217569,-0.458943 0.270379,-0.551204 0.213794,-0.419437 0.293944,-0.550326 0.224671,-0.397602 0.150736,-0.254236 0.150848,-0.243317 0.150399,-0.230467 0.186514,-0.267071 v 0 l 0.183843,-0.240202 0.144416,-0.170283 0.141447,-0.148741 c 0.605693,-0.595084 1.111965,-0.529029 1.31371,0.90535 z M 275.08803,28.950674 c 1.67053,0 3.14622,0.200077 4.43287,0.600233 0.82369,0.261639 1.63774,0.631013 2.44214,1.111969 l 0.17523,0.104651 0.31289,0.179287 c 0.048,0.02655 0.0938,0.05143 0.13764,0.07465 l 0.2377,0.11937 c 0.1772,0.08286 0.30219,0.124195 0.37496,0.124195 0.0648,0 0.15062,-0.03201 0.25939,-0.09604 l 0.0859,-0.05402 c 0.15046,-0.100039 0.27585,-0.150058 0.37808,-0.150058 0.1401,0 0.23441,0.123726 0.28294,0.3686 l 0.0263,0.166332 0.0168,0.147385 0.034,0.452738 0.0258,0.478039 0.0347,0.822465 0.0907,1.14275 0.0281,0.67575 0.003,0.166885 c 0,0.400155 -0.10224,0.600232 -0.30093,0.600232 -0.12235,0 -0.24329,-0.10318 -0.36281,-0.308327 l -0.0596,-0.111066 c -0.10224,-0.180839 -0.1929,-0.371298 -0.27199,-0.571375 -1.00309,-1.725669 -2.07177,-2.987696 -3.19638,-3.78993 -1.28665,-0.921511 -2.85494,-1.383229 -4.70487,-1.383229 -2.85301,0 -5.0463,0.881111 -6.57408,2.645256 -1.42554,1.66603 -2.1412,3.951531 -2.1412,6.858427 0,2.826095 0.74652,5.221253 2.23187,7.1874 1.65123,2.183538 3.84066,3.276269 6.57408,3.276269 2.11034,0 4.0027,-0.559832 5.6713,-1.683344 1.25489,-0.842121 2.05775,-1.684243 2.40232,-2.526364 l 0.0668,-0.180454 c 0.081,-0.259716 0.22183,-0.390536 0.42438,-0.390536 0.21099,0 0.30825,0.08396 0.28662,0.253159 l -0.711,3.084672 c -0.0692,0.281119 -0.56966,0.631465 -1.50267,1.04975 l -0.42635,0.183421 c -1.8287,0.761833 -4.17053,1.14275 -7.02547,1.14275 -3.11536,0 -5.66358,-0.973454 -7.64275,-2.916515 -1.9811,-1.944984 -2.97068,-4.461344 -2.97068,-7.549078 0,-3.166612 1.02623,-5.844572 3.07484,-8.028111 2.05248,-2.185462 4.64314,-3.278193 7.77972,-3.278193 z m -26.19794,0.269335 c 0.1703,0 0.27116,0.06643 0.2965,0.199292 l 0.006,0.07197 c 0,0.200078 -0.15046,0.361679 -0.45332,0.480956 -0.42052,0.200077 -0.71566,0.371297 -0.87577,0.511736 -0.30093,0.321279 -0.45139,0.80031 -0.45139,1.444791 v 17.410592 l -0.006,0.34299 c -0.0222,0.633212 -0.11102,0.949818 -0.26644,0.949818 -0.25656,0 -0.63272,-0.284725 -1.13619,-0.852253 l -12.97455,-14.544097 -0.20921,-0.225728 -0.1699,-0.169296 c -0.12524,-0.117567 -0.20967,-0.176351 -0.25361,-0.176351 -0.14274,0 -0.21219,0.230859 -0.21219,0.690652 v 12.30092 c 0,0.781072 0.22955,1.333209 0.69445,1.654487 0.24112,0.178916 0.66165,0.319355 1.2635,0.419394 0.46296,0.05964 0.69445,0.190458 0.69445,0.392459 0,0.259716 -0.10803,0.390536 -0.33179,0.390536 l -0.25571,-0.0065 -0.77132,-0.04047 -0.20561,-0.01269 c -0.6443,-0.0404 -1.25001,-0.06156 -1.81328,-0.06156 l -0.34472,0.0039 -0.40349,0.01169 -0.71585,0.03169 -1.36966,0.07388 c -0.26235,0 -0.39159,-0.111581 -0.39159,-0.330897 0,-0.240478 0.23148,-0.421317 0.69444,-0.542518 0.58257,-0.178915 1.00502,-0.430936 1.26544,-0.750291 0.46296,-0.542518 0.69251,-1.423628 0.69251,-2.647179 v -11.09655 c 0,-1.825708 -0.31057,-3.156993 -0.93364,-3.999627 -0.35665,-0.446327 -0.86572,-0.772569 -1.5245,-0.980078 l -0.25405,-0.07225 c -0.625,-0.161601 -0.93364,-0.352059 -0.93364,-0.571375 0,-0.202001 0.14853,-0.30204 0.45139,-0.30204 0.0961,0 0.21921,0.0076 0.36986,0.02202 l 0.67534,0.07674 0.2654,0.01992 0.10529,0.0025 v 0 l 0.10624,-0.0025 0.26626,-0.01992 0.66933,-0.07674 0.19548,-0.01641 v 0 l 0.14965,-0.0056 v 0 c 0.0602,0 0.1794,0.08311 0.35598,0.249327 l 0.19563,0.193922 0.2335,0.249327 v 0 l 14.46518,16.055716 v 0 l 0.13257,0.135128 c 0.0755,0.07197 0.12477,0.107779 0.14571,0.107779 0.0529,0 0.0817,-0.08057 0.0889,-0.242907 l 0.002,-12.658246 c 0,-1.14275 -0.28935,-1.985384 -0.87191,-2.525978 -0.28464,-0.26677 -0.73998,-0.486419 -1.3579,-0.658945 l -0.23932,-0.06249 c -0.58643,-0.140439 -0.87578,-0.321278 -0.87578,-0.540594 0,-0.202001 0.10996,-0.30204 0.33179,-0.30204 l 0.25397,0.0039 0.48754,0.01995 1.09711,0.06565 0.41296,0.02018 0.34481,0.01022 0.29108,3.02e-4 0.33936,-0.0078 0.88155,-0.03849 1.01046,-0.05186 0.67014,-0.02202 z m -97.77403,1.92e-4 c 0.56135,0 0.84298,0.161602 0.84298,0.48288 0,0.119277 -0.16975,0.228935 -0.51119,0.330897 -0.46296,0.119277 -0.79282,0.259716 -0.99537,0.419394 -0.34336,0.30204 -0.51312,0.752214 -0.51312,1.35437 v 15.936944 c 0,0.642557 0.24113,1.123513 0.72338,1.444791 0.17404,0.10923 0.47295,0.230099 0.89943,0.36351 l 0.39687,0.117446 c 0.42867,0.124834 0.66682,0.26639 0.71445,0.421963 l 0.009,0.05899 c 0,0.240478 -0.10802,0.361679 -0.32986,0.361679 l -0.3075,-0.0065 -0.43696,-0.01974 -0.83086,-0.04955 -0.48142,-0.02506 -0.41974,-0.01523 -0.35724,-0.0051 c -0.57436,0 -1.12703,0.0119 -1.66043,0.0349 l -1.65864,0.08582 -0.0297,4.79e-4 c -0.48225,0 -0.72338,-0.13082 -0.72338,-0.390536 0,-0.180839 0.18133,-0.342441 0.54591,-0.48288 l 0.35587,-0.128775 c 0.32254,-0.123365 0.54498,-0.230498 0.66651,-0.321399 0.36072,-0.300116 0.54205,-0.721433 0.54205,-1.263951 V 40.13791 c -0.0193,-0.121201 -0.10995,-0.180839 -0.27006,-0.180839 h -11.09569 c -0.24113,0 -0.36458,0.17122 -0.36458,0.511737 v 7.487516 c 0,0.528177 0.20884,0.932338 0.62508,1.212485 l 0.13109,0.08032 c 0.0291,0.01819 0.0678,0.03803 0.11622,0.05953 l 0.17399,0.06945 0.23177,0.07937 0.28954,0.08929 0.54265,0.152538 v 0 c 0.5054,0.140439 0.75424,0.332821 0.75424,0.573299 0,0.139718 -0.12258,0.219045 -0.36904,0.236694 l -0.12373,0.0035 -2.61123,-0.0933 -0.58505,-0.01527 -0.52257,-0.0093 -0.46045,-0.0031 -0.55976,0.0031 -0.50095,0.0093 -0.44164,0.01527 -0.38181,0.02117 -0.57445,0.04852 -0.16996,0.02029 -0.0428,-0.0035 c -0.16781,-0.03319 -0.25495,-0.18238 -0.25495,-0.444981 0,-0.200078 0.20062,-0.361679 0.60379,-0.480956 0.54398,-0.140439 0.92399,-0.309735 1.14583,-0.509813 0.40124,-0.382841 0.60378,-1.004235 0.60378,-1.866108 v -15.39635 c 0,-0.640632 -0.22955,-1.111969 -0.69444,-1.414009 -0.19411,-0.139718 -0.53295,-0.27207 -1.01783,-0.397059 l -0.21674,-0.05311 c -0.4649,-0.100039 -0.69638,-0.230859 -0.69638,-0.39246 0,-0.219316 0.16204,-0.330898 0.48419,-0.330898 l 0.32048,0.0039 0.6032,0.01995 1.71111,0.08171 0.37613,0.01169 0.30505,0.0039 0.26982,-0.0039 0.32625,-0.01169 0.38267,-0.01927 0.87688,-0.05221 0.54203,-0.02536 0.28622,-0.0077 0.12092,-9.85e-4 v 0 c 0.38194,0 0.57292,0.100039 0.57292,0.302041 0,0.140439 -0.19098,0.259716 -0.57292,0.359754 -0.48226,0.140439 -0.82562,0.290498 -1.02624,0.452099 -0.38001,0.321278 -0.57291,0.811853 -0.57291,1.473647 v 6.494825 c 0,0.361678 0.15239,0.542517 0.45331,0.542517 h 11.0359 c 0.1601,0 0.24112,-0.292421 0.24112,-0.873415 v -6.163927 c 0,-0.602156 -0.19097,-1.05233 -0.57292,-1.35437 -0.17554,-0.122885 -0.48252,-0.260498 -0.91966,-0.414129 l -0.19531,-0.06683 c -0.38194,-0.119277 -0.57291,-0.259716 -0.57291,-0.421317 0,-0.219316 0.16975,-0.330898 0.51119,-0.330898 l 0.43281,0.0069 0.57342,0.02016 1.92997,0.08944 0.20037,0.0047 c 0.28293,0 0.56585,-0.0094 0.85106,-0.02765 l 0.91177,-0.07354 0.23762,-0.01492 z m 72.30332,-1.92e-4 c 0.20062,0 0.30285,0.22124 0.30285,0.661795 l -0.004,0.529368 -0.0108,0.487079 -0.018,0.44478 -0.0251,0.402469 c -0.0143,0.190655 -0.0314,0.365441 -0.0511,0.52435 l -0.043,0.296648 c -0.10079,0.596866 -0.25174,0.895539 -0.45236,0.895539 -0.26234,0 -0.41281,-0.271259 -0.45139,-0.813777 -0.0424,-0.681033 -0.1331,-1.121588 -0.27392,-1.323589 -0.29886,-0.411185 -1.01951,-0.673218 -2.16036,-0.787664 l -0.30385,-0.02588 -0.34489,-0.01211 -1.55657,-0.01415 -1.01223,-2.31e-4 -0.46575,0.0054 -0.41346,0.01086 -0.36122,0.0163 -0.30903,0.02173 -0.2569,0.02716 c -0.23085,0.02988 -0.3836,0.0679 -0.45849,0.114071 -0.21026,0.128896 -0.31636,0.696424 -0.31636,1.698735 v 5.592552 c 0,0.521356 0.0463,0.821472 0.13503,0.902272 0.0453,0.0404 0.15191,0.07022 0.32022,0.08994 l 0.23163,0.01885 0.13809,0.0058 v 0 l 0.32087,0.0046 h 3.25617 c 0.924,0 1.59723,-0.209696 2.01968,-0.631013 0.22955,-0.210418 0.41184,-0.52836 0.54946,-0.952537 l 0.0563,-0.18829 c 0.11767,-0.423241 0.25849,-0.632937 0.4186,-0.632937 0.22376,0 0.33372,0.190458 0.33372,0.571375 l -0.0121,0.858975 -0.0402,1.565522 -0.007,0.484533 0.002,0.383718 0.0471,1.522181 0.0103,0.598707 c 0,0.259716 -0.10996,0.390536 -0.33372,0.390536 -0.19548,0 -0.3437,-0.182407 -0.44468,-0.54587 l -0.0357,-0.144783 c -0.14275,-0.642556 -0.28163,-1.063873 -0.42052,-1.263951 -0.30479,-0.461717 -0.81405,-0.690652 -1.53743,-0.690652 h -4.46567 c -0.28163,0 -0.45331,0.100039 -0.51119,0.300116 l -0.008,0.04312 -0.0127,0.137393 -0.009,0.334981 v 0 l -6e-4,5.679213 c 0,0.151707 0.001,0.294855 0.004,0.429433 l 0.0128,0.378012 0.01,0.169701 v 0 l 0.0257,0.300753 c 0.035,0.320797 0.0875,0.536266 0.15793,0.645923 0.24113,0.382841 0.93558,0.573299 2.08334,0.573299 2.04861,0 3.77894,-0.271258 5.18326,-0.813776 0.85905,-0.319782 1.58093,-0.744448 2.16835,-1.271296 l 0.87022,-0.841046 0.14679,-0.153905 c 0.0106,-0.01283 0.0143,-0.01925 0.011,-0.01925 0.13723,0 0.21636,0.08904 0.23617,0.265925 l 0.005,0.09575 c 0,0.840711 -0.49961,1.814165 -1.50656,2.916515 -0.44174,0.482879 -0.89506,0.782996 -1.35802,0.902273 -0.0781,0.02424 -0.18073,0.04484 -0.30776,0.06181 l -0.28662,0.02909 -0.16771,0.01091 v 0 l -0.38415,0.01454 -0.21642,0.0036 v 0 l -0.36425,8.03e-4 -0.66614,-0.0098 -1.14627,-0.03028 -1.49348,-0.04995 -1.11692,-0.02623 -0.67025,-0.01 -0.61059,-0.004 -0.5508,0.0018 -0.8561,0.0146 -1.47505,0.05458 -0.54386,0.02636 -0.71113,0.02506 -0.58336,0.0082 v 0 c -0.30286,0 -0.45139,-0.100038 -0.45139,-0.30204 0.0174,-0.159677 0.20061,-0.321278 0.54012,-0.480955 l 0.78511,-0.300117 c 0.36265,-0.180839 0.60571,-0.492498 0.72338,-0.933053 0.045,-0.178488 0.0775,-0.430604 0.0975,-0.757007 l 0.018,-0.427384 0.006,-0.498954 V 33.100359 c 0,-0.921511 -0.0695,-1.564068 -0.21219,-1.925746 -0.21991,-0.640633 -0.69252,-1.011931 -1.41783,-1.11197 -0.60185,-0.159677 -0.90278,-0.321278 -0.90278,-0.480955 0,-0.240478 0.35108,-0.361679 1.05517,-0.361679 l 2.36054,0.0082 1.09165,0.01005 1.03277,0.01384 4.09188,0.08882 3.83581,-0.11502 z m 36.57604,0 c 0.38195,0 0.57485,0.100039 0.57485,0.30204 0,0.156551 -0.14769,0.285117 -0.44049,0.38183 l -0.13436,0.03949 c -0.50154,0.140439 -0.84105,0.278955 -1.02431,0.419394 -0.38001,0.300116 -0.57291,0.782995 -0.57291,1.44479 v 16.148565 c 0,0.580994 0.23148,1.01193 0.69444,1.292808 0.0718,0.04002 0.18395,0.08649 0.33645,0.139439 l 0.25897,0.08426 0.31934,0.09396 0.37961,0.103655 c 0.41324,0.124835 0.64205,0.281591 0.6878,0.468917 l 0.009,0.07168 c 0,0.179557 -0.16157,0.278551 -0.47927,0.298333 l -0.18312,0.0032 -0.49972,-0.01701 -1.17898,-0.05829 -0.58664,-0.02506 -0.51713,-0.01523 -0.4479,-0.0051 c -0.57716,0 -1.11481,0.01354 -1.60901,0.03965 l -1.28451,0.08155 c -0.42245,0 -0.63271,-0.151982 -0.63271,-0.452098 0,-0.200077 0.20061,-0.361678 0.60185,-0.480955 0.54205,-0.140439 0.92593,-0.309736 1.14583,-0.511737 0.40317,-0.380917 0.60571,-1.002312 0.60571,-1.864184 V 31.80755 c 0,-0.640633 -0.21219,-1.113893 -0.63271,-1.414009 -0.1958,-0.139718 -0.52008,-0.272071 -0.97544,-0.397059 l -0.20319,-0.05312 c -0.42246,-0.100038 -0.63272,-0.232782 -0.63272,-0.392459 0,-0.219316 0.10031,-0.330898 0.30093,-0.330898 l 0.32052,0.0039 0.60363,0.01995 1.71161,0.08171 0.53673,0.01464 h 0.2719 l 0.29832,-0.0078 0.76457,-0.03849 0.86068,-0.05002 0.49703,-0.01995 z m -79.78789,0 c 0.38194,0 0.57485,0.140439 0.57485,0.421317 0,0.141401 -0.14769,0.257762 -0.44049,0.35295 l -0.13436,0.03951 c -0.48225,0.138515 -0.83334,0.300116 -1.05324,0.480956 -0.38002,0.359754 -0.57485,0.92151 -0.57485,1.683344 l 0.001,14.836418 0.009,0.403731 0.0175,0.352275 c 0.0328,0.489788 0.095,0.805688 0.18681,0.946676 0.24113,0.382841 0.93172,0.573299 2.07948,0.573299 2.05054,0 3.78087,-0.271258 5.18519,-0.813776 0.85905,-0.319782 1.58093,-0.744448 2.16835,-1.271296 l 0.65114,-0.624809 0.34476,-0.346083 c 0.0263,-0.02887 0.037,-0.04331 0.0321,-0.04331 0.13723,0 0.21636,0.08904 0.23617,0.265925 l 0.005,0.09575 c 0,0.840711 -0.49961,1.814165 -1.50656,2.916515 -0.43981,0.482879 -0.89506,0.782996 -1.35802,0.902273 -0.0781,0.02424 -0.18073,0.04484 -0.30782,0.06181 l -0.2868,0.02909 -0.16788,0.01091 v 0 l -0.38473,0.01454 -0.21684,0.0036 v 0 l -0.36441,8.03e-4 -0.66514,-0.0098 -1.14577,-0.03028 -1.49341,-0.04995 -1.11807,-0.02623 -0.67053,-0.01 -0.6105,-0.004 -0.55032,0.0018 -0.85524,0.0146 -1.47505,0.05458 -0.54387,0.02636 -0.71112,0.02506 -0.58336,0.0082 v 0 c -0.30286,0 -0.45332,-0.100038 -0.45332,-0.30204 0.0231,-0.159677 0.20061,-0.321278 0.54205,-0.480955 l 0.78511,-0.300117 c 0.36458,-0.180839 0.60185,-0.492498 0.72338,-0.933053 0.063,-0.249884 0.10269,-0.644077 0.11721,-1.184391 l 0.006,-0.498954 V 31.567072 c 0,-0.602156 -0.42439,-1.048483 -1.26737,-1.33898 l -0.33624,-0.119311 -0.28451,-0.108912 -0.23278,-0.09848 -0.18105,-0.08801 c -0.15519,-0.08277 -0.23278,-0.149788 -0.23278,-0.200907 0,-0.26164 0.20255,-0.39246 0.60185,-0.39246 l 0.29411,0.0099 0.91153,0.04973 c 0.66551,0.0404 1.27701,0.06156 1.84028,0.06156 0.51215,0 1.0026,-0.0119 1.46973,-0.0349 z m -10.77933,0 c 0.20254,0 0.30285,0.22124 0.30285,0.661795 l -0.004,0.529368 -0.0108,0.487079 -0.0179,0.44478 -0.0251,0.402469 c -0.0143,0.190655 -0.0313,0.365441 -0.051,0.52435 l -0.0429,0.296648 c -0.10055,0.596866 -0.25102,0.895539 -0.45067,0.895539 -0.26235,0 -0.41474,-0.271259 -0.45525,-0.813777 -0.0386,-0.681033 -0.12924,-1.121588 -0.26813,-1.323589 -0.30247,-0.411185 -1.02168,-0.673218 -2.16075,-0.787664 l -0.3038,-0.02588 -0.34615,-0.01211 -1.55759,-0.01415 -1.01126,-2.31e-4 -0.4655,0.0054 -0.41355,0.01086 -0.36155,0.0163 -0.30951,0.02173 -0.25744,0.02716 c -0.2314,0.02988 -0.38462,0.0679 -0.45951,0.114071 -0.15019,0.09207 -0.24723,0.407929 -0.29042,0.946179 l -0.0195,0.349625 -0.006,0.402931 v 5.592552 c 0,0.521356 0.0463,0.821472 0.13503,0.902272 0.0453,0.0404 0.15239,0.07022 0.32118,0.08994 l 0.23218,0.01885 0.13831,0.0058 v 0 l 0.32106,0.0046 h 3.25425 c 0.92785,0 1.59915,-0.209696 2.02161,-0.631013 0.26234,-0.240478 0.46103,-0.621395 0.60185,-1.140827 0.12153,-0.423241 0.26234,-0.632937 0.42245,-0.632937 0.22184,0 0.33179,0.190458 0.33179,0.571375 l -0.0118,0.858975 -0.0421,1.743445 -0.003,0.554718 0.0195,0.838573 0.028,0.819218 0.01,0.598707 c 0,0.259716 -0.10995,0.390536 -0.33179,0.390536 -0.19547,0 -0.34522,-0.182407 -0.44653,-0.54587 l -0.0357,-0.144783 c -0.14082,-0.642556 -0.27971,-1.063873 -0.42246,-1.263951 -0.30092,-0.461717 -0.81211,-0.690652 -1.53549,-0.690652 h -4.46374 c -0.28164,0 -0.45139,0.100039 -0.51312,0.300116 l -0.0137,0.10327 -0.006,0.07724 v 0 l -0.008,0.206046 -0.003,0.275235 v 5.532913 c 0,0.151707 0.001,0.294855 0.004,0.429433 l 0.0131,0.378012 c 0.029,0.58713 0.0942,0.959723 0.19476,1.116377 0.24113,0.382841 0.93557,0.573299 2.07948,0.573299 2.05054,0 3.77894,-0.271258 5.18905,-0.813776 0.85734,-0.319782 1.57902,-0.744448 2.16642,-1.271296 l 0.65076,-0.624809 0.34434,-0.346083 0.0322,-0.0385 c 0.002,-0.0032 0.002,-0.0048 6.8e-4,-0.0048 0.16011,0 0.24113,0.121201 0.24113,0.361678 0,0.840711 -0.50154,1.814165 -1.50656,2.916515 -0.44367,0.482879 -0.89506,0.782996 -1.3561,0.902273 -0.0793,0.02424 -0.18252,0.04484 -0.30993,0.06181 l -0.2871,0.02909 -0.16783,0.01091 v 0 l -0.38446,0.01454 -0.21672,0.0036 v 0 l -0.36501,8.03e-4 -0.66593,-0.0098 -1.14547,-0.03028 -1.49613,-0.04995 -1.11625,-0.02623 -0.66943,-0.01 -0.60988,-0.004 -0.55054,0.0018 -0.85613,0.0146 -1.47363,0.05458 -0.54467,0.02636 -0.71083,0.02506 -0.58285,0.0082 v 0 c -0.30092,0 -0.45332,-0.100038 -0.45332,-0.30204 0.0193,-0.159677 0.20062,-0.321278 0.54399,-0.480955 l 0.78318,-0.300117 c 0.36072,-0.180839 0.60185,-0.492498 0.72338,-0.933053 0.0439,-0.178488 0.076,-0.430604 0.0958,-0.757007 l 0.0179,-0.427384 0.006,-0.498954 V 33.100359 c 0,-0.921511 -0.0694,-1.564068 -0.21027,-1.925746 -0.22183,-0.640633 -0.69251,-1.011931 -1.41589,-1.11197 -0.60379,-0.159677 -0.90664,-0.321278 -0.90664,-0.480955 0,-0.240478 0.35494,-0.361679 1.05517,-0.361679 l 2.36197,0.0082 1.09197,0.01005 1.03291,0.01384 4.09158,0.08882 3.83369,-0.11502 z m 28.67672,0 c 0.38195,0 0.57292,0.140439 0.57292,0.421317 0,0.141401 -0.14621,0.257762 -0.43864,0.35295 l -0.13428,0.03951 c -0.48225,0.138515 -0.83333,0.300116 -1.05517,0.480956 -0.38194,0.359754 -0.57291,0.92151 -0.57291,1.683344 v 14.615278 c 0,0.151707 10e-4,0.294855 0.004,0.429433 l 0.0133,0.378012 c 0.0294,0.58713 0.0947,0.959723 0.19254,1.116377 0.24305,0.382841 0.93557,0.573299 2.08141,0.573299 2.05054,0 3.77893,-0.271258 5.18519,-0.813776 0.85905,-0.319782 1.58245,-0.744448 2.16885,-1.271296 l 0.6524,-0.624809 0.3655,-0.370142 c 0.0107,-0.01283 0.0145,-0.01925 0.0115,-0.01925 0.13889,0 0.21826,0.08904 0.2381,0.265925 l 0.005,0.09575 c 0,0.840711 -0.5054,1.814165 -1.51042,2.916515 -0.44175,0.482879 -0.89313,0.782996 -1.35803,0.902273 -0.0775,0.02424 -0.17992,0.04484 -0.30696,0.06181 l -0.28693,0.02909 -0.16805,0.01091 v 0 l -0.3851,0.01454 -0.21697,0.0036 v 0 l -0.3648,8.03e-4 -0.66574,-0.0098 -1.14583,-0.03028 -1.49434,-0.04995 -1.11653,-0.02623 -0.66962,-0.01 -0.60977,-0.004 -0.54983,0.0018 -0.85548,0.0146 -1.47463,0.05458 -0.54467,0.02636 -0.71083,0.02506 -0.58285,0.0082 v 0 c -0.30285,0 -0.45332,-0.100038 -0.45332,-0.30204 0.0193,-0.159677 0.20062,-0.321278 0.54206,-0.480955 l 0.7851,-0.300117 c 0.36073,-0.180839 0.60186,-0.492498 0.72531,-0.933053 0.0615,-0.249884 0.0985,-0.644077 0.11194,-1.184391 l 0.006,-0.498954 V 31.567072 c 0,-0.602156 -0.42245,-1.048483 -1.26543,-1.33898 l -0.33613,-0.119311 -0.28424,-0.108912 -0.2324,-0.09848 -0.18064,-0.08801 c -0.15478,-0.08277 -0.23202,-0.149788 -0.23202,-0.200907 0,-0.26164 0.19868,-0.39246 0.59992,-0.39246 l 0.29478,0.0099 0.91278,0.04973 c 0.66358,0.0404 1.27701,0.06156 1.83835,0.06156 0.51505,0 1.00514,-0.0119 1.4719,-0.0349 z M 76.09303,-13.583306 c 0.625001,6.2331844 4.058646,12.0065752 8.844531,16.8122834 0.175232,0.1758381 0.35226,0.3503646 0.531013,0.5235554 5.319372,-4.60917304 11.432374,-8.6141018 18.344976,-11.8215868 0.64429,-0.2981924 1.41203,-0.021162 1.71296,0.6213946 0.299,0.6406329 0.0193,1.4063142 -0.625,1.7045066 -6.602669,3.0640268 -12.442827,6.8687084 -17.529735,11.2350297 5.257159,4.5339031 11.65361,7.9797711 17.716265,9.8283241 0.68095,0.207772 1.06096,0.925358 0.85263,1.60062 -0.21026,0.675261 -0.92979,1.056178 -1.60687,0.848405 -6.479235,-1.976213 -13.31526,-5.681582 -18.89305,-10.5595031 -1.295733,1.1934468 -2.539095,2.4255079 -3.729851,3.6920351 -4.030766,4.290221 -7.463424,8.982038 -10.301314,13.945929 0.6949,0.740503 1.408605,1.45721 2.140618,2.151077 7.972617,7.552926 18.146238,12.429816 30.657827,15.100081 0.69444,0.148134 1.13812,0.827244 0.98958,1.51982 -0.1466,0.692576 -0.82754,1.135055 -1.52585,0.988844 -12.974548,-2.772227 -23.562908,-7.858814 -31.89625,-15.75418 -0.564348,-0.535158 -1.1182,-1.083094 -1.661596,-1.643964 -1.346129,2.564098 -2.539828,5.193542 -3.5805,7.870992 -0.25463,0.659871 -0.99923,0.988844 -1.660882,0.732976 -0.659723,-0.253945 -0.991513,-0.994616 -0.734954,-1.654487 1.184505,-3.050065 2.562277,-6.040454 4.133977,-8.947865 C 61.736926,17.775355 56.851107,8.2632746 53.532821,-3.6323349 c -0.189043,-0.6810331 0.212192,-1.3870759 0.898921,-1.5736867 0.682871,-0.1885346 1.390819,0.2096967 1.579863,0.8907298 3.105731,11.1448083 7.61505,20.1049638 13.598966,27.1506588 2.84872,-4.855578 6.256734,-9.452789 10.227255,-13.678516 1.188796,-1.264824 2.427546,-2.4961341 3.716358,-3.6908396 L 83.116571,5.0335227 c -5.177474,-5.19432034 -8.894685,-11.4929145 -9.583343,-18.3667317 -0.06752,-0.702195 0.447531,-1.329361 1.157409,-1.398619 0.706019,-0.06926 1.332949,0.444403 1.402393,1.148522 z M 51.283783,4.0756515 c 0.515047,0.4886509 0.534337,1.2985801 0.04437,1.8103168 l -0.73891,0.781949 c -1.77804,1.9104637 -3.049788,3.5033087 -4.106774,5.1261097 -1.192131,1.829555 -2.135419,3.749529 -3.236886,6.244727 -0.287424,0.648328 -1.047455,0.942673 -1.697533,0.657947 -0.653936,-0.284726 -0.947146,-1.042712 -0.661652,-1.69104 1.147764,-2.595236 2.143135,-4.613326 3.437504,-6.604482 1.216413,-1.868597 2.675469,-3.6741408 4.74706,-5.8641202 l 0.395692,-0.4152355 c 0.488041,-0.5117368 1.302085,-0.5328988 1.817131,-0.046172 z M 312.9623,-3.9868954 c 3.09607,0 5.6848,1.0003876 7.76621,3.00693426 1.99445,1.9244379 3.03245,4.34708744 3.1123,7.26965044 l 0.005,0.3679242 c 0,3.3666885 -1.05517,6.0638875 -3.16552,8.0896725 -2.11034,2.023861 -4.85147,3.037716 -8.22917,3.037716 -3.2176,0 -5.77933,-1.023474 -7.69098,-3.068497 -1.90973,-2.045023 -2.86652,-4.68066 -2.86652,-7.9088334 0,-3.106973 1.06868,-5.6829711 3.19831,-7.72799424 2.13156,-2.04502306 4.75309,-3.06657276 7.87038,-3.06657276 z m -149.67994,0.2693352 c 0.17195,0 0.27163,0.066431 0.2966,0.1992922 l 0.006,0.071967 c 0,0.2000775 -0.15046,0.3597548 -0.45332,0.4809556 -0.42052,0.2000775 -0.71373,0.3712977 -0.87577,0.5117367 -0.30092,0.3193545 -0.45139,0.8003101 -0.45139,1.4428667 v 17.412515 l -0.006,0.34299 -0.0166,0.290223 c -0.037,0.439731 -0.12027,0.659596 -0.24979,0.659596 -0.23323,0 -0.56531,-0.2369 -1.00058,-0.70492 L 147.422,2.2982321 147.31254,2.1777412 147.12336,1.9794476 c -0.16947,-0.1698664 -0.28006,-0.2545145 -0.33408,-0.2545145 -0.14274,0 -0.21219,0.2308586 -0.21219,0.692576 V 14.716505 c 0,0.782996 0.23148,1.333209 0.69445,1.654487 0.24305,0.18084 0.66165,0.321279 1.26543,0.421317 0.46296,0.05964 0.69445,0.190459 0.69445,0.390536 0,0.26164 -0.10996,0.390536 -0.33179,0.390536 l -0.37815,-0.01157 -0.86028,-0.04807 c -0.64236,-0.03848 -1.24422,-0.05964 -1.80749,-0.05964 l -0.34502,0.0039 -0.62836,0.01995 -1.85841,0.09542 c -0.26428,0 -0.39545,-0.109658 -0.39545,-0.330897 0,-0.240478 0.23341,-0.419393 0.69445,-0.540594 0.58449,-0.18084 1.00501,-0.430936 1.26543,-0.752215 0.46296,-0.540594 0.69444,-1.421705 0.69444,-2.645255 V 2.2058886 c 0,-1.82378354 -0.3125,-3.15699244 -0.93364,-3.9996265 -0.35837,-0.4446167 -0.8661,-0.770669 -1.52591,-0.9781568 l -0.25457,-0.07225 c -0.62307,-0.1616011 -0.93557,-0.3520595 -0.93557,-0.5732991 0,-0.2000775 0.15239,-0.3001162 0.45332,-0.3001162 0.0961,0 0.21991,0.00693 0.37069,0.021193 l 0.67686,0.076891 c 0.15106,0.014267 0.27421,0.021193 0.37027,0.021193 0.0972,0 0.22084,-0.00693 0.37125,-0.021193 l 0.66933,-0.076891 0.1039,-0.00933 v 0 l 0.17327,-0.010557 c 0.025,-8.722e-4 0.0481,-0.0013 0.0692,-0.0013 0.0401,0 0.10587,0.036937 0.19747,0.1108121 l 0.15684,0.1385152 0.093,0.090035 v 0 l 0.27535,0.2856876 v 0 l 14.52628,16.1232421 0.13293,0.135127 c 0.0755,0.07197 0.12462,0.107779 0.14667,0.107779 0.0598,0 0.0907,-0.109658 0.0907,-0.330897 V 0.37248596 c 0,-1.1427505 -0.28935,-1.98538456 -0.87384,-2.52597866 -0.28635,-0.26677 -0.73884,-0.4879383 -1.35745,-0.6594515 l -0.23977,-0.061982 c -0.58449,-0.140439 -0.87385,-0.3212783 -0.87385,-0.5425179 0,-0.2000775 0.10803,-0.3001162 0.33179,-0.3001162 l 0.25367,0.00364 0.31009,0.011032 0.57251,0.030807 0.70165,0.043653 0.41351,0.019395 0.34495,0.00957 0.29045,2.779e-4 0.33855,-0.00731 0.6353,-0.025059 1.40553,-0.071332 0.44676,-0.01409 z m 85.27593,0 c 0.17196,0 0.27022,0.066431 0.29479,0.1992922 l 0.006,0.071967 c 0,0.2000775 -0.14853,0.3597548 -0.45332,0.4809556 -0.42052,0.2000775 -0.71373,0.3712977 -0.87384,0.5117367 -0.30093,0.3193545 -0.45139,0.8003101 -0.45139,1.4428667 v 17.412515 l -0.006,0.34299 -0.0166,0.290223 c -0.037,0.439731 -0.12027,0.659596 -0.24979,0.659596 -0.25656,0 -0.63272,-0.28665 -1.13619,-0.852253 L 232.69601,2.2982321 232.48804,2.071485 c -0.21977,-0.2313364 -0.3598,-0.3465519 -0.42282,-0.3465519 -0.14275,0 -0.21219,0.2308586 -0.21219,0.692576 V 14.716505 c 0,0.782996 0.22955,1.333209 0.69445,1.654487 0.24112,0.18084 0.66165,0.321279 1.26543,0.421317 0.46296,0.05964 0.69252,0.190459 0.69252,0.390536 0,0.26164 -0.10803,0.390536 -0.3318,0.390536 l -0.37798,-0.01157 -0.85851,-0.04807 c -0.64237,-0.03848 -1.24615,-0.05964 -1.80942,-0.05964 l -0.34418,0.0039 -0.62822,0.01995 -1.85939,0.09542 c -0.26235,0 -0.39159,-0.109658 -0.39159,-0.330897 0,-0.240478 0.23148,-0.419393 0.69059,-0.540594 0.58642,-0.18084 1.00501,-0.430936 1.26736,-0.752215 0.46296,-0.540594 0.69444,-1.421705 0.69444,-2.645255 V 2.2058886 c 0,-1.82378354 -0.3125,-3.15699244 -0.93557,-3.9996265 -0.35665,-0.4446167 -0.8642,-0.770669 -1.52399,-0.9781568 l -0.25456,-0.07225 c -0.62307,-0.1616011 -0.93557,-0.3520595 -0.93557,-0.5732991 0,-0.2000775 0.15046,-0.3001162 0.45139,-0.3001162 0.0972,0 0.22083,0.00693 0.37166,0.021193 l 0.67698,0.076891 c 0.1512,0.014267 0.27505,0.021193 0.37111,0.021193 0.12963,0 0.30617,-0.012312 0.52963,-0.037922 l 0.46003,-0.055134 0.22619,-0.019737 c 0.0659,-0.00435 0.12224,-0.00648 0.16918,-0.00648 0.0702,0 0.21983,0.1131207 0.44885,0.3393622 l 0.27575,0.2856876 v 0 l 14.52569,16.1232422 0.13273,0.135127 c 0.0757,0.07197 0.12543,0.107779 0.14748,0.107779 0.0513,0 0.0812,-0.08057 0.0888,-0.242906 l 0.002,-12.65824584 c 0,-1.1427505 -0.29128,-1.98538456 -0.87577,-2.52597866 -0.28464,-0.26677 -0.73693,-0.4879383 -1.35824,-0.6594515 l -0.24091,-0.061982 c -0.58257,-0.140439 -0.87192,-0.3212783 -0.87192,-0.5425179 0,-0.2000775 0.10803,-0.3001162 0.33179,-0.3001162 l 0.25478,0.00364 0.31067,0.011032 0.57274,0.030807 0.70043,0.043653 0.41296,0.019395 0.34481,0.00957 0.29053,2.779e-4 0.33907,-0.00731 0.63632,-0.025059 1.40583,-0.071332 0.44676,-0.01409 z m 98.64787,0 c 0.17361,0 0.27069,0.066431 0.29489,0.1992922 l 0.006,0.071967 c 0,0.2000775 -0.15047,0.3597548 -0.45139,0.4809556 -0.42246,0.2000775 -0.71374,0.3712977 -0.87385,0.5117367 -0.30092,0.3193545 -0.45139,0.8003101 -0.45139,1.4428667 v 17.412515 l -0.006,0.34299 c -0.0222,0.633213 -0.11129,0.949819 -0.26837,0.949819 -0.25463,0 -0.63271,-0.28665 -1.13426,-0.852253 L 331.34773,2.2982321 331.13826,2.071485 330.96765,1.9016133 c -0.12599,-0.1178968 -0.21148,-0.1766802 -0.25649,-0.1766802 -0.14082,0 -0.21026,0.2308586 -0.21026,0.692576 V 14.716505 c 0,0.782996 0.23148,1.333209 0.69251,1.654487 0.24306,0.18084 0.66358,0.321279 1.26929,0.421317 0.46104,0.05964 0.69059,0.190459 0.69059,0.390536 0,0.26164 -0.10802,0.390536 -0.32986,0.390536 l -0.37797,-0.01157 -0.8566,-0.04807 c -0.64429,-0.03848 -1.24807,-0.05964 -1.81134,-0.05964 l -0.34608,0.0039 -0.62819,0.01995 -1.86139,0.09542 c -0.25848,0 -0.39159,-0.109658 -0.39159,-0.330897 0,-0.240478 0.23149,-0.419393 0.69638,-0.540594 0.58063,-0.18084 1.00309,-0.430936 1.2635,-0.752215 0.46297,-0.540594 0.69445,-1.421705 0.69445,-2.645255 V 2.2058886 c 0,-1.82378354 -0.31057,-3.15699244 -0.93172,-3.9996265 -0.35836,-0.4446167 -0.86915,-0.770669 -1.52828,-0.9781568 l -0.25412,-0.07225 c -0.62115,-0.1616011 -0.93365,-0.3520595 -0.93365,-0.5732991 0,-0.2000775 0.15239,-0.3001162 0.45139,-0.3001162 0.0961,0 0.21991,0.00693 0.3707,0.021193 l 0.67546,0.076891 c 0.15083,0.014267 0.27444,0.021193 0.37167,0.021193 0.12808,0 0.30432,-0.012312 0.52969,-0.037922 l 0.46189,-0.055134 0.2262,-0.019737 c 0.0659,-0.00435 0.12224,-0.00648 0.16918,-0.00648 0.0401,0 0.10648,0.036937 0.19846,0.1108121 l 0.15709,0.1385152 0.19507,0.1939213 0.23256,0.2493274 14.38273,15.967725 0.15423,0.162353 0.11306,0.107969 c 0.0465,0.04043 0.078,0.06058 0.0954,0.06058 0.0598,0 0.0926,-0.109658 0.0926,-0.330897 V 0.37248596 c 0,-1.1427505 -0.29321,-1.98538456 -0.87385,-2.52597866 -0.28635,-0.26677 -0.74036,-0.4879383 -1.36067,-0.6594515 l -0.24041,-0.061982 c -0.58063,-0.140439 -0.87384,-0.3212783 -0.87384,-0.5425179 0,-0.2000775 0.10995,-0.3001162 0.33179,-0.3001162 l 0.25393,0.00364 0.31055,0.011032 0.57234,0.030807 0.70227,0.043653 0.41376,0.019395 0.34424,0.00957 0.29094,2.779e-4 0.33985,-0.00731 0.6366,-0.025059 1.40414,-0.071332 0.44628,-0.01409 z m 33.588,0 c 0.38387,0 0.57099,0.140439 0.57099,0.421317 0,0.1596773 -0.18712,0.2904972 -0.57099,0.390536 -0.48226,0.140439 -0.83334,0.3020401 -1.0571,0.4809555 -0.38195,0.3616786 -0.57099,0.9234348 -0.57099,1.68526836 l 0.001,14.85286534 0.0189,0.623066 v 0 l 0.0251,0.340684 c 0.035,0.362628 0.0903,0.603356 0.16503,0.722485 0.24113,0.380917 0.93557,0.571375 2.07948,0.571375 2.05247,0 3.77894,-0.269335 5.18905,-0.811853 0.85734,-0.321492 1.58055,-0.744828 2.16693,-1.271359 l 0.71818,-0.690847 0.2457,-0.246307 0.0648,-0.07578 v 0 c 0.13775,-0.0012 0.21569,0.08784 0.23513,0.26351 l 0.005,0.09504 c 0,0.842634 -0.50154,1.816088 -1.50656,2.918439 -0.44367,0.480955 -0.89313,0.781071 -1.35802,0.902272 -0.1551,0.04848 -0.41019,0.08172 -0.76278,0.100562 l -0.385,0.01407 -0.44945,0.0046 -1.00012,-0.01397 -2.43931,-0.07452 v 0 l -1.11656,-0.02654 -0.66977,-0.01031 -0.89274,-0.004 -0.52054,0.0051 -0.73234,0.01571 -1.34197,0.0489 -0.79726,0.03662 -0.66867,0.01938 -0.37435,0.0036 c -0.30286,0 -0.45332,-0.09811 -0.45332,-0.300116 0.0193,-0.159677 0.20254,-0.321278 0.54398,-0.480956 l 0.78511,-0.300116 c 0.35879,-0.180839 0.59992,-0.492498 0.72338,-0.933054 0.054,-0.214185 0.0883,-0.53525 0.10517,-0.962623 l 0.0111,-0.462789 10e-4,-15.5061479 c 0,-0.5573588 -0.3626,-0.9820131 -1.09088,-1.2724226 l -0.51069,-0.1845559 -0.28423,-0.1091867 -0.23241,-0.098552 c -0.27534,-0.1243586 -0.41266,-0.2206282 -0.41266,-0.2898858 0,-0.2308587 0.15699,-0.3598735 0.47503,-0.3856934 l 0.17694,-0.00426 0.35739,0.01409 0.79813,0.044969 c 0.66358,0.0404 1.27701,0.059639 1.84028,0.059639 0.51215,0 1.0026,-0.010822 1.46973,-0.033276 z m -243.07124,0 c 0.38387,0 0.57291,0.1000387 0.57291,0.3001162 0,0.1607461 -0.14936,0.2895709 -0.45216,0.3864746 l -0.12075,0.034842 c -0.50155,0.140439 -0.84491,0.2808781 -1.02624,0.4213171 -0.38194,0.3001163 -0.57292,0.7810719 -0.57292,1.4428667 V 15.018545 c 0,0.580995 0.23149,1.011931 0.69638,1.292809 0.0359,0.02001 0.0818,0.04163 0.13778,0.06487 l 0.19824,0.07457 0.25898,0.08426 0.32,0.09396 0.3813,0.103656 c 0.4591,0.140439 0.69058,0.319354 0.69058,0.540594 0,0.202001 -0.20061,0.300116 -0.60185,0.300116 l -0.31202,-0.0077 -1.72524,-0.08056 -0.8016,-0.0259 -0.44818,-0.0051 c -0.58025,0 -1.11605,0.01354 -1.61136,0.03866 l -0.53352,0.03247 -0.75057,0.04815 c -0.42053,0 -0.63272,-0.150058 -0.63272,-0.450174 0,-0.200078 0.20255,-0.361679 0.60571,-0.480956 0.54013,-0.140439 0.92207,-0.311659 1.14391,-0.511737 0.40316,-0.380916 0.60185,-1.002311 0.60185,-1.864183 V -1.1319431 c 0,-0.6406328 -0.20833,-1.1119693 -0.63272,-1.4120855 -0.19241,-0.141401 -0.51628,-0.2739644 -0.97159,-0.398979 l -0.20318,-0.053119 c -0.42438,-0.1000387 -0.63464,-0.2308587 -0.63464,-0.3905359 0,-0.2212396 0.10031,-0.3308974 0.30285,-0.3308974 l 0.31829,0.00364 0.38484,0.011032 0.70204,0.030807 0.78315,0.040524 0.64206,0.025059 0.4856,0.00822 0.42504,-0.00822 0.55342,-0.025059 0.87635,-0.052725 0.37658,-0.018607 0.31654,-0.011032 z m 151.09198,0 c 0.3395,0 0.56905,0.059638 0.67708,0.1808393 0.0959,0.1022374 0.15637,0.2864532 0.18505,0.5526474 l 0.0117,0.1399286 0.15046,2.40477786 0.002,0.1255852 c -0.005,0.3570056 -0.11715,0.5362096 -0.33417,0.5362096 -0.24863,0 -0.40428,-0.1580859 -0.46425,-0.4756089 l -0.018,-0.1265474 c -0.0598,-0.5405941 -0.16204,-0.90227266 -0.30093,-1.08118816 -0.27585,-0.3685723 -0.79807,-0.5674073 -1.56519,-0.597987 l -0.21529,-0.00417 h -4.30942 c -0.121,0 -0.23212,0.00146 -0.33337,0.0044 l -0.27421,0.013246 c -0.28545,0.02064 -0.45039,0.059482 -0.49581,0.1170222 -0.0289,0.037675 -0.0518,0.1371391 -0.0687,0.2983929 l -0.0174,0.2231633 -0.0116,0.2824813 -0.007,0.53494276 V 14.747286 c 0,0.721434 0.21026,1.242789 0.63465,1.564068 0.17385,0.122884 0.49539,0.245768 0.96462,0.368652 l 0.21015,0.05267 c 0.42052,0.100039 0.63271,0.259716 0.63271,0.480955 0,0.240478 -0.0907,0.359755 -0.27006,0.359755 l -0.1983,-0.0036 -0.41256,-0.01938 -0.99489,-0.06527 -0.54928,-0.0259 -0.28903,-0.0051 -1.063,0.0042 -0.92729,0.01288 -0.54251,0.01374 -0.8379,0.03905 -0.76125,0.04945 c -0.24113,0 -0.36072,-0.128896 -0.36072,-0.390536 0,-0.180839 0.20061,-0.350135 0.60185,-0.511736 l 0.53319,-0.186682 v 0 l 0.2773,-0.109703 0.21506,-0.09805 c 0.0613,-0.03075 0.11235,-0.05959 0.15308,-0.08652 0.35665,-0.26677 0.55327,-0.621703 0.59255,-1.063449 l 0.007,-0.169721 V -0.67984484 l -0.006,-0.36677696 c -0.0222,-0.6207945 -0.1056,-0.9575672 -0.25308,-1.0093849 l -0.0418,-0.00707 h -4.91513 c -0.86419,0 -1.44676,0.1404391 -1.74961,0.4213171 -0.0747,0.083366 -0.16055,0.2295227 -0.25699,0.438332 l -0.12079,0.28063536 -0.13085,0.3407281 -0.0691,0.1928821 v 0 l -0.14561,0.4307669 c -0.13696,0.4617174 -0.31057,0.6906523 -0.51119,0.6906523 -0.17723,0 -0.27618,-0.0913215 -0.29815,-0.2752532 l -0.005,-0.0845016 0.33179,-2.91651456 0.0926,-0.7233572 c 0.0791,-0.3001163 0.22955,-0.4501744 0.45139,-0.4501744 l 1.66265,0.018604 3.3662,0.067397 1.84804,0.025059 1.14304,0.00731 h 1.37415 l 1.61656,-0.00731 2.31927,-0.025059 v 0 z m 72.27823,-0.4809556 c 0.0736,0 0.18227,0.1406098 0.32555,0.421381 l 0.11394,0.2368517 0.12688,0.2893702 6.33951,15.6530599 0.66165,1.742983 c 0.28356,0.682957 0.56327,1.244713 0.84684,1.685268 0.29285,0.454722 0.77383,0.761579 1.44873,0.919128 l 0.20829,0.04278 c 0.60828,0.109338 0.93777,0.262322 0.98846,0.45747 l 0.007,0.05427 c 0,0.180839 -0.14275,0.269335 -0.42245,0.269335 l -0.29971,-0.0029 -1.02182,-0.03295 -1.27557,-0.05638 -0.80104,-0.02398 -0.31136,-0.0031 -0.25897,0.0051 -0.32754,0.01492 -0.39664,0.02421 -0.6569,0.04491 -0.36825,0.01939 -0.4319,0.01075 c -0.4456,0 -0.66358,-0.09811 -0.66358,-0.300116 0,-0.200078 0.29899,-0.405927 0.9047,-0.615623 0.59993,-0.211621 0.90278,-0.527128 0.90278,-0.948445 0,-0.05636 -0.01,-0.132484 -0.0292,-0.22835 l -0.0519,-0.218043 -0.0778,-0.270623 -0.10365,-0.323148 -0.12952,-0.375617 -0.24274,-0.661679 -0.19411,-0.50654 -1.07124,-2.739216 C 364.53258,9.6241175 364.0889,9.2432007 363.50634,9.2432007 h -6.62616 c -0.74267,0 -1.21528,0.2116204 -1.41783,0.6367851 l -1.93673,4.2054752 c -0.14275,0.30204 -0.21219,0.652176 -0.21219,1.052331 0,0.602157 0.1794,1.023474 0.54205,1.263951 0.15866,0.104368 0.44729,0.202843 0.86718,0.29285 l 0.18799,0.03805 c 0.36459,0.05964 0.54399,0.190458 0.54399,0.390536 0,0.206124 -0.0652,0.33875 -0.19923,0.397878 l -0.0881,0.02867 v 0 l -0.0534,0.0089 v 0 l -0.13707,0.0094 -0.33427,0.0053 -0.27745,-0.0048 -0.34589,-0.01445 -0.41377,-0.02441 -0.68012,-0.04467 -0.54199,-0.0259 -0.2755,-0.0051 -0.2725,0.0051 -0.33431,0.01492 -0.39558,0.02421 -0.64385,0.04491 -0.35682,0.01939 -0.41014,0.01075 c -0.18133,0 -0.27006,-0.109658 -0.27006,-0.330897 0,-0.138515 0.27006,-0.309736 0.81211,-0.509813 0.625,-0.240478 1.08604,-0.682957 1.38696,-1.32359 l 7.20873,-15.33671134 c 0.54205,-1.18315066 1.09375,-2.36630136 1.65702,-3.54945216 0.22184,-0.4809555 0.42439,-0.7214333 0.60378,-0.7214333 z m -99.5545,0 c 0.0855,0 0.21162,0.1779592 0.38101,0.5332394 l 0.1839,0.4143635 v 0 l 6.34096,15.6530599 0.66358,1.742983 c 0.27971,0.682957 0.56328,1.244713 0.84298,1.685268 0.29286,0.454722 0.77703,0.761579 1.4525,0.919128 l 0.20839,0.04278 c 0.60651,0.109338 0.93585,0.262322 0.98653,0.45747 l 0.007,0.05427 c 0,0.180839 -0.14082,0.269335 -0.42053,0.269335 l -0.29917,-0.0029 -1.02382,-0.03295 -1.27503,-0.05638 -0.80001,-0.02398 -0.30953,-0.0031 -0.26016,0.0051 -0.32777,0.01492 -0.39594,0.02421 -0.6575,0.04491 -0.36943,0.01939 -0.43519,0.01075 c -0.43982,0 -0.66358,-0.09811 -0.66358,-0.300116 0,-0.181889 0.25188,-0.368547 0.74841,-0.55853 l 0.15629,-0.05709 c 0.60571,-0.211621 0.90471,-0.527128 0.90471,-0.948445 0,-0.05636 -0.01,-0.132484 -0.0292,-0.22835 l -0.0518,-0.218043 c -0.0216,-0.08145 -0.0475,-0.171658 -0.0777,-0.270623 l -0.10351,-0.323148 -0.12928,-0.375617 -0.24219,-0.661679 -0.29998,-0.779416 -0.96451,-2.46634 C 264.97621,9.6241205 264.53639,9.2432037 263.9519,9.2432037 h -6.62424 c -0.74267,0 -1.21527,0.2116204 -1.41782,0.6367851 l -1.93866,4.2054752 c -0.14082,0.30204 -0.21219,0.652176 -0.21219,1.052331 0,0.602157 0.18325,1.023474 0.54398,1.263951 0.15697,0.104368 0.44687,0.202843 0.86581,0.29285 l 0.18743,0.03805 c 0.36266,0.05964 0.54398,0.190458 0.54398,0.390536 0,0.206124 -0.0666,0.33875 -0.19861,0.397878 l -0.0873,0.02867 v 0 l -0.0542,0.0089 v 0 l -0.13794,0.0094 -0.33599,0.0053 -0.27589,-0.0048 -0.34486,-0.01445 -0.41383,-0.02441 -0.67988,-0.04467 -0.54249,-0.0259 -0.27585,-0.0051 -0.27211,0.0051 -0.33352,0.01492 -0.39493,0.02421 -0.6426,0.04491 -0.35691,0.01939 -0.41312,0.01075 c -0.18133,0 -0.27007,-0.109658 -0.27007,-0.330897 0,-0.138515 0.27007,-0.309736 0.81405,-0.509813 0.62114,-0.240478 1.08603,-0.682957 1.38696,-1.32359 l 7.2068,-15.33671134 c 0.36137,-0.7887671 0.72874,-1.57753426 1.10039,-2.36630136 l 0.56049,-1.1831508 c 0.21798,-0.4809555 0.42052,-0.7214333 0.59992,-0.7214333 z m -77.46536,0.4809556 c 0.34337,0 0.57099,0.059638 0.67902,0.1808393 0.10995,0.1192769 0.17554,0.3501356 0.19483,0.692576 l 0.15239,2.40477786 c 0.0193,0.4405553 -0.0907,0.6617948 -0.33179,0.6617948 -0.24863,0 -0.40428,-0.1580859 -0.46426,-0.4756089 l -0.018,-0.1265474 c -0.0617,-0.5405941 -0.16204,-0.90227266 -0.30286,-1.08118816 -0.299,-0.4020788 -0.89506,-0.6021564 -1.77855,-0.6021564 h -4.30942 c -0.121,0 -0.23205,0.00146 -0.33322,0.0044 l -0.27388,0.013246 c -0.28504,0.02064 -0.44965,0.059482 -0.4963,0.1170222 -0.0238,0.03014 -0.0433,0.099825 -0.0587,0.2090554 l -0.0201,0.1935044 -0.0142,0.2528223 -0.008,0.31214016 -0.003,0.371458 V 14.747286 c 0,0.721434 0.21026,1.242789 0.63079,1.564068 0.17722,0.122884 0.49919,0.245768 0.96847,0.368652 l 0.21015,0.05267 c 0.42053,0.100039 0.63272,0.259716 0.63272,0.480955 0,0.240478 -0.0907,0.359755 -0.27006,0.359755 l -0.1983,-0.0036 -0.41256,-0.01938 -0.99574,-0.06527 -0.54877,-0.0259 -0.28869,-0.0051 -1.06205,0.0042 -0.92716,0.01288 -0.54166,0.01374 -0.83934,0.03905 -0.76174,0.04945 c -0.24113,0 -0.36073,-0.128896 -0.36073,-0.390536 0,-0.180839 0.20062,-0.350135 0.60185,-0.511736 l 0.37111,-0.127421 0.16202,-0.05926 v 0 l 0.27703,-0.109703 c 0.16383,-0.06924 0.28595,-0.130704 0.36654,-0.184571 0.40124,-0.300116 0.60186,-0.711814 0.60186,-1.23317 V -0.67984484 l -0.006,-0.36677696 c -0.0242,-0.6772303 -0.12128,-1.0164513 -0.29489,-1.0164513 h -4.91513 c -0.8642,0 -1.44676,0.1404391 -1.74961,0.4213171 -0.10465,0.1167119 -0.23031,0.356495 -0.37658,0.71896736 l -0.13042,0.3407281 -0.069,0.1928821 v 0 l -0.14547,0.4307669 c -0.14274,0.4617174 -0.3125,0.6906523 -0.51311,0.6906523 -0.20255,0 -0.30286,-0.119277 -0.30286,-0.3597548 l 0.33179,-2.91651456 0.0907,-0.7233572 c 0.081,-0.3001163 0.23149,-0.4501744 0.45332,-0.4501744 l 1.4241,0.014669 3.60557,0.071332 1.84774,0.025059 1.14261,0.00731 h 1.37406 l 1.61656,-0.00731 2.31927,-0.025059 v 0 z m 115.09272,0 c 0.38194,0 0.57484,0.1000387 0.57484,0.3001162 0,0.1582344 -0.14769,0.2855373 -0.44048,0.3819088 l -0.13436,0.039408 c -0.50155,0.140439 -0.84298,0.2808781 -1.02238,0.4213171 -0.38387,0.3001163 -0.57292,0.7810719 -0.57292,1.4428667 V 15.018545 c 0,0.580995 0.22955,1.011931 0.69059,1.292809 0.0363,0.02001 0.0826,0.04163 0.13889,0.06487 l 0.19907,0.07457 0.12211,0.04092 v 0 l 0.28935,0.08911 0.54688,0.151847 v 0 c 0.41152,0.124835 0.64014,0.28007 0.68587,0.46841 l 0.009,0.07218 c 0,0.202001 -0.20254,0.300116 -0.60378,0.300116 l -0.31327,-0.0077 -1.72413,-0.08056 -0.80175,-0.0259 -0.44789,-0.0051 c -0.5787,0 -1.11543,0.01354 -1.61117,0.03866 l -0.53272,0.03247 -0.74963,0.04815 c -0.42246,0 -0.63272,-0.150058 -0.63272,-0.450174 0,-0.200078 0.20062,-0.361679 0.60185,-0.480956 0.54399,-0.140439 0.92593,-0.311659 1.14584,-0.511737 0.40316,-0.380916 0.60378,-1.002311 0.60378,-1.864183 V -1.1319431 c 0,-0.6406328 -0.21219,-1.1119693 -0.63465,-1.4120855 -0.19241,-0.141401 -0.51628,-0.2739644 -0.97159,-0.398979 l -0.20318,-0.053119 c -0.42245,-0.1000387 -0.63271,-0.2308587 -0.63271,-0.3905359 0,-0.2212396 0.10224,-0.3308974 0.30092,-0.3308974 l 0.31859,0.00364 0.3855,0.011032 0.70293,0.030807 0.78239,0.040524 0.64192,0.025059 0.48465,0.00822 0.42674,-0.00822 0.55226,-0.025059 0.87635,-0.052725 0.37748,-0.018607 0.31672,-0.011032 z m -97.32071,0 c 0.20062,0 0.30093,0.2212395 0.30093,0.6617948 l -0.004,0.5293358 -0.0107,0.4869888 -0.0234,0.5491858 v 0 l -0.0428,0.57168256 v 0 l -0.048,0.4036185 -0.0223,0.1429207 v 0 l -0.05,0.2540811 c -0.0982,0.4269975 -0.23252,0.6404962 -0.40309,0.6404962 -0.25849,0 -0.40895,-0.2712589 -0.45139,-0.811853 -0.0386,-0.6810331 -0.12925,-1.12351216 -0.27199,-1.32358966 -0.32215,-0.4405553 -1.12462,-0.7118143 -2.4132,-0.8118531 l -0.29001,-0.011982 -1.66302,-0.015976 -1.01169,-2.201e-4 -0.67922,0.01016 -0.38749,0.01352 -0.41085,0.024458 v 0 l -0.32912,0.03282 -0.20443,0.032253 c -0.11884,0.023274 -0.20278,0.050087 -0.2518,0.080416 -0.18353,0.1121313 -0.28628,0.5436957 -0.31189,1.29711606 l -0.006,0.4035428 V 5.0339074 l 0.006,0.3148155 c 0.015,0.329095 0.0566,0.5246123 0.12866,0.5874572 0.0544,0.04848 0.19699,0.081724 0.42861,0.100562 l 0.26132,0.014067 0.32087,0.00465 h 3.25617 c 0.924,0 1.59723,-0.2096966 2.02161,-0.6310137 0.22787,-0.2104181 0.40847,-0.5283598 0.5444,-0.9538251 l 0.0555,-0.1889254 c 0.12345,-0.4213171 0.26234,-0.6310137 0.42245,-0.6310137 0.22184,0 0.33372,0.1904584 0.33372,0.5713752 l -0.008,0.6574663 -0.0461,1.7670308 -0.007,0.4845327 0.002,0.3833369 0.0532,1.6935077 0.006,0.4277616 c 0,0.259716 -0.11188,0.3886116 -0.33372,0.3886116 -0.21798,0 -0.38002,-0.2289343 -0.48225,-0.6906517 C 199.68672,8.6930175 199.54397,8.2717004 199.40122,8.069699 199.1003,7.6099055 198.58718,7.3790468 197.8638,7.3790468 h -4.45988 c -0.28357,0 -0.45525,0.1000388 -0.51505,0.3020401 l -0.008,0.042515 -0.0118,0.1371916 -0.007,0.2065164 -10e-4,6.0460721 0.0101,0.430321 0.009,0.192745 v 0 l 0.0251,0.340684 c 0.035,0.362628 0.0902,0.603356 0.16503,0.722485 0.24112,0.380917 0.93557,0.571375 2.07947,0.571375 2.05055,0 3.78087,-0.269335 5.18712,-0.811853 0.85734,-0.321492 1.58208,-0.744828 2.1688,-1.271359 l 0.73367,-0.706414 0.28342,-0.288474 c 0.011,-0.01283 0.0151,-0.01925 0.0124,-0.01925 0.13889,0 0.21684,0.08905 0.23627,0.264714 l 0.005,0.09504 c 0,0.842634 -0.50348,1.816088 -1.51042,2.918439 -0.44175,0.480955 -0.89314,0.781071 -1.3561,0.902272 -0.15509,0.04848 -0.41018,0.08172 -0.76319,0.100562 l -0.38558,0.01407 -0.45038,0.0046 -0.99778,-0.01397 -2.43973,-0.07452 v 0 l -1.11648,-0.02654 -0.66948,-0.01031 -0.89162,-0.004 -0.51913,0.0051 -0.73506,0.01571 -1.34215,0.0489 -0.79675,0.03662 -0.66837,0.01938 -0.37516,0.0036 c -0.30286,0 -0.45332,-0.09811 -0.45332,-0.300116 0.0193,-0.159677 0.20255,-0.321278 0.54205,-0.480956 l 0.78704,-0.300116 c 0.3588,-0.180839 0.59993,-0.492498 0.72338,-0.933054 0.063,-0.249883 0.0992,-0.64524 0.11216,-1.185167 l 0.006,-0.498177 V 0.16278936 c 0,-0.9234348 -0.0694,-1.56406756 -0.21026,-1.92574616 -0.21991,-0.6406328 -0.69445,-1.0119305 -1.41783,-1.1119693 -0.60185,-0.161601 -0.90277,-0.3212783 -0.90277,-0.4809556 0,-0.2424016 0.35108,-0.3616785 1.05517,-0.3616785 l 2.36017,0.00772 1.61612,0.016144 1.00356,0.015821 3.5951,0.079331 3.83635,-0.1134998 z m 11.95411,0 c 1.6493,0 2.90509,0.140439 3.76929,0.421317 2.25116,0.7618337 3.3777,2.35091086 3.3777,4.7768508 0,1.1427505 -0.35879,2.1835384 -1.08024,3.1223636 -0.72339,0.942673 -1.62231,1.6333252 -2.70255,2.0758043 l 5.02122,7.6164125 c 0.62114,0.963835 1.2635,1.654487 1.92901,2.075804 0.34144,0.22124 0.76389,0.390536 1.26544,0.511737 0.265,0.05218 0.41184,0.142663 0.44441,0.272728 l 0.007,0.05817 c 0,0.183895 -0.38128,0.296915 -1.1447,0.339919 l -0.37948,0.01488 -0.43377,0.005 c -1.00695,0 -1.90008,-0.321278 -2.68519,-0.961911 -0.56327,-0.480956 -1.17284,-1.242789 -1.83835,-2.285501 l -3.34491,-5.2635776 c -0.084,-0.1322998 -0.16432,-0.2556749 -0.24102,-0.3701042 l -0.21918,-0.3164298 c -0.31245,-0.4343259 -0.5515,-0.6870752 -0.71843,-0.7563328 -0.0567,-0.023538 -0.15245,-0.044308 -0.28715,-0.062308 l -0.23128,-0.024923 -0.28975,-0.020769 -0.34823,-0.016615 -0.63197,-0.017135 -0.76353,-0.00779 -0.28374,-5.192e-4 c -0.4186,0 -0.6713,0.1000387 -0.75232,0.3001163 l -0.008,0.033586 -0.0125,0.1106843 -0.009,0.2209837 v 0 l -0.002,6.5220303 c 0,0.742595 0.27199,1.283189 0.81404,1.623706 0.14468,0.08426 0.3838,0.176145 0.71695,0.274814 l 0.57019,0.15299 v 0 l 0.22135,0.05315 c 0.54399,0.121201 0.81405,0.311659 0.81405,0.571375 0,0.141401 -0.13145,0.219466 -0.39046,0.236773 l -0.10327,0.0028 -0.15943,-0.01322 -0.74731,-0.04552 -0.55272,-0.02555 -0.61385,-0.0187 -0.67533,-0.01148 -0.73719,-0.0039 -0.32311,0.0039 -0.61781,0.01995 -1.55762,0.0724 -0.61754,0.01938 -0.32142,0.0036 c -0.20255,0 -0.30286,-0.109658 -0.30286,-0.330897 0,-0.178916 0.19097,-0.350136 0.57292,-0.509813 0.52469,-0.200078 0.87577,-0.39246 1.05517,-0.571375 0.38194,-0.361679 0.57292,-0.873416 0.57292,-1.535211 V -0.67984484 c 0,-0.84263416 -0.21798,-1.42362846 -0.66358,-1.74490686 -0.21991,-0.1596772 -0.64237,-0.3001162 -1.26737,-0.4193932 -0.44174,-0.1019626 -0.66165,-0.271259 -0.66165,-0.5117368 0,-0.2424016 0.20255,-0.3616785 0.60378,-0.3616785 l 0.058,0.00161 0.16356,0.013057 0.36482,0.044969 c 0.0738,0.0101 0.15686,0.018878 0.24942,0.026362 l 0.39203,0.022068 v 0 l 0.4835,0.010303 0.61215,-0.00142 0.97368,-0.018869 0.89484,-0.026959 1.43456,-0.047258 0.85706,-0.019536 z m 98.2582,0.7214333 c -2.43056,0 -4.3943,0.8926536 -5.87964,2.67796066 -1.38889,1.68334454 -2.07947,3.76876794 -2.07947,6.25434634 0,2.9280576 0.85069,5.4424929 2.56366,7.5490789 1.84799,2.264339 4.19946,3.39747 7.05247,3.39747 2.25309,0 4.13581,-0.833015 5.65587,-2.495198 1.44913,-1.590301 2.20575,-3.662651 2.27154,-6.2187231 l 0.005,-0.368444 c 0,-2.8664952 -0.86613,-5.3539975 -2.59452,-7.45865914 -1.83064,-2.22393856 -4.16089,-3.33783166 -6.99461,-3.33783166 z m -51.28092,2.79723766 c -0.0791,0 -0.16589,0.0846481 -0.25077,0.259716 l -3.40471,7.31437244 c -0.0482,0.119277 -0.0752,0.2096966 -0.0752,0.2693351 0,0.1866108 0.16011,0.2751066 0.48225,0.2751066 h 5.97223 c 0.38002,0 0.57292,-0.088496 0.57292,-0.2693351 0,-0.026164 -0.004,-0.059408 -0.013,-0.1002235 l -0.0389,-0.1456564 v 0 l -0.0292,-0.090789 -2.96683,-7.24126724 c -0.0791,-0.1808393 -0.16589,-0.2712589 -0.24884,-0.2712589 z m 99.55258,0 c -0.081,0 -0.1659,0.0846481 -0.25271,0.259716 l -3.40085,7.31437244 c -0.0501,0.119277 -0.0752,0.2096966 -0.0752,0.2693351 0,0.1866108 0.16011,0.2751066 0.48225,0.2751066 h 5.9703 c 0.38195,0 0.57292,-0.088496 0.57292,-0.2693351 0,-0.039246 -0.009,-0.094421 -0.0283,-0.1671879 l -0.0527,-0.169481 -2.96489,-7.24126724 c -0.0791,-0.1808393 -0.1659,-0.2712589 -0.25077,-0.2712589 z m -147.40371,-2.52597866 -0.4064,0.00599 c -0.43217,0.013965 -0.71757,0.052371 -0.8571,0.1152156 -0.30479,0.140439 -0.45525,0.4694126 -0.45525,0.9907685 v 7.6394984 c 0,0.2404777 0.37423,0.3809168 1.1169,0.4193932 h 2.17014 c 1.00502,0 1.86922,-0.2500969 2.5926,-0.7502907 1.00399,-0.6808067 1.53466,-1.7586798 1.59362,-3.2368269 l 0.006,-0.2818441 c 0,-1.70450664 -0.59221,-2.97807694 -1.77855,-3.8187873 -1.00695,-0.7214333 -2.33411,-1.0831119 -3.98149,-1.0831119 z M 70.651088,-9.1660175 c 0.271991,0.6521758 -0.04051,1.4024665 -0.696375,1.6756493 -1.070603,0.4424791 -2.077548,0.9369014 -3.126932,1.5582961 -1.062887,0.6271661 -2.175928,1.3870759 -3.452936,2.3586061 -0.565201,0.4290124 -1.371529,0.3212784 -1.801699,-0.2404777 -0.432099,-0.5617562 -0.322145,-1.3659139 0.243056,-1.7949263 1.365742,-1.0388641 2.559802,-1.8545647 3.703707,-2.5298263 0.990412,-0.5870407 1.946809,-1.0709016 2.944509,-1.5061005 l 0.50264,-0.2137967 c 0.657794,-0.2712585 1.408181,0.038476 1.68403,0.692576 z m 33.832982,-5.7426095 c 0.6848,0.176992 1.09761,0.875339 0.92207,1.558296 -0.17747,0.684881 -0.88156,1.094655 -1.56636,0.917663 -3.13851,-0.808005 -7.61382,-1.200465 -11.909735,-1.14275 -4.083723,0.05387 -7.961042,0.511737 -10.27393,1.402466 -0.66551,0.253945 -1.408181,-0.0731 -1.662811,-0.732976 -0.256559,-0.657947 0.0733,-1.400543 0.734955,-1.654487 2.604169,-1.002312 6.807491,-1.515972 11.17478,-1.573687 4.498461,-0.05964 9.228401,0.361679 12.581031,1.225475 z" />
    </g>
  </g>
</svg>
