<?xml version="1.0" encoding="UTF-8"?>
<svg id="Layer_1" xmlns="http://www.w3.org/2000/svg" version="1.1" xmlns:xlink="http://www.w3.org/1999/xlink" viewBox="0 0 170.08 240.94">
  <!-- Generator: Adobe Illustrator 29.1.0, SVG Export Plug-In . SVG Version: 2.1.0 Build 142)  -->
  <defs>
    <style>
      .imst0 {
        fill: #fff;
      }

      .imst1 {
        fill: #034694;
      }

      .imst2 {
        fill: #b62079;
      }

      .imst3 {
        clip-path: url(#clippath);
      }
    </style>
    <clipPath id="clippath">
      <path class="imst0" d="M25.87,76.54c0,32.68,26.49,59.17,59.17,59.17s59.17-26.49,59.17-59.17-26.49-59.17-59.17-59.17-59.17,26.49-59.17,59.17"/>
    </clipPath>
  </defs>
  <g>
    <path class="imst1" d="M140.49,143.34H29.59c-6.27,0-11.36-5.08-11.36-11.36V21.09c0-6.27,5.08-11.36,11.36-11.36h110.9c6.27,0,11.36,5.08,11.36,11.36v110.9c0,6.27-5.08,11.36-11.36,11.36"/>
    <g>
      <path class="imst0" d="M25.87,76.54c0,32.68,26.49,59.17,59.17,59.17s59.17-26.49,59.17-59.17-26.49-59.17-59.17-59.17-59.17,26.49-59.17,59.17"/>
      <g class="imst3">
        <rect class="imst0" x="25.87" y="17.36" width="118.35" height="118.35"/>
      </g>
    </g>
    <g>
      <polygon class="imst1" points="43.86 93.6 126.47 93.6 126.47 98.79 138.81 86.44 126.47 74.1 126.47 79.29 43.86 79.29 43.86 93.6"/>
      <g>
        <rect class="imst2" x="94.81" y="59.54" width="3.42" height="14.28"/>
        <rect class="imst2" x="86.39" y="59.54" width="5.36" height="14.28"/>
        <rect class="imst2" x="67.25" y="59.54" width="7.44" height="14.28"/>
        <rect class="imst2" x="101.16" y="59.54" width="3.36" height="14.28"/>
        <rect class="imst2" x="78.03" y="59.54" width="5.46" height="14.28"/>
        <rect class="imst2" x="113.08" y="59.54" width="3.03" height="14.28"/>
        <polygon class="imst2" points="62.93 59.54 43.66 59.54 43.66 54.35 31.33 66.68 43.66 79 43.66 73.82 62.93 73.82 62.93 59.54"/>
        <rect class="imst2" x="123.91" y="59.54" width="2.2" height="14.28"/>
        <rect class="imst2" x="118.62" y="59.54" width="2.92" height="14.28"/>
        <rect class="imst2" x="107.3" y="59.54" width="3.14" height="14.28"/>
      </g>
      <g>
        <polygon class="imst2" points="101.95 117.74 101.95 110.01 87.49 110.01 87.49 117.74 82.24 117.74 94.72 130.06 107.2 117.74 101.95 117.74"/>
        <rect class="imst2" x="87.49" y="102.88" width="14.46" height="4"/>
        <polygon class="imst2" points="87.49 100.01 101.95 100.01 101.95 96.63 101.95 96.52 87.49 96.52 87.49 96.63 87.49 100.01"/>
      </g>
      <polygon class="imst1" points="68.12 56.02 82.57 56.02 82.57 35.3 87.82 35.3 75.35 22.98 62.87 35.3 68.12 35.3 68.12 56.02"/>
    </g>
  </g>
  <g>
    <g>
      <path class="imst1" d="M19.7,156.76v4.32h-8.44v2.45h7.13v4.17h-7.13v2.85h8.8v4.42H5.59v-18.22h14.11Z"/>
      <path class="imst1" d="M28.31,156.76v6.02l5.14-6.02h6.57l-6.3,6.72,7.13,11.5h-6.79l-4.32-7.3-1.43,1.5v5.8h-5.58v-18.22h5.58Z"/>
      <path class="imst1" d="M56.02,156.76v4.32h-8.44v2.45h7.13v4.17h-7.13v2.85h8.8v4.42h-14.48v-18.22h14.11Z"/>
      <path class="imst1" d="M57.62,161.56v-4.8h15.78v4.8h-4.97v13.42h-5.7v-13.42h-5.12Z"/>
      <path class="imst1" d="M85.61,156.76l6.23,18.22h-5.65l-.65-2.4h-5.65l-.68,2.4h-5.55l6.21-18.22h5.75ZM82.72,162.44l-1.79,6.32h3.59l-1.79-6.32Z"/>
      <path class="imst1" d="M98.24,156.29h2.23l-6.57,21.02h-2.21l6.55-21.02Z"/>
      <path class="imst1" d="M107.63,156.76v18.22h-5.77v-18.22h5.77Z"/>
      <path class="imst1" d="M111.12,156.76h6.89l2.45,9.12c.22.88.44,1.75.61,2.62.17-.88.36-1.75.56-2.62l2.52-9.12h6.89v18.22h-5.12l.02-8.97.05-3.2c-.27,1.1-.46,2.15-.75,3.22l-2.18,8.95h-3.95l-2.21-8.72c-.27-1.12-.53-2.27-.73-3.45.02.58.05,1.12.05,1.7v10.47h-5.09v-18.22Z"/>
      <path class="imst1" d="M148.51,156.76v4.32h-8.44v2.45h7.13v4.17h-7.13v2.85h8.8v4.42h-14.47v-18.22h14.11Z"/>
      <path class="imst1" d="M150.11,161.56v-4.8h15.78v4.8h-4.97v13.42h-5.7v-13.42h-5.12Z"/>
    </g>
    <g>
      <path class="imst1" d="M9.08,182.8v12.39h-2.47v-12.39h2.47Z"/>
      <path class="imst1" d="M13.09,186.03l1.8,6.58,1.85-6.58h2.51l-3.17,9.16h-2.46l-3.17-9.16h2.64Z"/>
      <path class="imst1" d="M28.89,190.58c0,2.86-1.63,4.91-4.54,4.91s-4.49-2.04-4.49-4.88,1.68-4.9,4.47-4.9c.71,0,1.37.12,2.03.31h3.6v1.9h-1.65c.38.87.58,1.7.58,2.65ZM26.44,190.62c0-1.36-.58-2.86-2.09-2.86s-2.08,1.5-2.08,2.86.58,2.84,2.08,2.84,2.09-1.5,2.09-2.84Z"/>
      <path class="imst1" d="M29.92,187.93v-1.9h7.34v1.9h-2.49v7.26h-2.36v-7.26h-2.49Z"/>
      <path class="imst1" d="M40.72,186.03v9.16h-2.38v-9.16h2.38Z"/>
      <path class="imst1" d="M41.81,187.93v-1.9h7.34v1.9h-2.49v7.26h-2.36v-7.26h-2.49Z"/>
      <path class="imst1" d="M58.75,190.62c0,2.84-1.7,4.88-4.52,4.88s-4.5-2.04-4.5-4.88,1.7-4.91,4.5-4.91,4.52,2.12,4.52,4.91ZM56.31,190.62c0-1.36-.58-2.86-2.09-2.86s-2.08,1.5-2.08,2.86.58,2.84,2.08,2.84,2.09-1.51,2.09-2.84Z"/>
      <path class="imst1" d="M62.66,190.08l.02,1.31c0,1.04.33,2.07,1.48,2.07.77,0,1.37-.46,1.44-1.28.05-.34.08-.68.08-1.04s0-.71.02-1.07v-4.05h2.38v4.06c0,3.13-.2,5.41-3.91,5.41-2.42,0-3.74-1.05-3.86-3.62-.02-.29-.02-.59-.02-.88v-4.96h2.38v4.05ZM63.32,184.96l1.62-3.11h2.11l-2.56,3.11h-1.17Z"/>
      <path class="imst1" d="M69.04,187.93v-1.9h7.34v1.9h-2.49v7.26h-2.36v-7.26h-2.49Z"/>
      <path class="imst1" d="M85.97,190.62c0,2.84-1.7,4.88-4.52,4.88s-4.5-2.04-4.5-4.88,1.7-4.91,4.5-4.91,4.52,2.12,4.52,4.91ZM83.53,190.62c0-1.36-.58-2.86-2.09-2.86s-2.08,1.5-2.08,2.86.58,2.84,2.08,2.84,2.09-1.51,2.09-2.84Z"/>
      <path class="imst1" d="M98.19,182.8c2.03,0,3.78.88,3.78,3.23,0,1.04-.5,2.01-1.43,2.46,1.2.49,1.86,1.55,1.86,2.89,0,2.72-2.03,3.81-4.4,3.81h-5.48v-12.39h5.67ZM99.48,186.25c0-1.1-.92-1.26-1.78-1.31h-2.82v2.65h2.85c.84,0,1.75-.29,1.75-1.34ZM99.82,191.42c0-1.21-.92-1.68-2.03-1.68h-2.92v3.23h2.94c.97,0,2.01-.37,2.01-1.55Z"/>
      <path class="imst1" d="M106.52,186.03v9.16h-2.38v-9.16h2.38Z"/>
      <path class="imst1" d="M110.72,190.65c0,.82.05,2.74,1.19,2.74.71,0,.91-.73.91-1.29.02-.29.03-.58.03-.87v-2.5h2.31v2.5c0,.29.02.58.03.87.08.54.18,1.29.91,1.29,1.02,0,1.15-1.56,1.2-2.31,0-1.89-.61-3.47-1.55-5.05h2.29c.97,1.55,1.55,3.18,1.55,5.03,0,2.01-.99,4.44-3.28,4.44-.99,0-1.7-.51-2.29-1.26-.59.75-1.34,1.26-2.31,1.26-2.29,0-3.28-2.43-3.28-4.44,0-1.89.58-3.47,1.55-5.03h2.28c-.86,1.43-1.53,2.92-1.53,4.62ZM113.4,184.96l1.62-3.11h2.11l-2.57,3.11h-1.15Z"/>
      <path class="imst1" d="M130.03,190.58c0,2.86-1.63,4.91-4.54,4.91s-4.49-2.04-4.49-4.88,1.68-4.9,4.47-4.9c.71,0,1.37.12,2.03.31h3.6v1.9h-1.65c.38.87.58,1.7.58,2.65ZM127.59,190.62c0-1.36-.58-2.86-2.1-2.86s-2.08,1.5-2.08,2.86.58,2.84,2.08,2.84,2.1-1.5,2.1-2.84Z"/>
      <path class="imst1" d="M134.53,186.03v9.16h-2.38v-9.16h2.38Z"/>
      <path class="imst1" d="M139.1,186.03v4.17c0,.41.02.8.02,1.21.05.95.33,1.94,1.45,1.94s1.48-.94,1.48-1.94l.02-1.12v-4.25h2.36v9.16h-2.01v-.83c-.46.59-1.02.97-1.8.97-.59,0-1.07-.27-1.52-.66v4.18h-2.36v-12.82h2.36Z"/>
      <path class="imst1" d="M148.95,186.03v1.02c.71-.82,1.55-1.26,2.62-1.26,2.21,0,2.89,1.48,2.94,3.47v9.59h-2.38v-9.31c0-.95-.4-1.68-1.4-1.68-1.1,0-1.78.83-1.78,1.94v5.41h-2.39v-9.16h2.39Z"/>
      <path class="imst1" d="M161,195.38l-1.7-.42c-2.26-.61-3.1-2.06-3.1-4.42,0-2.86,1.53-4.81,4.37-4.81,2.39,0,3.69,1.48,3.76,3.93h-2.19c-.13-.95-.48-1.89-1.58-1.89-1.42,0-1.93,1.39-1.93,2.62s.5,2.21,1.7,2.48l1.75.44c1.07.27,1.96.85,1.96,2.09,0,1.16-.38,2.38-.83,3.45h-2.04c.31-.8.68-1.68.68-2.55,0-.46-.45-.87-.84-.92Z"/>
      <path class="imst1" d="M22.75,201.8v5.1l4.7-5.1h3.08l-4.78,5.01,5.21,7.38h-3l-3.93-5.66-1.29,1.31v4.35h-2.47v-12.39h2.47Z"/>
      <path class="imst1" d="M34.24,205.03v9.16h-2.38v-9.16h2.38Z"/>
      <path class="imst1" d="M38,205.03l1.8,6.58,1.85-6.58h2.51l-3.17,9.16h-2.46l-3.17-9.16h2.64Z"/>
      <path class="imst1" d="M47.67,205.03v1.02c.71-.82,1.55-1.26,2.62-1.26,2.21,0,2.89,1.48,2.94,3.47v9.59h-2.38v-9.31c0-.95-.4-1.68-1.4-1.68-1.1,0-1.78.83-1.78,1.94v5.41h-2.39v-9.16h2.39Z"/>
      <path class="imst1" d="M54.31,206.93v-1.9h7.34v1.9h-2.49v7.26h-2.36v-7.26h-2.49Z"/>
      <path class="imst1" d="M65.11,205.03v9.16h-2.38v-9.16h2.38Z"/>
      <path class="imst1" d="M67.29,205.03h2.33v3.16l2.9-3.16h2.82l-3.1,3.3,3.27,5.86h-2.52l-2.31-4.2-1.06,1.1v3.09h-2.33v-9.16Z"/>
      <path class="imst1" d="M85,209.62c0,2.84-1.7,4.88-4.52,4.88s-4.5-2.04-4.5-4.88,1.7-4.91,4.5-4.91,4.52,2.12,4.52,4.91ZM82.56,209.62c0-1.36-.58-2.86-2.09-2.86s-2.08,1.5-2.08,2.86.58,2.84,2.08,2.84,2.09-1.51,2.09-2.84ZM80.1,203.96l1.6-3.11h2.11l-2.56,3.11h-1.15Z"/>
      <path class="imst1" d="M85.56,206.93v-1.9h7.34v1.9h-2.49v7.26h-2.36v-7.26h-2.49Z"/>
      <path class="imst1" d="M96.36,205.03v1.02c.71-.82,1.55-1.26,2.62-1.26,2.21,0,2.89,1.48,2.94,3.47v9.59h-2.38v-9.31c0-.95-.4-1.68-1.4-1.68-1.1,0-1.78.83-1.78,1.94v5.41h-2.39v-9.16h2.39Z"/>
      <path class="imst1" d="M103.01,206.93v-1.9h7.34v1.9h-2.49v7.26h-2.36v-7.26h-2.49Z"/>
      <path class="imst1" d="M117.27,214.19v-1.24c-.64,1-1.5,1.55-2.69,1.55-2.51,0-3.63-2.6-3.63-4.86s1.12-4.91,3.68-4.91c1.06,0,2.03.49,2.61,1.44v-1.14h2.31v9.16h-2.28ZM117.22,209.64c0-1.27-.49-2.79-1.96-2.79s-1.96,1.46-1.96,2.74c0,1.21.54,2.84,1.93,2.84,1.52,0,2-1.46,2-2.79Z"/>
      <path class="imst1" d="M126.03,214.38l-1.7-.42c-2.26-.61-3.1-2.06-3.1-4.42,0-2.86,1.53-4.81,4.37-4.81,2.39,0,3.69,1.48,3.76,3.93h-2.19c-.13-.95-.48-1.89-1.58-1.89-1.42,0-1.93,1.39-1.93,2.62s.5,2.21,1.7,2.48l1.75.44c1.07.27,1.96.85,1.96,2.09,0,1.16-.38,2.38-.83,3.45h-2.04c.31-.8.68-1.68.68-2.55,0-.46-.45-.87-.84-.92Z"/>
      <path class="imst1" d="M139.78,201.8c1.58,0,3.07.92,3.07,2.74,0,1.41-.94,2.29-1.98,3.06l1.75,2.18c.33-.68.49-1.31.58-2.04h2.14c-.17,1.36-.64,2.6-1.42,3.71l2.19,2.75h-2.77l-.83-1.04c-1.06.83-2.09,1.38-3.43,1.38-1.98,0-3.73-1.48-3.73-3.62,0-1.73,1.14-2.86,2.54-3.67-.56-.76-1.17-1.48-1.17-2.46,0-1.77,1.37-2.97,3.05-2.97ZM139.38,212.44c.73,0,1.39-.36,1.86-.88l-2.16-2.77c-.71.49-1.37.99-1.37,1.97,0,.9.81,1.68,1.67,1.68ZM139.81,203.55c-.51,0-.94.36-.94.95s.48,1.16.86,1.62c.48-.32,1.06-.97,1.06-1.56s-.38-1-.97-1Z"/>
      <path class="imst1" d="M10.17,220.8l4.6,12.39H3.11l4.59-12.39h2.47ZM8.93,223.83l-2.66,7.22h5.33l-2.67-7.22Z"/>
      <path class="imst1" d="M18.23,224.03v9.16h-2.38v-9.16h2.38Z"/>
      <path class="imst1" d="M20.41,224.03h2.33v3.16l2.9-3.16h2.82l-3.1,3.3,3.27,5.86h-2.52l-2.31-4.2-1.06,1.1v3.09h-2.33v-9.16Z"/>
      <path class="imst1" d="M28.52,225.93v-1.9h7.34v1.9h-2.49v7.26h-2.36v-7.26h-2.49Z"/>
      <path class="imst1" d="M39.21,228.08l.02,1.31c0,1.04.33,2.07,1.48,2.07.77,0,1.37-.46,1.44-1.28.05-.34.08-.68.08-1.04s0-.71.02-1.07v-4.05h2.38v4.06c0,3.13-.2,5.41-3.91,5.41-2.42,0-3.74-1.05-3.86-3.62-.02-.29-.02-.59-.02-.88v-4.96h2.38v4.05ZM39.87,222.96l1.62-3.11h2.11l-2.56,3.11h-1.17Z"/>
      <path class="imst1" d="M48.7,228.65c0,.82.05,2.74,1.19,2.74.71,0,.91-.73.91-1.29.02-.29.03-.58.03-.87v-2.5h2.31v2.5c0,.29.02.58.03.87.08.54.18,1.29.91,1.29,1.02,0,1.15-1.56,1.2-2.31,0-1.89-.61-3.47-1.55-5.05h2.29c.97,1.55,1.55,3.18,1.55,5.03,0,2.01-.99,4.44-3.28,4.44-.99,0-1.7-.51-2.29-1.26-.59.75-1.34,1.26-2.31,1.26-2.29,0-3.28-2.43-3.28-4.44,0-1.89.58-3.47,1.55-5.03h2.28c-.86,1.43-1.53,2.92-1.53,4.62Z"/>
      <path class="imst1" d="M61.09,224.03l1.8,6.58,1.85-6.58h2.51l-3.17,9.16h-2.46l-3.17-9.16h2.64Z"/>
      <path class="imst1" d="M76.95,220.8l2.38,9.43,2.36-9.43h3.69v12.39h-2.33v-10.01l-2.44,10.01h-2.56l-2.47-10.01v10.01h-2.31v-12.39h3.68Z"/>
      <path class="imst1" d="M90.97,233.5c-1.73,0-3.74-.65-3.74-2.82,0-1.09.64-1.92,1.63-2.26-.73-.53-1.29-1.09-1.29-2.06,0-1.92,1.9-2.65,3.48-2.65,1.83,0,3.71.94,3.71,3.08h-2.13c-.26-.75-.64-1.22-1.49-1.22-.61,0-1.39.31-1.39,1.05,0,.93,1.19.99,1.85.99h.4v1.82h-.58c-.69,0-1.81.12-1.81,1.07,0,.77.76,1.19,1.42,1.19.99,0,1.47-.46,1.67-1.43h2.36c-.05.25-.07.46-.12.71-.35,1.97-2.26,2.53-3.98,2.53Z"/>
      <path class="imst1" d="M95.37,225.93v-1.9h7.34v1.9h-2.49v7.26h-2.36v-7.26h-2.49Z"/>
      <path class="imst1" d="M109.64,233.19v-1.24c-.64,1-1.5,1.55-2.69,1.55-2.51,0-3.63-2.6-3.63-4.86s1.12-4.91,3.68-4.91c1.06,0,2.03.49,2.61,1.44v-1.14h2.31v9.16h-2.28ZM109.59,228.64c0-1.27-.49-2.79-1.96-2.79s-1.96,1.46-1.96,2.74c0,1.21.54,2.84,1.93,2.84,1.52,0,2-1.46,2-2.79Z"/>
      <path class="imst1" d="M117.09,233.26c-2.29-.32-3.48-2.57-3.48-4.78,0-2.45,1.11-3.79,3.3-4.52v1.89c-.78.42-1.02,1.31-1.04,2.18,0,1.53.3,3.11,2.03,3.38v-7.63c.31-.05.58-.05.89-.07.58,0,1.09.02,1.63.1,2.33.32,3.84,2.36,3.84,4.71,0,2.91-1.65,4.3-4.29,4.84v3.48h-2.08v-3.48c-.26-.02-.53-.05-.81-.1ZM121.97,229.35c0,.05.03-.32.03-.73s-.03-.77-.03-.7c-.07-1.22-2-3.28-2-2.12v5.61c0,1.17,1.93-.92,2-2.06Z"/>
      <path class="imst1" d="M134.5,228.62c0,2.84-1.7,4.88-4.52,4.88s-4.5-2.04-4.5-4.88,1.7-4.91,4.5-4.91,4.52,2.12,4.52,4.91ZM132.06,228.62c0-1.36-.58-2.86-2.1-2.86s-2.08,1.5-2.08,2.86.58,2.84,2.08,2.84,2.1-1.51,2.1-2.84Z"/>
      <path class="imst1" d="M144.61,227.51c.03.27.05.37.05.66v.34c0,.61-.05,1.26-.05,1.19-.21,2.14-1.91,3.74-3.99,3.74-.81,0-1.55-.29-2.19-.85v4.25h-2.31v-8.18c0-2.77,1.39-4.95,4.27-4.95,2.18,0,3.88,1.56,4.22,3.79ZM142.24,228.77c0-1.19-.38-3.04-1.83-3.04s-1.88,1.63-1.88,2.86.43,2.84,1.81,2.84,1.9-1.51,1.9-2.65Z"/>
      <path class="imst1" d="M148.38,228.65c0,.82.05,2.74,1.19,2.74.71,0,.91-.73.91-1.29.02-.29.03-.58.03-.87v-2.5h2.31v2.5c0,.29.02.58.03.87.08.54.18,1.29.91,1.29,1.02,0,1.15-1.56,1.2-2.31,0-1.89-.61-3.47-1.55-5.05h2.29c.97,1.55,1.55,3.18,1.55,5.03,0,2.01-.99,4.44-3.28,4.44-.99,0-1.7-.51-2.29-1.26-.59.75-1.34,1.26-2.31,1.26-2.29,0-3.28-2.43-3.28-4.44,0-1.89.58-3.47,1.55-5.03h2.28c-.86,1.43-1.53,2.92-1.53,4.62ZM151.06,222.96l1.62-3.11h2.11l-2.57,3.11h-1.15Z"/>
      <path class="imst1" d="M160.77,224.03l1.8,6.58,1.85-6.58h2.51l-3.17,9.16h-2.46l-3.17-9.16h2.64Z"/>
    </g>
  </g>
</svg>