<?xml version="1.0" encoding="UTF-8"?>
<svg id="Layer_1" xmlns="http://www.w3.org/2000/svg" version="1.1" xmlns:xlink="http://www.w3.org/1999/xlink" viewBox="0 0 141.73 141.73">
  <!-- Generator: Adobe Illustrator 29.1.0, SVG Export Plug-In . SVG Version: 2.1.0 Build 142)  -->
  <defs>
    <style>
      .st0 {
        fill: #fff;
      }

      .st1 {
        fill: #034694;
      }

      .st2 {
        fill: #b62079;
      }

      .st3 {
        clip-path: url(#clippath);
      }
    </style>
    <clipPath id="clippath">
      <path class="st0" d="M11.69,70.94c0,32.68,26.49,59.17,59.17,59.17s59.17-26.49,59.17-59.17S103.55,11.76,70.86,11.76,11.69,38.26,11.69,70.94"/>
    </clipPath>
  </defs>
  <path class="st1" d="M126.32,137.74H15.42c-6.27,0-11.36-5.08-11.36-11.36V15.49c0-6.27,5.08-11.36,11.36-11.36h110.9c6.27,0,11.36,5.08,11.36,11.36v110.9c0,6.27-5.08,11.36-11.36,11.36"/>
  <g>
    <path class="st0" d="M11.69,70.94c0,32.68,26.49,59.17,59.17,59.17s59.17-26.49,59.17-59.17S103.55,11.76,70.86,11.76,11.69,38.26,11.69,70.94"/>
    <g class="st3">
      <rect class="st0" x="11.69" y="11.76" width="118.35" height="118.35"/>
    </g>
  </g>
  <g>
    <polygon class="st1" points="29.69 88 112.3 88 112.3 93.19 124.64 80.84 112.3 68.5 112.3 73.69 29.69 73.69 29.69 88"/>
    <g>
      <rect class="st2" x="80.63" y="53.94" width="3.42" height="14.28"/>
      <rect class="st2" x="72.21" y="53.94" width="5.36" height="14.28"/>
      <rect class="st2" x="53.08" y="53.94" width="7.44" height="14.28"/>
      <rect class="st2" x="86.98" y="53.94" width="3.36" height="14.28"/>
      <rect class="st2" x="63.86" y="53.94" width="5.46" height="14.28"/>
      <rect class="st2" x="98.9" y="53.94" width="3.03" height="14.28"/>
      <polygon class="st2" points="48.76 53.94 29.48 53.94 29.48 48.75 17.16 61.08 29.48 73.4 29.48 68.21 48.76 68.21 48.76 53.94"/>
      <rect class="st2" x="109.73" y="53.94" width="2.2" height="14.28"/>
      <rect class="st2" x="104.44" y="53.94" width="2.92" height="14.28"/>
      <rect class="st2" x="93.12" y="53.94" width="3.14" height="14.28"/>
    </g>
    <g>
      <polygon class="st2" points="87.78 112.14 87.78 104.41 73.32 104.41 73.32 112.14 68.07 112.14 80.55 124.46 93.02 112.14 87.78 112.14"/>
      <rect class="st2" x="73.32" y="97.28" width="14.46" height="4"/>
      <polygon class="st2" points="73.32 94.41 87.78 94.41 87.78 91.03 87.78 90.92 73.32 90.92 73.32 91.03 73.32 94.41"/>
    </g>
    <polygon class="st1" points="53.94 50.42 68.4 50.42 68.4 29.7 73.65 29.7 61.17 17.38 48.7 29.7 53.94 29.7 53.94 50.42"/>
  </g>
</svg>