<svg xmlns="http://www.w3.org/2000/svg" xmlns:xlink="http://www.w3.org/1999/xlink" viewBox="0 0 173.1 85.02"><defs><style>.cls-1{fill:url(#linear-gradient);}.cls-2{fill:#624e42;}.cls-3{fill:#fff;}</style><linearGradient id="linear-gradient" x1="85" y1="42.5" x2="0" y2="42.5" gradientUnits="userSpaceOnUse"><stop offset="0" stop-color="#93bb20"/><stop offset="1" stop-color="#306838"/></linearGradient></defs><g id="Layer_2" data-name="Layer 2"><g id="Layer_3" data-name="Layer 3"><rect class="cls-1" width="85" height="85"/><rect class="cls-2" x="88.1" y="0.01" width="85" height="85"/><path class="cls-3" d="M97.46,26l-2.32,3.83v3h-.91V30L91.91,26h1l1.77,3,1.8-3Z"/><path class="cls-3" d="M103.65,32.9h-.92V26.84H99.58V32.9h-.92V26h5Z"/><path class="cls-3" d="M111,26.82a3.34,3.34,0,0,1,.61,1.12,5.61,5.61,0,0,1,0,3,3.07,3.07,0,0,1-.61,1.13,2.57,2.57,0,0,1-1,.7,3.13,3.13,0,0,1-1.23.23,3.33,3.33,0,0,1-1.26-.23,2.65,2.65,0,0,1-1-.7A3.22,3.22,0,0,1,106,31a5,5,0,0,1-.21-1.51A4.64,4.64,0,0,1,106,28a3.24,3.24,0,0,1,.61-1.13,2.62,2.62,0,0,1,1-.69,3.18,3.18,0,0,1,1.26-.24,3.22,3.22,0,0,1,1.26.24A2.87,2.87,0,0,1,111,26.82Zm-.13,2.65a4.85,4.85,0,0,0-.14-1.21,2.52,2.52,0,0,0-.42-.87,1.6,1.6,0,0,0-.66-.53,2,2,0,0,0-.86-.18,2.14,2.14,0,0,0-.87.17,1.88,1.88,0,0,0-.66.54,2.39,2.39,0,0,0-.41.88,4.38,4.38,0,0,0-.15,1.2,3.27,3.27,0,0,0,.57,2.07,2,2,0,0,0,3,0A3.27,3.27,0,0,0,110.9,29.47Z"/><path class="cls-3" d="M117.38,26l-2.31,3.83v3h-.92V30L111.83,26h1l1.77,3,1.8-3Z"/><path class="cls-3" d="M122.92,28.1a2.22,2.22,0,0,1-.16.85,1.86,1.86,0,0,1-.44.68,2.32,2.32,0,0,1-.83.53,3.51,3.51,0,0,1-1.21.18h-.78V32.9h-.91V26h1.72a5.09,5.09,0,0,1,1,.1,2.28,2.28,0,0,1,.76.33,2,2,0,0,1,.6.67A2.07,2.07,0,0,1,122.92,28.1Zm-1,0a1.46,1.46,0,0,0-.12-.62,1,1,0,0,0-.37-.43,1.36,1.36,0,0,0-.51-.2,3.55,3.55,0,0,0-.71-.06h-.76v2.74h.62a3.67,3.67,0,0,0,.9-.09,1.25,1.25,0,0,0,.56-.32,1.27,1.27,0,0,0,.3-.45A1.62,1.62,0,0,0,122,28.13Z"/><path class="cls-3" d="M127.82,26.84h-3.16V32.9h-.91V26h4.07Z"/><path class="cls-3" d="M128.84,32.9V26h4.29v.81h-3.38v1.89h3.15v.81h-3.15v2.55h3.38v.81Z"/><path class="cls-3" d="M136.59,32.9h-2.66v-.7h.87V26.73h-.87V26h2.66v.7h-.88V32.2h.88Z"/><path class="cls-3" d="M142.58,26.82a3.34,3.34,0,0,1,.61,1.12,5.13,5.13,0,0,1,.22,1.53,4.79,4.79,0,0,1-.22,1.51,3.07,3.07,0,0,1-.61,1.13,2.57,2.57,0,0,1-1,.7,3.06,3.06,0,0,1-1.23.23,3.37,3.37,0,0,1-1.26-.23,2.65,2.65,0,0,1-1-.7,3.21,3.21,0,0,1-.6-1.13,4.7,4.7,0,0,1-.22-1.51,4.64,4.64,0,0,1,.22-1.52,3.24,3.24,0,0,1,.61-1.13,2.57,2.57,0,0,1,1-.69,3.13,3.13,0,0,1,1.25-.24,3.18,3.18,0,0,1,1.26.24A2.77,2.77,0,0,1,142.58,26.82Zm-.12,2.65a4.4,4.4,0,0,0-.15-1.21,2.52,2.52,0,0,0-.42-.87,1.64,1.64,0,0,0-.65-.53,2.05,2.05,0,0,0-.87-.18,2.14,2.14,0,0,0-.87.17,1.94,1.94,0,0,0-.65.54,2.4,2.4,0,0,0-.42.88,4.38,4.38,0,0,0-.15,1.2,3.27,3.27,0,0,0,.57,2.07,2,2,0,0,0,3,0A3.27,3.27,0,0,0,142.46,29.47Z"/><path class="cls-3" d="M97.64,46h-.91V39.93H93.57V46h-.91V39.12h5Z"/><path class="cls-3" d="M100.16,46V39.12h4.29v.81h-3.38v1.89h3.15v.81h-3.15v2.55h3.38V46Z"/><path class="cls-3" d="M109.63,41.19a2.42,2.42,0,0,1-.16.85,2.1,2.1,0,0,1-.44.68,2.45,2.45,0,0,1-.84.53,3.47,3.47,0,0,1-1.21.18h-.77V46h-.92V39.12H107a5.16,5.16,0,0,1,1,.1,2.32,2.32,0,0,1,.75.33,1.83,1.83,0,0,1,.6.67A2,2,0,0,1,109.63,41.19Zm-.95,0a1.46,1.46,0,0,0-.12-.62,1.05,1.05,0,0,0-.38-.43,1.31,1.31,0,0,0-.5-.2,3.59,3.59,0,0,0-.72-.06h-.75v2.74h.62a3.53,3.53,0,0,0,.89-.09,1.23,1.23,0,0,0,.57-.32,1.42,1.42,0,0,0,.3-.45A1.7,1.7,0,0,0,108.68,41.22Z"/><path class="cls-3" d="M112.29,46h-2.66v-.7h.87V39.82h-.87v-.7h2.66v.7h-.87v5.47h.87Z"/><path class="cls-3" d="M117.4,43.88a2,2,0,0,1-.2.9,1.67,1.67,0,0,1-.52.65,2.27,2.27,0,0,1-.83.43,4,4,0,0,1-1.14.13h-2V39.12h1.82a9.51,9.51,0,0,1,1.1.05,2,2,0,0,1,.71.23,1.29,1.29,0,0,1,.54.52,1.6,1.6,0,0,1,.17.75,1.56,1.56,0,0,1-.26.87,1.83,1.83,0,0,1-.71.6v0a1.77,1.77,0,0,1,1,.61A1.72,1.72,0,0,1,117.4,43.88Zm-1.27-3.08a.94.94,0,0,0-.09-.43.61.61,0,0,0-.26-.29,1.39,1.39,0,0,0-.5-.15,7.2,7.2,0,0,0-.75,0h-.88v2h1a3.21,3.21,0,0,0,.63,0,1.27,1.27,0,0,0,.42-.18.78.78,0,0,0,.3-.35A1.45,1.45,0,0,0,116.13,40.8Zm.32,3.12a1.67,1.67,0,0,0-.11-.64.94.94,0,0,0-.45-.43,1.43,1.43,0,0,0-.47-.14,4.57,4.57,0,0,0-.73,0h-1v2.54h.75a5.73,5.73,0,0,0,.94-.06,1.36,1.36,0,0,0,.61-.23,1.22,1.22,0,0,0,.38-.41A1.26,1.26,0,0,0,116.45,43.92Z"/><path class="cls-3" d="M117.07,46l2.32-6.87h1.12L122.83,46h-1l-.62-1.92h-2.62L118,46Zm3.92-2.7-1.06-3.24-1.06,3.24Z"/><path class="cls-3" d="M128.91,46h-1L126,40.29,124.11,46h-.93l2.39-6.87h1Z"/><path class="cls-3" d="M135.08,46h-1l-1.89-5.7L130.28,46h-.93l2.39-6.87h1Z"/><path class="cls-3" d="M140.41,39.91A3,3,0,0,1,141,41a4.83,4.83,0,0,1,.22,1.53,5.1,5.1,0,0,1-.21,1.51,3,3,0,0,1-.62,1.12,2.52,2.52,0,0,1-1,.71,3.25,3.25,0,0,1-1.23.23A3.31,3.31,0,0,1,137,45.9a2.56,2.56,0,0,1-1-.71,3,3,0,0,1-.61-1.12,5.06,5.06,0,0,1-.21-1.51,4.94,4.94,0,0,1,.21-1.52,3.31,3.31,0,0,1,.61-1.13,2.74,2.74,0,0,1,1-.69,3.4,3.4,0,0,1,2.51,0A2.68,2.68,0,0,1,140.41,39.91Zm-.12,2.65a4.4,4.4,0,0,0-.15-1.21,2.51,2.51,0,0,0-.41-.87,1.6,1.6,0,0,0-.66-.53,2,2,0,0,0-.86-.18,2.08,2.08,0,0,0-.87.17,1.88,1.88,0,0,0-.66.54,2.57,2.57,0,0,0-.42.88,4.82,4.82,0,0,0-.14,1.2,3.33,3.33,0,0,0,.56,2.07,2,2,0,0,0,3,0A3.33,3.33,0,0,0,140.29,42.56Z"/><path class="cls-3" d="M147.15,46h-1l-3-5.92V46h-.85V39.12h1.3l2.76,5.44V39.12h.85Z"/><path class="cls-3" d="M149.73,46V39.93h-2.3v-.81H153v.81h-2.3V46Z"/><path class="cls-3" d="M159,39.91a3.34,3.34,0,0,1,.61,1.12,5.61,5.61,0,0,1,0,3,3.17,3.17,0,0,1-.61,1.12,2.6,2.6,0,0,1-1,.71,3.48,3.48,0,0,1-2.49,0,2.56,2.56,0,0,1-1-.71,3.09,3.09,0,0,1-.61-1.12,5.06,5.06,0,0,1-.21-1.51A4.94,4.94,0,0,1,154,41a3.49,3.49,0,0,1,.61-1.13,2.74,2.74,0,0,1,1-.69A3.17,3.17,0,0,1,156.8,39a3.23,3.23,0,0,1,1.27.24A2.87,2.87,0,0,1,159,39.91Zm-.13,2.65a4.4,4.4,0,0,0-.15-1.21,2.34,2.34,0,0,0-.41-.87,1.6,1.6,0,0,0-.66-.53,2,2,0,0,0-.86-.18,2.14,2.14,0,0,0-.87.17,1.88,1.88,0,0,0-.66.54,2.57,2.57,0,0,0-.42.88,4.82,4.82,0,0,0-.14,1.2,3.27,3.27,0,0,0,.57,2.07,1.84,1.84,0,0,0,1.52.71,1.86,1.86,0,0,0,1.52-.71A3.33,3.33,0,0,0,158.89,42.56Z"/><path class="cls-3" d="M165.3,46h-4.85v-.85L163,42.36,160.54,40v-.83h4.54v.81h-3.41L164,42.25v.12l-2.55,2.81h3.82Z"/><path class="cls-3" d="M98.62,58.76H97.44l-.94-1a3,3,0,0,1-1,.86,2.35,2.35,0,0,1-1.13.26,2.17,2.17,0,0,1-1.54-.56,1.91,1.91,0,0,1-.6-1.47,2.19,2.19,0,0,1,.11-.7,2.12,2.12,0,0,1,.29-.56,2.09,2.09,0,0,1,.42-.42l.45-.32a2.63,2.63,0,0,1-.7-.66,1.56,1.56,0,0,1-.23-.87,1.33,1.33,0,0,1,.14-.6,1.54,1.54,0,0,1,.34-.49,1.64,1.64,0,0,1,.57-.36,2.21,2.21,0,0,1,.78-.14,1.9,1.9,0,0,1,1.25.41,1.25,1.25,0,0,1,.48,1,1.88,1.88,0,0,1-.06.46,1.42,1.42,0,0,1-.21.47,2,2,0,0,1-.4.43,2.31,2.31,0,0,1-.65.34l1.62,1.67a6.51,6.51,0,0,0,.08-.82c0-.3,0-.68,0-1.16h.9V55a5.44,5.44,0,0,1-.11,1A4.23,4.23,0,0,1,97,57.06ZM96.1,57.37,94,55.2a1.81,1.81,0,0,0-.23.18,1.36,1.36,0,0,0-.25.3,1.64,1.64,0,0,0-.2.42,1.71,1.71,0,0,0-.09.55,1.52,1.52,0,0,0,.39,1.08,1.37,1.37,0,0,0,1.06.42,1.59,1.59,0,0,0,.79-.19A1.8,1.8,0,0,0,96.1,57.37Zm-1.69-2.81A1.2,1.2,0,0,0,95.1,54a1.38,1.38,0,0,0,.12-.34,1.6,1.6,0,0,0,0-.39.9.9,0,0,0-.26-.69.85.85,0,0,0-.61-.25.84.84,0,0,0-.65.28,1,1,0,0,0-.23.69,1.51,1.51,0,0,0,0,.32,1.19,1.19,0,0,0,.15.3,1.45,1.45,0,0,0,.27.31A3,3,0,0,0,94.41,54.56Z"/><path class="cls-3" d="M102,58.76V51.89h4.29v.82h-3.38v1.88H106v.81h-3.15V58h3.38v.81Z"/><path class="cls-3" d="M111.89,58.76h-1l-3-5.92v5.92H107V51.89h1.3L111,57.33V51.89h.86Z"/><path class="cls-3" d="M113,58.76V51.89h4.29v.82H114v1.88h3.14v.81H114V58h3.37v.81Z"/><path class="cls-3" d="M122.28,54a2.37,2.37,0,0,1-.16.84,2,2,0,0,1-.44.68,2.45,2.45,0,0,1-.84.53,3.47,3.47,0,0,1-1.21.18h-.77v2.56h-.92V51.89h1.73a4.33,4.33,0,0,1,1,.11,2.08,2.08,0,0,1,.76.32,1.83,1.83,0,0,1,.6.67A2.09,2.09,0,0,1,122.28,54Zm-1,0a1.35,1.35,0,0,0-.13-.62,1,1,0,0,0-.37-.43,1.5,1.5,0,0,0-.5-.2,3.59,3.59,0,0,0-.72-.06h-.75v2.74h.62a3.53,3.53,0,0,0,.89-.09,1.15,1.15,0,0,0,.57-.32,1.24,1.24,0,0,0,.29-.45A1.42,1.42,0,0,0,121.33,54Z"/><path class="cls-3" d="M127,52.71h-3.16v6h-.91V51.89H127Z"/><path class="cls-3" d="M127.84,58.76V51.89h4.3v.82h-3.38v1.88h3.15v.81h-3.15V58h3.38v.81Z"/><path class="cls-3" d="M135.34,58.76h-2.66v-.7h.87V52.6h-.87v-.71h2.66v.71h-.87v5.46h.87Z"/><path class="cls-3" d="M135.17,58.76l2.31-6.87h1.13l2.31,6.87h-1l-.62-1.92h-2.63l-.62,1.92Zm3.91-2.7L138,52.83,137,56.06Z"/><path class="cls-3" d="M145.7,58.76h-4.86v-.85l2.52-2.78-2.42-2.41v-.83h4.54v.82h-3.41L144.43,55v.12L141.88,58h3.82Z"/><path class="cls-3" d="M67.57,17.43A35.45,35.45,0,0,0,17.43,67.57,35.45,35.45,0,0,0,67.57,17.43ZM75.5,41.29H56.58a16.91,16.91,0,0,0-.6-1.9l17.5-8.33A32.81,32.81,0,0,1,75.5,41.29Zm-3-12.47L55,37.18a16.38,16.38,0,0,0-2-2.91l13.77-14.2A33,33,0,0,1,72.55,28.82ZM65,18.35,51.2,32.58a16.52,16.52,0,0,0-2.47-1.69l-.66-.34,6.24-18.89A33.18,33.18,0,0,1,65,18.35ZM43.72,9.5A33.06,33.06,0,0,1,52,10.88l-6.2,18.75a15.06,15.06,0,0,0-2.1-.55Zm0,22.06a14.63,14.63,0,0,1,3.92,1.51,13.41,13.41,0,0,1,6.42,8.22H43.72ZM41.29,75.5a32.77,32.77,0,0,1-17.45-5.77c.41,0,.83.06,1.27.06a13.2,13.2,0,0,0,5.27-1.07c3.8-1.64,9-.32,10.91.28Zm0-9c-2.59-.73-7.73-1.76-11.86,0-4.63,2-9.17,0-10.1-.49a31.89,31.89,0,0,1-3.93-4.66,18.37,18.37,0,0,0,4,.44,19.85,19.85,0,0,0,6.91-1.27c7.5-2.78,13.13-1.08,15-.35Zm0-8.91a23.8,23.8,0,0,0-15.81.67,16.72,16.72,0,0,1-12,0,33.33,33.33,0,0,1-2.55-6.09,20.44,20.44,0,0,0,7.45,1.38,22.8,22.8,0,0,0,8-1.47c7.5-2.77,13.13-1.08,15-.35Zm0-8.44a23.78,23.78,0,0,0-15.81.66,19.32,19.32,0,0,1-11.3.83,16.17,16.17,0,0,1-4-1.5,32.94,32.94,0,0,1-.64-5.39H41.29ZM9.5,41.29A33.07,33.07,0,0,1,41.29,9.5V20.73C38.5,20,37.6,16.8,35.68,15a6.23,6.23,0,0,0-8.16-.3,5.14,5.14,0,0,0-1.07,7.1,4.66,4.66,0,0,0,6.8.6,2.93,2.93,0,0,0,.37-4.3,3,3,0,0,0-3.8-.33l1.23,1.63c.53-.24,1.24-.15,1.34.55s-1,1.33-1.6,1.51a2.56,2.56,0,0,1-3.28-2.16c-.35-1.9,1.38-3.61,3.16-3.91a4.41,4.41,0,0,1,2.89.51A6.53,6.53,0,0,1,35.51,18c1.37,2,2.92,4.27,5.5,4.75a.9.9,0,0,0,.28,0v6.38a14,14,0,0,0-5.49,1.46,27,27,0,0,0-5.32,4.08,11.07,11.07,0,0,1-5.69,3A7,7,0,0,1,19.14,36a6.24,6.24,0,0,1-1.89-5.57,5.88,5.88,0,0,1,3.42-4.89,6.17,6.17,0,0,1,5.9,1,4.11,4.11,0,0,1,1.17,5c-1,1.86-4.11,2.52-5.59.81a1.92,1.92,0,0,1-.1-2.59,1.26,1.26,0,0,1,1.75-.1L26,29.4a1,1,0,0,0-.12-.38,3.22,3.22,0,0,0-3.06-1.67,3.47,3.47,0,0,0-2.94,2.23c-1.1,2.7,1.18,5.34,3.81,5.72a5.69,5.69,0,0,0,6.29-3.76,6.33,6.33,0,0,0-2.62-6.93,8.14,8.14,0,0,0-7.81-.77,8.11,8.11,0,0,0-4.31,6.81,8.09,8.09,0,0,0,3,7.15,9.17,9.17,0,0,0,7.71,1.68c3.21-.68,5.47-2.93,7.87-5a12.79,12.79,0,0,1,7.55-3.32V41.29ZM43.72,75.5V69.34h18A32.81,32.81,0,0,1,43.72,75.5Zm21-8.59h-21V60.58h26.4A33.37,33.37,0,0,1,64.72,66.91Zm6.85-8.76H43.72v-6H74.09A32.48,32.48,0,0,1,71.57,58.15Zm3.16-8.44h-31v-6H75.5A32.83,32.83,0,0,1,74.73,49.71Z"/></g></g></svg>