<?xml version="1.0" encoding="utf-8"?>
<!-- Generator: Adobe Illustrator 27.9.0, SVG Export Plug-In . SVG Version: 6.00 Build 0)  -->
<svg version="1.1" id="Layer_1" xmlns="http://www.w3.org/2000/svg" xmlns:xlink="http://www.w3.org/1999/xlink" x="0px" y="0px"
	 viewBox="0 0 254 52.9" style="enable-background:new 0 0 254 52.9;" xml:space="preserve">
<style type="text/css">
	.st0{fill:#4B8D40;}
	.st1{fill:#8DC441;}
	.st2{fill:#383938;}
</style>
<rect x="58.5" y="12.3" class="st0" width="15.8" height="5.1"/>
<rect x="58.5" y="20.7" class="st0" width="15.8" height="5.1"/>
<rect x="58.5" y="28.9" class="st0" width="15.8" height="5.1"/>
<rect x="58.5" y="37.2" class="st0" width="15.8" height="5.1"/>
<g>
	<path class="st1" d="M66.9,9h-8.8c0,0-3.7-4.7-11.4-2.2c-6.5,2.1-6,11.4-6,11.4s-6.3-8.1-14.5-2.8c-6.2,4.2-3.3,11.8-3.3,11.8
		S7.4,21,6.6,34.7C6.6,44.9,17,45.9,17,45.9l55.8-0.3c0,0-1.4,2.7-4.4,4.4c-3,1.7-5.4,2.1-5.4,2.1l-47,0.2C16,52.2-0.5,50,0,34.6
		c0.6-17.1,17.4-15.1,17.1-15.2c0,0,0.8-7.9,7.9-10.7c7.1-2.9,12.1-0.5,12.1-0.5S40.3,0,50.6,0c10.3,0,16.2,8.7,16.2,8.7"/>
</g>
<path class="st2" d="M85.4,12.5H80H85.4z M85.4,12.5v24.4h10v5.5h-10v0.1H80V12.5H85.4z"/>
<path class="st2" d="M111.4,24.7l-2.7,5.8L111.4,24.7z M108.7,30.5h5.5l-2.8-5.8L108.7,30.5z M116.8,35.6h-10.6l-3.2,6.8h-6
	l11.8-24.8l2.5-5.1l2.5,5.1l12.3,24.9h-6L116.8,35.6z"/>
<path class="st2" d="M143.8,12.5h5.4H143.8z M149.2,12.5v23.1v6.6l-4.7-4.9l-11.2-11.5v16.4h-5.4v-23v-6.6l4.7,4.9L143.8,29V12.5
	H149.2z"/>
<g>
	<path class="st2" d="M177,33.1l4.5,3L177,33.1z M181.5,36.1c-1.5,2.2-3.4,3.9-5.8,5.1c-2.3,1.2-4.8,1.8-7.5,1.8
		c-4.4,0-8.3-1.7-11.2-4.6c-2.9-2.9-4.6-6.7-4.6-11.1c0-4.4,1.7-8.2,4.6-11.1c2.9-2.9,6.8-4.6,11.2-4.6c2.6,0,5.1,0.6,7.2,1.7
		c2.2,1.2,4.1,2.8,5.6,4.8l-4.4,3.2c-1-1.3-2.2-2.3-3.7-3.1c-1.5-0.8-3.1-1.2-4.7-1.2c-2.8,0-5.4,1.2-7.3,3.1
		c-1.9,1.9-3.1,4.5-3.1,7.3c0,2.9,1.2,5.4,3.1,7.3c1.9,1.9,4.4,3,7.3,3c1.9,0,3.5-0.4,5-1.2c1.5-0.8,2.8-1.9,3.8-3.3L181.5,36.1z"/>
	<path class="st2" d="M198.5,16.9c-2.8,0-5.4,1.2-7.3,3.1c-1.9,1.9-3.1,4.5-3.1,7.3c0,2.9,1.2,5.4,3.1,7.3c1.9,1.9,4.5,3,7.3,3
		c2.9,0,5.4-1.1,7.4-3c1.9-1.9,3-4.4,3-7.3c0-2.8-1.2-5.4-3-7.3C203.9,18.1,201.4,16.9,198.5,16.9 M209.7,16.1
		c2.9,2.9,4.6,6.7,4.6,11.1c0,4.4-1.7,8.2-4.6,11.1c-2.9,2.9-6.8,4.6-11.2,4.6c-4.4,0-8.3-1.7-11.2-4.6c-2.9-2.9-4.6-6.7-4.6-11.1
		c0-4.4,1.7-8.2,4.6-11.1c2.9-2.9,6.8-4.6,11.2-4.6C202.9,11.5,206.7,13.2,209.7,16.1"/>
</g>
<path class="st2" d="M214.3,42.4h5.8H214.3z M214.3,42.4l8.5-23.8l2.2-6.2l2.8,5.8l6.3,13.1l6.4-13.1l2.8-5.8l2.2,6.2l8.5,23.8h-5.8
	l-5.7-15.9l-8.4,15.9l-8.4-15.9L220,42.4H214.3z"/>
<g>
	<path class="st2" d="M249.8,14.5h0.5c0.2,0,0.4,0,0.5-0.1c0.1-0.1,0.1-0.2,0.1-0.3c0-0.1,0-0.2-0.1-0.2c-0.1-0.1-0.1-0.1-0.2-0.1
		c-0.1,0-0.2,0-0.4,0h-0.5V14.5z M249.4,16v-2.6h0.9c0.3,0,0.6,0,0.7,0.1c0.1,0,0.3,0.1,0.3,0.2c0.1,0.1,0.1,0.2,0.1,0.4
		c0,0.2-0.1,0.4-0.2,0.5c-0.1,0.1-0.3,0.2-0.6,0.2c0.1,0,0.2,0.1,0.2,0.1c0.1,0.1,0.2,0.3,0.4,0.5l0.3,0.5h-0.5l-0.2-0.4
		c-0.2-0.3-0.3-0.5-0.4-0.6c-0.1-0.1-0.2-0.1-0.4-0.1h-0.3V16H249.4z M250.5,12.6c-0.6,0-1.1,0.2-1.5,0.6c-0.4,0.4-0.6,0.8-0.6,1.4
		c0,0.6,0.2,1.1,0.7,1.5c0.4,0.4,0.9,0.5,1.5,0.5c0.6,0,1.1-0.2,1.5-0.6c0.4-0.4,0.6-0.8,0.6-1.4c0-0.6-0.2-1.1-0.7-1.5
		C251.6,12.8,251.1,12.6,250.5,12.6 M250.5,12.2c0.7,0,1.3,0.2,1.8,0.7c0.5,0.5,0.7,1,0.7,1.7c0,0.4-0.1,0.9-0.4,1.2
		c-0.2,0.4-0.6,0.7-0.9,0.9c-0.4,0.2-0.8,0.3-1.2,0.3c-0.7,0-1.3-0.2-1.8-0.7c-0.5-0.5-0.7-1-0.7-1.7c0-0.5,0.1-0.9,0.4-1.2
		c0.2-0.4,0.6-0.7,0.9-0.9C249.7,12.3,250.1,12.2,250.5,12.2"/>
	<path class="st2" d="M83.3,51.7c1.6,0,2.6-1,2.6-2.5c0-1.5-1-2.5-2.6-2.5h-1.7v4.9H83.3z M80.2,45.6h3.1c2.3,0,3.9,1.4,3.9,3.6
		c0,2.1-1.6,3.6-3.9,3.6h-3.1V45.6z"/>
	<path class="st2" d="M91.9,51.1v-0.6h-1.3c-0.9,0-1.1,0.3-1.1,0.7c0,0.5,0.4,0.8,1,0.8C91.1,51.9,91.7,51.6,91.9,51.1 M93.2,49.6
		v3.2h-1.2v-0.7c-0.3,0.5-0.9,0.7-1.7,0.7c-1.3,0-2-0.7-2-1.6c0-0.9,0.6-1.6,2.3-1.6h1.4v-0.1c0-0.7-0.5-1.2-1.4-1.2
		c-0.6,0-1.3,0.2-1.7,0.5l-0.5-0.9c0.6-0.5,1.4-0.7,2.3-0.7C92.2,47.3,93.2,48,93.2,49.6"/>
	<path class="st2" d="M98.1,52.5c-0.3,0.2-0.8,0.4-1.2,0.4c-1.2,0-1.9-0.6-1.9-1.8v-2.6h-0.9v-1H95v-1.2h1.3v1.2h1.5v1h-1.5V51
		c0,0.5,0.3,0.8,0.8,0.8c0.3,0,0.5-0.1,0.7-0.2L98.1,52.5z"/>
	<path class="st2" d="M102.5,51.1v-0.6h-1.3c-0.9,0-1.1,0.3-1.1,0.7c0,0.5,0.4,0.8,1,0.8C101.7,51.9,102.3,51.6,102.5,51.1
		 M103.8,49.6v3.2h-1.2v-0.7c-0.3,0.5-0.9,0.7-1.7,0.7c-1.3,0-2-0.7-2-1.6c0-0.9,0.6-1.6,2.3-1.6h1.4v-0.1c0-0.7-0.5-1.2-1.4-1.2
		c-0.6,0-1.3,0.2-1.7,0.5l-0.5-0.9c0.6-0.5,1.4-0.7,2.3-0.7C102.8,47.3,103.8,48,103.8,49.6"/>
	<path class="st2" d="M107.8,49.2c0-2.1,1.6-3.7,3.9-3.7c1.2,0,2.2,0.4,2.8,1.2l-0.9,0.8c-0.5-0.6-1.2-0.8-1.9-0.8
		c-1.5,0-2.6,1-2.6,2.5c0,1.5,1.1,2.5,2.6,2.5c0.8,0,1.4-0.3,1.9-0.8l0.9,0.8c-0.7,0.8-1.7,1.2-2.9,1.2
		C109.5,52.9,107.8,51.4,107.8,49.2"/>
	<path class="st2" d="M116.3,49.6h3.1c-0.1-0.8-0.7-1.3-1.6-1.3C117.1,48.3,116.5,48.8,116.3,49.6 M120.6,50.5h-4.3
		c0.2,0.8,0.8,1.3,1.8,1.3c0.6,0,1.1-0.2,1.5-0.6l0.7,0.8c-0.5,0.6-1.3,0.9-2.2,0.9c-1.8,0-3-1.2-3-2.8c0-1.6,1.2-2.8,2.8-2.8
		c1.6,0,2.8,1.1,2.8,2.8C120.7,50.2,120.7,50.3,120.6,50.5"/>
	<path class="st2" d="M127.3,49.7v3.1H126v-3c0-1-0.5-1.4-1.3-1.4c-0.9,0-1.5,0.6-1.5,1.6v2.8h-1.3v-5.5h1.2V48
		c0.4-0.5,1.1-0.8,1.9-0.8C126.3,47.3,127.3,48,127.3,49.7"/>
	<path class="st2" d="M132.2,52.5c-0.3,0.2-0.8,0.4-1.2,0.4c-1.2,0-1.9-0.6-1.9-1.8v-2.6h-0.9v-1h0.9v-1.2h1.3v1.2h1.5v1h-1.5V51
		c0,0.5,0.3,0.8,0.8,0.8c0.3,0,0.5-0.1,0.7-0.2L132.2,52.5z"/>
	<path class="st2" d="M133.9,49.6h3.1c-0.1-0.8-0.7-1.3-1.6-1.3C134.7,48.3,134.1,48.8,133.9,49.6 M138.3,50.5h-4.3
		c0.2,0.8,0.8,1.3,1.8,1.3c0.6,0,1.1-0.2,1.5-0.6l0.7,0.8c-0.5,0.6-1.3,0.9-2.2,0.9c-1.8,0-3-1.2-3-2.8c0-1.6,1.2-2.8,2.8-2.8
		c1.6,0,2.8,1.1,2.8,2.8C138.3,50.2,138.3,50.3,138.3,50.5"/>
	<path class="st2" d="M142.7,47.3v1.2c-0.1,0-0.2,0-0.3,0c-1,0-1.6,0.6-1.6,1.7v2.7h-1.3v-5.5h1.2v0.8
		C141.1,47.6,141.8,47.3,142.7,47.3"/>
</g>
<rect x="146.4" y="49.4" class="st2" width="2.8" height="1.1"/>
<g>
	<path class="st2" d="M153.1,49.2c0-2.1,1.6-3.7,3.9-3.7c1.2,0,2.2,0.4,2.8,1.2l-0.9,0.8c-0.5-0.6-1.2-0.8-1.9-0.8
		c-1.5,0-2.6,1-2.6,2.5c0,1.5,1.1,2.5,2.6,2.5c0.8,0,1.4-0.3,1.9-0.8l0.9,0.8c-0.7,0.8-1.7,1.2-2.9,1.2
		C154.7,52.9,153.1,51.4,153.1,49.2"/>
</g>
<rect x="160.9" y="45.2" class="st2" width="1.3" height="7.6"/>
<g>
	<path class="st2" d="M168,50.1c0-1-0.7-1.7-1.6-1.7c-0.9,0-1.6,0.7-1.6,1.7c0,1,0.7,1.7,1.6,1.7C167.3,51.8,168,51.1,168,50.1
		 M163.5,50.1c0-1.6,1.2-2.8,2.9-2.8c1.7,0,2.9,1.2,2.9,2.8c0,1.6-1.2,2.8-2.9,2.8C164.7,52.9,163.5,51.7,163.5,50.1"/>
	<path class="st2" d="M175.9,47.3v5.5h-1.2v-0.7c-0.4,0.5-1.1,0.8-1.8,0.8c-1.4,0-2.4-0.8-2.4-2.4v-3.1h1.3v2.9c0,1,0.5,1.5,1.3,1.5
		c0.9,0,1.5-0.6,1.5-1.6v-2.8H175.9z"/>
	<path class="st2" d="M181.6,50.1c0-1-0.7-1.7-1.6-1.7c-0.9,0-1.6,0.7-1.6,1.7c0,1,0.7,1.7,1.6,1.7
		C180.9,51.8,181.6,51.1,181.6,50.1 M182.9,45.2v7.6h-1.2v-0.7c-0.4,0.5-1.1,0.8-1.8,0.8c-1.6,0-2.8-1.1-2.8-2.8s1.2-2.8,2.8-2.8
		c0.7,0,1.3,0.2,1.8,0.7v-2.8H182.9z"/>
</g>
<rect x="187.2" y="49.4" class="st2" width="2.8" height="1.1"/>
<polygon class="st2" points="195.8,46.8 193.4,46.8 193.4,45.6 199.5,45.6 199.5,46.8 197.2,46.8 197.2,52.8 195.8,52.8 "/>
<g>
	<path class="st2" d="M200.7,49.6h3.1c-0.1-0.8-0.7-1.3-1.6-1.3C201.4,48.3,200.8,48.8,200.7,49.6 M205,50.5h-4.3
		c0.2,0.8,0.8,1.3,1.8,1.3c0.6,0,1.1-0.2,1.5-0.6l0.7,0.8c-0.5,0.6-1.3,0.9-2.2,0.9c-1.8,0-3-1.2-3-2.8c0-1.6,1.2-2.8,2.8-2.8
		c1.6,0,2.8,1.1,2.8,2.8C205,50.2,205,50.3,205,50.5"/>
</g>
<rect x="206.2" y="45.2" class="st2" width="1.3" height="7.6"/>
<g>
	<path class="st2" d="M210,49.6h3.1c-0.1-0.8-0.7-1.3-1.6-1.3C210.8,48.3,210.2,48.8,210,49.6 M214.4,50.5h-4.3
		c0.2,0.8,0.8,1.3,1.8,1.3c0.6,0,1.1-0.2,1.5-0.6L214,52c-0.5,0.6-1.3,0.9-2.2,0.9c-1.8,0-3-1.2-3-2.8c0-1.6,1.2-2.8,2.8-2.8
		c1.6,0,2.8,1.1,2.8,2.8C214.4,50.2,214.4,50.3,214.4,50.5"/>
	<path class="st2" d="M215.2,50.1c0-1.6,1.2-2.8,3-2.8c1.1,0,1.9,0.4,2.3,1.3l-1,0.6c-0.3-0.5-0.8-0.8-1.4-0.8
		c-0.9,0-1.7,0.7-1.7,1.7c0,1.1,0.7,1.7,1.7,1.7c0.5,0,1-0.2,1.4-0.8l1,0.6c-0.4,0.8-1.3,1.3-2.3,1.3
		C216.4,52.9,215.2,51.7,215.2,50.1"/>
	<path class="st2" d="M225.6,50.1c0-1-0.7-1.7-1.6-1.7c-0.9,0-1.6,0.7-1.6,1.7c0,1,0.7,1.7,1.6,1.7
		C224.9,51.8,225.6,51.1,225.6,50.1 M221.1,50.1c0-1.6,1.2-2.8,2.9-2.8c1.7,0,2.9,1.2,2.9,2.8c0,1.6-1.2,2.8-2.9,2.8
		C222.3,52.9,221.1,51.7,221.1,50.1"/>
	<path class="st2" d="M237.3,49.7v3.1H236v-3c0-1-0.5-1.4-1.2-1.4c-0.8,0-1.4,0.6-1.4,1.6v2.8h-1.3v-3c0-1-0.5-1.4-1.2-1.4
		c-0.9,0-1.4,0.6-1.4,1.6v2.8h-1.3v-5.5h1.2V48c0.4-0.5,1-0.8,1.8-0.8c0.8,0,1.5,0.3,1.9,0.9c0.4-0.6,1.2-0.9,2.1-0.9
		C236.4,47.3,237.3,48,237.3,49.7"/>
</g>
</svg>
