<?xml version="1.0" encoding="utf-8"?>
<!-- Generator: Adobe Illustrator 27.9.0, SVG Export Plug-In . SVG Version: 6.00 Build 0)  -->
<svg version="1.1" id="Layer_1" xmlns="http://www.w3.org/2000/svg" xmlns:xlink="http://www.w3.org/1999/xlink" x="0px" y="0px"
	 viewBox="0 0 587 265.3" style="enable-background:new 0 0 587 265.3;" xml:space="preserve">
<style type="text/css">
	.st0{fill-rule:evenodd;clip-rule:evenodd;fill:#1C3B6A;}
	
		.st1{clip-path:url(#SVGID_00000028319055310158747670000006842123095566833551_);fill-rule:evenodd;clip-rule:evenodd;fill:#1C3B6A;}
	
		.st2{clip-path:url(#SVGID_00000028319055310158747670000006842123095566833551_);fill-rule:evenodd;clip-rule:evenodd;fill:#FFCC04;}
	.st3{clip-path:url(#SVGID_00000028319055310158747670000006842123095566833551_);fill:#1C3B6A;}
</style>
<polygon class="st0" points="53,66.5 45.8,50.9 45.8,31.4 62.1,31.4 62.1,11.2 104.8,11.2 104.8,31.4 123.4,31.4 123.4,11.2 
	166.9,11.2 166.9,31.4 185.5,31.4 185.5,11.2 228.3,11.2 228.3,31.4 244.6,31.4 244.6,50.9 237.3,66.5 237.3,109.2 231,105.6 
	231,65.1 238.3,49.5 238.3,37.7 221.9,37.7 221.9,17.5 191.9,17.5 191.9,37.7 160.6,37.7 160.6,17.5 129.8,17.5 129.8,37.7 
	98.5,37.7 98.5,17.5 68.5,17.5 68.5,37.7 52.1,37.7 52.1,49.5 59.4,65.1 59.4,105.6 53,109.2 "/>
<g>
	<defs>
		<rect id="SVGID_1_" width="587" height="265.3"/>
	</defs>
	<clipPath id="SVGID_00000051376768638201440710000005281796962169548193_">
		<use xlink:href="#SVGID_1_"  style="overflow:visible;"/>
	</clipPath>
	
		<path style="clip-path:url(#SVGID_00000051376768638201440710000005281796962169548193_);fill-rule:evenodd;clip-rule:evenodd;fill:#1C3B6A;" d="
		M257.3,87.2h-51.9c-12,0-21.8,10.5-21.8,23.4v9.8c0,12.9,9.8,23.4,21.8,23.4H231v-22.1h-18c-2.4,0-4.4-2.1-4.4-4.7
		c0-2.6,2-4.7,4.4-4.7h33c4.5,0,8.1,3.9,8.1,8.7v22.8c0,4.8-3.6,8.7-8.1,8.7h-61.1c-4.5,0-8.1-3.9-8.1-8.7V95.9
		c0-4.7-3.5-8.5-7.9-8.6l0,0h-27c-2.6,0-4.9,1.3-6.4,3.4l-43.2,58.7c-1.5,1.9-3.7,3.2-6.2,3.2H49.2c-4.5,0-8.1-3.9-8.1-8.7V121
		c0-4.8,3.6-8.7,8.1-8.7h30.5c4.5,0,8.1,3.9,8.1,8.7v19.3l24.9-32.7C111.2,96.1,102,87.2,91,87.2H37.8c-12,0-21.8,10.5-21.8,23.4
		v43.5c0,12.9,9.8,23.3,21.8,23.3H91c6.8,0,12.8-3.3,16.8-8.5l40.8-56.7h3.2v41.9c0,12.9,9.8,23.3,21.8,23.3h83.8
		c12,0,21.8-10.5,21.8-23.3v-43.5C279.2,97.7,269.4,87.2,257.3,87.2"/>
	
		<path style="clip-path:url(#SVGID_00000051376768638201440710000005281796962169548193_);fill-rule:evenodd;clip-rule:evenodd;fill:#FFCC04;" d="
		M252.6,82.1h-51.9c-12,0-21.8,10.5-21.8,23.4v9.8c0,12.9,9.8,23.4,21.8,23.4h25.6v-22.1h-18c-2.4,0-4.4-2.1-4.4-4.7
		c0-2.6,2-4.7,4.4-4.7h33c4.4,0,8.1,3.9,8.1,8.7v22.8c0,4.8-3.6,8.7-8.1,8.7h-61.1c-4.5,0-8.1-3.9-8.1-8.7V90.8
		c0-4.7-3.5-8.5-7.9-8.6l0,0h-27c-2.6,0-4.9,1.3-6.4,3.4l-43.2,58.6c-1.5,1.9-3.7,3.2-6.2,3.2H44.4c-4.5,0-8.1-3.9-8.1-8.7v-22.8
		c0-4.8,3.6-8.7,8.1-8.7h30.5c4.5,0,8.1,3.9,8.1,8.7v19.3l24.9-32.7C106.5,91,97.3,82.1,86.2,82.1H33.1c-12,0-21.8,10.5-21.8,23.4
		V149c0,12.9,9.8,23.4,21.8,23.4h53.2c6.8,0,12.8-3.3,16.8-8.5l40.8-56.7h3.2V149c0,12.9,9.8,23.4,21.8,23.4h83.8
		c12,0,21.8-10.5,21.8-23.4v-43.5C274.4,92.6,264.6,82.1,252.6,82.1"/>
	<path style="clip-path:url(#SVGID_00000051376768638201440710000005281796962169548193_);fill:#1C3B6A;" d="M218.7,199.3
		c-12.4,0-18.8-2.7-24.9-5.4c-6-2.7-11.6-5.1-23.2-5.1c-11.4,0-17,2.4-22.9,5c-6.2,2.7-12.6,5.5-25.1,5.5c-12.5,0-18.8-2.7-24.9-5.4
		c-6-2.7-11.5-5.1-23.1-5.1c-11.6,0-17.1,2.5-23,5.1c-5.8,2.5-11.7,5-22.2,5.4c2.9,4.2,6.1,8.2,9.4,12c4.2-1,7.5-2.4,10.8-3.8
		c6.1-2.7,12.4-5.5,25-5.5c12.5,0,18.9,2.8,25,5.4c6,2.6,11.6,5.1,23,5.1c11.5,0,17.1-2.5,23-5.1c6.2-2.7,12.5-5.4,25-5.4
		c12.6,0,18.9,2.8,25,5.4c6,2.6,11.6,5.1,23,5.1c11.5,0,17.1-2.5,23-5.1c2.9-1.2,5.8-2.5,9.4-3.5c3.6-4.7,6.9-9.7,9.9-14.8
		c-7.8,0.7-12.4,2.7-17.2,4.8C237.5,196.6,231.1,199.3,218.7,199.3"/>
	<path style="clip-path:url(#SVGID_00000051376768638201440710000005281796962169548193_);fill:#1C3B6A;" d="M170.7,225.1
		c-11.4,0-17,2.4-22.9,5c-6.2,2.7-12.5,5.5-25,5.5c-12.6,0-18.9-2.8-25-5.5c-5.9-2.6-11.5-5-23-5c-8.4,0-13.6,1.3-18.1,3
		c4.3,3.4,8.8,6.6,13.5,9.5c1.5-0.1,3-0.1,4.6-0.1c12.5,0,18.8,2.8,25,5.4c6,2.6,11.6,5.1,23.1,5.1c11.5,0,17.1-2.5,23-5
		c6.2-2.7,12.6-5.5,25-5.5c12.5,0,18.9,2.8,25,5.4c1.6,0.7,3.1,1.4,4.8,2c5.8-2.7,11.3-5.9,16.6-9.4c-11.5-0.2-17.5-2.9-23.4-5.4
		C187.8,227.6,182.2,225.1,170.7,225.1"/>
	<path style="clip-path:url(#SVGID_00000051376768638201440710000005281796962169548193_);fill:#1C3B6A;" d="M218.7,217.5
		c-12.6,0-19.2-2.9-25-5.5c-5.9-2.6-11.5-5-23-5c-11.4,0-17,2.4-22.9,5c-6.1,2.7-12.5,5.5-25.1,5.5c-12.7,0-19.2-2.9-25-5.5
		c-5.9-2.6-11.5-5-23-5c-11.5,0-17.1,2.5-23,5c-2.8,1.2-5.6,2.5-9,3.4c3,3.2,6.2,6.2,9.5,9c5.4-2.3,11.6-4.4,22.5-4.4
		c12.5,0,18.8,2.8,25,5.4c6,2.6,11.6,5.1,23.1,5.1c11.5,0,17.1-2.5,23-5c6.2-2.7,12.6-5.5,25-5.5c12.5,0,18.9,2.8,25,5.5
		c6,2.6,11.6,5,23.1,5c2.1,0,4-0.1,5.8-0.2c7.4-5.6,14.2-11.9,20.3-18.8c-0.3,0.1-0.7,0.3-1,0.4C238,214.6,231.4,217.5,218.7,217.5"
		/>
	<path style="clip-path:url(#SVGID_00000051376768638201440710000005281796962169548193_);fill:#1C3B6A;" d="M170.7,242.5
		c-11.4,0-17,2.4-22.9,5c-6.2,2.7-12.5,5.5-25,5.5c-12.6,0-18.9-2.8-25-5.5c-5.1-2.3-10-4.4-18.8-4.9c18.9,9.9,40.4,15.5,63.1,15.5
		c18.5,0,36.1-3.7,52.2-10.4c-0.1-0.1-0.3-0.1-0.4-0.2C187.8,245,182.2,242.5,170.7,242.5"/>
	<polygon style="clip-path:url(#SVGID_00000051376768638201440710000005281796962169548193_);fill:#1C3B6A;" points="318.7,101.1 
		318.7,139 309.5,139 309.5,101.1 297.3,101.1 297.3,92.9 330.9,92.9 330.9,101.1 	"/>
	<path style="clip-path:url(#SVGID_00000051376768638201440710000005281796962169548193_);fill:#1C3B6A;" d="M381.2,102.9
		c1.5,0,2.8,0.3,3.9,1c1.1,0.7,2,1.6,2.8,2.7c0.7,1.1,1.3,2.3,1.6,3.6c0.3,1.3,0.5,2.7,0.5,4c0,1.3-0.2,2.7-0.6,4
		c-0.4,1.3-1,2.5-1.8,3.6c-0.8,1.1-1.7,2-2.8,2.7c-1.1,0.7-2.4,1-3.8,1h-7.5V139h-6.1v-36.2H381.2z M373.6,119h6.3
		c1.4,0,2.5-0.5,3.2-1.4c0.7-0.9,1.1-2.1,1.1-3.4c0-1.4-0.4-2.6-1.1-3.5c-0.7-0.9-1.8-1.4-3.2-1.4h-6.3V119z"/>
	<path style="clip-path:url(#SVGID_00000051376768638201440710000005281796962169548193_);fill:#1C3B6A;" d="M429.3,129.5h-16.1
		l-3,9.5h-9.8l16.2-46.2h9.4l16.1,46.2h-10L429.3,129.5z M415.7,121.8h11.1l-1.8-5.9l-3.6-12.2h-0.3l-3.5,12L415.7,121.8z"/>
	<path style="clip-path:url(#SVGID_00000051376768638201440710000005281796962169548193_);fill:#1C3B6A;" d="M499,125.4
		c0,2.2-0.4,4.2-1.3,5.9c-0.9,1.7-2.1,3.2-3.7,4.3c-1.6,1.1-3.5,2-5.6,2.6c-2.1,0.6-4.5,0.9-7,0.9c-3.3,0-6.5-0.5-9.4-1.4
		c-2.9-0.9-5.8-2.6-8.6-5l5.2-6.7c2,1.6,4.1,2.8,6.3,3.6c2.2,0.8,4.3,1.2,6.5,1.2c1.5,0,2.7-0.1,3.8-0.4c1-0.3,1.9-0.7,2.5-1.2
		c0.6-0.5,1.1-1.1,1.4-1.7c0.3-0.6,0.4-1.3,0.4-2c0-1-0.3-1.9-0.8-2.5c-0.5-0.7-1.2-1.2-2.2-1.7c-1-0.5-2.1-0.9-3.4-1.3
		c-1.3-0.4-2.8-0.8-4.4-1.2c-1.8-0.4-3.5-1-5.1-1.6c-1.6-0.6-3.1-1.5-4.3-2.5c-1.2-1-2.2-2.2-3-3.7c-0.7-1.5-1.1-3.2-1.1-5.3
		c0-2,0.4-3.9,1.1-5.6c0.8-1.7,1.8-3.2,3.2-4.4c1.3-1.2,3-2.2,4.9-2.9c1.9-0.7,4.1-1,6.5-1c2.8,0,5.6,0.2,8.4,0.8
		c2.8,0.6,5.5,1.7,8.2,3.5l-4,7.4c-2.1-1.3-4.2-2.2-6.1-2.7c-1.9-0.5-3.8-0.7-5.7-0.7c-0.9,0-1.8,0.1-2.7,0.3
		c-0.9,0.2-1.6,0.6-2.3,1c-0.7,0.4-1.2,1-1.7,1.7c-0.4,0.7-0.6,1.5-0.6,2.4c0,0.9,0.2,1.7,0.7,2.4c0.5,0.6,1.2,1.2,2,1.7
		c0.9,0.5,2,0.9,3.3,1.2c1.3,0.4,2.7,0.7,4.3,1.1c4.9,1.1,8.5,2.7,10.9,4.9C497.8,118.9,499,121.8,499,125.4"/>
	<path style="clip-path:url(#SVGID_00000051376768638201440710000005281796962169548193_);fill:#1C3B6A;" d="M507.7,139
		c-1.5,0-2.8-0.5-3.8-1.6c-1-1.1-1.5-2.4-1.5-3.9c0-1.4,0.5-2.6,1.5-3.7c1-1,2.2-1.5,3.7-1.5c1.5,0,2.8,0.5,3.8,1.5
		c1,1,1.5,2.2,1.5,3.7c0,1.5-0.5,2.8-1.4,3.9C510.6,138.5,509.3,139,507.7,139"/>
	<path style="clip-path:url(#SVGID_00000051376768638201440710000005281796962169548193_);fill:#1C3B6A;" d="M545.7,129.5h-16.1
		l-3,9.5h-9.8L533,92.9h9.4l16.1,46.2h-10L545.7,129.5z M532.1,121.8h11.1l-1.8-5.9l-3.6-12.2h-0.3l-3.6,12L532.1,121.8z"/>
	<path style="clip-path:url(#SVGID_00000051376768638201440710000005281796962169548193_);fill:#1C3B6A;" d="M568,139
		c-1.5,0-2.8-0.5-3.8-1.6c-1-1.1-1.5-2.4-1.5-3.9c0-1.4,0.5-2.6,1.5-3.7c1-1,2.2-1.5,3.7-1.5c1.5,0,2.8,0.5,3.8,1.5
		c1,1,1.5,2.2,1.5,3.7c0,1.5-0.5,2.8-1.4,3.9C570.8,138.5,569.6,139,568,139"/>
	
		<rect x="423.3" y="123" style="clip-path:url(#SVGID_00000051376768638201440710000005281796962169548193_);fill:#1C3B6A;" width="1" height="0.9"/>
	<path style="clip-path:url(#SVGID_00000051376768638201440710000005281796962169548193_);fill:#1C3B6A;" d="M343.2,139v-20.8
		c0-0.7,0.1-1.5,0.3-2c0.7-1.7,2.2-3.2,4.6-3.2c3.4,0,4.7,2.7,4.7,6.6V139h9.2v-20.5c0-8.9-4.5-13-10.4-13c-1.7,0-3.4,0.4-4.8,1.2
		c-1.5,0.8-2.6,1.8-3.6,3.1h-0.1V92.9H334V139H343.2z"/>
	<polygon style="clip-path:url(#SVGID_00000051376768638201440710000005281796962169548193_);fill:#1C3B6A;" points="407.5,157.9 
		407.5,172.8 403.9,172.8 403.9,157.9 399.1,157.9 399.1,154.7 412.2,154.7 412.2,157.9 	"/>
	<polygon style="clip-path:url(#SVGID_00000051376768638201440710000005281796962169548193_);fill:#1C3B6A;" points="424.5,172.8 
		424.5,165.2 417.8,165.2 417.8,172.8 414.2,172.8 414.2,154.7 417.8,154.7 417.8,162 424.5,162 424.5,154.7 428.1,154.7 
		428.1,172.8 	"/>
	<polygon style="clip-path:url(#SVGID_00000051376768638201440710000005281796962169548193_);fill:#1C3B6A;" points="431.4,154.7 
		443.8,154.7 443.8,157.9 435,157.9 435,162.1 442.6,162.1 442.6,165.3 435,165.3 435,169.6 443.8,169.6 443.8,172.8 431.4,172.8 	
		"/>
	<path style="clip-path:url(#SVGID_00000051376768638201440710000005281796962169548193_);fill:#1C3B6A;" d="M459.9,167.6
		c0,0.9-0.2,1.7-0.5,2.3c-0.4,0.7-0.8,1.2-1.5,1.7c-0.6,0.4-1.3,0.8-2.2,1c-0.8,0.2-1.8,0.3-2.7,0.3c-1.3,0-2.5-0.2-3.7-0.6
		c-1.2-0.4-2.3-1-3.4-1.9l2-2.6c0.8,0.6,1.6,1.1,2.5,1.4c0.8,0.3,1.7,0.5,2.5,0.5c0.6,0,1.1-0.1,1.5-0.2c0.4-0.1,0.7-0.3,1-0.5
		c0.2-0.2,0.4-0.4,0.5-0.7c0.1-0.3,0.2-0.5,0.2-0.8c0-0.4-0.1-0.7-0.3-1c-0.2-0.3-0.5-0.5-0.9-0.7c-0.4-0.2-0.8-0.3-1.3-0.5
		c-0.5-0.1-1.1-0.3-1.7-0.5c-0.7-0.2-1.4-0.4-2-0.6s-1.2-0.6-1.7-1c-0.5-0.4-0.9-0.9-1.2-1.4c-0.3-0.6-0.4-1.3-0.4-2.1
		c0-0.8,0.1-1.5,0.4-2.2c0.3-0.7,0.7-1.2,1.2-1.7c0.5-0.5,1.2-0.9,1.9-1.1c0.8-0.3,1.6-0.4,2.5-0.4c1.1,0,2.2,0.1,3.3,0.3
		c1.1,0.2,2.2,0.7,3.2,1.4l-1.6,2.9c-0.8-0.5-1.6-0.9-2.4-1.1c-0.8-0.2-1.5-0.3-2.2-0.3c-0.4,0-0.7,0-1,0.1
		c-0.3,0.1-0.7,0.2-0.9,0.4c-0.3,0.2-0.5,0.4-0.7,0.7c-0.2,0.3-0.2,0.6-0.2,1c0,0.4,0.1,0.7,0.3,0.9c0.2,0.3,0.5,0.5,0.8,0.7
		c0.3,0.2,0.8,0.3,1.3,0.5c0.5,0.1,1.1,0.3,1.7,0.4c1.9,0.4,3.3,1.1,4.3,1.9C459.5,165,459.9,166.2,459.9,167.6"/>
	<path style="clip-path:url(#SVGID_00000051376768638201440710000005281796962169548193_);fill:#1C3B6A;" d="M475.8,167.6
		c0,0.9-0.2,1.7-0.5,2.3c-0.4,0.7-0.8,1.2-1.5,1.7c-0.6,0.4-1.4,0.8-2.2,1c-0.8,0.2-1.8,0.3-2.7,0.3c-1.3,0-2.6-0.2-3.7-0.6
		c-1.2-0.4-2.3-1-3.4-1.9l2-2.6c0.8,0.6,1.6,1.1,2.5,1.4c0.8,0.3,1.7,0.5,2.5,0.5c0.6,0,1.1-0.1,1.5-0.2c0.4-0.1,0.7-0.3,1-0.5
		c0.2-0.2,0.4-0.4,0.5-0.7c0.1-0.3,0.2-0.5,0.2-0.8c0-0.4-0.1-0.7-0.3-1c-0.2-0.3-0.5-0.5-0.9-0.7c-0.4-0.2-0.8-0.3-1.3-0.5
		c-0.5-0.1-1.1-0.3-1.7-0.5c-0.7-0.2-1.4-0.4-2-0.6c-0.6-0.3-1.2-0.6-1.7-1c-0.5-0.4-0.9-0.9-1.2-1.4c-0.3-0.6-0.4-1.3-0.4-2.1
		c0-0.8,0.1-1.5,0.4-2.2c0.3-0.7,0.7-1.2,1.2-1.7c0.5-0.5,1.2-0.9,1.9-1.1c0.8-0.3,1.6-0.4,2.5-0.4c1.1,0,2.2,0.1,3.3,0.3
		c1.1,0.2,2.2,0.7,3.2,1.4l-1.6,2.9c-0.8-0.5-1.6-0.9-2.4-1.1c-0.8-0.2-1.5-0.3-2.2-0.3c-0.4,0-0.7,0-1,0.1
		c-0.3,0.1-0.7,0.2-0.9,0.4c-0.3,0.2-0.5,0.4-0.7,0.7c-0.2,0.3-0.3,0.6-0.3,1c0,0.4,0.1,0.7,0.3,0.9c0.2,0.3,0.5,0.5,0.8,0.7
		c0.4,0.2,0.8,0.3,1.3,0.5c0.5,0.1,1.1,0.3,1.7,0.4c1.9,0.4,3.3,1.1,4.3,1.9C475.3,165,475.8,166.2,475.8,167.6"/>
	<path style="clip-path:url(#SVGID_00000051376768638201440710000005281796962169548193_);fill:#1C3B6A;" d="M488.3,169.1H482
		l-1.2,3.7H477l6.4-18.1h3.7l6.3,18.1h-3.9L488.3,169.1z M483,166.1h4.4l-0.7-2.3l-1.4-4.8h-0.1l-1.4,4.7L483,166.1z"/>
	<polygon style="clip-path:url(#SVGID_00000051376768638201440710000005281796962169548193_);fill:#1C3B6A;" points="495.3,172.8 
		495.3,154.7 498.9,154.7 498.9,169.6 507.8,169.6 507.8,172.8 	"/>
	<path style="clip-path:url(#SVGID_00000051376768638201440710000005281796962169548193_);fill:#1C3B6A;" d="M523.5,167
		c0,1-0.2,1.8-0.5,2.6c-0.4,0.7-0.9,1.4-1.5,1.9c-0.6,0.5-1.4,0.9-2.2,1.1c-0.9,0.3-1.7,0.4-2.7,0.4c-0.9,0-1.8-0.1-2.7-0.4
		c-0.9-0.3-1.6-0.6-2.2-1.1c-0.6-0.5-1.1-1.1-1.5-1.9c-0.4-0.7-0.6-1.6-0.6-2.6v-6.6c0-1,0.2-1.8,0.6-2.5c0.4-0.7,0.9-1.3,1.5-1.8
		c0.6-0.5,1.4-0.9,2.2-1.1c0.8-0.2,1.7-0.4,2.6-0.4c0.9,0,1.8,0.1,2.6,0.4c0.8,0.3,1.6,0.6,2.2,1.1c0.6,0.5,1.2,1.1,1.5,1.9
		c0.4,0.7,0.6,1.6,0.6,2.6V167z M519.9,161.1c0-0.6-0.1-1.1-0.3-1.5c-0.2-0.4-0.4-0.7-0.8-1c-0.3-0.3-0.7-0.5-1.1-0.6
		c-0.4-0.1-0.8-0.2-1.2-0.2c-0.4,0-0.8,0.1-1.2,0.2c-0.4,0.1-0.8,0.3-1.1,0.6c-0.3,0.3-0.6,0.6-0.8,1c-0.2,0.4-0.3,0.9-0.3,1.5v5.3
		c0,0.6,0.1,1.1,0.3,1.5c0.2,0.4,0.4,0.8,0.8,1c0.3,0.3,0.7,0.5,1.1,0.6c0.4,0.1,0.8,0.2,1.2,0.2c0.4,0,0.8-0.1,1.2-0.2
		c0.4-0.1,0.7-0.3,1.1-0.6c0.3-0.3,0.6-0.6,0.8-1c0.2-0.4,0.3-0.9,0.3-1.5V161.1z"/>
	<polygon style="clip-path:url(#SVGID_00000051376768638201440710000005281796962169548193_);fill:#1C3B6A;" points="530.2,161.4 
		530.2,172.8 526.6,172.8 526.6,154.7 529.9,154.7 534.1,160.9 537.5,166.2 537.6,166.2 537.6,154.7 541.2,154.7 541.2,172.8 
		538,172.8 533.4,166 530.4,161.4 	"/>
	
		<rect x="545" y="154.7" style="clip-path:url(#SVGID_00000051376768638201440710000005281796962169548193_);fill:#1C3B6A;" width="3.6" height="18.1"/>
	<path style="clip-path:url(#SVGID_00000051376768638201440710000005281796962169548193_);fill:#1C3B6A;" d="M556.1,162.5
		c0.5-0.6,1-1.1,1.5-1.7c0.5-0.6,1-1.2,1.4-1.8l3.5-4.3h4.3l-6,7.3l6.4,10.8H563l-4.6-8c-0.4,0.5-0.8,1-1.3,1.5
		c-0.4,0.5-0.8,1-1.2,1.5v5h-3.6v-18.1h3.6v7.8H556.1z"/>
	
		<rect x="569.6" y="154.7" style="clip-path:url(#SVGID_00000051376768638201440710000005281796962169548193_);fill:#1C3B6A;" width="3.6" height="18.1"/>
	<path style="clip-path:url(#SVGID_00000051376768638201440710000005281796962169548193_);fill:#1C3B6A;" d="M305.4,154.6
		c0.9,0,1.7,0.2,2.3,0.5c0.7,0.3,1.2,0.8,1.6,1.3c0.4,0.5,0.7,1.2,1,1.8c0.2,0.7,0.3,1.3,0.3,2c0,0.7-0.1,1.3-0.4,2
		c-0.2,0.7-0.6,1.3-1,1.8c-0.4,0.5-1,1-1.7,1.3c-0.7,0.3-1.4,0.5-2.2,0.5h-4.4v6.8h-3.6v-18.1H305.4z M300.9,162.7h3.7
		c0.8,0,1.4-0.2,1.9-0.7c0.4-0.5,0.6-1,0.6-1.7c0-0.7-0.2-1.3-0.6-1.7c-0.4-0.5-1-0.7-1.9-0.7h-3.7V162.7z"/>
	<path style="clip-path:url(#SVGID_00000051376768638201440710000005281796962169548193_);fill:#1C3B6A;" d="M326.3,167
		c0,1-0.2,1.8-0.6,2.6c-0.4,0.7-0.9,1.4-1.5,1.9c-0.6,0.5-1.4,0.9-2.2,1.1c-0.8,0.3-1.7,0.4-2.7,0.4c-0.9,0-1.8-0.1-2.7-0.4
		c-0.8-0.3-1.6-0.6-2.2-1.1c-0.6-0.5-1.1-1.1-1.5-1.9c-0.4-0.7-0.5-1.6-0.5-2.6v-6.6c0-1,0.2-1.8,0.6-2.5c0.4-0.7,0.9-1.4,1.5-1.8
		c0.6-0.5,1.4-0.9,2.2-1.1c0.8-0.2,1.7-0.4,2.6-0.4c0.9,0,1.8,0.1,2.6,0.4c0.8,0.3,1.6,0.6,2.2,1.1c0.6,0.5,1.2,1.1,1.5,1.9
		c0.4,0.7,0.6,1.6,0.6,2.6V167z M322.7,161.1c0-0.6-0.1-1.1-0.3-1.5c-0.2-0.4-0.4-0.7-0.8-1c-0.3-0.3-0.7-0.5-1.1-0.6
		c-0.4-0.1-0.8-0.2-1.2-0.2c-0.4,0-0.8,0.1-1.2,0.2c-0.4,0.1-0.8,0.3-1.1,0.6c-0.3,0.3-0.6,0.6-0.8,1c-0.2,0.4-0.3,0.9-0.3,1.5v5.3
		c0,0.6,0.1,1.1,0.3,1.5c0.2,0.4,0.4,0.8,0.8,1c0.3,0.3,0.7,0.5,1.1,0.6c0.4,0.1,0.8,0.2,1.2,0.2c0.4,0,0.8-0.1,1.2-0.2
		c0.4-0.1,0.7-0.3,1.1-0.6c0.3-0.3,0.6-0.6,0.8-1c0.2-0.4,0.3-0.9,0.3-1.5V161.1z"/>
	<path style="clip-path:url(#SVGID_00000051376768638201440710000005281796962169548193_);fill:#1C3B6A;" d="M379.8,167
		c0,1-0.2,1.8-0.6,2.6c-0.4,0.7-0.9,1.4-1.5,1.9c-0.6,0.5-1.4,0.9-2.2,1.1c-0.8,0.3-1.7,0.4-2.7,0.4c-0.9,0-1.8-0.1-2.7-0.4
		c-0.8-0.3-1.6-0.6-2.2-1.1c-0.6-0.5-1.1-1.1-1.5-1.9c-0.4-0.7-0.5-1.6-0.5-2.6v-6.6c0-1,0.2-1.8,0.6-2.5c0.4-0.7,0.9-1.4,1.5-1.8
		c0.6-0.5,1.4-0.9,2.2-1.1c0.8-0.2,1.7-0.4,2.6-0.4c0.9,0,1.8,0.1,2.6,0.4c0.8,0.3,1.6,0.6,2.2,1.1c0.6,0.5,1.2,1.1,1.5,1.9
		c0.4,0.7,0.6,1.6,0.6,2.6V167z M376.2,161.1c0-0.6-0.1-1.1-0.3-1.5c-0.2-0.4-0.4-0.7-0.8-1c-0.3-0.3-0.7-0.5-1.1-0.6
		c-0.4-0.1-0.8-0.2-1.2-0.2c-0.4,0-0.8,0.1-1.2,0.2c-0.4,0.1-0.8,0.3-1.1,0.6c-0.3,0.3-0.6,0.6-0.8,1c-0.2,0.4-0.3,0.9-0.3,1.5v5.3
		c0,0.6,0.1,1.1,0.3,1.5c0.2,0.4,0.4,0.8,0.8,1c0.3,0.3,0.7,0.5,1.1,0.6c0.4,0.1,0.8,0.2,1.2,0.2c0.4,0,0.8-0.1,1.2-0.2
		c0.4-0.1,0.7-0.3,1.1-0.6c0.3-0.3,0.6-0.6,0.8-1c0.2-0.4,0.3-0.9,0.3-1.5V161.1z"/>
	<path style="clip-path:url(#SVGID_00000051376768638201440710000005281796962169548193_);fill:#1C3B6A;" d="M337.5,154.6
		c0.9,0,1.7,0.2,2.3,0.5c0.7,0.3,1.2,0.8,1.6,1.3c0.4,0.5,0.7,1.2,0.9,1.8c0.2,0.7,0.3,1.3,0.3,2c0,0.5-0.1,1-0.2,1.5
		c-0.1,0.5-0.3,1-0.6,1.4c-0.3,0.4-0.6,0.9-0.9,1.2c-0.4,0.4-0.8,0.7-1.3,0.9l3.3,7.4h-3.9c-0.1-0.2-0.2-0.5-0.3-0.8
		c-0.1-0.4-0.3-0.8-0.5-1.2c-0.2-0.4-0.4-0.9-0.6-1.4c-0.2-0.5-0.4-0.9-0.6-1.4c-0.2-0.4-0.4-0.8-0.5-1.2c-0.2-0.4-0.3-0.6-0.4-0.8
		h-3.3v6.8h-3.6v-18.1H337.5z M333.1,162.7h3.7c0.8,0,1.5-0.2,1.9-0.7c0.4-0.4,0.6-1,0.6-1.7c0-0.7-0.2-1.3-0.6-1.7
		c-0.4-0.5-1.1-0.7-1.9-0.7h-3.7V162.7z"/>
	<polygon style="clip-path:url(#SVGID_00000051376768638201440710000005281796962169548193_);fill:#1C3B6A;" points="352.4,157.9 
		352.4,172.7 348.8,172.7 348.8,157.9 344,157.9 344,154.6 357.1,154.6 357.1,157.9 	"/>
	
		<rect x="386.1" y="160.5" style="clip-path:url(#SVGID_00000051376768638201440710000005281796962169548193_);fill:#1C3B6A;" width="3.7" height="3.2"/>
	<polygon style="clip-path:url(#SVGID_00000051376768638201440710000005281796962169548193_);fill:#1C3B6A;" points="382.5,154.6 
		382.5,157 382.6,157 382.6,168.1 386.2,168.1 386.2,157 390.9,157 390.9,154.6 	"/>
</g>
</svg>
