<svg width="387" height="35" viewBox="0 0 387 35" fill="none" xmlns="http://www.w3.org/2000/svg">
    <path d="M74.072 1.36438L62.5122 16.4117L51.0023 1.36438H41.9824V34.7008H51.1412V15.8275L62.4659 30.6789L73.9117 15.7847V34.7008H83.0705V1.36438H74.072Z" fill="currentColor"></path>
    <path d="M110.611 1.36438H102.222L85.7173 34.7008H95.9341L98.9799 27.5796H113.86L116.906 34.7008H127.122L110.611 1.36438ZM103.023 19.771L106.447 13.0489L109.849 19.7567L103.023 19.771Z" fill="currentColor"></path>
    <path d="M168.606 1.36438H154.243L138.925 13.113V1.36438H129.762V34.7008H138.925V24.1776L144.211 20.1557L156.12 34.7008H168.218L151.393 14.5664L168.606 1.36438Z" fill="currentColor"></path>
    <path d="M181.142 25.6595V22.026H195.655V13.9751H181.142V10.4092H203.399V1.36438H171.979V34.7008H204.422V25.6595H181.142Z" fill="currentColor"></path>
    <path d="M231.891 1.36438H223.501L206.997 34.7008H248.399L231.891 1.36438ZM226.522 14.2636L227.684 11.884L228.859 14.2636L234.787 26.8743L231.463 26.8672H223.915L220.591 26.8743" fill="currentColor"></path>
    <path d="M274.853 23.572C273.05 25.1038 270.535 25.884 267.375 25.884C264.216 25.884 261.647 25.1109 259.83 23.5827C258.117 22.1435 257.322 19.8743 257.322 17.5018C257.322 15.1293 258.145 12.9847 259.909 11.4921C261.797 9.89618 264.24 9.11959 267.375 9.11959C270.239 9.11959 272.534 9.80356 274.393 11.2142C276.413 12.7461 277.357 15.083 277.357 17.5053C277.357 19.9277 276.563 22.1221 274.853 23.5756M280.396 4.21781C276.869 1.41781 272.487 0 267.375 0C262.263 0 257.903 1.41425 254.33 4.21069C250.116 7.51654 247.982 12.315 247.982 17.5018C247.982 22.6886 250.094 27.5796 254.255 30.8285C257.778 33.5964 262.192 35.0036 267.375 35.0036C272.559 35.0036 276.89 33.6143 280.417 30.8712C284.585 27.6153 286.697 22.7883 286.697 17.5018C286.697 12.2153 284.574 7.5201 280.396 4.21781Z" fill="currentColor"></path>
    <path d="M316.853 0.869202V20.0168L300.106 0.869202H291.236V34.2056H300.398V15.0723L317.134 34.2056H326.015V0.869202H316.853Z" fill="currentColor"></path>
    <path d="M342.288 0.869202H333.125V34.2056H342.288V0.869202Z" fill="currentColor"></path>
    <path d="M369.882 1.36438H361.493L344.988 34.2056H355.202L358.247 27.5832H373.124L376.169 34.2056H386.386L369.882 1.36438ZM362.294 19.771L365.714 13.0489L369.116 19.7567L362.291 19.771H362.294Z" fill="currentColor"></path>
    <path d="M3.32019 20.113L4.06116 19.6392L3.19551 19.4183L3.32019 20.113ZM4.4637 19.3898L4.53495 19.7318L2.63266 20.9751L2.57566 20.5939L3.02808 20.3053L2.86777 19.3435L2.34411 19.226L2.28711 18.8697L4.46726 19.3863L4.4637 19.3898Z" fill="currentColor"></path>
    <path d="M2.8428 21.6056L2.72168 21.2636L4.95883 21.4168L5.04433 21.741L3.35578 23.1766L3.23109 22.8275L4.5741 21.716L2.8428 21.6056Z" fill="currentColor"></path>
    <path d="M5.39705 22.7135L6.07389 24.0814L5.78178 24.2132L5.26524 23.1623L4.79145 23.3974L5.23674 24.3308L4.95888 24.459L4.49934 23.5577L4.01842 23.7929L4.53496 24.8616L4.23573 24.9934L3.55176 23.6326L5.39705 22.7135Z" fill="currentColor"></path>
    <path d="M6.20893 24.2631L7.11376 25.6809L6.82521 25.8626L5.91681 24.4412L6.21249 24.2596L6.20893 24.2631ZM5.54989 24.8046L6.34429 26.0585L6.05931 26.2473L5.25778 24.9934L5.54989 24.8046ZM4.7448 25.1964L5.67814 26.6249L5.39671 26.8066L4.46338 25.371L4.74837 25.1964H4.7448Z" fill="currentColor"></path>
    <path d="M7.17086 27.6224L7.5449 26.7995L6.70775 27.0987L7.17442 27.6224H7.17086ZM7.76221 26.4041L7.97951 26.6463L7.03192 28.7089L6.779 28.3954L7.01768 27.9288L6.36221 27.2234L5.85279 27.3909L5.61768 27.1059L7.76221 26.4041Z" fill="currentColor"></path>
    <path d="M8.69562 27.4122L8.95923 27.6366L8.88442 29.4321L9.79994 28.342L10.0671 28.57L8.75262 30.1516L8.51394 29.9486L8.59231 28.1033L7.65185 29.2326L7.39893 29.0081L8.69562 27.4122Z" fill="currentColor"></path>
    <path d="M10.8509 29.5603L9.72879 30.4153L10.6479 30.9674L10.8509 29.5603ZM10.9471 29.1221L11.2392 29.2896L10.9186 31.5018L9.11963 30.4224L10.9507 29.1186L10.9471 29.1221Z" fill="currentColor"></path>
    <path d="M12.4469 31.0921C12.6998 31.199 12.9064 31.1277 12.9955 30.9354C13.0881 30.6967 12.9813 30.5221 12.7176 30.4117L12.3543 30.2443L12.055 30.9354L12.4469 31.0921ZM12.1477 29.8097L12.8922 30.1303C13.3304 30.312 13.5049 30.6824 13.3446 31.0565V31.0779C13.1522 31.4982 12.7176 31.573 12.3115 31.3771L11.9197 31.2382L11.6703 31.8438L11.3354 31.6835L12.1512 29.8097H12.1477Z" fill="currentColor"></path>
    <path d="M15.0937 31.9293V31.9079C15.1649 31.5338 14.9761 31.1277 14.5843 31.0173C14.1924 30.9211 13.8362 31.1705 13.7293 31.5481C13.6189 31.9364 13.8113 32.314 14.2174 32.4387C14.6128 32.5491 14.9583 32.2997 15.0937 31.9293ZM13.3517 31.4697C13.5049 30.8891 14.0713 30.5471 14.684 30.6967C15.2825 30.8641 15.5889 31.4697 15.4428 32.0005C15.2825 32.5598 14.7303 32.9267 14.1105 32.7593C13.5049 32.5919 13.2163 32.0148 13.3517 31.4697Z" fill="currentColor"></path>
    <path d="M15.8202 31.0173L17.409 31.2239L17.3662 31.5481L16.294 31.3878L16.8069 32.1359L16.0553 32.7807L17.2202 32.9481L17.1774 33.2687L15.5103 33.0656L15.5459 32.7807L16.3474 32.0967L15.7917 31.2952L15.8202 31.0173Z" fill="currentColor"></path>
    <path d="M17.4412 34.9608C7.82646 34.9608 0 27.1272 0 17.4982C0 7.86921 7.82646 0.0391846 17.4412 0.0391846C27.056 0.0391846 34.9145 7.86921 34.9145 17.4982C34.9145 27.1272 27.0774 34.9608 17.4412 34.9608ZM17.4412 0.765902C8.22544 0.765902 0.726718 8.27175 0.726718 17.4982C0.726718 26.7247 8.22545 34.2377 17.4448 34.2377C26.6641 34.2377 34.1913 26.7282 34.1913 17.4982C34.1913 8.26819 26.6748 0.765902 17.4412 0.765902Z" fill="currentColor"></path>
    <path d="M6.20911 8.07583C6.20911 8.07583 5.67832 7.9369 5.71038 7.44886C5.73888 6.95369 6.19842 6.84682 6.47985 6.91807C6.77196 6.98931 7.02132 7.42748 6.89664 7.65547C6.78264 7.86565 6.66509 8.17914 6.20911 8.07583Z" fill="currentColor"></path>
    <path d="M5.15469 9.47225C5.15469 9.47225 4.61321 9.3262 4.64171 8.83103C4.68802 8.35011 5.12263 8.23256 5.41474 8.31805C5.70685 8.37149 5.9384 8.83103 5.83153 9.04833C5.7211 9.24426 5.60711 9.56487 5.15469 9.47225Z" fill="currentColor"></path>
    <path d="M8.75252 5.84581C8.75252 5.84581 8.21461 5.69263 8.25023 5.20459C8.28585 4.72367 8.73827 4.62037 9.01613 4.6738C9.31537 4.74505 9.55405 5.20459 9.44005 5.39339C9.33674 5.62138 9.20494 5.94199 8.75252 5.84581Z" fill="currentColor"></path>
    <path d="M7.39914 6.92164C7.39914 6.92164 6.85766 6.78627 6.89329 6.29823C6.91466 5.80306 7.39914 5.69263 7.67344 5.76031C7.9513 5.84937 8.1971 6.28398 8.08311 6.49772C7.97267 6.71146 7.8658 7.03207 7.39914 6.9252" fill="currentColor"></path>
    <path d="M21.6802 3.87938C21.6802 3.87938 21.1387 3.75826 21.1708 3.25953C21.1993 2.75724 21.6802 2.66106 21.9581 2.71806C22.2324 2.78574 22.4889 3.24172 22.3784 3.46259C22.2609 3.65139 22.1398 3.97913 21.6802 3.87938Z" fill="currentColor"></path>
    <path d="M23.2976 4.43868C23.2976 4.43868 22.7597 4.31044 22.8167 3.81883C22.8452 3.31654 23.2834 3.21323 23.5613 3.28804C23.8747 3.34504 24.1027 3.81171 23.9852 4.01476C23.8819 4.22494 23.775 4.5313 23.3012 4.43868" fill="currentColor"></path>
    <path d="M24.8867 5.23308C24.8867 5.23308 24.3488 5.10484 24.3916 4.62036C24.4343 4.11095 24.8867 4.01476 25.1646 4.08957C25.4496 4.14657 25.7025 4.59186 25.5814 4.81629C25.4567 5.01222 25.3392 5.35064 24.8903 5.22952" fill="currentColor"></path>
    <path d="M30.7429 11.5135C30.7429 11.5135 30.205 11.3781 30.2335 10.8865C30.2691 10.3985 30.7287 10.2987 31.0208 10.3628C31.3129 10.4163 31.5445 10.8794 31.4411 11.086C31.3129 11.3175 31.206 11.631 30.7394 11.5135" fill="currentColor"></path>
    <path d="M31.9683 14.9583C31.9683 14.9583 31.4339 14.8193 31.4589 14.3171C31.4945 13.829 31.954 13.7328 32.2319 13.7934C32.5204 13.8718 32.7627 14.3171 32.6665 14.5059C32.5382 14.7196 32.4207 15.0509 31.9683 14.9583Z" fill="currentColor"></path>
    <path d="M32.2318 16.6148C32.2318 16.6148 31.6904 16.4687 31.7189 15.9878C31.7652 15.4855 32.2176 15.3893 32.4919 15.4499C32.7947 15.5211 33.0298 15.9735 32.9122 16.1837C32.8125 16.3868 32.6949 16.7038 32.2283 16.6148" fill="currentColor"></path>
    <path d="M32.2891 18.3995C32.2891 18.3995 31.7654 18.257 31.8011 17.7725C31.8367 17.2774 32.2748 17.1741 32.5598 17.231C32.8448 17.3059 33.1049 17.7618 32.9909 17.9685C32.8733 18.1786 32.7558 18.5064 32.2891 18.3995Z" fill="currentColor"></path>
    <path d="M32.2 20.1628C32.2 20.1628 31.662 20.0097 31.6905 19.5394C31.719 19.0158 32.1786 18.941 32.4778 18.9908C32.7521 19.0692 33.0157 19.5145 32.8875 19.7211C32.7628 19.9313 32.6666 20.2519 32.2 20.1628Z" fill="currentColor"></path>
    <path d="M31.8364 21.83C31.8364 21.83 31.3128 21.7125 31.3199 21.2102C31.3555 20.7079 31.8222 20.6117 32.1072 20.6687C32.3815 20.7328 32.638 21.1995 32.524 21.4061C32.4207 21.602 32.2889 21.9227 31.8364 21.83Z" fill="currentColor"></path>
    <path d="M31.3163 23.5577C31.3163 23.5577 30.8069 23.4188 30.8283 22.9236C30.8639 22.4356 31.3163 22.3323 31.6013 22.3929C31.8934 22.4641 32.1392 22.9094 32.0252 23.1338C31.9077 23.3369 31.7972 23.6504 31.3163 23.5577Z" fill="currentColor"></path>
    <path d="M30.6717 25.1395C30.6717 25.1395 30.1587 25.0148 30.1587 24.5125C30.205 24.0316 30.6717 23.9283 30.9531 23.9746C31.2381 24.0494 31.4839 24.5089 31.3521 24.7262C31.2452 24.9293 31.1348 25.2356 30.6681 25.143" fill="currentColor"></path>
    <path d="M26.2756 6.23055C26.2756 6.23055 25.7449 6.09162 25.7876 5.60358C25.8019 5.10129 26.2543 5.0051 26.5428 5.06566C26.8349 5.12978 27.0879 5.58933 26.9739 5.80307C26.8492 6.01324 26.7316 6.32673 26.2721 6.23055" fill="currentColor"></path>
    <path d="M27.5977 7.3883C27.5977 7.3883 27.074 7.25649 27.0954 6.7542C27.131 6.26616 27.5905 6.16285 27.8755 6.23054C28.1641 6.29822 28.4134 6.73995 28.2994 6.95369C28.1819 7.14962 28.0679 7.48448 27.6012 7.39186" fill="currentColor"></path>
    <path d="M28.8477 8.65648C28.8477 8.65648 28.3098 8.51042 28.3525 8.01526C28.3953 7.52009 28.8406 7.40966 29.1327 7.4809C29.4177 7.54146 29.6635 8.00457 29.5459 8.20406C29.4355 8.4178 29.3001 8.72772 28.8441 8.65648" fill="currentColor"></path>
    <path d="M31.4589 13.2341C31.4589 13.2341 30.9459 13.0987 30.978 12.6071C31.0065 12.1191 31.4518 12.0015 31.7368 12.0977C32.0289 12.1476 32.2747 12.5893 32.1571 12.803C32.0467 13.0203 31.9113 13.341 31.4589 13.2341Z" fill="currentColor"></path>
    <path d="M29.9485 9.96744C29.9485 9.96744 29.4177 9.82851 29.4391 9.32622C29.489 8.83106 29.9414 8.72775 30.2335 8.80256C30.5042 8.87737 30.7572 9.3191 30.6396 9.53996C30.5256 9.74302 30.4009 10.0636 29.9485 9.96744Z" fill="currentColor"></path>
    <path d="M7.4846 23.597C7.34567 23.597 7.98689 22.8168 7.88002 22.6992C7.76246 22.5639 7.17111 22.5389 7.63778 22.3501C7.71259 22.3216 9.32633 21.7374 9.31564 23.3048C9.31564 23.3048 9.47595 23.7323 8.84898 23.9389C8.2505 24.1277 8.76348 23.255 8.76348 23.2122C8.77773 23.1695 8.73498 22.3252 8.15432 22.8702C8.15432 22.8702 7.64134 23.6005 7.49172 23.6005M9.31208 25.257C9.31208 25.257 8.90597 25.257 8.90954 24.9435C8.94872 24.6372 9.20877 24.6692 9.42964 24.5944C9.64694 24.5054 10.5518 23.8855 10.6658 23.4046C10.7976 22.9344 10.8225 23.027 10.8688 22.9735C10.9187 22.9344 11.0434 22.7491 11.0291 22.9166C11.0291 22.9166 10.8261 24.8901 9.31208 25.2534M11.3676 20.7898C11.2821 20.7257 11.0897 20.455 11.2821 20.3909C11.4851 20.341 11.681 20.259 11.8057 20.113C11.9304 19.9741 11.9874 20.0417 12.1691 19.9242C12.3294 19.8351 12.4184 19.5145 12.7391 19.4255C12.7391 19.4255 12.8851 19.3685 12.9492 19.2295C13.0169 19.087 13.2556 18.5812 13.5085 18.5313C13.7793 18.5028 13.8434 18.5883 13.6261 18.8163C13.4159 19.0514 13.391 19.2901 13.277 19.3115C13.1309 19.3328 13.2342 19.4255 13.1167 19.4646C12.9849 19.5038 12.7212 19.5395 12.5182 19.7568C12.3543 19.9705 12.4006 20.0631 12.2225 20.1023C12.0444 20.1415 11.7202 20.3909 11.6454 20.5903C11.5884 20.7685 11.4566 20.8611 11.3711 20.7934M11.2821 21.659C11.2821 21.659 11.1431 21.1995 12.1691 20.8575C13.2022 20.5013 13.3055 20.5868 13.3126 20.6402C13.3126 20.6901 13.2022 20.8219 12.6642 20.9608C12.105 21.0998 12.8032 21.1247 12.8317 21.1425C12.8815 21.1568 12.8637 21.6092 12.3294 21.2672C11.7915 20.9181 11.7523 21.6412 11.7523 21.6412C11.7523 21.6412 11.7523 22.2825 11.2785 21.6626M11.7309 25.4529C11.7024 25.257 11.7452 24.5445 12.2546 24.8509C12.7497 25.1573 13.5869 25.5135 13.7971 25.4921C14.0179 25.4601 14.4169 25.4173 14.424 25.485C14.424 25.542 14.424 25.5812 14.3813 25.5812C14.3813 25.5812 13.0846 25.7629 12.7996 25.5456C12.5146 25.3354 12.137 25.5883 12.137 25.5883C12.137 25.5883 11.7416 25.6382 11.7273 25.4565M15.4607 24.3807C15.4607 24.3807 15.4322 25.1751 13.8291 24.7903C12.1228 24.37 13.1167 24.4982 13.334 24.5054C13.5584 24.541 14.1854 24.6158 14.2067 24.4982C14.2637 24.1705 12.91 24.3023 13.391 24.1562C14.0607 23.9069 15.0902 24.1562 15.5034 23.6896C15.8917 23.2514 15.8383 23.8784 15.2826 24.1171C14.7304 24.3664 14.4525 24.883 14.8622 24.7583C15.2826 24.6336 15.5319 24.1562 15.4607 24.3807ZM14.937 25.9481C14.5416 25.5669 15.2327 25.8163 15.2327 25.8163C15.2327 25.8163 15.7065 25.859 15.7065 25.998C15.7207 26.144 15.3324 26.3542 14.937 25.9481ZM16.5686 23.5756C16.5686 23.5756 17.1207 25.4173 15.7492 25.542C15.7492 25.542 15.1686 25.5847 15.4607 25.4173C15.767 25.2356 16.4439 24.6906 16.4439 24.3308C16.4439 23.9959 16.4439 23.2443 16.5686 23.572M18.3462 22.3715C18.1859 22.2041 18.0683 22.2682 18.0754 22.3715C18.0754 22.4962 18.592 22.9201 18.6632 23.116C18.7309 23.3048 18.3284 22.7776 18.0078 22.6138C17.6943 22.4214 17.7548 22.0509 17.7762 21.8051C17.8083 21.5272 17.8938 21.7018 17.9223 21.7445C17.965 21.773 18.0612 21.9191 18.3533 22.001C18.6668 22.1008 18.6739 22.5532 18.6739 22.5532C18.7309 22.8881 18.5243 22.5603 18.3462 22.3715ZM17.0922 25.1573C17.0495 25.1786 17.021 25.111 17.0887 24.972C17.1385 24.8509 17.0887 24.5588 17.1599 24.4733C17.2383 24.37 17.1955 24.1277 17.3558 24.3059C17.3558 24.3059 18.3854 25.4209 17.4271 25.4209C17.4271 25.4209 17.2383 25.3354 17.224 25.2534C17.2027 25.1359 17.1207 25.1608 17.0922 25.1608M17.0281 26.9847C16.0022 26.771 16.3762 26.3578 16.5365 26.2545C16.6897 26.1155 17.1706 26.0193 17.6658 26.3578C18.1894 26.6998 17.9721 26.087 18.2144 25.9196C18.4245 25.7593 18.7915 26.0229 18.6775 25.542C18.5849 25.0397 18.9197 23.6789 17.8118 23.0056C17.8118 23.0056 17.6658 22.7776 18.0006 22.97C18.3355 23.1339 18.8164 24.4804 18.9767 24.1206C19.1441 23.7644 19.6179 22.8204 19.2831 22.083C18.9411 21.3456 19.0337 20.5618 18.6276 20.5868C18.5849 20.5868 17.6088 21.4987 17.4592 20.8718C17.2419 20.0916 17.0281 21.1995 17.0281 21.4275C17.0281 21.6555 16.8179 22.3751 17.7441 23.5328C17.7441 23.5328 18.5029 24.7405 18.0006 24.1883C17.4948 23.6575 16.8856 22.9201 16.85 21.9797C16.85 21.9797 16.736 21.7624 16.3833 22.5033C16.02 23.255 16.3762 22.2041 16.3976 22.083C16.451 21.9583 17.1706 20.829 16.7111 21.0891C16.2373 21.3456 15.45 22.0295 15.4072 21.57C15.4072 21.57 15.3787 21.3741 15.6994 21.4738C16.0342 21.5379 17.5553 20.1094 17.6373 18.8947C17.6373 18.8947 17.6301 18.7201 17.7477 18.7023C17.8403 18.6738 17.9009 18.7201 17.8795 18.8341C17.8795 18.8341 17.7477 20.7221 17.9009 20.6936C18.0469 20.6865 18.5991 19.9349 18.7915 20.0382C19.1548 20.202 19.1085 20.202 19.3899 21.399C19.6785 22.5853 19.536 24.801 20.277 25.1216C20.5976 25.2677 20.6546 24.6122 20.5691 24.2346C20.48 23.8606 19.853 21.5379 21.1854 22.3822C22.5355 23.2407 24.1955 23.059 23.02 24.6478C23.02 24.6478 22.8597 24.8865 22.767 25.2463C22.6637 25.5741 21.0322 29.2326 20.391 29.4285C20.0846 29.5318 19.6678 28.7659 19.5467 28.6697C19.4576 28.5664 18.0469 27.1771 17.0317 26.9812M25.9447 22.3288C25.9447 22.3288 24.7121 23.0733 22.507 22.2041C20.3162 21.3135 19.9706 20.4265 20.0953 19.4148C20.2342 18.4031 21.2032 16.0982 21.5808 15.8667C21.9905 15.6102 22.4037 16.7537 22.4251 16.1552C22.4393 15.5674 21.5523 13.0667 22.4821 11.6524C23.4296 10.2524 22.7884 9.73589 22.6424 9.9995C22.4821 10.2702 22.279 12.0015 20.7472 11.1786C19.1085 10.3059 18.738 10.2524 17.8617 10.6193C17.8617 10.6193 17.2988 10.7797 17.8154 10.3878C18.3248 9.98881 19.3757 10.0494 19.7889 10.2702C20.2057 10.4947 21.4561 11.656 21.7625 11.0931C22.0759 10.5089 22.3752 10.3557 22.2861 9.79645C22.1828 9.25853 21.5452 7.28144 21.8622 6.98576C22.1971 6.69365 22.4607 6.82546 22.1971 7.11044C21.9192 7.4168 21.9548 8.37151 22.621 8.60306C23.2765 8.84887 23.0057 9.1196 22.8383 9.1196C22.6709 9.1196 22.5889 9.22291 22.8739 9.42596C23.1589 9.63614 23.5793 10.0244 23.6541 9.5934C23.7111 9.15166 23.7111 8.66006 23.4368 8.20408C23.1304 7.74454 23.2016 7.57711 23.4581 7.84785C23.7111 8.11146 23.8714 8.80256 24.0495 8.53894C24.2027 8.27533 24.5732 7.67329 24.5732 8.14708C24.5732 8.62088 23.8144 10.0707 25.2714 11.3746C25.2714 11.3746 25.8093 11.6881 26.1085 12.6356C26.422 13.5832 27.7472 15.3181 28.0108 15.5425C28.2709 15.7705 28.4739 16.1909 27.7935 16.2657C27.0988 16.3155 26.3543 16.5934 26.1762 16.0199C26.0159 15.4428 25.9375 15.2183 25.8271 15.7349C25.7309 16.2372 25.1004 18.3853 25.3747 18.5028C25.6632 18.6061 25.9589 18.6417 26.1584 18.4102C26.3543 18.1893 26.8744 18.2641 26.992 18.3888C27.0775 18.5277 27.2378 18.941 26.6856 18.9873C26.1121 19.0443 26.2225 19.1405 26.3828 19.3649C26.5289 19.5858 27.5477 21.2672 25.9375 22.3359M27.366 16.4865C27.3838 16.6112 26.8887 16.711 26.8566 16.8855C26.8424 17.0387 27.1772 17.6122 26.6536 17.5339C26.1228 17.4484 26.4363 17.915 26.0123 18.0825C25.5991 18.2356 25.5457 18.2214 25.6632 17.7262C25.795 17.2168 25.9696 16.4509 26.1228 16.6041C26.2866 16.7501 26.6678 16.6112 26.7854 16.6112C26.7854 16.6112 27.3304 16.3761 27.366 16.4865ZM23.8927 7.33131C23.9747 7.56999 23.8144 7.36693 23.8144 7.36693C23.8144 7.36693 22.8525 6.84683 22.8312 7.58423C22.8312 8.2967 22.6566 8.04378 22.6032 7.8621C22.5747 7.63411 22.3467 6.84683 23.4332 6.99289C23.4332 6.99289 23.8536 7.10332 23.8927 7.32775M21.9441 6.46566C21.9441 6.46566 22.3823 6.66871 21.7981 6.75421C21.2032 6.85039 21.2958 7.63767 21.424 7.93334C21.5309 8.23258 21.3599 8.1364 21.1996 7.96897C21.0215 7.82291 21.0785 7.08907 21.1996 6.80408C21.3207 6.53334 21.9406 6.4621 21.9406 6.4621M20.562 6.53691C20.8078 6.45141 20.8968 6.53691 20.822 6.78627C20.7793 7.02495 20.2485 7.87278 20.3838 8.36082C20.4943 8.86311 21.1141 9.10892 21.2424 9.65752C21.3599 10.2026 21.1391 10.5517 20.8648 10.5303C20.5441 10.4947 20.2663 10.3842 20.7187 10.2667C21.1747 10.1491 20.6653 9.99594 20.8042 9.73589C20.936 9.46871 20.448 9.03767 20.4693 9.35116C20.4907 9.65752 20.1843 9.19797 19.4184 9.31553C18.6597 9.42596 16.7681 10.3593 16.6149 11.0931C16.5258 11.4565 17.7584 10.8224 18.2536 10.9186C18.9874 11.0433 19.7248 11.3069 19.7248 11.3069C19.9635 11.4066 19.9777 11.6987 19.308 11.4529C17.9899 10.9435 16.9925 11.3354 16.7787 11.4316C16.5614 11.5562 16.4154 12.2117 17.0424 11.7664C17.6551 11.371 19.3294 11.745 19.5752 12.0051C19.8815 12.2438 20.2093 12.0407 20.4658 11.8662C20.7151 11.6845 20.9289 11.5171 20.8861 12.2758C20.8576 13.056 19.5324 12.2758 18.9268 11.884C18.3212 11.5028 16.8144 12.0229 16.793 12.2972C16.7787 12.5715 17.2953 12.2758 17.6444 12.1191C18.0006 11.9445 17.8011 12.1868 17.3452 13.373C17.0602 14.0962 15.393 14.5415 15.1365 14.5415C14.88 14.5415 13.8754 14.513 13.366 15.0723C12.8495 15.6316 12.9207 15.4071 12.9207 15.4071C13.366 14.0677 14.4988 14.6199 15.2576 14.3741C16.02 14.1176 16.5864 13.398 16.5864 13.056C16.5864 12.714 16.1589 12.9669 16.0841 13.4265C15.9879 13.8789 16.223 13.3054 15.653 13.797C15.0688 14.3313 15.8953 12.9669 16.134 12.5751C16.3798 12.1868 16.5579 11.8626 16.2943 11.8697C15.3609 11.9588 15.8775 12.7461 15.2149 13.4657C14.88 13.8575 14.88 13.5761 15.0688 13.3624C15.2576 13.145 15.3823 12.5786 15.3823 12.5786C15.45 11.6026 16.9854 10.3522 16.9854 10.3522C17.9971 9.37965 18.7558 9.23004 19.1513 9.09823C19.5538 8.98067 19.7497 8.52113 19.7177 7.92622C19.6892 7.3135 20.3126 6.64378 20.5477 6.54759M19.1833 6.75777C19.3864 6.46922 19.8922 6.16999 19.5004 6.95726C19.105 7.78016 19.1833 7.7196 19.251 8.01172C19.2902 8.29314 18.7558 8.64937 18.3569 8.74912C18.0006 8.86311 17.8759 8.94505 17.9472 8.56744C17.9472 8.56744 18.1752 7.78016 18.1752 7.50943C18.1752 7.23869 18.0291 7.20306 18.5635 7.09263C19.1085 6.97864 18.9803 7.04988 19.1869 6.75777M17.4948 7.09263C17.4948 7.09263 17.794 9.18729 16.8856 9.27991C15.9737 9.38322 15.7528 9.23716 16.1197 9.09823C16.4831 8.97355 16.9676 8.95217 16.9319 8.67431C16.9319 8.39289 16.736 8.56388 16.6256 8.60306C16.5009 8.66006 15.4678 8.97355 15.596 8.73131C15.7136 8.46413 16.7004 8.27177 16.9319 8.27177C17.1635 8.27177 17.3594 7.30281 16.9319 6.9822C16.4866 6.66871 17.2062 6.80764 17.281 6.84327C17.3843 6.87533 17.4983 7.08907 17.4983 7.08907M16.4973 6.24123C16.6006 6.36591 16.4831 6.45497 16.2693 6.45497C16.0556 6.45497 15.8561 6.60103 15.7528 6.89314C15.653 7.16744 16.1482 7.13894 16.2693 7.35268C16.394 7.56286 15.8276 7.4168 15.8276 7.4168C15.0546 7.13538 15.4464 6.55828 15.6958 6.32317C15.9701 6.09874 16.4973 6.24479 16.4973 6.24479M15.336 7.7766C15.393 8.15421 15.0973 7.95116 14.5416 7.62342C13.9787 7.27431 13.5441 7.37049 13.448 7.44887C13.3447 7.52367 13.448 7.92622 13.7899 7.86566C14.1177 7.81935 14.709 8.01528 14.8907 8.21477C15.0938 8.41782 13.7187 8.36082 13.3446 8.21477C12.9955 8.06159 12.9955 8.15777 12.9314 8.28958C12.8958 8.41782 13.4266 8.56388 13.6225 8.56388C13.8184 8.56388 13.9574 8.64581 13.9075 8.77406C13.8576 8.92724 13.1416 8.80968 12.9243 8.6565C12.6927 8.51044 12.1228 8.35726 12.0373 8.56388C11.9268 8.75981 12.3258 8.64581 12.5752 9.09467C12.8352 9.57558 12.5146 9.55421 12.2831 9.73589C12.0373 9.93894 11.4388 9.93894 10.7548 10.0244C10.053 10.1491 9.42964 10.0102 9.47239 9.86057C9.52582 9.70739 10.0424 9.73589 10.3238 9.86057C10.5945 9.98881 11.4815 9.70739 11.7452 9.55421C11.9981 9.37965 12.1548 9.1481 12.105 8.99136C12.0515 8.86312 10.9864 8.75981 10.6658 8.8453C10.3238 8.89874 10.3772 8.75981 10.42 8.60663C10.4698 8.45345 11.4245 8.57813 11.5635 8.51401C11.7167 8.43207 11.1075 8.36082 11.0612 8.27177C11.0006 8.15777 11.5849 8.28958 11.8235 8.28958C12.048 8.28958 12.0622 8.14352 11.8235 8.04734C11.5599 7.93691 11.5599 8.01528 11.6205 7.7766C11.6632 7.52011 12.8958 7.23156 13.448 7.13538C14.0179 7.03563 14.3955 7.30281 14.4703 7.37049C14.5416 7.44887 15.336 7.7766 15.336 7.7766ZM8.66373 10.7868C8.81335 10.8224 10.9151 10.5909 11.877 10.3985C12.8245 10.2026 15.019 9.18373 15.019 9.18373C15.4464 9.03767 14.8943 9.4224 14.3136 9.78932C13.7436 10.1313 11.5457 10.7725 11.0327 10.7868C10.5233 10.8224 9.00216 11.0789 8.48918 11.1786C8.00114 11.2748 8.52837 10.7547 8.6673 10.7868M8.13295 12.3898C7.95839 12.3257 8.34312 11.6132 9.91055 11.6845C11.4994 11.7379 13.2342 10.8473 13.2342 10.8473C14.3136 10.0992 14.9406 10.0992 15.1864 10.1562C15.4322 10.1919 16.0022 10.0707 16.0022 10.0707C16.2729 9.93894 16.1731 10.0316 16.0983 10.2061C15.9879 10.3914 15.1009 10.5552 14.766 10.5873C14.4312 10.6229 13.9039 10.6372 13.7579 11.111C13.6261 11.5634 12.7391 11.6881 12.5075 11.6667C12.2973 11.6667 12.0551 11.5919 11.3996 11.9232C10.7441 12.2794 8.08663 12.9562 8.0332 12.8779C7.99045 12.7888 9.08053 12.3756 9.52582 12.258C9.98892 12.144 10.167 12.0407 9.91055 12.0194C9.4332 11.9766 8.89172 12.2224 8.46068 12.3115C8.3075 12.3471 8.13295 12.397 8.13295 12.397M8.04389 10.5517C8.04389 10.5517 8.11513 10.4804 8.10088 10.5873C8.10088 10.5873 8.10088 10.7547 8.02964 10.7832C7.95483 10.8188 7.87646 11.0611 7.87646 11.1751C7.87646 11.314 7.82658 11.7522 7.73753 11.7949C7.63422 11.8377 7.63422 11.8769 7.68053 11.6916C7.73753 11.4886 7.84796 10.8687 8.04389 10.5481M14.8658 12.3613C14.7268 12.4504 14.6378 12.7211 14.7055 13.1629C14.734 13.5939 14.5879 13.5013 14.5131 13.7186C14.4169 13.9501 14.0607 14.0819 14.0215 13.9501C13.9823 13.8255 14.1782 13.5939 14.3243 13.4835C14.4703 13.3445 14.6378 13.0631 14.5879 12.6606C14.5594 12.2616 14.8943 12.1868 14.8943 12.1868C15.019 12.1369 14.9584 12.2972 14.8658 12.3613ZM9.64694 13.5832C8.16144 14.2173 7.65203 14.3135 7.68053 13.8468C7.73753 13.3944 8.46781 13.2234 8.74567 13.3445C9.01997 13.4835 10.0566 13.0097 10.7406 12.7853C11.4281 12.5644 11.4281 12.828 11.3818 13.145C11.3355 13.4407 13.0419 12.7603 13.8291 11.8448C14.6378 10.8972 15.2861 11.1679 15.2861 11.1679C15.507 11.3211 15.1864 11.4316 14.7482 11.5562C14.3243 11.6596 14.0357 12.3934 13.9823 12.8743C13.9467 13.3624 13.8291 13.2662 13.48 13.4799C13.1452 13.683 13.2342 13.7613 12.9492 13.9181C12.6785 14.0713 12.9706 13.5227 13.4301 13.1664C13.9039 12.8173 13.5905 12.8636 13.1309 12.9277C12.6785 12.9634 12.7391 13.0168 12.6642 13.4015C12.5787 13.7649 12.105 14.1283 11.6668 14.1283C11.2251 14.1211 8.96297 14.6234 8.19351 15.1257C7.3991 15.6209 8.08307 14.3919 8.41081 14.5201C8.74567 14.6519 10.4449 13.9893 11.1217 13.6616C11.8057 13.3339 11.1217 12.9527 9.64694 13.5868M8.46068 16.198C8.00114 16.344 8.36806 15.9664 8.36806 15.9664C8.36806 15.9664 8.6388 16.0234 9.18384 15.4855C9.69325 14.9227 11.909 14.5379 11.909 14.5379C12.3828 14.5379 10.6123 15.3323 10.1029 15.4321C9.56857 15.5354 8.90597 16.0305 8.46068 16.198ZM8.81691 16.7608C8.81691 16.7608 8.60674 16.7537 8.74567 16.6896C8.75992 16.6682 8.77417 16.6682 8.81691 16.654C8.83116 16.6112 8.83116 16.5863 8.84541 16.5578C8.90954 16.312 9.7645 16.0697 10.078 16.0982C10.3772 16.1196 11.4815 15.6707 11.8342 15.2896C12.2047 14.9155 12.3508 14.8443 12.3508 14.8443C12.7355 14.6484 12.1548 15.4285 12.105 15.5674C12.0444 15.6921 11.5849 16.0982 11.1431 16.0982C10.7014 16.0982 9.736 16.5364 9.29071 16.8285C8.96297 17.0494 8.83116 16.9318 8.81691 16.7608ZM21.4988 12.8494C21.6164 12.885 21.5523 13.1415 21.4775 13.3018C21.4027 13.455 21.0821 13.9929 20.4729 13.373C19.8673 12.7746 19.6607 12.885 19.4576 12.9812C19.2617 13.0809 19.0622 13.0809 19.2617 12.8565C19.4505 12.6428 19.9243 12.6214 20.0917 12.7817C20.2449 12.9562 20.7187 13.3196 20.9787 13.3267C21.2139 13.3267 21.2566 13.113 21.3314 12.9919C21.3314 12.9919 21.3884 12.8173 21.4988 12.8458M21.5345 14.2351C21.7696 14.3562 21.9299 15.0082 21.4027 15.4321C20.8719 15.8702 20.6225 16.4438 20.3233 16.8962C19.9884 17.3522 20.1345 16.7644 20.1345 16.7644C20.0775 16.1909 20.4693 15.8239 20.6795 15.7242C20.8933 15.5853 21.4917 14.5664 21.3421 14.3099C21.1996 14.0392 21.3207 14.1211 21.5309 14.2387M20.1915 15.6102C19.9528 15.8132 18.6276 16.4402 18.9767 17.2774C19.3187 18.1466 19.3757 18.1466 19.3543 18.4814C19.3543 18.4814 19.3543 18.8092 19.0907 18.8305C18.8164 18.8662 18.4922 18.5242 18.1609 18.2178C17.7976 17.9115 17.1029 17.6051 17.0388 17.0957C16.9961 16.5649 16.8357 16.3476 17.0744 16.1517C17.3095 15.9308 17.4307 15.5211 17.7976 15.6173C18.1894 15.7099 18.1609 14.83 18.8841 14.6626C19.6072 14.5166 20.5691 14.0962 20.6759 14.6626C20.8006 15.2326 20.3197 14.969 20.0704 14.9155C19.8174 14.8728 18.4709 15.0402 18.5991 15.913C18.7024 16.7573 18.8627 15.913 19.0729 15.7099C19.2866 15.4998 20.0525 15.1791 20.2983 15.2076C20.5513 15.2433 20.4658 15.4036 20.195 15.6066M14.0607 17.402C13.7864 17.5054 13.7401 17.5766 13.6759 17.7583C13.6261 17.972 13.48 18.2819 13.2342 18.3568C12.9706 18.4529 13.1024 18.656 12.5324 18.9837C11.9981 19.2972 12.1976 19.3613 11.7915 19.4718C11.3533 19.5751 11.5279 19.4718 11.6454 19.4148C11.7915 19.372 12.3187 19.0336 12.4042 18.8982C12.4861 18.7522 13.0312 17.2809 14.0072 17.0636C14.0072 17.0636 14.5594 16.9389 14.5594 17.0779C14.5879 17.2026 14.3279 17.3201 14.0642 17.4056M13.8434 19.6748C13.4159 19.8138 13.6759 19.397 14.1355 19.1227C14.5879 18.8448 14.8195 18.3354 14.8765 18.1466C14.937 17.972 15.3004 17.345 15.5177 17.3166C15.7492 17.2809 16.2907 16.8855 16.2658 16.6682C16.2658 16.4616 15.9701 16.5863 15.7492 16.6112C15.5604 16.6468 15.2398 16.711 14.6698 16.654C14.6698 16.654 13.3162 16.4509 14.6128 16.2906C15.8882 16.1303 15.6602 16.1303 15.8882 16.027C16.1268 15.9308 16.2871 15.9094 16.3762 16.4723C16.4795 17.0494 16.362 17.3878 15.9024 17.7262C15.4571 18.0611 15.1828 18.2855 15.0296 18.5277C14.8907 18.8056 14.2637 19.543 13.8398 19.6784M15.1472 21.7445C15.0938 22.1008 12.4363 22.2682 12.219 22.3216C11.9838 22.3858 11.5136 22.2682 12.7497 21.8977C13.9146 21.5379 15.1472 21.7445 15.1472 21.7445ZM16.5971 17.9898C16.5828 18.2321 16.4938 18.4494 15.8561 18.8626C15.1864 19.2865 15.1401 19.5216 14.791 19.6641C14.4561 19.8102 14.3813 19.8529 14.4419 19.7532C14.4419 19.7532 15.3253 19.1333 15.4464 18.9232C15.564 18.7023 15.8917 18.5812 15.906 18.4921C15.9558 18.3888 16.5971 17.7191 16.5971 17.9863M16.5543 18.9552C16.5971 18.656 16.8607 19.0336 16.8607 19.0336C16.9711 19.2295 16.6861 19.4646 16.5721 19.8494C16.4688 20.2448 15.9095 20.74 15.653 20.74C15.3966 20.74 14.9584 20.8255 14.7055 20.9359C14.4276 21.0392 13.7436 21.0071 14.7126 20.74C15.6673 20.4763 14.4846 20.6509 14.367 20.6865C14.2637 20.6936 13.5085 21.0071 14.4917 20.4763C15.564 19.8707 14.994 20.2448 15.8098 19.8351C16.6327 19.4255 16.4938 19.2295 16.5508 18.9517M13.0703 23.3405C13.4765 23.3262 13.5441 23.0733 13.252 23.0662C12.9457 23.0448 12.7177 23.198 12.5146 23.255C12.3508 23.3298 12.3116 23.3583 12.3508 23.1695C12.4006 22.9415 13.5085 22.8916 13.9075 22.8916C14.3065 22.8916 14.6698 22.6814 14.8622 22.5425C15.0154 22.3751 15.4001 22.3252 15.3716 22.5496C15.3716 22.7527 14.5843 23.0092 14.5843 23.0092C13.7187 23.2122 14.0179 23.3583 14.0179 23.3583C14.0179 23.3583 14.4169 23.5756 15.0795 23.1695C15.621 22.8489 15.5034 23.0305 15.2826 23.255C15.051 23.4758 14.0571 23.5827 14.0571 23.5827C14.0571 23.5827 13.651 23.4082 13.505 23.4082C13.3767 23.4082 12.7319 23.629 12.5111 23.5613C12.308 23.4901 12.6571 23.3583 13.0668 23.3405M8.83116 18.5313C8.27188 17.7227 10.5945 16.7074 11.1859 16.6112C11.7523 16.5008 11.4815 16.654 11.4388 16.8285C11.396 16.9888 12.7497 16.711 13.0703 16.0697C13.3767 15.4356 14.0892 15.2041 14.1497 15.2041C14.221 15.2041 15.0332 15.197 15.3217 15.0723C15.5889 14.9405 16.3726 14.7517 16.5828 14.7232C16.8251 14.6947 17.4342 14.5272 17.7798 14.0356C18.1146 13.4977 18.8449 13.797 19.0337 13.8255C19.2225 13.8468 19.7782 13.626 18.9447 13.4977C18.1146 13.3944 18.3319 13.4763 18.3854 13.3018C18.453 13.0881 19.251 13.1985 19.7925 13.4763C20.3304 13.7578 19.5039 13.9501 18.991 14.0428C18.4815 14.1389 18.2179 14.2102 17.8154 14.6484C17.3986 15.1079 16.1589 15.3608 15.3574 15.3608C14.5558 15.3608 13.6439 15.9664 13.1345 16.5613C12.6251 17.1669 11.7594 17.2239 11.7594 17.2239C10.8296 17.2097 11.3604 17.7191 11.592 17.7191C11.8128 17.7476 12.2261 17.6015 12.4897 17.4341C12.7462 17.2667 12.8174 17.3985 12.5859 17.7191C12.3614 18.054 11.9375 18.6453 11.9375 18.6453C11.1966 19.9776 9.63982 20.145 9.49732 19.9349C9.33702 19.7247 9.32277 19.511 9.65763 19.511C10.9258 19.5038 11.6525 18.6524 11.5385 18.3959C11.4067 18.1395 10.452 19.0265 9.73244 19.2758C9.01284 19.5323 9.09121 19.3257 9.33702 19.2224C9.61488 19.1084 10.167 18.5883 10.167 18.4031C10.167 18.2178 10.3879 17.7975 10.648 17.5481C10.8866 17.3237 11.2749 17.1099 10.9258 17.1099C10.5767 17.1099 10.0067 17.6478 9.70038 18.1751C9.36552 18.713 9.15534 19.0265 8.84185 18.5242M7.39554 23.116C7.39554 23.116 6.57264 24.5944 6.77569 24.915C6.77569 24.915 6.73295 25.5171 7.28511 24.541C7.83727 23.5578 8.32531 23.0626 8.43574 23.2514C8.54618 23.4331 7.7589 25.2463 8.74211 25.6845C9.71819 26.1369 10.1599 25.2036 10.6943 24.8545C11.1966 24.5054 11.51 24.0529 11.7131 24.2524C11.8734 24.4733 11.6739 24.5445 11.4352 24.6692C11.1859 24.7903 10.9116 24.8367 10.9828 25.5064C11.0719 26.1939 11.8734 25.973 11.9945 26.0015C12.137 26.0229 13.22 25.7094 13.3874 26.2545C13.5833 26.7995 14.1319 26.2723 14.8159 26.4789C15.5319 26.6748 18.6704 27.8219 20.2307 29.9415C20.2307 29.9415 20.4729 30.4652 20.8363 29.7954C21.1996 29.1257 23.7324 23.9568 24.0566 23.7252C24.4057 23.4723 24.4556 23.2657 24.9009 23.1944C25.3391 23.1125 25.3675 22.8417 25.6953 22.7776C26.0373 22.7277 27.0419 22.1649 27.195 21.1247C27.3268 20.0916 26.967 19.9812 26.9457 19.6392C26.9243 19.283 26.9457 19.1725 27.0846 19.1654C27.2307 19.1369 27.537 18.9517 27.3767 18.5242C27.1986 18.1252 27.4943 17.8402 27.391 17.6728C27.2805 17.5054 27.1487 17.2774 27.1487 17.2774C27.1487 17.2774 26.9457 16.9568 27.3767 16.7537C27.8006 16.5578 28.3528 16.515 28.5202 16.2799C28.6734 16.027 28.6592 15.7705 28.1925 15.2076C27.7258 14.659 27.1487 13.8682 27.0205 13.6616C26.8958 13.4585 26.5039 12.7817 26.4505 12.6285C26.3864 12.4682 26.2902 11.7201 26.1299 11.5634C25.966 11.4422 24.8118 10.4947 24.7406 10.1277C24.6693 9.74301 24.6693 9.03411 24.8118 8.75981C24.9579 8.48907 24.9009 8.10434 24.7263 7.73029C24.5518 7.36693 24.3131 6.47278 23.5223 6.47278C22.7314 6.47278 22.9309 6.25904 22.9024 6.08449C22.9024 6.08449 22.824 5.93131 22.5747 6.00612C22.3217 6.06312 21.62 6.0738 21.5487 5.96337C21.4775 5.85294 20.4836 5.27228 19.7569 5.97762C19.0266 6.70077 17.9472 6.55472 17.8546 6.33029C17.7513 6.1023 16.2907 4.63105 15.019 6.26261C15.019 6.26261 14.905 6.50128 14.1818 6.45141C13.4729 6.40866 10.7513 6.89314 10.5304 7.7196C10.5304 7.7196 10.3701 8.03665 9.83218 8.42138C9.28358 8.81324 5.82455 10.7476 8.18638 18.5064C8.18638 18.5064 9.10546 20.2234 9.47951 20.5262C9.87493 20.8112 10.2988 21.545 10.3095 21.7196C10.3167 21.9227 10.5055 22.0046 10.8154 22.0473C10.8154 22.0473 11.1859 22.0473 10.8368 22.3751C10.5019 22.7171 10.1243 23.8891 9.88918 23.6931C9.68613 23.4509 9.85356 22.514 9.30852 22.2931C8.75279 22.0652 8.63167 21.4346 6.29834 22.3715C6.29834 22.3715 7.28155 22.9201 7.39198 23.116" fill="currentColor"></path>
    <path d="M7.8765 11.1822C7.8765 11.3211 7.82663 11.7593 7.73757 11.802C7.63426 11.8448 7.63426 11.884 7.68057 11.6987C7.73757 11.4957 7.86938 10.8758 8.04393 10.5552C8.04393 10.5552 8.11518 10.484 8.10093 10.5908C8.10093 10.5908 8.10093 10.7583 8.02968 10.7868C7.95488 10.8224 7.8765 11.0646 7.8765 11.1786" fill="currentColor"></path>
    <path d="M8.74572 16.6896C8.75997 16.6682 8.77422 16.6682 8.81697 16.6539V16.7608C8.81697 16.7608 8.60679 16.7537 8.74572 16.6896Z" fill="currentColor"></path>
    <path d="M19.5856 26.4432C19.5856 26.4432 19.6212 26.4432 19.7387 26.5822C19.81 26.6677 20.0522 26.9455 20.095 27.2376C20.1662 27.6829 20.2695 27.601 20.3265 28.1247C20.3835 28.6661 20.3408 29.0153 20.1734 28.9191C19.9774 28.8621 20.0807 28.6341 20.0807 28.431C20.0807 28.228 19.9917 27.886 19.8314 27.7471C19.6568 27.6224 19.6283 27.4834 19.6568 27.3659C19.6711 27.2376 19.6924 27.0773 19.6212 26.9812C19.4751 26.8351 19.4751 26.6071 19.4609 26.543C19.4538 26.4753 19.4609 26.4112 19.5856 26.4397" fill="currentColor"></path>
    <path d="M19.1832 25.1323C19.1832 25.4351 19.2794 25.7308 19.3756 25.827C19.4789 25.9196 19.6036 25.9196 19.5288 26.0015C19.5288 26.0015 19.315 26.2723 19.1333 26.0229C18.973 25.7379 18.77 24.9364 18.9018 24.9364C19.0478 24.9364 19.1832 24.8438 19.1832 25.1323Z" fill="currentColor"></path>
    <path d="M17.7547 17.4911C17.7761 17.2488 17.9079 17.2773 17.9079 17.3486C17.9079 17.4163 17.7761 17.5516 18.2606 17.402C18.6987 17.2488 18.3461 16.9282 18.2107 16.9282C18.0504 16.9282 18.0005 16.9354 18.0005 16.7608C18.0005 16.5862 17.7796 16.5577 17.7654 16.857C17.7583 17.1705 17.744 17.3522 17.5018 17.0743C17.2774 16.7893 17.4341 16.0911 17.8366 15.9949C18.2285 15.9308 18.0255 16.3084 18.5135 16.8855C19.0087 17.4376 18.5919 17.8331 18.5919 17.8331C17.9043 18.2855 17.7191 17.7333 17.7547 17.4911Z" fill="currentColor"></path>
    <path d="M24.3309 14.2565C24.5411 14.4168 24.4983 13.6153 24.5696 13.455C24.6266 13.3018 24.4947 13.2377 24.3416 13.0916C24.1955 12.9812 24.0566 13.1201 23.825 13.3481C23.5863 13.5761 23.6861 13.1201 23.768 13.1201C23.8571 13.1201 24.0103 13.1807 24.0103 12.9313C24.0103 12.6819 24.6301 12.4219 24.6301 12.4219C26.0301 12.1583 26.422 13.626 26.422 13.626C26.422 14.0107 26.1797 13.5013 26.0123 13.4122C25.8235 13.3089 25.6988 13.4122 25.6062 13.2662C25.51 13.0916 25.2179 12.8244 24.8047 12.8244C24.3665 12.8244 24.6301 13.0845 25.0006 13.1807C25.3711 13.2662 25.2856 13.5013 25.2856 13.683C25.2856 13.8646 25.168 13.5761 25.0398 13.4158C24.908 13.2697 24.6764 13.5405 24.6301 14.0392C24.6016 14.545 24.2881 14.456 24.0601 14.3242C23.8571 14.1852 23.5935 14.2957 23.3014 14.4132C22.9808 14.5237 23.0342 14.2814 23.2515 14C23.4688 13.7079 24.1029 14.0855 24.3309 14.2636" fill="currentColor"></path>
    <path d="M8.81689 16.6539C8.93445 16.6254 9.03776 16.6539 8.81689 16.7608V16.6539Z" fill="white"></path>
    <path d="M24.4094 14.6982C24.5412 14.602 24.8012 14.5522 24.7015 14.4524C24.6303 14.3277 24.7585 14.3206 24.9046 14.3277C25.072 14.3562 25.1361 14.2102 25.1539 14.0784C25.1824 13.9359 25.2252 13.8254 25.2252 13.8254C25.3427 13.7186 25.3427 14.1176 25.2252 14.3883C25.1539 14.6519 24.73 14.7517 24.4593 14.8478C24.2135 14.944 24.2705 14.7908 24.4094 14.7018" fill="currentColor"></path>
</svg>