<?xml version="1.0" encoding="UTF-8"?>
<svg xmlns="http://www.w3.org/2000/svg" version="1.1" viewBox="0 0 455.99 281.14">
  <defs>
    <style>
      .cls-1 {
        fill: #139bba;
      }

      .cls-2 {
        fill: #faca23;
      }
    </style>
  </defs>
  <!-- Generator: Adobe Illustrator 28.7.0, SVG Export Plug-In . SVG Version: 1.2.0 Build 136)  -->
  <g>
    <g id="Layer_1">
      <g>
        <path class="cls-1" d="M118.71,238.81c11.77-26.56,23.11-52.13,34.44-77.71,22.19-50.11,44.38-100.21,66.56-150.32,2.11-4.77,5.16-8.69,10.93-7.41,5.68,1.25,7.89,5.82,7.91,11.31.06,25.18.1,50.36-.08,75.53-.02,2.65-.8,6.23-2.6,7.71-2.47,2.03-6.85,4.07-9.3,3.14-2.76-1.04-5.79-5.24-6.05-8.29-.79-9.18-.28-18.46-.28-27.71-.55-.11-1.1-.23-1.64-.34-.9,1.8-1.87,3.57-2.68,5.4-29.1,65.63-58.19,131.26-87.25,196.9-2.06,4.66-3.9,9.52-10.12,9.59-6.29.06-8.13-4.89-10.15-9.52-28.84-66.1-57.68-132.21-86.52-198.31-.39-.89-.9-1.73-2.23-4.27,0,3.37,0,5.04,0,6.72,0,64.86,0,129.73,0,194.59,0,9.65-3.73,15.41-9.87,15.3-6-.11-9.61-5.75-9.61-15.08,0-82.54,0-165.08.02-247.61,0-1.99-.56-4.56.43-5.87,2.44-3.19,5.18-7.05,8.64-8.3,4.39-1.59,7.59,2.03,9.43,6.24,10.53,24.12,21.12,48.21,31.65,72.33,22,50.37,43.98,100.75,65.97,151.13.58,1.34,1.31,2.62,2.43,4.84Z"/>
        <path class="cls-1" d="M289.18,157.47c-3.5-.03-6.99-.08-10.49-.09-8.8-.03-13.42-4.24-13.5-12.33-.09-8.43,4.41-12.54,13.73-12.54,49.5,0,99.01,0,148.51,0,9.45,0,10.52-.8,8.75-10.05-5.78-30.25-18.87-56.49-43.36-76.08-12.98-10.38-27.66-17.26-44.08-20.13-5.27-.92-10.64-1.39-15.99-1.8-6.78-.52-11.57-5.62-11.4-12.5.18-7.39,4.67-12.08,11.89-11.74,49.13,2.28,83.17,27.76,106.04,69.84,8.34,15.35,13.34,31.95,15.21,49.37.77,7.2,1.71,14.46,1.48,21.66-1.1,34.13-10.28,65.66-32.61,92.16-23.56,27.97-52.99,44.93-90.49,45.52-6.76.11-11.23-4.26-11.52-11.57-.29-7.1,4.08-12.74,10.44-12.75,49.21-.14,90.21-37.83,101.44-86.7.74-3.23,1.25-6.51,1.92-10.02-1.21-.19-2.15-.47-3.09-.47-40.34-.02-80.67-.02-121.01,0-.83,0-1.65.16-2.48.24-6.46,0-12.92-.01-19.39-.02Z"/>
        <path class="cls-2" d="M285.11,61.34c-6.21,13.01-12.44,26.01-18.64,39.03-26.54,55.76-53.07,111.52-79.61,167.27-3.89,8.17-8.13,10.8-13.44,8.49-5.91-2.57-8.1-10.91-4.6-18.33,7.09-15.06,14.31-30.06,21.46-45.09,32.55-68.38,65.11-136.76,97.61-205.17,2.27-4.78,5.16-8.5,10.96-7.32,5.84,1.18,8.07,5.8,8.05,11.17-.09,27.67-.33,55.33-.7,83-.08,6.16-4.63,10.85-9.65,10.83-5.2-.02-9.7-4.76-9.88-11.24-.24-8.99.02-18,.07-27,0-1.76,0-3.51,0-5.27l-1.63-.36Z"/>
        <path class="cls-2" d="M289.18,157.47c6.46,0,12.92.01,19.39.02,0,34.5,0,69,0,103.5,0,1.33,0,2.67,0,4-.09,7.54-4.12,12.96-9.63,12.97-5.48.01-9.71-5.45-9.72-12.99-.05-35.83-.02-71.66-.02-107.49Z"/>
      </g>
    </g>
  </g>
</svg>