<svg width="584" height="167" viewBox="0 0 584 167" fill="none" xmlns="http://www.w3.org/2000/svg">
<path d="M103.5 63.3888C107.7 67.5888 110.1 72.4888 111 78.3888L122.5 66.3888L152.5 36.3888L130 13.8888L99.0005 44.8888V0.888798L67.0005 0.888672L66.4004 59.8888C77.7004 51.7888 93.6005 53.5888 103.5 63.3888Z" fill="#00D1FF"/>
<path d="M111 88.8887C108.6 104.289 94.1 114.889 78.7 112.389C74.3 111.689 70.1 111.589 66.5 108.889L67 165.389H99V121.889L130 152.889L152 130.389L123.2 100.989L111 88.8887Z" fill="#00D1FF"/>
<path d="M111 87.8887C108.5 103.289 94 113.889 78.5 111.389C63.1 108.889 52.5 94.3887 55 78.8887C56 72.9887 58.8 67.4887 62.9 63.2887C64 62.1887 65.1 61.2887 66.3 60.3887C78.9 51.1887 96.6 53.9887 105.8 66.5887C108.4 70.1887 110.2 74.3887 110.9 78.8887L123 66.7887L153.4 36.3887L130 12.9887L99.6 43.2887V0.388672H66.4V43.2887L36.1 12.9887L12.6 36.4887L43 66.8887H0V100.089H42.9L12.6 130.389L36.1 153.889L66.5 123.489V166.389H99.7V123.489L130.1 153.889L153.6 130.389L123.2 99.9887L111 87.8887ZM104.2 47.7887L130.1 21.8887L144.6 36.3887L118.7 62.3887L113.8 67.2887C112.1 64.1887 110.1 61.3887 107.6 58.8887C105.1 56.3887 102.3 54.2887 99.3 52.6887L104.2 47.7887ZM93.3 6.78867V50.3887C86.6 48.3887 79.5 48.3887 72.8 50.3887V6.68867C72.8 6.68867 93.3 6.68867 93.3 6.78867ZM21.6 36.4887L36.1 21.9887L60.1 45.9887V57.3887C59.5 57.8887 59 58.3887 58.5 58.8887C56 61.3887 53.9 64.1887 52.3 67.2887L47.4 62.3887L21.6 36.4887ZM6.4 93.6887V73.1887H50C48 79.8887 48 86.9887 50 93.6887C49.9 93.6887 6.3 93.6887 6.4 93.6887ZM60.1 120.889L36 144.889L21.5 130.389L47.4 104.589L52.3 99.6887C54 102.789 56 105.589 58.5 107.989C59 108.489 59.5 108.989 60.1 109.489V120.889ZM93.3 123.489V160.089H72.7V116.489C79.4 118.489 86.5 118.489 93.2 116.489L93.3 123.489ZM130 144.889L104.2 118.989L99.3 114.089C105.5 110.789 110.5 105.789 113.8 99.5887L118.7 104.489L144.6 130.389L130 144.889Z" fill="black"/>
<path d="M166.4 55.8887C166.4 44.0887 173.6 36.3887 184.3 36.3887C195 36.3887 202.2 44.1887 202.2 55.8887C202.2 67.5887 195 75.3887 184.3 75.3887C173.6 75.2887 166.4 67.5887 166.4 55.8887ZM195.4 55.8887C195.4 47.7887 191.1 42.6887 184.2 42.6887C177.3 42.6887 173 47.6887 173 55.8887C173 63.9887 177.3 68.9887 184.2 68.9887C191.1 68.9887 195.4 63.8887 195.4 55.8887Z" fill="black"/>
<path d="M234.401 61.2883C234.401 69.8883 229.701 74.9883 223.201 74.9883C220.201 74.9883 217.201 73.7883 215.601 71.7883V85.3883H209.201V48.0883H215.601V50.6883C217.401 48.3883 220.401 47.4883 223.201 47.4883C230.501 47.4883 234.401 53.3883 234.401 61.2883ZM228.001 61.2883C228.001 56.0883 226.001 53.1883 221.701 53.1883C217.001 53.1883 215.001 56.5883 215.001 61.2883C215.001 65.8883 217.001 69.4883 221.601 69.4883C225.901 69.3883 228.001 66.3883 228.001 61.2883Z" fill="black"/>
<path d="M263.5 63.3889H245.4C245.7 66.8889 247.8 69.1889 252 69.1889C254.4 69.1889 256.5 68.3889 258.3 66.3889L262.8 70.2889C259.9 73.4889 256.4 75.0889 252 75.0889C242.9 75.0889 239 68.4889 239 61.4889C239 54.5889 242.8 47.5889 251.6 47.5889C259.8 47.5889 263.8 53.6889 263.8 60.9889C263.6 61.7889 263.6 62.5889 263.5 63.3889ZM257.4 58.2889C257.3 54.8889 254.7 52.8889 251.3 52.8889C247.4 52.8889 245.6 55.6889 245.2 58.2889H257.4Z" fill="black"/>
<path d="M294.8 57.4889V74.5889H288.4V59.0889C288.4 57.2889 288.4 53.1889 283.5 53.1889C277.5 53.1889 277.5 59.2889 277.5 63.9889V74.5889H271V48.0889H277.4V51.1889C279.3 48.6889 282.2 47.5889 285.4 47.5889C291.4 47.4889 294.8 51.1889 294.8 57.4889Z" fill="black"/>
<path d="M343.101 74.4889L332.001 55.8889L324.901 63.0889V74.4889H318.201V37.0889H324.901V54.6889L341.701 37.0889H350.501L336.601 51.2889L350.901 74.5889L343.101 74.4889Z" fill="black"/>
<path d="M379.302 57.4889V74.5889H372.902V59.0889C372.902 57.2889 372.902 53.1889 368.002 53.1889C362.002 53.1889 362.002 59.2889 362.002 63.9889V74.5889H355.602V48.0889H362.002V51.1889C363.902 48.6889 366.802 47.5889 370.002 47.5889C375.902 47.4889 379.302 51.1889 379.302 57.4889Z" fill="black"/>
<path d="M381.9 61.2889C381.9 53.7889 386.9 47.5889 395.2 47.5889C403.4 47.5889 408.5 53.7889 408.5 61.2889C408.5 68.7889 403.4 75.0889 395.2 75.0889C387 75.0889 381.9 68.6889 381.9 61.2889ZM402 61.2889C402 56.9889 400.1 53.1889 395.2 53.1889C390.3 53.1889 388.4 56.9889 388.4 61.2889C388.4 65.5889 390.3 69.4889 395.2 69.4889C400.1 69.4889 402 65.5889 402 61.2889Z" fill="black"/>
<path d="M411.301 48.0889H418.201L422.701 64.6889L427.701 48.0889H433.201L438.201 64.5889L442.801 48.0889H449.701L441.501 74.5889H435.701L430.501 57.2889L425.301 74.5889H419.501L411.301 48.0889Z" fill="black"/>
<path d="M455.701 68.1889V37.0889H462.101V67.7889C462.101 68.9889 462.801 69.4889 464.001 69.4889C464.601 69.4889 465.301 69.3889 466.001 69.1889V74.3889C464.601 74.8889 463.101 75.1889 461.901 75.1889C458.301 75.0889 455.701 72.8889 455.701 68.1889Z" fill="black"/>
<path d="M493.701 63.3889H475.601C475.901 66.8889 478.001 69.1889 482.201 69.1889C484.601 69.1889 486.701 68.3889 488.501 66.3889L493.001 70.2889C490.101 73.4889 486.601 75.0889 482.201 75.0889C473.101 75.0889 469.201 68.4889 469.201 61.4889C469.201 54.5889 473.001 47.5889 481.801 47.5889C490.001 47.5889 494.001 53.6889 494.001 60.9889C493.901 61.7889 493.801 62.5889 493.701 63.3889ZM487.701 58.2889C487.601 54.8889 485.001 52.8889 481.601 52.8889C477.701 52.8889 475.901 55.6889 475.501 58.2889H487.701Z" fill="black"/>
<path d="M524.3 37.0889V74.4889H517.9V71.8889C516.1 74.1889 513.1 75.0889 510.3 75.0889C503.1 75.0889 499.1 69.1889 499.1 61.2889C499.1 52.6889 503.8 47.5889 510.3 47.5889C513.3 47.5889 516.3 48.7889 517.9 50.7889V37.0889H524.3ZM518.5 61.2889C518.5 56.8889 516.5 53.3889 511.9 53.3889C507.6 53.3889 505.6 56.3889 505.6 61.2889C505.6 66.1889 507.6 69.0889 511.9 69.0889C516.5 69.0889 518.5 65.6889 518.5 61.2889Z" fill="black"/>
<path d="M555.6 78.0891C555.6 83.5891 550.6 85.9891 543.4 85.9891C535.5 85.9891 531 83.0891 531 77.5891C531 76.9891 531.1 76.6891 531.1 76.3891L534.9 73.9891C533 72.9891 531.7 71.2891 531.7 68.5891C531.7 66.2891 532.6 64.5891 534.2 63.2891C532.9 61.5891 532.1 59.4891 532.1 57.1891C532.1 51.4891 537 47.4891 542.9 47.4891C545.2 47.4891 547.4 48.0891 549.1 49.1891L553.1 45.7891L556.5 49.8891L552.7 52.9891C553.4 54.2891 553.8 55.8891 553.8 57.5891C553.8 63.4891 548.9 67.2891 543.1 67.2891C541.3 67.2891 539.6 66.8891 538 66.2891C537.5 66.5891 537.2 67.0891 537.2 67.6891C537.2 69.5891 539.9 70.1891 543.2 70.5891C548.6 71.1891 555.6 71.7891 555.6 78.0891ZM549.1 78.6891C549.1 76.6891 545.7 76.3891 541.9 75.8891L539.7 75.5891L537.4 77.7891C537.3 77.9891 537.3 78.0891 537.3 78.1891C537.3 80.4891 540.6 81.1891 543.6 81.1891C546.4 81.1891 549.1 80.5891 549.1 78.6891ZM538.5 57.3891C538.5 59.8891 540 61.9891 543 61.9891C546 61.9891 547.4 59.9891 547.4 57.3891C547.4 54.6891 545.7 52.8891 543 52.8891C540.3 52.8891 538.5 54.6891 538.5 57.3891Z" fill="black"/>
<path d="M583.4 63.3889H565.3C565.6 66.8889 567.7 69.1889 571.9 69.1889C574.3 69.1889 576.4 68.3889 578.2 66.3889L582.7 70.2889C579.8 73.4889 576.3 75.0889 571.9 75.0889C562.8 75.0889 558.9 68.4889 558.9 61.4889C558.9 54.5889 562.7 47.5889 571.5 47.5889C579.7 47.5889 583.7 53.6889 583.7 60.9889C583.6 61.7889 583.5 62.5889 583.4 63.3889ZM577.4 58.2889C577.3 54.8889 574.7 52.8889 571.3 52.8889C567.4 52.8889 565.6 55.6889 565.2 58.2889H577.4Z" fill="black"/>
<path d="M184.7 108.8H198.7V127.65H194.25L193.5 124.05C191.45 126.85 187.7 128.4 183.2 128.4C173.45 128.4 166 121.2 166 110.15C166 99.8 172.55 92 183 92C190.1 92 195.8 95.6 198.35 102.2L192.6 104.45C191.05 100.15 187.6 97.95 182.9 97.95C176.2 97.95 172.25 102.45 172.25 110.1C172.25 118.05 176.5 122.45 183.6 122.45C189.2 122.45 192.5 119.7 192.5 115V114.55H184.7V108.8Z" fill="black"/>
<path d="M217.994 102.5C219.644 102.5 221.094 102.9 222.694 103.9L219.794 109.2C218.944 108.65 217.994 108.35 216.794 108.35C213.144 108.35 211.344 110.6 211.344 115.25V127.65H205.344V103H211.394V107.2C212.444 104.15 215.194 102.5 217.994 102.5Z" fill="black"/>
<path d="M245.485 115C245.485 115.75 245.435 116.5 245.335 117.3H228.435C228.685 120.55 230.685 122.7 234.585 122.7C236.785 122.7 238.785 122 240.485 120.05L244.635 123.7C241.935 126.7 238.685 128.15 234.535 128.15C226.035 128.15 222.435 122.05 222.435 115.45C222.435 109 225.935 102.5 234.135 102.5C241.785 102.5 245.485 108.15 245.485 115ZM228.385 112.55H239.735C239.635 109.4 237.235 107.5 234.085 107.5C230.435 107.5 228.735 110.1 228.385 112.55Z" fill="black"/>
<path d="M271.412 115C271.412 115.75 271.363 116.5 271.263 117.3H254.363C254.613 120.55 256.612 122.7 260.512 122.7C262.712 122.7 264.712 122 266.412 120.05L270.562 123.7C267.863 126.7 264.613 128.15 260.463 128.15C251.963 128.15 248.363 122.05 248.363 115.45C248.363 109 251.863 102.5 260.062 102.5C267.712 102.5 271.412 108.15 271.412 115ZM254.312 112.55H265.662C265.562 109.4 263.163 107.5 260.013 107.5C256.363 107.5 254.662 110.1 254.312 112.55Z" fill="black"/>
<path d="M286.14 128.15C278.09 128.15 274.19 121.9 274.19 115.4C274.19 108.9 278.04 102.5 286.09 102.5C290.99 102.5 294.84 104.85 296.74 109.75L291.04 112C290.39 109.4 288.54 107.75 286.09 107.75C281.94 107.75 280.34 111.5 280.34 115.4C280.34 119.3 281.89 122.9 286.09 122.9C288.49 122.9 290.39 121.3 291.04 118.75L296.49 120.85C294.84 125.45 291.04 128.15 286.14 128.15Z" fill="black"/>
<path d="M321.803 115C321.803 115.75 321.753 116.5 321.653 117.3H304.753C305.003 120.55 307.003 122.7 310.903 122.7C313.103 122.7 315.103 122 316.803 120.05L320.953 123.7C318.253 126.7 315.003 128.15 310.853 128.15C302.353 128.15 298.753 122.05 298.753 115.45C298.753 109 302.253 102.5 310.453 102.5C318.103 102.5 321.803 108.15 321.803 115ZM304.703 112.55H316.053C315.953 109.4 313.553 107.5 310.403 107.5C306.753 107.5 305.053 110.1 304.703 112.55Z" fill="black"/>
</svg>
