<?xml version="1.0" encoding="UTF-8" standalone="no"?>
<!-- Generator: Adobe Illustrator 27.9.0, SVG Export Plug-In . SVG Version: 6.00 Build 0)  -->

<svg
   version="1.1"
   id="Layer_1"
   x="0px"
   y="0px"
   viewBox="0 0 89.950989 54.528092"
   xml:space="preserve"
   sodipodi:docname="ots-logo.svg"
   width="89.950989"
   height="54.528091"
   inkscape:version="1.4 (86a8ad7, 2024-10-11)"
   xmlns:inkscape="http://www.inkscape.org/namespaces/inkscape"
   xmlns:sodipodi="http://sodipodi.sourceforge.net/DTD/sodipodi-0.dtd"
   xmlns="http://www.w3.org/2000/svg"
   xmlns:svg="http://www.w3.org/2000/svg"><defs
   id="defs46" /><sodipodi:namedview
   id="namedview46"
   pagecolor="#ffffff"
   bordercolor="#666666"
   borderopacity="1.0"
   inkscape:showpageshadow="2"
   inkscape:pageopacity="0.0"
   inkscape:pagecheckerboard="0"
   inkscape:deskcolor="#d1d1d1"
   inkscape:zoom="3.7523021"
   inkscape:cx="-7.5953373"
   inkscape:cy="44.905766"
   inkscape:window-width="1920"
   inkscape:window-height="1017"
   inkscape:window-x="-8"
   inkscape:window-y="-8"
   inkscape:window-maximized="1"
   inkscape:current-layer="Layer_1" />
<style
   type="text/css"
   id="style1">
	.st0{fill:url(#SVGID_1_);}
	.st1{fill:url(#SVGID_00000062167751350879451340000008526989155128724917_);}
	.st2{fill:url(#SVGID_00000130634386826788310720000009125355601865289610_);}
	.st3{fill:url(#SVGID_00000160153589804989841860000005357910058469906318_);}
	.st4{fill:url(#SVGID_00000102516800538309103500000010818347738665708455_);}
	.st5{fill:url(#SVGID_00000021082156961215235540000005924119017192516007_);}
	.st6{fill:url(#SVGID_00000033348011076511827150000003518351907348377736_);}
	.st7{fill:url(#SVGID_00000143588518228646236370000010603601336770951047_);}
	.st8{fill:url(#SVGID_00000106855752955143048180000001897479333291594636_);}
	.st9{fill:url(#SVGID_00000008829854877611300950000016961925001045644439_);}
	.st10{fill:url(#SVGID_00000054250009304902627060000014606080020716737170_);}
	.st11{fill:url(#SVGID_00000101072833524955391740000011288911097260876194_);}
	.st12{fill:url(#SVGID_00000089573971198863825040000012491778360669686666_);}
	.st13{enable-background:new    ;}
	.st14{filter:url(#Adobe_OpacityMaskFilter);}
	.st15{mask:url(#SVGID_00000121248770828590184120000002746118963093785023_);enable-background:new    ;}
	.st16{fill:#211F20;}
	.st17{filter:url(#Adobe_OpacityMaskFilter_00000178187876909990003550000017680844762068802436_);}
	.st18{mask:url(#SVGID_00000122682981969882738270000002550027698691638161_);enable-background:new    ;}
	.st19{fill:#DA2027;}
	.st20{fill:#181315;}
	.st21{font-family:'PFBeauSansPro-Thin';}
	.st22{font-size:6.469px;}
</style>
<linearGradient
   id="SVGID_1_"
   gradientUnits="userSpaceOnUse"
   x1="-105.8758"
   y1="55.0541"
   x2="-104.8757"
   y2="55.0541"
   gradientTransform="matrix(49.1607,0,0,-49.2085,5224.4023,2750.2998)">
	<stop
   offset="0"
   style="stop-color:#181315"
   id="stop1" />
	<stop
   offset="0.5"
   style="stop-color:#FFFFFF"
   id="stop2" />
	<stop
   offset="1"
   style="stop-color:#181315"
   id="stop3" />
</linearGradient>
<polygon
   class="st0"
   points="67.4,40.1 68.6,42.3 19.5,42.3 20.8,40.1 "
   id="polygon3"
   style="fill:url(#SVGID_1_)"
   transform="translate(1.6775077)" />
<linearGradient
   id="SVGID_00000045591121949148246810000015736296174035671440_"
   gradientUnits="userSpaceOnUse"
   x1="-105.8304"
   y1="54.999298"
   x2="-104.8302"
   y2="54.999298"
   gradientTransform="matrix(45.3167,0,0,-45.3607,4817.2681,2532.6331)">
	<stop
   offset="0"
   style="stop-color:#181315"
   id="stop4" />
	<stop
   offset="0.5"
   style="stop-color:#FFFFFF"
   id="stop5" />
	<stop
   offset="1"
   style="stop-color:#181315"
   id="stop6" />
</linearGradient>
<polygon
   style="fill:url(#SVGID_00000045591121949148246810000015736296174035671440_)"
   points="65.4,36.7 66.7,38.9 21.4,38.9 22.7,36.7 "
   id="polygon6"
   transform="translate(1.6775077)" />
<linearGradient
   id="SVGID_00000114780974796653401100000001788617780921859733_"
   gradientUnits="userSpaceOnUse"
   x1="-105.7766"
   y1="54.9342"
   x2="-104.7765"
   y2="54.9342"
   gradientTransform="matrix(41.4712,0,0,-41.5115,4409.9668,2314.8806)">
	<stop
   offset="0"
   style="stop-color:#181315"
   id="stop7" />
	<stop
   offset="0.5"
   style="stop-color:#FFFFFF"
   id="stop8" />
	<stop
   offset="1"
   style="stop-color:#181315"
   id="stop9" />
</linearGradient>
<polygon
   style="fill:url(#SVGID_00000114780974796653401100000001788617780921859733_)"
   points="63.5,33.4 64.8,35.6 23.3,35.6 24.6,33.4 "
   id="polygon9"
   transform="translate(1.6775077)" />
<linearGradient
   id="SVGID_00000094580573451941637930000006834425251180663981_"
   gradientUnits="userSpaceOnUse"
   x1="-105.7111"
   y1="54.852299"
   x2="-104.7109"
   y2="54.852299"
   gradientTransform="matrix(37.5831,0,0,-37.6196,3998.2078,2094.6746)">
	<stop
   offset="0"
   style="stop-color:#181315"
   id="stop10" />
	<stop
   offset="0.5"
   style="stop-color:#FFFFFF"
   id="stop11" />
	<stop
   offset="1"
   style="stop-color:#181315"
   id="stop12" />
</linearGradient>
<polygon
   style="fill:url(#SVGID_00000094580573451941637930000006834425251180663981_)"
   points="61.6,30 62.9,32.3 25.3,32.3 26.5,30 "
   id="polygon12"
   transform="translate(1.6775077)" />
<linearGradient
   id="SVGID_00000161611663477728038840000016386513373022999465_"
   gradientUnits="userSpaceOnUse"
   x1="-105.6316"
   y1="54.755699"
   x2="-104.6316"
   y2="54.755699"
   gradientTransform="matrix(33.7388,0,0,-33.7716,3591.071,1876.9916)">
	<stop
   offset="0"
   style="stop-color:#181315"
   id="stop13" />
	<stop
   offset="0.5"
   style="stop-color:#FFFFFF"
   id="stop14" />
	<stop
   offset="1"
   style="stop-color:#181315"
   id="stop15" />
</linearGradient>
<polygon
   style="fill:url(#SVGID_00000161611663477728038840000016386513373022999465_)"
   points="59.7,26.7 60.9,28.9 27.2,28.9 28.4,26.7 "
   id="polygon15"
   transform="translate(1.6775077)" />
<linearGradient
   id="SVGID_00000111905619075014293270000017046269006179844226_"
   gradientUnits="userSpaceOnUse"
   x1="-105.5326"
   y1="54.639099"
   x2="-104.5326"
   y2="54.639099"
   gradientTransform="matrix(29.9382,0,0,-29.9673,3188.5234,1661.8627)">
	<stop
   offset="0"
   style="stop-color:#181315"
   id="stop16" />
	<stop
   offset="0.5"
   style="stop-color:#FFFFFF"
   id="stop17" />
	<stop
   offset="1"
   style="stop-color:#181315"
   id="stop18" />
</linearGradient>
<polygon
   style="fill:url(#SVGID_00000111905619075014293270000017046269006179844226_)"
   points="57.7,23.4 59,25.6 29.1,25.6 30.4,23.4 "
   id="polygon18"
   transform="translate(1.6775077)" />
<linearGradient
   id="SVGID_00000065774086328089745700000004432600561093625776_"
   gradientUnits="userSpaceOnUse"
   x1="-105.4033"
   y1="54.482899"
   x2="-104.4033"
   y2="54.482899"
   gradientTransform="matrix(26.0934,0,0,-26.1187,2781.3408,1444.1859)">
	<stop
   offset="0"
   style="stop-color:#181315"
   id="stop19" />
	<stop
   offset="0.5"
   style="stop-color:#FFFFFF"
   id="stop20" />
	<stop
   offset="1"
   style="stop-color:#181315"
   id="stop21" />
</linearGradient>
<polygon
   style="fill:url(#SVGID_00000065774086328089745700000004432600561093625776_)"
   points="55.8,20 57.1,22.3 31,22.3 32.3,20 "
   id="polygon21"
   transform="translate(1.6775077)" />
<linearGradient
   id="SVGID_00000075164248462603844720000008531295187932069550_"
   gradientUnits="userSpaceOnUse"
   x1="-105.2268"
   y1="54.2696"
   x2="-104.2264"
   y2="54.2696"
   gradientTransform="matrix(22.2049,0,0,-22.2265,2369.5032,1224.0344)">
	<stop
   offset="0"
   style="stop-color:#181315"
   id="stop22" />
	<stop
   offset="0.5"
   style="stop-color:#FFFFFF"
   id="stop23" />
	<stop
   offset="1"
   style="stop-color:#181315"
   id="stop24" />
</linearGradient>
<polygon
   style="fill:url(#SVGID_00000075164248462603844720000008531295187932069550_)"
   points="53.9,16.7 55.2,18.9 33,18.9 34.2,16.7 "
   id="polygon24"
   transform="translate(1.6775077)" />
<linearGradient
   id="SVGID_00000081609367971864091150000013344787783841204104_"
   gradientUnits="userSpaceOnUse"
   x1="-104.9792"
   y1="53.9641"
   x2="-103.9791"
   y2="53.9641"
   gradientTransform="matrix(18.3612,0,0,-18.379,1962.4064,1006.3034)">
	<stop
   offset="0"
   style="stop-color:#181315"
   id="stop25" />
	<stop
   offset="0.5"
   style="stop-color:#FFFFFF"
   id="stop26" />
	<stop
   offset="1"
   style="stop-color:#181315"
   id="stop27" />
</linearGradient>
<polygon
   style="fill:url(#SVGID_00000081609367971864091150000013344787783841204104_)"
   points="52,13.4 53.2,15.6 34.9,15.6 36.1,13.4 "
   id="polygon27"
   transform="translate(1.6775077)" />
<linearGradient
   id="SVGID_00000035516657855203446290000018253851986308955535_"
   gradientUnits="userSpaceOnUse"
   x1="-104.6"
   y1="53.504002"
   x2="-103.5996"
   y2="53.504002"
   gradientTransform="matrix(14.5162,0,0,-14.5303,1555.1875,788.5768)">
	<stop
   offset="0"
   style="stop-color:#181315"
   id="stop28" />
	<stop
   offset="0.5"
   style="stop-color:#FFFFFF"
   id="stop29" />
	<stop
   offset="1"
   style="stop-color:#181315"
   id="stop30" />
</linearGradient>
<polygon
   style="fill:url(#SVGID_00000035516657855203446290000018253851986308955535_)"
   points="50,10 51.3,12.3 36.8,12.3 38.1,10 "
   id="polygon30"
   transform="translate(1.6775077)" />
<linearGradient
   id="SVGID_00000087388367329969070230000015836029612409722021_"
   gradientUnits="userSpaceOnUse"
   x1="-103.9586"
   y1="52.735401"
   x2="-102.9584"
   y2="52.735401"
   gradientTransform="matrix(10.7163,0,0,-10.7267,1152.7452,573.4874)">
	<stop
   offset="0"
   style="stop-color:#181315"
   id="stop31" />
	<stop
   offset="0.5"
   style="stop-color:#FFFFFF"
   id="stop32" />
	<stop
   offset="1"
   style="stop-color:#181315"
   id="stop33" />
</linearGradient>
<polygon
   style="fill:url(#SVGID_00000087388367329969070230000015836029612409722021_)"
   points="48.1,6.7 49.4,8.9 38.7,8.9 40,6.7 "
   id="polygon33"
   transform="translate(1.6775077)" />
<linearGradient
   id="SVGID_00000124880046781713828360000010433542824853618831_"
   gradientUnits="userSpaceOnUse"
   x1="-102.5613"
   y1="51.0462"
   x2="-101.5613"
   y2="51.0462"
   gradientTransform="matrix(6.8271,0,0,-6.8337,740.8036,353.2997)">
	<stop
   offset="0"
   style="stop-color:#181315"
   id="stop34" />
	<stop
   offset="0.5"
   style="stop-color:#FFFFFF"
   id="stop35" />
	<stop
   offset="1"
   style="stop-color:#181315"
   id="stop36" />
</linearGradient>
<polygon
   style="fill:url(#SVGID_00000124880046781713828360000010433542824853618831_)"
   points="46.2,3.3 47.4,5.6 40.6,5.6 41.9,3.3 "
   id="polygon36"
   transform="translate(1.6775077)" />
<linearGradient
   id="SVGID_00000029034306123255439590000006306128358187542692_"
   gradientUnits="userSpaceOnUse"
   x1="-97.6035"
   y1="45.048401"
   x2="-96.6026"
   y2="45.048401"
   gradientTransform="matrix(2.9831,0,0,-2.986,333.6939,135.6317)">
	<stop
   offset="0"
   style="stop-color:#181315"
   id="stop37" />
	<stop
   offset="0.5"
   style="stop-color:#FFFFFF"
   id="stop38" />
	<stop
   offset="1"
   style="stop-color:#181315"
   id="stop39" />
</linearGradient>
<polygon
   style="fill:url(#SVGID_00000029034306123255439590000006306128358187542692_)"
   points="44.2,0 45.5,2.2 42.5,2.2 43.8,0 "
   id="polygon39"
   transform="translate(1.6775077)" />
<g
   class="st13"
   id="g43"
   transform="translate(1.6775077)">
	<defs
   id="defs39">
		<filter
   id="Adobe_OpacityMaskFilter"
   filterUnits="userSpaceOnUse"
   x="27.299999"
   y="17.6"
   width="32.900002"
   height="18">
			
				<feColorMatrix
   type="matrix"
   values="-1 0 0 0 1  0 -1 0 0 1  0 0 -1 0 1  0 0 0 1 0"
   color-interpolation-filters="sRGB"
   result="source"
   id="feColorMatrix39" />
			<feFlood
   result="back"
   id="feFlood39" />
			<feBlend
   in="source"
   in2="back"
   mode="normal"
   id="feBlend39" />
		</filter>
	</defs>
	
		<mask
   maskUnits="userSpaceOnUse"
   x="27.3"
   y="17.6"
   width="32.9"
   height="18"
   id="SVGID_00000083769740227580746770000017209961109050563231_">
		<g
   class="st14"
   id="g39">
			<rect
   x="-80.099998"
   y="-751.79999"
   width="595.70001"
   height="842.40002"
   id="rect39" />
		</g>
	</mask>
	<g
   style="enable-background:new"
   mask="url(#SVGID_00000083769740227580746770000017209961109050563231_)"
   id="g42">
		<g
   id="g41">
			<g
   id="g40">
				<path
   class="st16"
   d="m 31.6,32.3 h 1.5 V 20.9 H 31.6 Z M 30.1,17.6 h 4.3 l 2.8,2.6 v 13 l -2.7,2.5 H 30 l -2.7,-2.5 v -13 z m 9.3,0 h 8.9 v 3.3 H 46 V 35.6 H 41.7 V 20.9 H 39.3 Z M 56,20.9 h -1.7 v 3.7 l 3,0.3 2.9,2.7 v 5.6 l -2.8,2.5 H 52.8 L 50,33.1 v -3.2 h 4.3 v 2.4 H 56 v -3.8 l -3,-0.2 -2.9,-2.7 v -5.4 l 2.8,-2.6 h 4.3 l 2.9,2.6 v 3.2 H 56 Z"
   id="path39" />
			</g>
		</g>
	</g>
</g>
<g
   class="st13"
   id="g46"
   transform="translate(1.6775077)">
	<defs
   id="defs43">
		
			<filter
   id="Adobe_OpacityMaskFilter_00000040545607003162052010000008133596760601257652_"
   filterUnits="userSpaceOnUse"
   x="28.200001"
   y="16.799999"
   width="32.900002"
   height="18">
			
				<feColorMatrix
   type="matrix"
   values="-1 0 0 0 1  0 -1 0 0 1  0 0 -1 0 1  0 0 0 1 0"
   color-interpolation-filters="sRGB"
   result="source"
   id="feColorMatrix43" />
			<feFlood
   result="back"
   id="feFlood43" />
			<feBlend
   in="source"
   in2="back"
   mode="normal"
   id="feBlend43" />
		</filter>
	</defs>
	
		<mask
   maskUnits="userSpaceOnUse"
   x="28.2"
   y="16.8"
   width="32.9"
   height="18"
   id="SVGID_00000049214443770750732810000011928495890320781245_">
		<g
   style="filter:url(#Adobe_OpacityMaskFilter_00000040545607003162052010000008133596760601257652_)"
   id="g44">
			<rect
   x="-80.099998"
   y="-751.79999"
   width="595.70001"
   height="842.40002"
   id="rect43" />
		</g>
	</mask>
	<g
   style="enable-background:new"
   mask="url(#SVGID_00000049214443770750732810000011928495890320781245_)"
   id="g45">
		<path
   class="st19"
   d="m 32.4,31.5 h 1.5 V 20.1 H 32.4 Z M 30.9,16.8 h 4.3 l 2.9,2.6 v 13 l -2.7,2.5 h -4.6 l -2.7,-2.5 v -13 z m 9.3,0 h 8.9 v 3.3 H 46.8 V 34.8 H 42.5 V 20.1 h -2.4 z m 16.6,3.3 h -1.7 v 3.7 l 3,0.3 3,2.7 v 5.5 l -2.8,2.5 H 53.7 L 51,32.3 v -3.2 h 4.2 v 2.3 h 1.7 v -3.8 l -3,-0.2 -2.8,-2.7 v -5.5 l 2.8,-2.6 H 58 l 2.9,2.6 v 3.2 h -4.1 z"
   id="path44" />
	</g>
</g>
<polygon
   class="st19"
   points="49.6,50.1 52.2,51.4 49.6,52.8 "
   id="polygon46"
   transform="translate(1.6775077)" />
<path
   d="m 3.1757813,51.965559 q 0,0.556334 -0.414016,0.886253 -0.414016,0.32345 -1.1838269,0.32345 -0.142318,0 -0.336388,-0.01294 -0.187601,-0.01294 -0.39460903,-0.05175 -0.207008,-0.03881 -0.42048499,-0.103504 -0.207008,-0.07116 -0.39460899,-0.174663 -0.051752,-0.01941 -0.019407,-0.0841 l 0.08409699,-0.174663 q 0.025876,-0.04528 0.077628,-0.01941 0.155256,0.07763 0.336388,0.142318 0.18760099,0.05822 0.37520199,0.103504 0.18760103,0.03881 0.36873303,0.05822 0.181132,0.01941 0.329919,0.01941 0.2199459,0 0.4398919,-0.04528 0.226415,-0.04528 0.407547,-0.148787 0.181132,-0.103504 0.291105,-0.278167 0.116442,-0.174663 0.116442,-0.426954 0,-0.200539 -0.071159,-0.362264 -0.071159,-0.161725 -0.226415,-0.291105 -0.148787,-0.135849 -0.38814,-0.245822 -0.239353,-0.109973 -0.5692719,-0.207008 -0.375202,-0.109973 -0.64043103,-0.219946 -0.265229,-0.116442 -0.43342299,-0.252291 -0.168194,-0.142318 -0.245822,-0.32345 -0.077628,-0.187601 -0.077628,-0.439892 0,-0.252291 0.097035,-0.459299 0.097035,-0.207008 0.27816699,-0.355795 0.181132,-0.155256 0.43989203,-0.239353 0.265229,-0.0841 0.601617,-0.0841 0.2975739,0 0.6274929,0.05822 0.329919,0.05822 0.659838,0.226415 0.051752,0.01941 0.025876,0.07116 l -0.084097,0.187601 q -0.025876,0.03881 -0.06469,0.01941 -0.329919,-0.155256 -0.627493,-0.207008 -0.297574,-0.05822 -0.5433959,-0.05822 -0.213477,0 -0.407547,0.05175 -0.19407003,0.05175 -0.34285703,0.155256 -0.148787,0.103504 -0.239353,0.265229 -0.084097,0.155256 -0.084097,0.362264 0,0.219946 0.077628,0.362264 0.084097,0.142318 0.239353,0.252291 0.16172503,0.103504 0.38814003,0.187601 0.232884,0.07763 0.5239889,0.174663 0.342857,0.109973 0.608086,0.232884 0.265229,0.122911 0.446361,0.284636 0.181132,0.155256 0.271698,0.362264 0.097035,0.207008 0.097035,0.478706 z m 5.0393479,-0.666307 q 0,-0.355795 -0.051752,-0.614555 -0.045283,-0.25876 -0.168194,-0.426954 -0.122911,-0.174663 -0.32345,-0.25876 -0.200539,-0.0841 -0.498113,-0.0841 -0.252291,0 -0.523989,0.09057 -0.271698,0.09057 -0.543396,0.239353 0.084097,0.174663 0.122911,0.414016 0.045283,0.232884 0.045283,0.588679 v 1.804851 q 0,0.05175 -0.06469,0.05175 h -0.181132 q -0.058221,0 -0.058221,-0.05175 v -1.837196 q 0,-0.329919 -0.058221,-0.575741 -0.058221,-0.245822 -0.19407,-0.407547 -0.12938,-0.161725 -0.342857,-0.239353 -0.213477,-0.07763 -0.530458,-0.07763 -0.045283,0 -0.12938,0.0065 -0.084097,0 -0.19407,0.01294 -0.103504,0.0065 -0.226415,0.02588 -0.116442,0.01294 -0.2264149,0.03881 v 3.053368 q 0,0.05175 -0.06469,0.05175 h -0.181132 q -0.058221,0 -0.058221,-0.05175 v -2.956333 q 0,-0.187601 0.06469,-0.265229 0.06469,-0.0841 0.19407,-0.116442 0.077628,-0.01941 0.1811319,-0.03234 0.109973,-0.01294 0.219946,-0.01941 0.116442,-0.01294 0.219946,-0.01941 0.109973,-0.0065 0.187601,-0.0065 0.394609,0 0.653369,0.09703 0.265229,0.09057 0.45283,0.297574 h 0.00647 q 0.25876,-0.168194 0.588679,-0.278167 0.336388,-0.116442 0.666307,-0.116442 0.38814,0 0.640431,0.109973 0.25876,0.109973 0.407547,0.316981 0.155256,0.200539 0.213477,0.491644 0.058221,0.291105 0.058221,0.6469 v 1.850134 q 0,0.05175 -0.058221,0.05175 h -0.181132 q -0.06469,0 -0.06469,-0.05175 z m 3.6355728,1.55256 q 0,0.0841 -0.07116,0.116442 -0.291105,0.109973 -0.608086,0.155256 -0.310512,0.05175 -0.601617,0.05175 -0.407547,0 -0.6727755,-0.09057 -0.25876,-0.09057 -0.414016,-0.239353 -0.148787,-0.148787 -0.207008,-0.329919 -0.058221,-0.187601 -0.058221,-0.381671 0,-0.278167 0.097035,-0.485175 0.097035,-0.213477 0.271698,-0.355795 0.181132,-0.142318 0.4269535,-0.213477 0.245822,-0.07116 0.543396,-0.07116 h 0.989757 v -0.245822 q 0,-0.187601 -0.03881,-0.342857 -0.03234,-0.155256 -0.135849,-0.265229 -0.09703,-0.116442 -0.284636,-0.174663 -0.181132,-0.06469 -0.472237,-0.06469 -0.200539,0 -0.45283,0.03881 -0.2458215,0.03881 -0.4657675,0.116442 -0.058221,0.01941 -0.077628,-0.03234 L 9.5800835,49.88901 q -0.019407,-0.05175 0.032345,-0.07116 0.200539,-0.0841 0.4851745,-0.12938 0.284636,-0.05175 0.556334,-0.05175 1.196765,0 1.196765,1.028571 z M 11.54019,51.279845 h -0.989757 q -0.116442,0 -0.291105,0.02588 -0.168194,0.02588 -0.3363875,0.116442 -0.161725,0.09057 -0.278167,0.25876 -0.116442,0.168194 -0.116442,0.459299 0,0.232884 0.090566,0.381671 0.097035,0.148787 0.245822,0.239353 0.1487865,0.0841 0.3299185,0.116442 0.187601,0.03234 0.362264,0.03234 0.06469,0 0.181132,-0.0065 0.116442,-0.0065 0.252291,-0.02588 0.142318,-0.01941 0.284636,-0.04528 0.148787,-0.03234 0.265229,-0.0841 z m 3.118058,-0.963881 q -0.03881,0.03881 -0.07116,0 -0.168194,-0.168194 -0.414016,-0.278167 -0.245822,-0.116442 -0.575741,-0.116442 -0.09057,0 -0.232884,0.0065 -0.135849,0.0065 -0.32345,0.04528 v 3.072775 q 0,0.05822 -0.06469,0.05822 h -0.181132 q -0.05822,0 -0.05822,-0.05822 v -3.053368 q 0,-0.142318 0.04528,-0.207008 0.05175,-0.06469 0.19407,-0.09703 0.168194,-0.03234 0.310512,-0.03881 0.142318,-0.01294 0.291105,-0.01294 0.381671,0 0.672776,0.116442 0.297574,0.116442 0.536927,0.336388 0.02588,0.03234 0,0.05822 z m 0.3752,-0.349326 q -0.05822,0 -0.05822,-0.05822 v -0.09703 q 0,-0.05822 0.05822,-0.06469 l 0.523989,-0.05822 0.05822,-0.640431 q 0,-0.04528 0.01294,-0.05822 0.01294,-0.01941 0.04528,-0.03234 l 0.116442,-0.03881 q 0.06469,-0.02588 0.06469,0.05175 v 0.737466 h 0.834501 q 0.05175,0 0.05175,0.05822 v 0.142318 q 0,0.05822 -0.05175,0.05822 h -0.834501 v 2.348247 q 0,0.12938 0.01941,0.239353 0.01941,0.103504 0.07763,0.174663 0.05822,0.07116 0.161725,0.109973 0.109973,0.03881 0.284636,0.03881 0.07116,0 0.213477,-0.0065 0.148787,-0.01294 0.291105,-0.04528 0.05822,-0.0065 0.06469,0.03234 l 0.03234,0.155256 q 0.01294,0.05175 -0.03234,0.06469 -0.161725,0.04528 -0.342857,0.05822 -0.174663,0.01941 -0.25876,0.01941 -0.472237,0 -0.6469,-0.187601 -0.174663,-0.19407 -0.174663,-0.614555 v -2.387061 z m 3.868471,0 q -0.05822,0 -0.05822,-0.05822 v -0.09703 q 0,-0.05822 0.05822,-0.06469 l 0.523989,-0.05822 0.05822,-0.640431 q 0,-0.04528 0.01294,-0.05822 0.01294,-0.01941 0.04528,-0.03234 l 0.116442,-0.03881 q 0.06469,-0.02588 0.06469,0.05175 v 0.737466 h 0.834501 q 0.05175,0 0.05175,0.05822 v 0.142318 q 0,0.05822 -0.05175,0.05822 h -0.834501 v 2.348247 q 0,0.12938 0.01941,0.239353 0.01941,0.103504 0.07763,0.174663 0.05822,0.07116 0.161725,0.109973 0.109973,0.03881 0.284636,0.03881 0.07116,0 0.213477,-0.0065 0.148787,-0.01294 0.291105,-0.04528 0.05822,-0.0065 0.06469,0.03234 l 0.03234,0.155256 q 0.01294,0.05175 -0.03234,0.06469 -0.161725,0.04528 -0.342857,0.05822 -0.174663,0.01941 -0.25876,0.01941 -0.472237,0 -0.6469,-0.187601 -0.174663,-0.19407 -0.174663,-0.614555 v -2.387061 z m 3.739087,-0.329919 q 0.368733,0 0.633962,0.116442 0.265229,0.109973 0.433423,0.310512 0.168194,0.200539 0.245822,0.478706 0.0841,0.271698 0.0841,0.588679 0,0.200539 -0.0841,0.265229 -0.0841,0.06469 -0.232884,0.06469 h -2.192991 q 0,0.394609 0.0841,0.672776 0.09057,0.271698 0.245822,0.446361 0.161725,0.168194 0.375202,0.245822 0.213477,0.07763 0.465768,0.07763 0.213477,0 0.414016,-0.04528 0.200539,-0.05175 0.355795,-0.135849 0.02588,-0.01294 0.04528,-0.01294 0.01941,0 0.03234,0.03234 l 0.07763,0.148787 q 0.02588,0.05175 -0.01941,0.07116 -0.207008,0.122911 -0.446361,0.168194 -0.232884,0.04528 -0.478706,0.04528 -0.685714,0 -1.080323,-0.420485 -0.38814,-0.420485 -0.38814,-1.339083 0,-0.433423 0.103504,-0.763342 0.103504,-0.336388 0.291105,-0.562803 0.187601,-0.226415 0.446361,-0.336388 0.265229,-0.116442 0.588679,-0.116442 z m 1.09973,1.559029 q 0,-0.252291 -0.05175,-0.485175 -0.05175,-0.232884 -0.181132,-0.407547 -0.12938,-0.181132 -0.342857,-0.284636 -0.213477,-0.109973 -0.530458,-0.109973 -0.511051,0 -0.789218,0.355795 -0.278167,0.349326 -0.310512,0.931536 z m 2.367658,1.714285 q 0.245822,0 0.459299,-0.05822 0.219946,-0.06469 0.394609,-0.155256 0.05175,-0.03234 0.0841,0.02588 l 0.06469,0.135849 q 0.03234,0.04528 -0.01941,0.07763 -0.239353,0.12938 -0.491644,0.181132 -0.252291,0.05822 -0.523989,0.05822 -1.481401,0 -1.481401,-1.727223 0,-0.433423 0.103504,-0.769811 0.109973,-0.336388 0.304043,-0.569272 0.200539,-0.232884 0.478706,-0.349326 0.278167,-0.122911 0.627493,-0.122911 0.485175,0 0.931536,0.226415 0.04528,0.03234 0.01941,0.07763 l -0.07116,0.135849 q -0.01941,0.05822 -0.0841,0.02588 -0.174663,-0.0841 -0.368733,-0.135849 -0.19407,-0.05822 -0.433423,-0.05822 -0.32345,0 -0.556334,0.12938 -0.226415,0.122911 -0.375202,0.336388 -0.142318,0.213477 -0.207008,0.491644 -0.06469,0.271698 -0.06469,0.569272 0,0.316981 0.05822,0.588679 0.06469,0.271698 0.200539,0.472237 0.142318,0.19407 0.375202,0.304043 0.232884,0.109973 0.575741,0.109973 z m 4.269535,0.135849 q 0,0.05822 -0.05822,0.05822 h -0.187601 q -0.06469,0 -0.06469,-0.05822 v -1.985983 q 0,-0.588679 -0.252291,-0.866846 -0.245822,-0.284636 -0.795687,-0.284636 -0.09057,0 -0.219946,0.01294 -0.122911,0.0065 -0.25876,0.03234 -0.135849,0.01941 -0.271698,0.05822 -0.135849,0.03881 -0.245822,0.09057 v 2.943395 q 0,0.05822 -0.05822,0.05822 h -0.187601 q -0.05822,0 -0.05822,-0.05822 v -4.612397 q 0,-0.05822 0.05822,-0.05822 h 0.187601 q 0.05822,0 0.05822,0.05822 v 1.390835 q 0.271698,-0.103504 0.562803,-0.142318 0.291105,-0.04528 0.472237,-0.04528 0.375202,0 0.627493,0.103504 0.252291,0.09703 0.407547,0.284636 0.155256,0.187601 0.219946,0.459299 0.07116,0.265229 0.07116,0.601617 z m 3.499731,0 q 0,0.05822 -0.06469,0.05822 h -0.181132 q -0.06469,0 -0.06469,-0.05822 v -1.759568 q 0,-0.342857 -0.05175,-0.601617 -0.05175,-0.25876 -0.187601,-0.426954 -0.135849,-0.174663 -0.375202,-0.25876 -0.232884,-0.0841 -0.601617,-0.0841 -0.0841,0 -0.329919,0.01941 -0.239353,0.01294 -0.498113,0.06469 v 3.046899 q 0,0.05822 -0.05822,0.05822 h -0.187601 q -0.05822,0 -0.05822,-0.05822 V 50.01839 q 0,-0.25876 0.245822,-0.304043 0.0841,-0.01941 0.207008,-0.03234 0.122911,-0.01294 0.245822,-0.01941 0.12938,-0.01294 0.245822,-0.01941 0.122911,-0.0065 0.200539,-0.0065 0.414016,0 0.698652,0.09057 0.291105,0.0841 0.472237,0.278167 0.181132,0.19407 0.25876,0.504582 0.0841,0.310512 0.0841,0.750404 v 1.785444 z m 3.596768,-1.656064 q 0,0.879784 -0.381671,1.339083 -0.381671,0.45283 -1.073854,0.45283 -0.685714,0 -1.060916,-0.45283 -0.368733,-0.459299 -0.368733,-1.319676 0,-0.866846 0.394609,-1.319676 0.394609,-0.45283 1.054447,-0.45283 0.692183,0 1.060916,0.459299 0.375202,0.45283 0.375202,1.2938 z m -0.304043,0.01941 q 0,-0.291105 -0.05175,-0.562803 -0.05175,-0.278167 -0.187601,-0.485175 -0.12938,-0.207008 -0.349326,-0.329919 -0.219946,-0.12938 -0.556334,-0.12938 -0.310512,0 -0.530458,0.122911 -0.213477,0.122911 -0.349326,0.329919 -0.12938,0.207008 -0.19407,0.478706 -0.05822,0.265229 -0.05822,0.556334 0,0.32345 0.05822,0.601617 0.05822,0.278167 0.19407,0.485175 0.135849,0.207008 0.349326,0.32345 0.219946,0.116442 0.536927,0.116442 0.329919,0 0.549865,-0.135849 0.219946,-0.135849 0.349326,-0.349326 0.12938,-0.219946 0.181132,-0.485175 0.05822,-0.271698 0.05822,-0.536927 z m 1.966569,1.623719 q 0.0065,0.05822 -0.03881,0.07116 -0.09057,0.03234 -0.19407,0.03881 -0.103504,0.01294 -0.181132,0.01294 -0.284636,0 -0.381671,-0.142318 -0.09057,-0.148787 -0.09057,-0.414016 v -4.166036 q 0,-0.05822 0.05822,-0.05822 h 0.187601 q 0.06469,0 0.06469,0.05822 v 4.062532 q 0,0.207008 0.04528,0.297574 0.05175,0.0841 0.219946,0.0841 0.06469,0 0.122911,-0.0065 0.05822,-0.0065 0.109973,-0.01941 0.01941,0 0.03234,0.0065 0.01941,0 0.02588,0.03234 l 0.01941,0.142318 z m 3.266845,-1.643126 q 0,0.879784 -0.381671,1.339083 -0.381671,0.45283 -1.073854,0.45283 -0.685714,0 -1.060916,-0.45283 -0.368733,-0.459299 -0.368733,-1.319676 0,-0.866846 0.394609,-1.319676 0.394609,-0.45283 1.054447,-0.45283 0.692183,0 1.060916,0.459299 0.375202,0.45283 0.375202,1.2938 z m -0.304043,0.01941 q 0,-0.291105 -0.05175,-0.562803 -0.05175,-0.278167 -0.187601,-0.485175 -0.12938,-0.207008 -0.349326,-0.329919 -0.219946,-0.12938 -0.556334,-0.12938 -0.310512,0 -0.530458,0.122911 -0.213477,0.122911 -0.349326,0.329919 -0.12938,0.207008 -0.19407,0.478706 -0.05822,0.265229 -0.05822,0.556334 0,0.32345 0.05822,0.601617 0.05822,0.278167 0.19407,0.485175 0.135849,0.207008 0.349326,0.32345 0.219946,0.116442 0.536927,0.116442 0.329919,0 0.549865,-0.135849 0.219946,-0.135849 0.349326,-0.349326 0.12938,-0.219946 0.181132,-0.485175 0.05822,-0.271698 0.05822,-0.536927 z m 2.37412,-1.772506 q 0.271698,0 0.588679,0.03881 0.316981,0.03881 0.627493,0.161725 0.05822,0.02588 0.05822,0.09057 v 2.982209 q 0,0.433423 -0.109973,0.718059 -0.109973,0.291105 -0.316981,0.472237 -0.200539,0.181132 -0.485175,0.278167 -0.284636,0.09703 -0.633962,0.148787 -0.06469,0.0065 -0.07116,-0.03881 l -0.02588,-0.187601 q 0,-0.04528 0.05175,-0.05175 0.278167,-0.05175 0.511051,-0.122911 0.239353,-0.07116 0.407547,-0.207008 0.174663,-0.12938 0.265229,-0.342857 0.09703,-0.213477 0.09703,-0.549865 v -0.04528 q -0.103504,0.03881 -0.232884,0.07763 -0.12938,0.03234 -0.271698,0.05175 -0.135849,0.02588 -0.271698,0.03881 -0.135849,0.01941 -0.252291,0.01941 -0.375202,0 -0.6469,-0.12938 -0.265229,-0.12938 -0.439892,-0.362264 -0.174663,-0.232884 -0.25876,-0.549865 -0.07763,-0.316981 -0.07763,-0.685714 0,-0.381671 0.0841,-0.71159 0.09057,-0.329919 0.271698,-0.569272 0.181132,-0.245822 0.459299,-0.381671 0.284636,-0.142318 0.672776,-0.142318 z m -0.03234,3.266845 q 0.07116,0 0.187601,-0.0065 0.116442,-0.01294 0.252291,-0.03881 0.135849,-0.02588 0.278167,-0.05822 0.148787,-0.03881 0.278167,-0.09704 v -2.639352 q -0.245822,-0.09057 -0.511051,-0.122911 -0.265229,-0.03234 -0.45283,-0.03234 -0.252291,0 -0.465768,0.09057 -0.213477,0.09057 -0.368733,0.278167 -0.155256,0.181132 -0.245822,0.472237 -0.09057,0.284636 -0.09057,0.679245 0,0.724528 0.304043,1.09973 0.304043,0.375202 0.834501,0.375202 z m 3.150408,0.19407 h -0.07763 q -0.03881,0 -0.07763,-0.01294 -0.03881,-0.01941 -0.06469,-0.103504 l -1.119137,-3.215093 q -0.01941,-0.05822 0.03234,-0.05822 h 0.207008 q 0.03881,0 0.04528,0.01294 0.01294,0.01294 0.02588,0.03881 0.200539,0.569272 0.394609,1.125606 0.19407,0.549865 0.381671,1.119137 0.07116,0.207008 0.142318,0.433423 0.07116,0.219946 0.142318,0.433423 h 0.03234 q 0.07763,-0.232884 0.12938,-0.381671 0.05175,-0.155256 0.0841,-0.25876 0.03881,-0.103504 0.05822,-0.174663 0.02588,-0.07116 0.05175,-0.135849 l 0.77628,-2.154177 q 0.01294,-0.03234 0.02588,-0.04528 0.01294,-0.01294 0.05175,-0.01294 h 0.181132 q 0.07116,0 0.04528,0.05822 l -1.384366,3.939621 q -0.148787,0.420485 -0.336388,0.588679 -0.181132,0.168194 -0.485175,0.168194 -0.09057,0 -0.213477,-0.01294 -0.122911,-0.0065 -0.291105,-0.05822 -0.05175,-0.01294 -0.06469,-0.03881 -0.0065,-0.01941 0.0065,-0.05175 l 0.04528,-0.148787 q 0.02588,-0.05175 0.07763,-0.03234 0.161725,0.03881 0.239353,0.04528 0.07763,0.01294 0.148787,0.01294 0.0841,0 0.161725,-0.01294 0.07763,-0.01294 0.142318,-0.05822 0.07116,-0.04528 0.12938,-0.142318 0.06469,-0.09057 0.122911,-0.252291 z M 58.94505,51.758551 q 0,-0.433423 -0.291105,-0.698652 -0.284636,-0.265229 -0.834501,-0.265229 h -1.345552 v 2.00539 h 1.35849 q 0.355795,0 0.569272,-0.103504 0.219946,-0.109973 0.336388,-0.265229 0.122911,-0.155256 0.161725,-0.336388 0.04528,-0.181132 0.04528,-0.336388 z m -2.471158,-1.242048 h 1.326145 q 0.135849,0 0.297574,-0.03234 0.168194,-0.03881 0.310512,-0.135849 0.148787,-0.09703 0.245822,-0.25876 0.09703,-0.168194 0.09703,-0.420485 0,-0.336388 -0.226415,-0.562803 -0.226415,-0.232884 -0.640431,-0.232884 h -1.410242 z m 1.947169,0.12938 q 0.25876,0.05822 0.426954,0.187601 0.168194,0.122911 0.265229,0.284636 0.09703,0.161725 0.135849,0.342857 0.03881,0.174663 0.03881,0.342857 0,0.291105 -0.103504,0.536927 -0.103504,0.239353 -0.291105,0.407547 -0.181132,0.168194 -0.439892,0.265229 -0.252291,0.09057 -0.562803,0.09057 h -1.487869 q -0.135849,0 -0.200539,-0.05175 -0.05822,-0.05175 -0.05822,-0.187601 v -4.043125 q 0,-0.116442 0.04528,-0.181132 0.05175,-0.07116 0.213477,-0.07116 h 1.449055 q 0.25876,0 0.485175,0.06469 0.226415,0.06469 0.394609,0.200539 0.168194,0.135849 0.265229,0.342857 0.09703,0.207008 0.09703,0.485175 0,0.135849 -0.03881,0.278167 -0.03234,0.142318 -0.109973,0.271698 -0.07763,0.122911 -0.207008,0.232884 -0.12938,0.103504 -0.316981,0.168194 z m 2.917518,-1.009164 q 0.368733,0 0.633962,0.116442 0.265229,0.109973 0.433423,0.310512 0.168194,0.200539 0.245822,0.478706 0.0841,0.271698 0.0841,0.588679 0,0.200539 -0.0841,0.265229 -0.0841,0.06469 -0.232884,0.06469 h -2.192991 q 0,0.394609 0.0841,0.672776 0.09057,0.271698 0.245822,0.446361 0.161725,0.168194 0.375202,0.245822 0.213477,0.07763 0.465768,0.07763 0.213477,0 0.414016,-0.04528 0.200539,-0.05175 0.355795,-0.135849 0.02588,-0.01294 0.04528,-0.01294 0.01941,0 0.03234,0.03234 l 0.07763,0.148787 q 0.02588,0.05175 -0.01941,0.07116 -0.207008,0.122911 -0.446361,0.168194 -0.232884,0.04528 -0.478706,0.04528 -0.685714,0 -1.080323,-0.420485 -0.38814,-0.420485 -0.38814,-1.339083 0,-0.433423 0.103504,-0.763342 0.103504,-0.336388 0.291105,-0.562803 0.187601,-0.226415 0.446361,-0.336388 0.265229,-0.116442 0.588679,-0.116442 z m 1.09973,1.559029 q 0,-0.252291 -0.05175,-0.485175 -0.05175,-0.232884 -0.181132,-0.407547 -0.12938,-0.181132 -0.342857,-0.284636 -0.213477,-0.109973 -0.530458,-0.109973 -0.511051,0 -0.789218,0.355795 -0.278167,0.349326 -0.310512,0.931536 z m 0.782751,-1.22911 q -0.05822,0 -0.05822,-0.05822 v -0.09703 q 0,-0.05822 0.05822,-0.06469 l 0.523989,-0.05822 0.05822,-0.640431 q 0,-0.04528 0.01294,-0.05822 0.01294,-0.01941 0.04528,-0.03234 l 0.116442,-0.03881 q 0.06469,-0.02588 0.06469,0.05175 v 0.737466 h 0.834501 q 0.05175,0 0.05175,0.05822 v 0.142318 q 0,0.05822 -0.05175,0.05822 h -0.834501 v 2.348247 q 0,0.12938 0.01941,0.239353 0.01941,0.103504 0.07763,0.174663 0.05822,0.07116 0.161725,0.109973 0.109973,0.03881 0.284636,0.03881 0.07116,0 0.213477,-0.0065 0.148787,-0.01294 0.291105,-0.04528 0.05822,-0.0065 0.06469,0.03234 l 0.03234,0.155256 q 0.01294,0.05175 -0.03234,0.06469 -0.161725,0.04528 -0.342857,0.05822 -0.174663,0.01941 -0.25876,0.01941 -0.472237,0 -0.6469,-0.187601 -0.174663,-0.19407 -0.174663,-0.614555 v -2.387061 z m 2.238278,0 q -0.05822,0 -0.05822,-0.05822 v -0.09703 q 0,-0.05822 0.05822,-0.06469 l 0.523989,-0.05822 0.05822,-0.640431 q 0,-0.04528 0.01294,-0.05822 0.01294,-0.01941 0.04528,-0.03234 l 0.116442,-0.03881 q 0.06469,-0.02588 0.06469,0.05175 v 0.737466 h 0.834501 q 0.05175,0 0.05175,0.05822 v 0.142318 q 0,0.05822 -0.05175,0.05822 h -0.834501 v 2.348247 q 0,0.12938 0.01941,0.239353 0.01941,0.103504 0.07763,0.174663 0.05822,0.07116 0.161725,0.109973 0.109973,0.03881 0.284636,0.03881 0.07116,0 0.213477,-0.0065 0.148787,-0.01294 0.291105,-0.04528 0.05822,-0.0065 0.06469,0.03234 l 0.03235,0.155256 q 0.01294,0.05175 -0.03235,0.06469 -0.161725,0.04528 -0.342857,0.05822 -0.174663,0.01941 -0.25876,0.01941 -0.472237,0 -0.6469,-0.187601 -0.174663,-0.19407 -0.174663,-0.614555 v -2.387061 z m 3.739089,-0.329919 q 0.368733,0 0.633962,0.116442 0.265229,0.109973 0.433423,0.310512 0.168194,0.200539 0.245822,0.478706 0.0841,0.271698 0.0841,0.588679 0,0.200539 -0.0841,0.265229 -0.0841,0.06469 -0.232884,0.06469 h -2.192991 q 0,0.394609 0.0841,0.672776 0.09057,0.271698 0.245822,0.446361 0.161725,0.168194 0.375202,0.245822 0.213477,0.07763 0.465768,0.07763 0.213477,0 0.414016,-0.04528 0.200539,-0.05175 0.355795,-0.135849 0.02588,-0.01294 0.04528,-0.01294 0.01941,0 0.03235,0.03234 l 0.07763,0.148787 q 0.02588,0.05175 -0.01941,0.07116 -0.207008,0.122911 -0.446361,0.168194 -0.232884,0.04528 -0.478706,0.04528 -0.685714,0 -1.080323,-0.420485 -0.38814,-0.420485 -0.38814,-1.339083 0,-0.433423 0.103504,-0.763342 0.103504,-0.336388 0.291105,-0.562803 0.187601,-0.226415 0.446361,-0.336388 0.265229,-0.116442 0.588679,-0.116442 z m 1.09973,1.559029 q 0,-0.252291 -0.05175,-0.485175 -0.05175,-0.232884 -0.181132,-0.407547 -0.12938,-0.181132 -0.342857,-0.284636 -0.213477,-0.109973 -0.530458,-0.109973 -0.511051,0 -0.789218,0.355795 -0.278167,0.349326 -0.310512,0.931536 z m 2.94987,-0.879784 q -0.03881,0.03881 -0.07116,0 -0.168194,-0.168194 -0.414016,-0.278167 -0.245822,-0.116442 -0.575741,-0.116442 -0.09057,0 -0.232884,0.0065 -0.135849,0.0065 -0.32345,0.04528 v 3.072775 q 0,0.05822 -0.06469,0.05822 h -0.181132 q -0.05822,0 -0.05822,-0.05822 v -3.053368 q 0,-0.142318 0.04528,-0.207008 0.05175,-0.06469 0.19407,-0.09703 0.168194,-0.03234 0.310512,-0.03881 0.142318,-0.01294 0.291105,-0.01294 0.381671,0 0.672776,0.116442 0.297574,0.116442 0.536927,0.336388 0.02588,0.03234 0,0.05822 z m 3.971969,-0.06469 -0.245822,0.815094 -0.608086,1.869541 q -0.03235,0.09057 -0.07116,0.135849 -0.03234,0.04528 -0.122911,0.04528 h -0.135849 q -0.07763,0 -0.122911,-0.03881 -0.03881,-0.04528 -0.06469,-0.155256 l -0.743935,-3.176279 q -0.01294,-0.04528 0.03234,-0.04528 h 0.226415 q 0.04528,0 0.05822,0.03881 l 0.51752,2.322371 0.161725,0.724528 h 0.02588 l 0.219946,-0.705121 0.6469,-2.044204 q 0.01941,-0.05175 0.05175,-0.103504 0.03881,-0.05175 0.12938,-0.05175 h 0.116442 q 0.09057,0 0.116442,0.05175 0.03235,0.04528 0.05175,0.109973 l 0.633962,1.966576 0.245822,0.795687 h 0.01941 l 0.174663,-0.802156 0.504582,-2.26415 q 0.01294,-0.01941 0.01941,-0.02588 0.0065,-0.01294 0.03881,-0.01294 h 0.226415 q 0.04528,0 0.03234,0.04528 l -0.743935,3.176279 q -0.02588,0.109973 -0.07763,0.155256 -0.05175,0.03881 -0.12938,0.03881 h -0.116442 q -0.09057,0 -0.12938,-0.03881 -0.03881,-0.03881 -0.07116,-0.142318 l -0.601617,-1.869541 -0.245822,-0.815094 z m 5.382213,1.138544 q 0,0.879784 -0.381671,1.339083 -0.381671,0.45283 -1.073854,0.45283 -0.685714,0 -1.060916,-0.45283 -0.368733,-0.459299 -0.368733,-1.319676 0,-0.866846 0.394609,-1.319676 0.394609,-0.45283 1.054447,-0.45283 0.692183,0 1.060916,0.459299 0.375202,0.45283 0.375202,1.2938 z m -0.304043,0.01941 q 0,-0.291105 -0.05175,-0.562803 -0.05175,-0.278167 -0.187601,-0.485175 -0.12938,-0.207008 -0.349326,-0.329919 -0.219946,-0.12938 -0.556334,-0.12938 -0.310512,0 -0.530458,0.122911 -0.213477,0.122911 -0.349326,0.329919 -0.12938,0.207008 -0.19407,0.478706 -0.05822,0.265229 -0.05822,0.556334 0,0.32345 0.05822,0.601617 0.05822,0.278167 0.19407,0.485175 0.135849,0.207008 0.349326,0.32345 0.219946,0.116442 0.536927,0.116442 0.329919,0 0.549865,-0.135849 0.219946,-0.135849 0.349326,-0.349326 0.12938,-0.219946 0.181132,-0.485175 0.05822,-0.271698 0.05822,-0.536927 z m 2.982202,-1.093261 q -0.03881,0.03881 -0.07116,0 -0.168194,-0.168194 -0.414016,-0.278167 -0.245822,-0.116442 -0.575741,-0.116442 -0.09057,0 -0.232884,0.0065 -0.135849,0.0065 -0.32345,0.04528 v 3.072775 q 0,0.05822 -0.06469,0.05822 h -0.181132 q -0.05822,0 -0.05822,-0.05822 v -3.053368 q 0,-0.142318 0.04528,-0.207008 0.05175,-0.06469 0.19407,-0.09703 0.168194,-0.03234 0.310512,-0.03881 0.142318,-0.01294 0.291105,-0.01294 0.381671,0 0.672776,0.116442 0.297574,0.116442 0.536927,0.336388 0.02588,0.03234 0,0.05822 z m 1.52668,2.71698 q 0.0065,0.05822 -0.03881,0.07116 -0.09057,0.03234 -0.19407,0.03881 -0.103504,0.01294 -0.181132,0.01294 -0.284636,0 -0.381671,-0.142318 -0.09057,-0.148787 -0.09057,-0.414016 v -4.166036 q 0,-0.05822 0.05822,-0.05822 h 0.187601 q 0.06469,0 0.06469,0.05822 v 4.062532 q 0,0.207008 0.04528,0.297574 0.05175,0.0841 0.219946,0.0841 0.06469,0 0.122911,-0.0065 0.05822,-0.0065 0.109973,-0.01941 0.01941,0 0.03234,0.0065 0.01941,0 0.02588,0.03234 l 0.01941,0.142318 z m 0.381675,-1.584905 q 0,-0.362264 0.09057,-0.692183 0.09057,-0.329919 0.271698,-0.575741 0.187601,-0.252291 0.472237,-0.401078 0.284636,-0.148787 0.672776,-0.148787 0.207008,0 0.45283,0.03881 0.245822,0.03234 0.491644,0.122911 v -1.35849 q 0,-0.05822 0.06469,-0.05822 h 0.187601 q 0.05822,0 0.05822,0.05822 v 4.450672 q 0,0.05822 -0.05175,0.0841 -0.310512,0.122911 -0.653369,0.161725 -0.336388,0.04528 -0.627493,0.04528 -0.750404,0 -1.093261,-0.446361 -0.336388,-0.45283 -0.336388,-1.280862 z m 0.32345,0 q 0,0.420485 0.0841,0.705121 0.09057,0.278167 0.245822,0.446361 0.155256,0.168194 0.368733,0.239353 0.219946,0.06469 0.472237,0.06469 0.187601,0 0.459299,-0.03234 0.271698,-0.03881 0.498113,-0.12938 v -2.665228 q -0.310512,-0.116442 -0.549865,-0.142318 -0.232884,-0.03234 -0.375202,-0.03234 -0.271698,0 -0.491644,0.103504 -0.219946,0.09704 -0.381671,0.297574 -0.155256,0.19407 -0.245822,0.485175 -0.0841,0.284636 -0.0841,0.659838 z"
   id="text46"
   style="font-weight:200;font-size:6.469px;font-family:'PF BeauSans Pro';-inkscape-font-specification:'PF BeauSans Pro Ultra-Light';fill:#181315"
   class="st20 st21 st22"
   aria-label="Smart technology    Better world" />
</svg>
