<?xml version="1.0" encoding="utf-8"?>
<!-- Generator: Adobe Illustrator 27.9.0, SVG Export Plug-In . SVG Version: 6.00 Build 0)  -->
<svg version="1.1" id="Layer_1" xmlns="http://www.w3.org/2000/svg" xmlns:xlink="http://www.w3.org/1999/xlink" x="0px" y="0px"
	 viewBox="0 0 355.1 212.6" style="enable-background:new 0 0 355.1 212.6;" xml:space="preserve">
<style type="text/css">
	.st0{fill:#FFE147;}
	.st1{fill:url(#SVGID_1_);}
	.st2{fill:#005091;}
	.st3{fill:url(#SVGID_00000174596113173989601230000001138021725049833141_);}
	.st4{fill:url(#SVGID_00000183961930561791658170000011974814837399458454_);}
	.st5{fill:url(#SVGID_00000077283401789894626100000000566168017698486941_);}
	.st6{fill:url(#SVGID_00000154420422267376018520000007868770934039218821_);}
	.st7{fill:url(#SVGID_00000161613882479859876360000010551485488338380425_);}
	.st8{fill:url(#SVGID_00000016782075167734175810000015546551452952333452_);}
	.st9{fill:url(#SVGID_00000109009777889767540070000002057901143377242763_);}
	.st10{fill:url(#SVGID_00000055665277938292177820000009573277432140029313_);}
	.st11{fill:url(#SVGID_00000134953710139958235140000008516307719575533448_);}
	.st12{fill:url(#SVGID_00000173131524513386592850000002403683234643991974_);}
</style>
<path d="M195.3,89.1h9.4v1H197v2.4h7v0.9h-7v2.8h7.7v1h-9.5V89.1z M217,89.1h-1.9l-4.6,8.2l1.8,0l3.7-6.8l3.8,6.8l1.8,0L217,89.1z
	 M233.1,89.1h-1.9l-4.6,8.2l1.9,0l3.7-6.8l3.8,6.8l1.8,0L233.1,89.1z M244.1,97.2h1.8v-3.8h6.8v3.8h1.7v-8.2h-1.7v3.4h-6.8v-3.4
	h-1.8V97.2z M262.3,97.2h1.7v-6.6c0.1,0.2,0.3,0.4,0.5,0.6l6.2,6h1.9v-8.2H271v6.6c-0.2-0.3-0.4-0.5-0.6-0.7l-6.1-5.9h-1.9V97.2z
	 M280.5,89.1v8.2h1.8v-8.2H280.5z M290.1,97.2h1.8v-2.9l2-1.3l4.6,4.1h2.2l-5.5-4.9l5.4-3.2l-2.4,0l-6.3,3.9v-3.9h-1.8V97.2z
	 M306.7,97.2h1.8v-3.8h6.8v3.8h1.8v-8.2h-1.8v3.4h-6.8v-3.4h-1.8V97.2z M198.7,103.8l2.9,6h-5.8L198.7,103.8z M193.8,110.8h9.6
	l-4-8.2h-1.5L193.8,110.8z M208.4,110.8h1.4V107h5.3v3.8h1.4v-8.2h-1.4v3.4h-5.3v-3.4h-1.4V110.8z M223.8,103.9
	c0,0.1,0.1,0.2,0.1,0.3c0,0.1,0.1,0.2,0.2,0.4l2.6,6.3h1.3l2.6-6.3c0.1-0.2,0.2-0.5,0.2-0.7v7h1.4v-8.2h-2l-2.6,6.3
	c-0.1,0.1-0.1,0.2-0.1,0.3c0,0.1-0.1,0.2-0.1,0.4l-0.2-0.7l-2.5-6.3h-2v8.2h1.3V103.9z M242.7,103.5c1.1,0,1.9,0.3,2.5,1
	c0.6,0.6,0.9,1.4,0.9,2.3c0,0.9-0.3,1.7-0.8,2.3c-0.6,0.6-1.4,1-2.5,1c-1.1,0-1.9-0.3-2.5-1c-0.6-0.6-0.9-1.4-0.9-2.3
	c0-0.9,0.3-1.7,0.9-2.3C240.7,103.8,241.6,103.5,242.7,103.5 M247.4,106.8c0-1.3-0.4-2.3-1.2-3.1c-0.8-0.8-2-1.2-3.5-1.2
	c-1.5,0-2.7,0.4-3.6,1.2c-0.9,0.8-1.3,1.8-1.3,3.1c0,1.3,0.4,2.3,1.3,3.1c0.9,0.8,2,1.2,3.6,1.2c1.5,0,2.6-0.4,3.5-1.2
	C247,109,247.4,108,247.4,106.8L247.4,106.8z M253.2,110.8h1.4V108l1.6-1.3l3.6,4.1l1.7,0l-4.3-4.9l4.2-3.3h-1.8l-4.9,4v-4h-1.4
	V110.8z M267.5,106.4v-2.8h2.4c0.6,0,1.1,0.1,1.5,0.4c0.4,0.2,0.6,0.6,0.6,1.1c0,0.5-0.2,0.8-0.6,1c-0.4,0.2-0.9,0.3-1.6,0.3H267.5z
	 M266.1,110.8h1.4v-3.4h2.1c0.3,0,0.6,0,0.8,0c0.2,0,0.6,0,1.1-0.1c0.5,0,0.9-0.3,1.3-0.8c0.4-0.4,0.6-1,0.6-1.5
	c0-0.8-0.3-1.3-0.8-1.7c-0.6-0.4-1.3-0.6-2.2-0.6h-0.9h-3.4V110.8z M280.8,107.4l1.6-3.6l1.6,3.6H280.8z M277.9,110.8h1.4l1.1-2.4h4
	l1.1,2.4h1.5l-3.8-8.2h-1.5L277.9,110.8z M294.2,110.8h1.4v-7.2h3.2v-1H291v1h3.2V110.8z M304,102.6v8.2h1.4v-8.2H304z M313.3,107.4
	l1.6-3.6l1.6,3.6H313.3z M310.4,110.8h1.4l1.1-2.4h4l1.1,2.4h1.5l-3.8-8.2h-1.5L310.4,110.8z M140.6,162.3v16.8
	c0,0.7-0.6,1.3-1.3,1.3c-0.7,0-1.3-0.6-1.3-1.3V161c0-0.7,0.6-1.3,1.3-1.3h12.2c0.7,0,1.3,0.6,1.3,1.3v15.1c0,0.7-0.6,1.3-1.3,1.3
	c-0.7,0-1.3-0.6-1.3-1.3v-13.8H140.6z M169.8,170.8l-2.8-6.6l-2.6,6.6H169.8z M174.5,175.4c0.3,0.6,0,1.4-0.7,1.7
	c-0.7,0.3-1.4,0-1.7-0.7l-1.3-3h-7.6l-2.4,5.9c-0.3,0.7-1,1-1.7,0.7c-0.7-0.3-1-1-0.7-1.7l7.2-18.1c0.2-0.5,0.6-0.8,1.2-0.8
	c0.5,0,1,0.3,1.2,0.8L174.5,175.4L174.5,175.4z M193.9,157.7c-0.7,0-1.3,0.6-1.3,1.3v13.4l-10.6-12.6c-0.4-0.4-0.9-0.6-1.4-0.4
	c-0.5,0.2-0.9,0.7-0.9,1.2V179c0,0.7,0.6,1.3,1.3,1.3c0.7,0,1.3-0.6,1.3-1.3v-14.8l10.5,12.7c0.4,0.4,0.9,0.6,1.4,0.4
	c0.5-0.2,0.9-0.7,0.9-1.2v-17C195.2,158.3,194.6,157.7,193.9,157.7 M214.2,175c-0.7-0.3-1.4,0-1.7,0.6c0,0,0-0.1,0-0.1
	c-0.3,0.4-2.8,2.9-5.8,2.3c-3.2-0.6-4.5-3.9-4.7-7h9.9c0.7,0,1.3-0.6,1.3-1.3c0-0.7-0.6-1.3-1.3-1.3h-9.8c0.3-2.1,1-4.7,2.8-5.5
	c4.4-2,7.4,1.9,7.5,2v0c0.4,0.6,1.2,0.7,1.8,0.3c0.6-0.4,0.7-1.2,0.3-1.8c-1.5-2-5.6-5.1-10.6-2.8c-4.6,2.1-4.4,9.8-4.4,10.1
	c0.2,5.3,2.9,9.2,6.9,9.9c4.3,0.8,8-2.6,8.5-3.7C215.1,176.1,214.8,175.3,214.2,175 M222.5,206.1c-0.6-0.3-1.4,0-1.7,0.6
	c0,0,0-0.1,0-0.1c-0.3,0.4-3.1,3.2-6.4,2.6c-3.6-0.7-5.1-4.4-5.3-7.9h11c0.7,0,1.3-0.6,1.3-1.3c0-0.7-0.6-1.3-1.3-1.3h-10.9
	c0.3-2.3,1.1-5.3,3.1-6.2c4.9-2.2,8.2,2.1,8.3,2.2c0.4,0.6,1.2,0.7,1.8,0.3c0.6-0.4,0.7-1.3,0.3-1.8c-1.6-2.1-6-5.5-11.4-3.1
	c-5,2.2-4.8,10.6-4.8,11c0.2,5.7,3.1,9.9,7.4,10.7c4.6,0.8,8.6-2.8,9.2-4C223.4,207.2,223.1,206.4,222.5,206.1 M231.8,159.4h-12.2
	c-0.7,0-1.3,0.6-1.3,1.3V179c0,0.7,0.6,1.3,1.3,1.3c0.7,0,1.3-0.6,1.3-1.3v-17h9.6v13.8c0,0.7,0.6,1.3,1.3,1.3
	c0.7,0,1.3-0.6,1.3-1.3v-15.1C233.1,160,232.5,159.4,231.8,159.4 M241,179.1v-18.4c0-0.7-0.6-1.3-1.3-1.3c-0.7,0-1.3,0.6-1.3,1.3
	v18.4c0,0.7,0.6,1.3,1.3,1.3C240.4,180.4,241,179.8,241,179.1 M259.8,177.7l-9.5-2.8l6-3.9c0.4-0.2,0.6-0.7,0.6-1.1
	c0-0.5-0.3-0.9-0.7-1.1l-5.3-2.9l9-3c0.7-0.2,1-1,0.8-1.6c-0.2-0.7-1-1-1.7-0.8l-11.8,3.9c-0.5,0.2-0.8,0.6-0.9,1.1
	c0,0.5,0.2,1,0.7,1.2l6,3.3l-6.6,4.2c-0.4,0.3-0.6,0.8-0.6,1.3c0.1,0.5,0.4,0.9,0.9,1.1l12.2,3.6c0.7,0.2,1.4-0.2,1.6-0.9
	C260.9,178.7,260.5,178,259.8,177.7 M352.8,210.1l-10.5-3.9l6.2-4c0.4-0.2,0.6-0.7,0.6-1.1c0-0.5-0.3-0.9-0.7-1.1l-5.1-2.8l8.9-2.6
	c0.7-0.2,1.1-0.9,0.9-1.6c-0.2-0.7-0.9-1.1-1.6-0.9l-11.9,3.5c-0.5,0.1-0.9,0.6-0.9,1.1c-0.1,0.5,0.2,1,0.7,1.3l6,3.3l-6.6,4.2
	c-0.4,0.3-0.6,0.8-0.6,1.2c0,0.5,0.4,0.9,0.8,1.1l12.9,4.8c0.7,0.2,1.4-0.1,1.7-0.8C353.8,211.1,353.5,210.3,352.8,210.1
	 M278.6,160.5L278.6,160.5h-13.8c-0.7,0-1.3,0.6-1.3,1.3c0,0.7,0.6,1.3,1.3,1.3h5.5v16.1c0,0.7,0.6,1.3,1.3,1.3
	c0.7,0,1.3-0.6,1.3-1.3v-16.1h5.7c0.7,0,1.3-0.6,1.3-1.3C279.9,161.1,279.4,160.5,278.6,160.5 M296.5,159.4c-0.7,0-1.3,0.6-1.3,1.3
	v7.8h-9.4v-7.8c0-0.7-0.6-1.3-1.3-1.3c-0.7,0-1.3,0.6-1.3,1.3v18.4c0,0.7,0.6,1.3,1.3,1.3c0.7,0,1.3-0.6,1.3-1.3v-8h9.4v5
	c0,0.7,0.6,1.3,1.3,1.3c0.7,0,1.3-0.6,1.3-1.3v-15.4C297.8,160,297.2,159.4,296.5,159.4 M321.7,179.1l-0.8-18.5
	c0-0.6-0.5-1.1-1.1-1.2c-0.6-0.1-1.2,0.2-1.4,0.7l-5.6,12.5l-5.7-12.5c-0.3-0.6-0.8-0.9-1.4-0.7c-0.6,0.1-1,0.6-1.1,1.2l-1.3,18.5
	c-0.1,0.7,0.5,1.3,1.2,1.4c0.7,0,1.3-0.5,1.4-1.2l1-13.4l4.8,10.5c0.2,0.5,0.7,0.8,1.2,0.8c0.5,0,1-0.3,1.2-0.8l4.5-10.1l0.6,13
	c0,0.7,0.6,1.3,1.4,1.2C321.2,180.4,321.8,179.8,321.7,179.1 M329.7,179.2v-18.4c0-0.7-0.6-1.3-1.3-1.3c-0.7,0-1.3,0.6-1.3,1.3v18.4
	c0,0.7,0.6,1.3,1.3,1.3C329.1,180.5,329.7,179.9,329.7,179.2 M337.5,169.9c0,4.1,3.4,7.5,7.5,7.5c4.2,0,7.5-3.4,7.5-7.5
	c0-4.1-3.4-7.5-7.5-7.5C340.9,162.4,337.5,165.8,337.5,169.9 M345,180c-5.6,0-10.1-4.5-10.1-10.1c0-5.6,4.5-10.1,10.1-10.1
	c5.6,0,10.1,4.5,10.1,10.1C355.1,175.5,350.6,180,345,180L345,180z M255,200.5c0,4.7,3.8,8.6,8.6,8.6c4.7,0,8.6-3.8,8.6-8.6
	c0-4.7-3.8-8.6-8.6-8.6C258.8,191.9,255,195.8,255,200.5 M263.6,211.7c-6.2,0-11.2-5-11.2-11.2c0-6.2,5-11.2,11.2-11.2
	c6.2,0,11.2,5,11.2,11.2C274.7,206.7,269.7,211.7,263.6,211.7L263.6,211.7z M296.1,188.6c-0.7,0-1.3,0.6-1.3,1.3V203l-11-12.2
	c-0.4-0.4-0.9-0.5-1.4-0.3c-0.5,0.2-0.8,0.7-0.8,1.2v19.6c0,0.7,0.6,1.3,1.3,1.3c0.7,0,1.3-0.6,1.3-1.3v-16.2l11,12.2
	c0.4,0.4,0.9,0.5,1.4,0.3c0.5-0.2,0.8-0.7,0.8-1.2v-16.5C297.4,189.2,296.8,188.6,296.1,188.6 M307,211.2v-21.2
	c0-0.7-0.6-1.3-1.3-1.3c-0.7,0-1.3,0.6-1.3,1.3v21.2c0,0.7,0.6,1.3,1.3,1.3C306.4,212.5,307,211.9,307,211.2 M327.3,203l-2.9-8.3
	l-3.2,8.3H327.3z M331.3,206.3c0.2,0.7-0.1,1.4-0.8,1.7c-0.7,0.2-1.4-0.1-1.7-0.8l-0.5-1.5h-8l-2.4,6.2c-0.3,0.7-1,1-1.7,0.7
	c-0.7-0.3-1-1-0.8-1.7l7.8-20.4c0.2-0.5,0.7-0.8,1.2-0.8c0.5,0,1,0.3,1.2,0.9L331.3,206.3L331.3,206.3L331.3,206.3z M173.9,201
	l-2.6-7.5l-3,7.5L173.9,201z M178.5,206.3c0.2,0.7-0.1,1.4-0.8,1.7c-0.7,0.2-1.4-0.1-1.6-0.8l-1.2-3.6l-7.6,0l-3.3,8.2
	c-0.3,0.7-1,1-1.7,0.7c-0.7-0.3-1-1-0.7-1.7l3.6-9c0,0,0-0.1,0.1-0.1l5-12.4c0.2-0.5,0.7-0.8,1.2-0.8c0.5,0,1,0.4,1.2,0.9
	L178.5,206.3L178.5,206.3L178.5,206.3z M197.8,189.3c-0.5-0.5-1.3-0.6-1.8-0.1l-7,6.3l0-5.6c0-0.7-0.6-1.3-1.3-1.3
	c-0.7,0-1.3,0.6-1.3,1.3l-0.1,21.4c0,0.7,0.6,1.3,1.3,1.3c0.7,0,1.3-0.6,1.3-1.3l0.1-10.2l7.8,8.8c0.4,0.6,1.3,0.6,1.8,0.2
	c0.6-0.5,0.6-1.3,0.2-1.8h0l-8.9-10.1l7.9-7C198.2,190.7,198.3,189.8,197.8,189.3 M237.8,194.4l-6.1,14.4h11.9L237.8,194.4z
	 M246.7,209.6c0.2,0.4,0.1,0.9-0.1,1.2c-0.2,0.4-0.6,0.6-1.1,0.6h-15.8c-0.4,0-0.9-0.2-1.1-0.6c-0.2-0.4-0.3-0.8-0.1-1.2l8.1-19.1
	c0.2-0.5,0.7-0.8,1.2-0.8c0.5,0,1,0.3,1.2,0.8L246.7,209.6L246.7,209.6z M154.5,211.2l-1.2-21.4c0-0.6-0.4-1.1-1-1.2
	c-0.6-0.1-1.1,0.1-1.4,0.6l-5.8,10.4l-6-10.5c-0.3-0.5-0.9-0.7-1.4-0.6c-0.6,0.1-1,0.6-1,1.2l-1,21.4c0,0.7,0.5,1.3,1.3,1.3
	c0.7,0,1.3-0.5,1.4-1.2l0.8-16.9l4.9,8.6c0.2,0.4,0.7,0.7,1.1,0.6c0.5,0,0.9-0.3,1.1-0.7l4.7-8.5l1,16.9c0,0.7,0.7,1.3,1.4,1.2
	C154,212.6,154.5,211.9,154.5,211.2"/>
<g>
	<path class="st0" d="M170.5,18.7h-7c-2.9,0,0.2,5.1-1.1,7.1c-3.3,0.9-8-0.1-11.4,0.4c-3.4-0.8-1.3-4.6-2.2-7.2
		c-1.6-0.3-4.9-0.2-8.1-0.2c-1.1,2.5,1.7,5.9-1.2,7.4c-4,0.1-8.3,0.4-11.9,0.3c-2.3-0.9-1.2-3.7-1.6-5.4c-0.4-0.5,0.4-2.2-0.7-2.3
		c-1.9,0.5-5.3-0.4-6.9,0.6c-0.6,2.2,0.2,5.4,0.4,7.6c3.3,3.2,6.7,10.6,4.1,20.8c0.6,1.1,45.5,1.1,45.5,1.1c0,1-0.8-11.4-0.7-13.6
		c0.6-5.3,2.7-7,4.3-8.3l-0.3-7.6L170.5,18.7z"/>
	<path d="M168.2,49.6l-0.6-0.1c-44.8,0-45.3-1-45.5-1.4l-0.1-0.2l0.1-0.3c2.5-9.7-0.5-16.9-3.9-20.1l-0.2-0.2l0-0.3
		c-0.1-0.6-0.1-1.2-0.2-1.8c-0.3-2-0.6-4.3-0.1-6l0.1-0.2l0.2-0.1c0.9-0.6,2.1-0.7,3.1-0.7c0.4,0,0.9,0,1.3,0c1.1,0,2.1,0,2.7-0.1
		l0.1,0l0.1,0c1.4,0.1,1.3,1.5,1.2,2.1c0,0.2,0,0.5,0,0.5l0.1,0.2c0.1,0.6,0.1,1.3,0.1,1.9c-0.1,1.5,0,2.5,1,3c2.3,0.1,5,0,7.5-0.1
		c1.4-0.1,2.7-0.1,4-0.1c1.1-0.6,1-1.6,0.7-3.3c-0.2-1.2-0.4-2.5,0.1-3.7l0.2-0.4l3.2,0c2.5,0,4.4,0,5.5,0.3l0.4,0.1l0.1,0.4
		c0.4,1,0.3,2.2,0.3,3.3c-0.1,2-0.1,3,1.4,3.4c1.3-0.2,3.1-0.1,4.9,0c0.9,0,1.8,0.1,2.7,0.1c1.4,0,2.4-0.1,3.3-0.3
		c0.2-0.7,0-1.8-0.1-2.9c-0.2-1.4-0.5-2.8,0.2-3.7c0.3-0.4,0.9-0.6,1.5-0.6l7.4,0.1l1.5,0.8l0.3,8.3l-0.3,0.2
		c-1.5,1.3-3.5,2.8-4.1,7.9c-0.1,1.7,0.4,10.3,0.6,12.9h0.1l0.1,1.4L168.2,49.6z M123.5,47.3c3.9,0.6,27.6,0.8,43.9,0.9
		c-0.2-2.7-0.7-11.1-0.6-13c0.6-5.3,2.7-7.3,4.3-8.6l-0.3-6.8l-0.6-0.3h-6.9c-0.2,0-0.4,0-0.5,0.1c-0.3,0.3-0.1,1.6,0.1,2.5
		c0.3,1.5,0.5,3-0.2,4.1l-0.1,0.2l-0.2,0.1c-1,0.3-2.3,0.4-3.9,0.4c-0.9,0-1.9,0-2.8-0.1c-1.8-0.1-3.6-0.1-4.8,0l-0.1,0l-0.1,0
		c-2.8-0.7-2.6-3-2.5-4.9c0-0.8,0.1-1.7-0.1-2.4c-1.2-0.2-3.1-0.2-4.9-0.2l-2.3,0c-0.2,0.7,0,1.6,0.1,2.5c0.3,1.6,0.6,3.7-1.6,4.8
		l-0.3,0.1c-1.4,0-2.8,0.1-4.2,0.1c-2.6,0.1-5.4,0.2-7.7,0.1l-0.2-0.1c-2.1-0.8-2-2.8-1.9-4.3c0-0.6,0-1.1,0-1.5
		c-0.2-0.4-0.2-0.8-0.1-1.2c0-0.2,0-0.4,0-0.6c-0.7,0.1-1.7,0.1-2.8,0.1c-0.4,0-0.8,0-1.2,0c-0.7,0-1.6,0-2.2,0.3
		c-0.3,1.5,0,3.4,0.2,5.2c0.1,0.6,0.2,1.1,0.2,1.6C122.8,30.2,125.9,37.5,123.5,47.3z"/>
</g>
<g>
	<linearGradient id="SVGID_1_" gradientUnits="userSpaceOnUse" x1="131.7791" y1="38.0885" x2="181.5544" y2="148.4549">
		<stop  offset="0" style="stop-color:#FFED00"/>
		<stop  offset="1" style="stop-color:#EF8100"/>
	</linearGradient>
	<path class="st1" d="M183.9,50.8c-0.5,1.7-2.2,3-2.9,4.6c-2.8,4.1-2,10.1-2,14.7c0.4,25.7,1,53,1.6,78.3c-0.3,1-1.1,1.1-1.8,1.4
		c-15,0.4-47-0.2-48.3,0.1c2.1-1.7,4.6-2.6,7.2-3.8c6.1-6,11.1-11.9,14.6-19.1h0.5c-0.2-0.5-0.3-1.5,0.5-1.2
		c0.2-2.8,2.1-4.8,2.7-7.4c0.6-3.5,2-7,2.3-10.4c1.6-7.1,2.3-15.4,1.4-22.9c-0.3-3.2-6.6-15.9-7.9-18.6c-1.2-1.1-2.8-3.3-3.6-4.7
		c-4.6-6.7-12.4-11.7-18.8-16.6c-0.3-0.7,0.4-1.8-0.2-2.3c0-0.5-0.1-1.6,0-3.4c1.5-1.3,4.1-0.2,6.2-0.7c1.2,0.1,0.5,1.2,0.9,1.8
		c0.4,1.8-0.8,4.7,1.6,5.7c3.7,0.1,8.3-0.2,12.4-0.3c3.1-1.5,0.7-4.7,1.8-7.3c2.6-0.3,5.3-0.7,8-0.2c1,2.7-1.2,6.6,2.3,7.5
		c3.6-0.5,8.5,0.6,11.9-0.4c2.5-2.2-2-8.5,3.5-7.4l5.3-0.3l1,1L183.9,50.8z"/>
	<path d="M164.5,150.6c-5.8,0-12,0-17.5-0.1c-4.4,0-8.3,0-11.2,0c-3.9,0-5,0-5.2,0.1l-0.6-1.2c1.6-1.3,3.5-2.1,5.4-3
		c0.6-0.3,1.2-0.5,1.9-0.8c6.8-6.6,11.2-12.4,14.4-18.9l0.3-0.4c0-0.3,0.1-0.6,0.2-0.9c0.1-0.2,0.3-0.3,0.5-0.4
		c0.2-1.4,0.8-2.7,1.4-3.8c0.5-1,1-2,1.2-3c0.3-1.6,0.7-3.1,1.1-4.7c0.5-2,1-3.8,1.2-5.6c1.8-7.7,2.2-15.8,1.4-22.7
		c-0.2-2-3.1-8.8-7.8-18.3c-1.1-1.1-2.8-3.3-3.7-4.8c-3.7-5.4-9.5-9.6-15-13.7c-1.2-0.9-2.4-1.8-3.6-2.7l-0.2-0.3
		c-0.2-0.5-0.1-1.1-0.1-1.5c0-0.2,0.1-0.5,0.1-0.6l-0.2-0.2l0-0.3c0-0.1,0-0.3,0-0.5c0-0.6-0.1-1.6,0-3l0-0.3l0.2-0.2
		c0.9-0.8,2-0.8,2.7-0.8c0.4,0,0.9,0,1.4,0.1c0.9,0.1,1.8,0.1,2.4,0l0.1,0l0.1,0c1.4,0.1,1.4,1.3,1.4,1.7c0,0.1,0,0.4,0,0.4l0.1,0.2
		c0.1,0.6,0.1,1.3,0.1,2c-0.1,1.6,0,2.6,1,3.1c2.4,0.1,5.3-0.1,8-0.2c1.4-0.1,2.7-0.1,4.1-0.1c1.2-0.7,1.2-1.6,1.1-3.3
		c-0.1-1.1-0.2-2.4,0.3-3.6l0.2-0.4l1.2-0.1c2.5-0.3,5.2-0.5,7.4-0.1l0.4,0.1l0.1,0.4c0.4,1.1,0.3,2.3,0.3,3.4
		c-0.1,2.1-0.1,3.2,1.4,3.6c1.3-0.2,3.2-0.1,5.1,0c1,0,1.9,0.1,2.9,0.1c1.5,0,2.6-0.1,3.6-0.3c0.7-0.7,0.5-2.1,0.4-3.4
		c-0.1-1.4-0.3-2.7,0.5-3.5c0.6-0.7,1.6-0.8,3-0.6l5.5-0.3l1.4,1.4l0.1,12.3l0,0.1c-0.3,1.1-1,1.9-1.6,2.8c-0.5,0.6-1,1.3-1.3,1.9
		c-2.2,3.4-2.1,7.9-2,11.9c0,0.9,0,1.7,0,2.5c0.3,21.8,0.8,44.7,1.4,66.8l0.3,11.6l0,0.1c-0.3,1.2-1.3,1.5-1.9,1.7l-0.5,0.2
		C175.4,150.6,170.7,150.6,164.5,150.6z M135.8,149.1c2.9,0,6.8,0,11.2,0c5.5,0,11.7,0.1,17.5,0.1c6.1,0,10.7,0,14.2-0.1l0.2-0.1
		c0.6-0.2,0.9-0.3,1.1-0.7l-0.3-11.4c-0.5-22.1-1-45-1.4-66.8c0-0.8,0-1.6,0-2.5c-0.1-4.2-0.2-9,2.2-12.6c0.3-0.7,0.8-1.4,1.4-2.1
		c0.6-0.7,1.1-1.4,1.4-2.2l-0.1-11.5l-0.5-0.6l-5.1,0.3l-0.1,0c-0.9-0.2-1.6-0.2-1.8,0.1c-0.3,0.4-0.2,1.4-0.1,2.5
		c0.2,1.6,0.4,3.5-0.9,4.7l-0.3,0.1c-1.1,0.3-2.4,0.4-4.1,0.4c-1,0-2,0-2.9-0.1c-1.9-0.1-3.7-0.1-5,0l-0.1,0l-0.1,0
		c-2.8-0.7-2.7-3.1-2.6-5c0-0.9,0.1-1.7-0.1-2.5c-2-0.3-4.4-0.1-6.6,0.2l-0.4,0c-0.2,0.8-0.2,1.6-0.1,2.5c0.2,1.7,0.3,3.6-2,4.7
		l-0.3,0.1c-1.4,0-2.8,0.1-4.2,0.1c-2.8,0.1-5.7,0.2-8.2,0.2l-0.2,0c-2.1-0.9-2.1-3-2-4.5c0-0.6,0-1.1,0-1.6c-0.2-0.4-0.2-0.7-0.2-1
		c0-0.1,0-0.3,0-0.4c-0.5,0.2-1.6,0.2-2.7,0.1c-1.2-0.1-2.2-0.1-2.8,0.3c0,1.2,0,2,0,2.5c0,0.1,0,0.2,0,0.3c0.4,0.5,0.2,1.2,0.2,1.6
		c0,0.2-0.1,0.4-0.1,0.6c1.1,0.8,2.2,1.7,3.4,2.5c5.7,4.2,11.6,8.5,15.4,14.1c0.8,1.5,2.5,3.6,3.5,4.6l0.1,0.2
		c2.3,4.6,7.7,15.8,8,18.8c0.9,7.1,0.4,15.3-1.4,23.1c-0.2,1.9-0.7,3.9-1.2,5.8c-0.4,1.5-0.8,3-1.1,4.5c-0.3,1.3-0.8,2.3-1.3,3.4
		c-0.6,1.3-1.3,2.5-1.4,3.9l-0.1,0.9l-0.5-0.2c0,0.1,0,0.2,0.1,0.2l0.4,0.9h-1.1c-3.2,6.5-7.8,12.3-14.6,18.9l-0.2,0.1
		c-0.7,0.3-1.3,0.6-2,0.9c-1.1,0.5-2.1,0.9-3.1,1.5C133.6,149.1,134.6,149.1,135.8,149.1z"/>
</g>
<path class="st2" d="M99.9,160.1c36,0,63.9-28.6,62.2-63.7C160.5,61.2,130,32.7,94,32.7c-36,0-63.9,28.6-62.2,63.8
	C33.4,131.6,63.9,160.2,99.9,160.1"/>
<path d="M171.4,71.1c0.4,1.1,0.7,2.7,0.2,3.7c0.1,1,0.1,1.9-0.9,2.3c-1,0.1-1.2-0.8-1.5-1.4c-0.3-0.9,0.5-2.2-1-2.4
	c-0.8,0.4-1.2-0.6-1.4-1.1c0-1.2,0.7-2.5,1.9-2.7C170.1,69.2,170.7,70.3,171.4,71.1"/>
<path d="M168.2,105.8c0.7,2,0.9,5.3-0.6,6.7c-2.3,0-0.7-2.8-1.9-4c-1-0.2-1.7-1.1-1.8-2c0.3-0.6,0.6-1.4,1.4-1.5
	C166.2,104.8,167.6,104.7,168.2,105.8"/>
<g>
	
		<linearGradient id="SVGID_00000151536143464787727730000017650897398253169338_" gradientUnits="userSpaceOnUse" x1="97.4394" y1="0.6879" x2="97.4394" y2="32.521">
		<stop  offset="0" style="stop-color:#FFED00"/>
		<stop  offset="1" style="stop-color:#EF8100"/>
	</linearGradient>
	<path style="fill:url(#SVGID_00000151536143464787727730000017650897398253169338_);" d="M100.9,29.4c-0.2,1.1-0.8,2.3-1.8,2.8
		c-1,0.6-2.1,0.3-3.2-0.3c-1.9-1.2-2.1-3.7-1.6-5.9v-0.6c0.4-1.4,0.4-3.3,0.5-5c0.5-5.6,1.4-11.4,1.8-17l0.6-2.8
		C98.9,9.9,99.7,19.9,100.9,29.4L100.9,29.4z"/>
	<path d="M97.8,33.2c-0.7,0-1.4-0.2-2.3-0.7c-1.9-1.2-2.6-3.6-2-6.6l0-0.4c0-0.1,0-0.1,0-0.2c0.3-1.1,0.3-2.4,0.4-3.8l0.1-1.1
		c0.2-2.6,0.5-5.2,0.9-7.7c0.4-3.1,0.8-6.2,1-9.3l0.6-2.9C96.5,0.2,96.8,0,97.1,0h0c0.3,0,0.6,0.2,0.7,0.6
		c1.3,6.7,2.1,13.9,2.9,20.8c0.3,2.7,0.6,5.4,0.9,8c0,0.1,0,0.1,0,0.2c-0.1,0.6-0.6,2.5-2.2,3.3C98.9,33.1,98.4,33.2,97.8,33.2z
		 M94.9,25.6V26c-0.3,1.3-0.6,4.1,1.3,5.3c1,0.6,1.8,0.7,2.5,0.3c0.8-0.4,1.3-1.4,1.5-2.2c-0.3-2.6-0.6-5.3-0.9-7.9
		c-0.6-5.6-1.2-11.3-2.1-16.8c-0.2,2.7-0.6,5.5-0.9,8.2c-0.3,2.5-0.6,5.2-0.8,7.7l-0.1,1.1C95.3,23,95.2,24.4,94.9,25.6z"/>
</g>
<g>
	
		<linearGradient id="SVGID_00000173137516119274528120000008015713548633017753_" gradientUnits="userSpaceOnUse" x1="60.3622" y1="17.5568" x2="70.158" y2="37.4101">
		<stop  offset="0" style="stop-color:#FFED00"/>
		<stop  offset="1" style="stop-color:#EF8100"/>
	</linearGradient>
	<path style="fill:url(#SVGID_00000173137516119274528120000008015713548633017753_);" d="M71.2,33.8c0.6,0.8,0.7,3-0.9,3.5
		c-1.1,0.3-2.5,0-3.4-0.9l-1.2-1.9c-1.3-5.8-4-11.1-5.3-17C64.3,22.6,68,28.4,71.2,33.8L71.2,33.8z"/>
	<path d="M69.5,38.1c-1.2,0-2.3-0.5-3-1.3l-1.2-2c0-0.1-0.1-0.1-0.1-0.2c-0.6-2.7-1.6-5.4-2.5-8.1c-1-2.9-2.1-5.9-2.7-8.9
		c-0.1-0.3,0.1-0.6,0.4-0.8c0.3-0.1,0.6,0,0.8,0.2c3.2,4.4,6.6,9.7,10.7,16.4c0.4,0.6,0.7,1.9,0.3,3c-0.3,0.8-0.8,1.3-1.6,1.6
		C70.2,38.1,69.8,38.1,69.5,38.1z M66.5,34.2l1.1,1.8c0.5,0.5,1.7,0.9,2.6,0.6c0.3-0.1,0.5-0.3,0.7-0.7c0.2-0.6,0-1.5-0.2-1.8
		c-3.2-5.2-5.9-9.5-8.5-13.2c0.5,1.7,1.1,3.4,1.7,5.1C64.9,28.7,65.8,31.4,66.5,34.2z"/>
</g>
<g>
	
		<linearGradient id="SVGID_00000140712812899235757280000012920853417662558882_" gradientUnits="userSpaceOnUse" x1="21.996" y1="30.1193" x2="46.9545" y2="52.1735">
		<stop  offset="0" style="stop-color:#FFED00"/>
		<stop  offset="1" style="stop-color:#EF8100"/>
	</linearGradient>
	<path style="fill:url(#SVGID_00000140712812899235757280000012920853417662558882_);" d="M45.5,46.8c1,0.9,1.9,1.8,2.3,2.3
		c1,2,0,3-1.3,3.6c-1,0.8-2.5,0.5-3.3,0.1c-1.3-0.7-14.7-15-21.3-22.5C22.2,30.2,38.3,41.3,45.5,46.8z"/>
	<path d="M44.9,53.9c-0.7,0-1.4-0.2-2-0.5c-1.6-0.8-16.1-16.5-21.5-22.6c-0.2-0.2-0.2-0.4-0.1-0.7c0.1-0.2,0.3-0.4,0.5-0.5
		c0,0,0,0,0,0c0.1,0,0.3,0.1,0.6,0.2l0,0c0,0,0.1,0.1,0.1,0.1c3.8,2.1,19.4,13.2,23.4,16.3c1,0.9,2,1.8,2.4,2.4
		c0.6,1.1,0.7,2,0.4,2.8c-0.3,0.8-0.9,1.4-1.9,1.8C46.3,53.7,45.6,53.9,44.9,53.9z M25.7,33.6c7.3,8,16.7,18,17.8,18.6
		c0.3,0.1,0.8,0.3,1.4,0.3c0.3,0,0.8-0.1,1.1-0.3c0.1,0,0.1-0.1,0.2-0.1c0.7-0.3,1.1-0.6,1.2-1c0.2-0.4,0.1-0.9-0.2-1.6
		c-0.3-0.3-1.1-1.2-2.1-2.1C40,43.6,31,37.2,25.7,33.6z"/>
</g>
<g>
	
		<linearGradient id="SVGID_00000036246803550414967220000014440012104102822055_" gradientUnits="userSpaceOnUse" x1="13.8161" y1="66.9533" x2="34.146" y2="75.1398">
		<stop  offset="0" style="stop-color:#FFED00"/>
		<stop  offset="1" style="stop-color:#EF8100"/>
	</linearGradient>
	<path style="fill:url(#SVGID_00000036246803550414967220000014440012104102822055_);" d="M28.8,70.9c2,0.6,4.7,1,5.3,2.3
		c0.8,1.6-0.3,2.5-1.1,2.9c-0.7,0.3-1.5,0.5-2.2,0c-5.5-2.4-10.6-5.7-16.3-8.6l-0.7-0.7C18.9,68.1,23.7,69.8,28.8,70.9L28.8,70.9z"
		/>
	<path d="M31.8,77.2c-0.5,0-1-0.1-1.4-0.4c-3.2-1.4-6.3-3.1-9.6-5c-2.1-1.2-4.3-2.4-6.6-3.6c-0.1,0-0.1-0.1-0.2-0.1l-0.7-0.7
		c-0.2-0.2-0.3-0.6-0.1-0.8c0.2-0.3,0.5-0.4,0.8-0.3c2.3,0.6,4.6,1.2,6.8,1.9c2.6,0.8,5.4,1.5,8.2,2.2c0.4,0.1,0.7,0.2,1.1,0.3
		c2,0.5,4,1.1,4.7,2.4c0.5,0.9,0.9,2.6-1.4,3.9C32.8,77.1,32.3,77.2,31.8,77.2z M18.3,68.8c1.1,0.6,2.1,1.2,3.2,1.8
		c3.3,1.8,6.4,3.6,9.6,5c0.6,0.4,1,0.3,1.7,0c1.1-0.6,1.1-1.3,0.8-2c-0.4-0.8-2.3-1.3-3.8-1.7c-0.4-0.1-0.7-0.2-1.1-0.3
		c-2.8-0.6-5.5-1.4-8.2-2.2C19.7,69.2,19,69,18.3,68.8z"/>
</g>
<g>
	
		<linearGradient id="SVGID_00000018197588454701561470000008319222651902820737_" gradientUnits="userSpaceOnUse" x1="0.6862" y1="99.3008" x2="31.3551" y2="98.949">
		<stop  offset="0" style="stop-color:#FFED00"/>
		<stop  offset="1" style="stop-color:#EF8100"/>
	</linearGradient>
	<path style="fill:url(#SVGID_00000018197588454701561470000008319222651902820737_);" d="M30.9,97.1c0.3,0.9,1,1.9,0.4,3
		c-0.3,1-1.1,1.6-2.1,1.8c-4.2,0.3-7.9-0.4-12.6-0.8c-1-0.1-11.5-1.1-15.9-1.7c4.2-0.7,7.6-1.3,11.8-1.9c5.8-0.8,11.1-1.7,16.6-1.5
		L30.9,97.1L30.9,97.1z"/>
	<path d="M27.1,102.7c-2.2,0-4.3-0.2-6.6-0.5c-1.3-0.1-2.6-0.3-4-0.4c-0.3,0-1.2-0.1-2.4-0.2c-3.6-0.3-10.3-1-13.5-1.5
		c-0.3,0-0.6-0.3-0.6-0.7c0-0.3,0.2-0.6,0.6-0.7c1.6-0.3,3.1-0.5,4.5-0.8c2.4-0.4,4.7-0.8,7.3-1.2l2.5-0.4c4.9-0.7,9.4-1.3,14.3-1.2
		c0.1,0,0.2,0,0.4,0.1l1.7,1.1c0.1,0.1,0.2,0.2,0.3,0.4c0.1,0.2,0.1,0.3,0.2,0.5c0.3,0.8,0.7,1.9,0.1,3c-0.3,1-1.3,1.9-2.6,2.2
		C28.5,102.7,27.8,102.7,27.1,102.7z M5.4,99.4c3.1,0.3,6.6,0.7,8.8,0.9c1.3,0.1,2.2,0.2,2.4,0.2c1.4,0.1,2.7,0.2,4,0.4
		c2.9,0.3,5.6,0.6,8.4,0.4c0.7-0.1,1.3-0.7,1.5-1.3c0.3-0.7,0.2-1.2-0.2-2c0-0.1-0.1-0.2-0.1-0.3l-1.4-0.9
		c-4.7-0.2-9.1,0.5-13.8,1.2l-2.5,0.4C10,98.6,7.8,99,5.4,99.4z"/>
</g>
<g>
	
		<linearGradient id="SVGID_00000121961866381795057840000010562469675223219847_" gradientUnits="userSpaceOnUse" x1="17.7508" y1="133.2142" x2="37.4963" y2="121.0232">
		<stop  offset="0" style="stop-color:#FFED00"/>
		<stop  offset="1" style="stop-color:#EF8100"/>
	</linearGradient>
	<path style="fill:url(#SVGID_00000121961866381795057840000010562469675223219847_);" d="M37.9,121.7c0.2,1.3-0.6,2.5-1.7,3.1
		c-5.6,2.6-12.7,6.2-18.5,8.3c0,0,11.9-10.1,17.3-13.4C36.4,119.6,37.4,120.5,37.9,121.7L37.9,121.7z"/>
	<path d="M17.7,133.8c-0.2,0-0.5-0.1-0.6-0.3c-0.2-0.3-0.1-0.6,0.1-0.9c0.5-0.4,12-10.1,17.4-13.5c0.1-0.1,0.2-0.1,0.3-0.1l0.2,0
		c1.5,0,2.7,0.9,3.3,2.4c0,0.1,0,0.1,0,0.2c0.2,1.6-0.6,3-2.1,3.8c-1.4,0.7-2.9,1.4-4.5,2.1c-4.6,2.2-9.7,4.7-14.1,6.2
		C17.8,133.8,17.7,133.8,17.7,133.8z M35.2,120.3c-3.6,2.2-9.9,7.3-13.8,10.5c3.3-1.4,6.8-3.1,10-4.6c1.6-0.7,3.1-1.5,4.5-2.1
		c0.7-0.4,1.5-1.2,1.3-2.3C36.9,121.2,36.4,120.3,35.2,120.3z"/>
</g>
<g>
	
		<linearGradient id="SVGID_00000011019632725985732450000004146304467178313391_" gradientUnits="userSpaceOnUse" x1="31.3218" y1="166.4536" x2="53.0796" y2="142.2888">
		<stop  offset="0" style="stop-color:#FFED00"/>
		<stop  offset="1" style="stop-color:#EF8100"/>
	</linearGradient>
	<path style="fill:url(#SVGID_00000011019632725985732450000004146304467178313391_);" d="M54,143.3c0.6,1.7-0.3,3.4-1.4,4.5
		c-7.3,6.1-13.8,13.2-21.3,18.5l18-24.6C50.9,141,53.2,141.4,54,143.3L54,143.3z"/>
	<path d="M31.2,167c-0.2,0-0.4-0.1-0.5-0.2c-0.2-0.2-0.3-0.6-0.1-0.9l18-24.6c0.1-0.1,0.2-0.2,0.3-0.2c0.6-0.3,1.3-0.4,2-0.4
		c1.7,0,3.1,0.9,3.7,2.3c0.6,1.8,0,3.7-1.6,5.3c-3,2.5-5.8,5.1-8.5,7.6c-4.1,3.8-8.4,7.7-12.9,11C31.5,167,31.3,167,31.2,167z
		 M49.6,142.3l-15,20.6c3.1-2.5,6.1-5.3,9-8c2.8-2.6,5.6-5.2,8.5-7.6c0.7-0.7,1.8-2.1,1.2-3.8c-0.5-1.3-1.9-1.4-2.4-1.4
		C50.5,142.1,50,142.1,49.6,142.3z"/>
</g>
<g>
	
		<linearGradient id="SVGID_00000165955225741344294470000009203713496354120620_" gradientUnits="userSpaceOnUse" x1="69.0181" y1="176.2417" x2="75.363" y2="155.7151">
		<stop  offset="0" style="stop-color:#FFED00"/>
		<stop  offset="1" style="stop-color:#EF8100"/>
	</linearGradient>
	<path style="fill:url(#SVGID_00000165955225741344294470000009203713496354120620_);" d="M76.9,157.2l-0.1,2.3l-7.9,16.7
		c0.6-6,2-12.6,3.2-18.5c0.2-0.8,0.7-1.7,1.5-2.1C75,155.6,76.4,155.6,76.9,157.2L76.9,157.2z"/>
	<path d="M68.9,176.9c-0.1,0-0.1,0-0.2,0c-0.3-0.1-0.5-0.4-0.5-0.7c0.5-4.8,1.5-10.1,2.5-15.1c0.2-1.2,0.5-2.4,0.7-3.5
		c0.1-0.5,0.6-2,1.9-2.6c0.1,0,0.2-0.1,0.3-0.1c1.1,0,3.3,0,3.9,2.1c0,0.1,0,0.2,0,0.2l-0.1,2.3c0,0.1,0,0.2-0.1,0.3l-7.9,16.7
		C69.5,176.8,69.2,176.9,68.9,176.9z M73.8,156.2c-0.6,0.3-0.9,1-1,1.6c-0.2,1.1-0.4,2.3-0.7,3.5c-0.7,3.6-1.4,7.2-2,10.7l6-12.7
		l0.1-2C75.9,156.4,75.2,156.3,73.8,156.2z"/>
</g>
<g>
	
		<linearGradient id="SVGID_00000101809781740736179380000013114964768172052652_" gradientUnits="userSpaceOnUse" x1="100.1509" y1="191.8575" x2="99.1554" y2="160.4646">
		<stop  offset="0" style="stop-color:#FFED00"/>
		<stop  offset="1" style="stop-color:#EF8100"/>
	</linearGradient>
	<path style="fill:url(#SVGID_00000101809781740736179380000013114964768172052652_);" d="M101.8,161.5c1.8,3,0,6.8,0.2,10.3
		c-0.5,6.5-2,20.1-2,20.1s-1.8-11.6-2.6-16.8c-0.3-4.1-1.1-7.9-1.4-12.1c0.6-1.3,1.5-2.4,3.1-2.5C100,160.4,101,161,101.8,161.5
		L101.8,161.5z"/>
	<path d="M100,192.6c-0.3,0-0.6-0.2-0.7-0.6c0-0.1-1.8-11.7-2.6-16.8c-0.1-2.1-0.4-4.1-0.7-6.1c-0.3-2-0.6-4-0.7-6.1
		c0-0.1,0-0.2,0.1-0.3c0.8-1.8,2-2.8,3.7-2.9c0.1,0,0.2,0,0.2,0c1.1,0,2.2,0.7,3,1.2c0.1,0.1,0.2,0.1,0.2,0.2
		c1.3,2.1,0.9,4.6,0.6,6.9c-0.2,1.2-0.4,2.5-0.3,3.7c-0.5,6.5-2,20.1-2,20.2C100.6,192.3,100.3,192.5,100,192.6
		C100,192.6,100,192.6,100,192.6z M96.6,163.1c0.1,2,0.4,4,0.7,5.8c0.3,2,0.6,4,0.7,6.1c0.5,2.8,1.3,7.8,1.8,11.5
		c0.5-4.5,1.1-11,1.4-14.8c-0.1-1.2,0.1-2.5,0.3-3.8c0.3-2.2,0.6-4.2-0.3-5.9c-0.6-0.4-1.4-0.9-2.1-0.9
		C98,161.2,97.2,161.9,96.6,163.1z"/>
</g>
<radialGradient id="SVGID_00000084497576246746394150000011737825747330263464_" cx="89.1641" cy="87.1033" r="71.7885" gradientUnits="userSpaceOnUse">
	<stop  offset="0" style="stop-color:#FFED00"/>
	<stop  offset="0.1316" style="stop-color:#FFE900"/>
	<stop  offset="0.3038" style="stop-color:#FFDF00"/>
	<stop  offset="0.4987" style="stop-color:#FFCD00"/>
	<stop  offset="0.7101" style="stop-color:#F9B300"/>
	<stop  offset="0.9326" style="stop-color:#F18E00"/>
	<stop  offset="1" style="stop-color:#EF8100"/>
</radialGradient>
<path style="fill:url(#SVGID_00000084497576246746394150000011737825747330263464_);" d="M56.5,51.2c-19.3,17.5-22,46.2-22.2,44.1
	c-1.5-14.8,5-33.2,17.6-44.5c10.9-9.8,25.7-15.9,41.6-16.1c18.7-0.2,24.7,3.1,21,2.9C95.9,36.4,70.7,38.3,56.5,51.2L56.5,51.2z
	 M92.8,46.9c-1.4-0.3-3.2-0.6-4.6,0.2l2.5,3.1c0.7,1.9,0.2,4.2-0.5,6.1c-2.8,6.1-9.2,10.7-15.3,11.6c-5.6,0.9-12,1.1-15.9-3.1
	c-1.7-1.4-1.7-5.7-1.7-5.7c-1.7,1.9-2,4.6-1.5,6.7c0.5,4.3,5.6,4.2,8.9,5.2c6.6,0.9,12.7-0.9,18.4-3.5c4.5-1.1,11.9-7.7,12.4-11.5
	c0.8-3.2,0.6-6.4-1.3-8.4C93.6,47.6,93.1,47.1,92.8,46.9L92.8,46.9z M85.3,49.1c-1.2-0.9-2.8-1-4.2-1.2l0.5,0.8c1.1,1.5,1.8,3,1.8,5
	c0,3.5-2.5,4.9-4.3,5.8c-0.8,0.4-6.4,1.7-8.7,1.1c-4-1.1-4.5-2.7-6.1-5.1l-1.1-1c-0.6,1.3-1.8,4.2-0.8,5.4c3.1,3,4.4,3.9,12.1,3.5
	c3-0.2,7.1-2.1,9.8-4.3c2.2-2.1,2.8-4.6,3-7.4c-0.2-1.2-1.4-2-2.1-2.4L85.3,49.1L85.3,49.1z M39.6,82.7c-0.6,1.2-1.2,2.7-0.9,4.1
	l3.3-1.5c1.8-0.1,3.7,0.8,5.2,1.8c4.6,3.8,7.2,10.5,6.6,16c-0.6,5.1-1.8,10.7-6.4,13.2c-1.7,1.2-5.3,0.2-5.3,0.2
	c1.3,1.9,3.6,2.8,5.5,2.9c3.8,0.6,5-3.9,6.6-6.5c2.3-5.6,2.2-11.3,1.2-16.9c0.1-4.2-4-12.2-7.2-13.5c-2.6-1.4-5.5-2-7.6-0.8
	C40.4,82.2,39.8,82.5,39.6,82.7L39.6,82.7z M39.7,89.8c-1,0.8-1.5,2.2-2,3.4l0.8-0.3c1.6-0.6,3.1-0.8,4.8-0.4c3.1,0.8,3.7,3.3,4,5.1
	c0.2,0.8,0,6-1,7.8c-1.9,3.2-3.4,3.3-5.8,4.2l-1.1,0.7c1,0.8,3.2,2.6,4.5,1.9c3.3-2,4.4-2.9,5.8-9.8c0.5-2.6-0.2-6.6-1.5-9.5
	c-1.3-2.4-3.4-3.5-5.8-4.3c-1.1-0.1-2.1,0.7-2.6,1.3L39.7,89.8L39.7,89.8z M147,71c-0.4-1.4-1-3.1-2.4-4l-1.5,3.7
	c-1.4,1.5-3.6,2.2-5.6,2.4c-6.7,0.4-13.8-3.1-17.5-8c-3.4-4.5-6.6-10.1-4.8-15.5c0.4-2.2,4.2-4.2,4.2-4.2c-2.5-0.6-5,0.4-6.6,1.8
	c-3.6,2.4-1.1,6.9-0.4,10.2c2.4,6.3,6.8,10.8,11.8,14.6c3.1,3.5,12.4,6.9,16,5.5c3.2-0.8,5.9-2.5,6.8-5.1C146.8,72,147,71.3,147,71
	L147,71z M141.6,65.4c0.2-1.4-0.5-2.9-1-4.3l-0.4,0.9c-0.9,1.7-1.8,3-3.5,3.9c-3.1,1.7-5.5,0.1-7.1-1.1c-0.7-0.5-4.6-4.8-5.1-7.1
	c-0.9-4,0.3-5.2,1.6-7.8l0.4-1.4c-1.5,0.1-4.6,0.4-5.1,1.9c-1.2,4.1-1.4,5.7,2.7,12.3c1.6,2.5,5.2,5.2,8.4,6.6
	c2.9,0.9,5.4,0.3,7.9-0.9c0.9-0.7,1.2-2.1,1.1-3L141.6,65.4L141.6,65.4z M153.3,124.2c0.6-1,1.3-2.3,1-3.5l-2.9,1.1
	c-1.6,0-3.2-0.9-4.4-1.9c-3.8-3.6-5.7-9.7-4.8-14.5c0.8-4.4,2.3-9.3,6.4-11.2c1.5-0.9,4.7,0.1,4.7,0.1c-1-1.8-2.9-2.7-4.7-2.9
	c-3.3-0.8-4.6,3.1-6.2,5.3c-2.3,4.8-2.6,9.8-2.1,14.8c-0.3,3.7,2.7,10.9,5.5,12.3c2.2,1.4,4.6,2.1,6.6,1.2
	C152.6,124.7,153.1,124.4,153.3,124.2L153.3,124.2z M153.6,118c0.9-0.6,1.4-1.8,1.9-2.9l-0.7,0.2c-1.4,0.4-2.7,0.6-4.2,0.1
	c-2.7-0.9-3-3.1-3.2-4.7c-0.1-0.7,0.3-5.3,1.4-6.8c1.8-2.7,3.2-2.7,5.4-3.3l1-0.5c-0.9-0.8-2.7-2.4-3.8-1.9c-3,1.5-4,2.3-5.7,8.2
	c-0.6,2.3-0.2,5.8,0.8,8.5c1,2.2,2.8,3.3,4.8,4.1C152.1,119,153.1,118.4,153.6,118L153.6,118L153.6,118z M106.3,154.8
	c0.9,0.2,1.9,0.3,3.2-0.2l-0.5-1.9c0.3-1.2,1.5-2.7,2.7-3.9c4.2-3.9,10.3-7,14.7-7.7c4.1-0.7,8.4-0.9,9.4,1.7c0.6,0.9-1,3.6-1,3.6
	c1.9-1.2,3.2-3,3.6-4.3c1.4-2.7-2.1-2.6-3.9-3.2c-4.1-0.4-8.8,0.8-13.6,2.6c-3.5,0.8-10.9,5.1-12.7,7.6c-1.8,2.1-2.9,4.1-2.4,5.3
	C106,154.4,106.2,154.7,106.3,154.8L106.3,154.8z M111.8,151.8c-0.3,0.7,2.7-0.2,3.5-1.4c1.4-2.3,3.6-3.2,5.1-3.8
	c0.7-0.3,4.9-1.2,6.2-0.9c2.2,0.6,5.3,1,5,0.3c-0.9-1.8-1.4-2.4-6.7-2c-2,0.2-5.5,1.5-8.2,3C114.3,148.4,113,150,111.8,151.8
	L111.8,151.8z M53.5,136.8c0.4,0.8,1,1.6,2.2,2.3l1.2-1.6c1.1-0.6,3-0.6,4.7-0.5c5.7,0.7,12,3.3,15.4,6.2c3.1,2.7,6.1,5.8,4.8,8.3
	c-0.3,1-3.4,1.5-3.4,1.5c2.2,0.6,4.3,0.5,5.7-0.1c3-0.7,0.6-3.3-0.1-5c-2.3-3.4-6.4-6.2-10.8-8.7c-2.9-2.1-11-5-14.1-4.8
	c-2.7,0-5,0.4-5.6,1.6C53.6,136.3,53.5,136.6,53.5,136.8L53.5,136.8z M59.4,139c-0.8,0.2,1.9,1.9,3.3,1.7c2.6-0.4,4.7,0.6,6.2,1.5
	c0.7,0.4,4.1,3,4.7,4.1c1,2.1,2.6,4.7,3,4c0.8-1.9,1-2.6-2.9-6.4c-1.4-1.4-4.7-3.2-7.6-4.3C63.6,138.7,61.5,138.7,59.4,139L59.4,139
	z M135.6,116.7c-1.4,6.7-5,13.5-10.8,18.4c-7,5.2-14.6,9.8-23.8,8.9c-8.5,0.3-16.4-2.1-23.5-5.5c-6-4.9-13.6-10.8-16.6-18.2
	c-2.8-6-3.7-13.8-1.4-20.4c0.8-6,4.7-11,7.5-16.3c6.2-5.5,10.8-11.2,18.9-13.1l0.2,0.2c5.5-1.9,11.4-1.3,17.1-2.3
	c1.3,0.4,3.2,0.4,4.8,0.5c2.6,0.4,4.8,2.2,7.4,2.8c-0.2,1,1.1,0.4,1.3,0.6c4,2.7,9.2,4.3,12.1,8.2c4.1,4.6,7,10.3,7.2,16.4
	c1.1,1.2,0.3,2.8,0.7,4.1c-0.6,1.2,0.1,3.1-0.6,4.3C136.1,109.4,136.8,113.2,135.6,116.7z M134.4,95.7l-2.1-4.8
	c-5.3-9.2-14.8-17.2-25.4-18.8c-7.2-1-14.7,0.5-21.3,1.8c-1.6-0.2-2.9,1.2-4.5,1.3c-8.3,6.1-17,14.2-18.6,24.9
	c-1.4,4.5,0.1,9.4,0.1,14.3c1.2,6.8,6.2,12.3,10.8,17.1c6.2,7.3,16.3,7.8,24.9,10c8.7,0.9,18.7-1.6,24.4-9.4
	c3.3-5.6,10.7-9.6,10.7-16.6C134.5,109.3,136.3,101.8,134.4,95.7z M94.3,79.9c-3.4,0.4-2.5,4.8-5.8,5.7c-2.7-1.3-4.1-3.8-6.8-4.7
	c-0.7,0.1-1.9,0.1-2.2,1.1c-0.7,2.5-0.8,4.8-1.8,7.4c-0.5,1.7-2,3.1-1.9,5.2c0.5,0.9,1.1,1.4,2.2,1.3c0.4-0.4,0.8-0.9,1-1.3
	c0-3.4,0.6-6.8,2.9-9.4c2.2-0.5,3.6,1.6,5.1,3.2c1,0.9,0.6,3.1,2.4,2.9c1.9-1.1,1.9-3.4,3.7-4.7c1.9-0.1,2.2,2.5,2.9,4
	c0.2,1.1,0.8,2.2,1.8,2.5c0.5-0.1,0.8-0.5,0.9-1c-1-3.7-2.2-7.3-3.2-11L94.3,79.9z M122.9,94.1c-0.6,0.7-1.6,1.2-2.3,0.5
	c-2-1.3-2.9-4-5.2-4.4l-8.9,0.1c-2.4,0.4-0.7,4.8-3.9,3.3c-0.6-0.2-1-0.5-1.3-1.1c-0.2-3.6,3.3-5.5,4.5-8.5c2.5-2,4.3-5.7,7.7-5.8
	l1.3,2.1c0.9,3.6,4.7,5.8,5.6,9.2C121.2,90.8,122.4,92.3,122.9,94.1z M114.7,86.6c-0.4-1.3-1.2-3.3-3-2.9c-1.2,0.6-2.7,1.5-3.4,2.9
	c-0.5,0.4-0.4,1.3-0.1,1.8c2.1,1.3,4.4,1.3,6.6,0C114.9,87.9,115,87.1,114.7,86.6z M94.8,101.1c-2.5,2.1-4.5-0.8-6.3-2.2
	c-1.5-1.3-2.5,1.1-3.6,1.8c-1.4,0.8-2.8,0.3-3.9-0.6c-1,0-1.8,0.1-2.6,1c-3.7,0.6-7.2,1.6-10.6-0.5c-0.6,0.1-0.7,0.7-0.7,1.2
	c-1.4,1.6-0.7,3.7-0.7,5.6c0.4,0.7,0.9,1.4,1.9,1.2c2.5-2.3,6.1-0.7,8.8-2.3l4.2,1.2c1.4,0.3,2.6-0.6,3.7,0.4c1.3,3.3,4.1,0,6.4,0.7
	c1,0.3,1.1,1.3,1.7,1.8c2.2,0.8,4.6-0.2,6.8-0.5c2.2-1.2,3.5,1.1,5.2,1.9c2.9-0.9,5.9-2.5,9.1-1.5c1.4,0.6,2.6,2.1,2.9,3.5
	c3.9-0.4,7.7-1.1,10.8-3.6c0.9-1.9,2.7-3.5,2.6-5.6c-3.3-0.8-5.9-3.8-9.2-4.8c-0.7,0.2-1,1.1-1.1,1.8c-0.8,1.5-1.9,1.3-3.4,1.3
	l-8.3-3.2c-1.7-0.1-1.2,2.1-2.7,2.6c-1.1,0.5-2.5,0.6-3.6-0.1c-2.2-0.2-4-2-6.3-2.7C95.3,99.8,95.3,100.6,94.8,101.1L94.8,101.1z
	 M81.8,113.9c-0.1-0.7-1-1.4-1.7-1.4c-1.7,1.9,0.6,5.2-0.3,7.7c0.1,3.9-1.3,8.7,0.3,12.1c0.6,0.4,1.5,0.3,1.9-0.1
	c0.5-1,0.5-2.3,0.4-3.4c1.6-2.8,4.4,0.9,6.7,0c0.6-0.8-0.5-1.5-1.1-2.2c-1.2-1.5-4.1-0.7-4.5-2.7c0.3-1.7,2.2-1.4,3.1-2.5
	c1.4,0,3.1-0.2,3.7-1.5c0.2-0.7,0.3-1.1-0.1-1.6c-0.7-0.3-1.1-0.1-1.6,0.3c-2.6,0.6-4.2,4-7,2.5C81.4,118.6,80.9,116.3,81.8,113.9
	L81.8,113.9z M108.7,117.9c-2-0.1-4.5-2-7-0.8c-3.5,2.1-1.5,6.8-1.5,10.1c0.2,3.1-1.9,6.3,0.3,8.8c3.9-0.1,9.6,3.5,12.5-1.1
	c-1.2-1.1-3.6-0.9-5-1.1c-1.3-0.8-3.6,0.1-4.9-0.7c-1.5-0.7-1.2-2-1.2-3.4c1.1-2.7,4.7-1.1,6.7-1.8c0.3-0.8-0.1-1.2-0.6-1.6
	c-2.3-0.5-4.7,1.3-6.1-1.1c-0.3-1.1-0.7-2.1-0.1-3.2c2.3-3.7,7.5-1.8,10.9-1.2c1.2,0.3,1.2-1.3,1.3-1.9
	C113.2,117.3,110.3,118.2,108.7,117.9L108.7,117.9z M48,75.7c1.1,0,2-0.9,2-2c0-1.1-0.9-2-2-2c-1.1,0-2,0.9-2,2
	C46,74.8,46.9,75.7,48,75.7L48,75.7z M54.2,85.2c1.1,0,2.1-0.9,2.1-2c0-1.1-0.9-2-2.1-2c-1.1,0-2,0.9-2,2
	C52.2,84.2,53.1,85.2,54.2,85.2L54.2,85.2z M59.5,78.1c1.1,0,2-0.9,2-2c0-1.1-0.9-2-2-2c-1.1,0-2,0.9-2,2
	C57.4,77.2,58.3,78.1,59.5,78.1L59.5,78.1z M74.2,54.9c1.1,0,2-0.9,2-2c0-1.1-0.9-2-2-2c-1.1,0-2,0.9-2,2
	C72.2,54,73.1,54.9,74.2,54.9L74.2,54.9z M103.5,47.5c1.1,0,2-0.9,2-2c0-1.1-0.9-2-2-2c-1.1,0-2,0.9-2,2
	C101.4,46.6,102.3,47.5,103.5,47.5L103.5,47.5z M99.2,62.4c1.1,0,2-0.9,2-2c0-1.1-0.9-2-2-2c-1.1,0-2,0.9-2,2
	C97.1,61.5,98,62.4,99.2,62.4L99.2,62.4z M107,63.1c1.1,0,2-0.9,2-2c0-1.1-0.9-2-2-2c-1.1,0-2,0.9-2,2C105,62.1,105.9,63.1,107,63.1
	L107,63.1z M149.3,80.4c0.5,1,1.7,1.4,2.7,0.9c1-0.5,1.4-1.7,0.9-2.7c-0.5-1-1.7-1.4-2.7-0.9C149.2,78.2,148.8,79.4,149.3,80.4
	L149.3,80.4z M153.1,109.3c0.5,1,1.7,1.4,2.7,0.9c1-0.5,1.4-1.7,0.9-2.7c-0.5-1-1.7-1.4-2.7-0.9C153,107,152.6,108.3,153.1,109.3
	L153.1,109.3z M136.6,82.2c0.5,1,1.7,1.4,2.7,0.9c1-0.5,1.4-1.7,0.9-2.7c-0.5-1-1.7-1.4-2.7-0.9C136.6,80,136.2,81.2,136.6,82.2
	L136.6,82.2z M140.3,90.4c0.5,1,1.7,1.4,2.7,0.9c1-0.5,1.4-1.7,0.9-2.7c-0.5-1-1.7-1.4-2.7-0.9C140.2,88.1,139.8,89.4,140.3,90.4
	L140.3,90.4z M142.4,134.1c-0.7,0.9-0.4,2.2,0.5,2.8c0.9,0.7,2.2,0.4,2.9-0.5c0.6-0.9,0.4-2.2-0.5-2.8
	C144.3,133,143,133.2,142.4,134.1L142.4,134.1z M139.3,124.1c-0.7,0.9-0.4,2.2,0.5,2.8c0.9,0.7,2.2,0.4,2.8-0.5
	c0.6-0.9,0.4-2.2-0.5-2.8C141.3,122.9,140,123.1,139.3,124.1L139.3,124.1z M133.7,133.2c-0.7,0.9-0.4,2.2,0.5,2.8
	c0.9,0.7,2.2,0.4,2.8-0.5c0.7-0.9,0.4-2.2-0.5-2.8C135.7,132.1,134.4,132.3,133.7,133.2L133.7,133.2z M36.8,100.5
	c-0.7,0.9-0.4,2.2,0.5,2.8c0.9,0.6,2.2,0.4,2.8-0.5c0.7-0.9,0.4-2.2-0.5-2.8C38.8,99.4,37.5,99.6,36.8,100.5L36.8,100.5z
	 M46.4,123.1c-0.7,0.9-0.4,2.2,0.5,2.8c0.9,0.7,2.2,0.4,2.8-0.5c0.7-0.9,0.4-2.2-0.5-2.8C48.4,122,47.1,122.2,46.4,123.1L46.4,123.1
	z M51.1,130c-0.7,0.9-0.4,2.2,0.5,2.8c0.9,0.7,2.2,0.4,2.8-0.5c0.7-0.9,0.4-2.2-0.5-2.9C53,128.8,51.7,129.1,51.1,130L51.1,130z
	 M98.8,152.1c-0.6,0.9-0.4,2.2,0.5,2.8c0.9,0.6,2.2,0.4,2.8-0.5c0.7-0.9,0.4-2.2-0.5-2.9C100.7,150.9,99.5,151.2,98.8,152.1
	L98.8,152.1z M88.9,151.9c-0.7,0.9-0.4,2.2,0.5,2.8c0.9,0.7,2.2,0.4,2.9-0.5c0.6-0.9,0.4-2.2-0.5-2.8
	C90.8,150.8,89.5,151,88.9,151.9L88.9,151.9z M133,58.7c1.1,0,2-0.9,2-2c0-1.1-0.9-2-2-2c-1.1,0-2,0.9-2,2
	C130.9,57.8,131.8,58.7,133,58.7L133,58.7z"/>
</svg>
