<?xml version="1.0" encoding="utf-8"?>
<!-- Generator: Adobe Illustrator 27.9.0, SVG Export Plug-In . SVG Version: 6.00 Build 0)  -->
<svg version="1.1" id="Layer_1" xmlns="http://www.w3.org/2000/svg" xmlns:xlink="http://www.w3.org/1999/xlink" x="0px" y="0px"
	 viewBox="0 0 81.1 152.6" style="enable-background:new 0 0 81.1 152.6;" xml:space="preserve">
<style type="text/css">
	.st0{fill:#3EAE93;}
	.st1{fill:#FFFFFF;}
	.st2{fill-rule:evenodd;clip-rule:evenodd;fill:#00AD01;}
	.st3{fill-rule:evenodd;clip-rule:evenodd;fill:#FFFFFF;}
	.st4{fill-rule:evenodd;clip-rule:evenodd;fill:#7F7F7F;}
</style>
<g>
	<g id="eVkMQl.tif">
		<g>
			<path class="st0" d="M81,16.9c0,0.1-0.1,0.2-0.1,0.4c-0.1,1.4-0.7,2.4-1.7,3.3c-0.9,0.7-1.9,1.1-3.1,1.1c-0.5,0-1-0.1-1.5-0.3
				c-0.9-0.4-1.7-0.8-2.5-1.3c-3.8-2.7-7.9-4.9-12.3-6.6c-3.1-1.2-6.3-2-9.6-2.6c-1.7-0.3-3.5-0.5-5.2-0.7c-2.4-0.2-4.7-0.2-7.1-0.1
				c-5.9,0.3-11.7,1.4-17.3,3.6c-4,1.5-7.6,3.5-11.1,5.9C9,20,8.4,20.3,7.9,20.7c-0.9,0.6-1.9,0.9-3,0.9c-2.2,0-4-1.4-4.6-3.4
				c-0.6-1.9-0.2-3.6,1.2-5c0.4-0.4,0.9-0.7,1.3-1.1c6.4-4.6,13.5-7.9,21.1-9.9c2.3-0.6,4.6-1.1,6.9-1.4c1.6-0.2,3.3-0.4,4.9-0.6
				c0.8-0.1,1.6-0.1,2.4-0.1c0.1,0,0.3,0,0.4-0.1c1.2,0,2.3,0,3.5,0c0.2,0,0.3,0.1,0.5,0.1c1.6,0,3.2,0.2,4.8,0.3
				c1.8,0.2,3.5,0.4,5.2,0.8c2.9,0.5,5.8,1.3,8.7,2.2c6.3,2.1,12.1,5.1,17.5,9c0.3,0.2,0.5,0.4,0.8,0.7c0.9,0.9,1.4,1.9,1.5,3.2
				c0,0.1,0,0.2,0.1,0.3C81,16.8,81,16.8,81,16.9z"/>
			<path class="st0" d="M13.7,60c17.3,0,34.6,0,51.8,0c0,0.1,0,0.3,0,0.4c0,5.8,0,11.6,0,17.5c-0.3,7.3-3.2,13.5-8.6,18.4
				c-3.3,3-7.1,5-11.5,6c-1.2,0.3-2.3,0.4-3.5,0.6c-1.4,0.1-2.8,0.1-4.2,0c-4.2-0.3-8.1-1.5-11.7-3.8c-6.1-3.9-10-9.3-11.7-16.4
				c-0.4-1.7-0.6-3.5-0.6-5.3c0-5.6,0-11.1,0-16.7C13.7,60.5,13.7,60.3,13.7,60z"/>
			<path class="st0" d="M44.5,112.3c2,1.2,3.4,2.8,4.3,4.9c0.4,1,0.7,2.2,0.6,2.9c-0.3,0.1-19.2,0.1-19.6,0c0.1-1.6,0.6-3.1,1.5-4.5
				c0.9-1.4,2-2.5,3.4-3.4c-0.3-0.1-0.7-0.1-1-0.2c-5.9-1-11.3-3.4-16-7.1c-6.6-5-10.9-11.7-12.8-19.7c-0.4-1.8-0.7-3.5-0.8-5.3
				C4,79.5,4,79.2,4,78.8c-0.1-2,1.4-3.7,3.4-4c1.9-0.2,3.9,1,4.3,3.3c0.1,0.4,0.1,0.7,0.1,1.1c0.9,11.7,9.2,21.6,20.6,24.7
				c2.9,0.8,5.8,1.1,8.8,0.9c11.5-0.7,21.2-8.1,24.9-18.8c0.7-2.2,1.2-4.4,1.4-6.7c0-0.5,0.1-0.9,0.2-1.4c0.4-1.7,1.9-3,3.9-3
				c1.9,0.1,3.4,1.4,3.8,3.3c0.1,0.6,0,1.1,0,1.7c-0.2,1.9-0.5,3.8-0.9,5.7c-2.7,10.6-10.1,19.5-20.1,24c-2.8,1.2-5.7,2.1-8.8,2.6
				C45.1,112.2,44.9,112.2,44.5,112.3z"/>
			<path class="st0" d="M13.9,58.1c0.8-7.9,5.9-15.5,12.9-19.3c0,0.2,0,0.3,0,0.4c0,3.7,0,7.4,0,11.1c0,0.2,0,0.4,0,0.6
				c0.2,1.1,1.1,1.6,2,1.6c1-0.1,1.8-0.9,1.8-1.9c0-0.1,0-0.3,0-0.4c0-4.3,0-8.5,0-12.8c0-0.1,0-0.3,0-0.5c1.1-0.4,2.2-0.7,3.4-1
				c0,0.2,0,0.3,0,0.4c0,4.7,0,9.3,0,14c0,0.2,0,0.5,0.1,0.7c0.2,0.9,1.1,1.5,2,1.4s1.7-0.7,1.8-1.6c0-0.2,0-0.4,0-0.6
				c0-4.8,0-9.6,0-14.3c0-0.2,0-0.3,0-0.5c1.1-0.1,2.2-0.1,3.3,0c0,0.2,0,0.3,0,0.5c0,4.8,0,9.6,0,14.4c0,0.2,0,0.4,0,0.6
				c0.1,1,1,1.7,2,1.6s1.8-0.9,1.9-1.9c0-0.1,0-0.3,0-0.4c0-4.6,0-9.2,0-13.8c0-0.1,0-0.3,0-0.5c1.2,0.2,2.2,0.6,3.3,1
				c0,0.2,0,0.3,0,0.4c0,4.3,0,8.7,0,13c0,0.2,0,0.5,0.1,0.7c0.2,0.9,1,1.5,2,1.5c0.9,0,1.7-0.7,1.8-1.7c0-0.2,0-0.4,0-0.6
				c0-3.7,0-7.3,0-11c0-0.1,0-0.3,0-0.4c0.9,0.1,4.9,3.3,6.8,5.4c3.4,4,5.5,8.6,6.2,13.9C48.2,58.1,31,58.1,13.9,58.1z"/>
			<path class="st0" d="M40.4,19.6c5.5,0,10.9,0.9,16,3c2.8,1.1,5.5,2.5,8,4.2c1.4,0.9,2.1,2.2,2.3,3.8c0.1,0.6,0.1,1.2-0.1,1.8
				c-0.4,1.5-1.4,2.5-2.8,3.1c-1.5,0.6-3,0.5-4.4-0.3c-1.1-0.6-2.2-1.2-3.2-1.8c-3.1-1.7-6.4-2.8-9.9-3.4c-2.5-0.4-5-0.6-7.5-0.5
				c-5.8,0.3-11.2,2-16.2,5.1c-0.6,0.4-1.2,0.8-1.9,1c-1.9,0.6-3.6,0.1-5.1-1.2c-0.8-0.7-1.1-1.7-1.3-2.7c-0.2-1.3,0-2.5,0.8-3.6
				c0.4-0.6,0.9-1,1.5-1.4c3.7-2.4,7.6-4.2,11.8-5.4c2-0.6,4.1-1,6.2-1.3C36.5,19.8,38.4,19.6,40.4,19.6z"/>
		</g>
	</g>
	<g>
		<path class="st1" d="M29.9,81.3c0,0.9-0.2,1.5-0.7,2c-0.4,0.5-0.9,0.7-1.5,0.7s-1-0.2-1.5-0.7c-0.4-0.4-0.6-1.1-0.6-1.8V68.4h-1.9
			c-0.6,0-1-0.2-1.3-0.6c-0.3-0.4-0.5-0.9-0.5-1.4s0.2-1,0.5-1.4c0.3-0.4,0.8-0.6,1.3-0.6h4.6c0.3,0,0.6,0.2,1,0.5s0.5,0.7,0.5,0.9
			L29.9,81.3L29.9,81.3z"/>
		<path class="st1" d="M38.1,63.7c2.4,0,4.3,1.1,5.8,3.3c1.4,2,2,4.4,2,7.2c0,2.7-0.7,4.9-2,6.7c-1.5,2-3.5,3-6.1,3s-4.6-1-6.1-3.1
			c-1.4-1.9-2-4.2-2-6.9c0-2.8,0.7-5.1,2.1-7C33.4,64.8,35.5,63.7,38.1,63.7z M37.9,79.8c1,0,1.9-0.6,2.5-1.9
			c0.6-1.1,0.9-2.5,0.9-4.1c0-1.5-0.3-2.8-0.8-3.9c-0.6-1.1-1.5-1.7-2.6-1.7s-2,0.6-2.7,1.8c-0.6,1.1-0.9,2.4-0.9,4
			c0,1.6,0.3,2.9,0.9,4C35.9,79.1,36.8,79.8,37.9,79.8z"/>
		<path class="st1" d="M57,69.8c0,1.2-0.3,2.5-1,3.7c-0.5,1-1.3,2-2.4,3.2c-0.9,1-1.8,1.9-2.7,2.9H56c0.5,0,0.8,0.2,1.1,0.7
			c0.3,0.4,0.4,0.9,0.4,1.5c0,0.5-0.1,1-0.4,1.4c-0.3,0.4-0.7,0.5-1.2,0.5H46c-0.5,0-0.9-0.2-1.3-0.5c-0.3-0.3-0.5-0.8-0.5-1.3
			c0-0.9,0.5-1.9,1.6-2.9c1.4-1.3,2.7-2.7,3.9-4.4c1.7-2.2,2.6-3.9,2.6-5.1c0-0.4-0.2-0.8-0.5-1.1S51.1,68,50.6,68
			c-0.6,0-1.1,0.2-1.5,0.7c-0.5,0.5-0.8,1.3-1,2.3c-0.1,0.9-0.7,1.3-1.5,1.3c-0.6,0-1.1-0.2-1.6-0.6c-0.5-0.4-0.7-0.9-0.7-1.6
			c0-0.1,0-0.3,0-0.4c0.3-2,1.2-3.5,2.4-4.6c1.1-0.9,2.4-1.4,3.9-1.4c1.7,0,3.1,0.5,4.3,1.6C56.4,66.5,57,68,57,69.8z"/>
	</g>
	<g>
		<path class="st1" d="M36.9,91.3h-2.8v1.6h2.4c0.3,0,0.5,0.1,0.7,0.3c0.1,0.2,0.2,0.4,0.2,0.7s-0.1,0.5-0.2,0.7
			c-0.2,0.2-0.4,0.3-0.7,0.3h-2.4V98c0,0.3-0.1,0.6-0.3,0.8c-0.2,0.2-0.5,0.3-0.8,0.3s-0.6-0.1-0.8-0.3c-0.2-0.2-0.3-0.5-0.3-0.8
			v-7.8c0-0.7,0.3-1,0.9-1h3.8c0.3,0,0.6,0.1,0.8,0.3c0.2,0.2,0.3,0.5,0.3,0.8s-0.1,0.5-0.2,0.6C37.4,91.2,37.2,91.3,36.9,91.3z"/>
		<path class="st1" d="M48.7,98c0,0.1,0,0.2,0,0.2c0,0.3-0.1,0.6-0.3,0.7c-0.2,0.2-0.4,0.3-0.7,0.3c-0.3,0-0.5-0.1-0.7-0.3
			s-0.4-0.5-0.4-0.8l-0.9-4.9l-1.5,5c-0.3,0.7-0.7,1-1.2,1c-0.6,0-1-0.4-1.2-1.1l-1.7-4.8l-0.7,4.4c-0.1,0.9-0.6,1.4-1.2,1.4
			c-0.3,0-0.6-0.1-0.8-0.3c-0.2-0.2-0.3-0.5-0.3-0.8c0-0.1,0-0.1,0-0.2l1.3-7.3c0.1-0.4,0.3-0.8,0.6-1c0.3-0.2,0.6-0.4,1-0.4
			c0.7,0,1.2,0.4,1.5,1.2l1.5,4.5l1.6-4.5c0.1-0.4,0.3-0.7,0.6-0.9c0.3-0.2,0.6-0.3,0.9-0.3s0.7,0.1,0.9,0.4c0.3,0.2,0.4,0.6,0.5,1
			L48.7,98z"/>
	</g>
</g>
<g>
	<g transform="translate(-395 -286)">
		<path class="st2" d="M450.5,416.4c0-0.4,0.3-0.6,0.6-0.6h21.9c0.4,0,0.6,0.3,0.6,0.6V438c0,0.4-0.3,0.6-0.6,0.6h-21.9
			c-0.4,0-0.6-0.3-0.6-0.6V416.4z"/>
		<path class="st3" d="M467.8,419.4L465,425c0.5,0.2,1.5,0.7,2,1c0.4,0.4,1,1.1,1.2,2c0,0,0.1,1.3,0.2,1.7c0,0.2,0,0.8,0,0.8
			l-0.1,0.2l0,0l0,0l-0.3,1l-0.4,0.8l0,0v0l-0.2,0.3c-0.2,0.4-0.5,0.7-0.8,1l-0.1,0.1l-0.1,0.1l-0.3,0.2l-0.6,0.4l-0.4,0.2l-0.3,0.2
			l-0.4,0.1l-0.1,0l-0.1,0l-0.1,0l0,0l-0.8,0.2l-0.2,0h-0.1h0h-0.2c0,0-0.8,0-1,0c-0.3,0-1.2-0.1-1.2-0.1c-0.4-0.1-0.8-0.2-1.2-0.3
			l0,0l-0.3-0.1l-0.6-0.3l0,0l-2.2-1.2l1.7-3.2c0,0,1.6,0.9,2.1,1.1c0.2,0.1,0.9,0.3,1.9,0.3c0.3,0,1.6-0.2,2-1.2
			c0.2-0.5,0.4-1.3,0-2c-0.2-0.4-0.5-0.7-0.9-0.9c-0.3-0.2-0.8-0.4-1.2-0.4c-0.2,0-0.8,0-0.8,0H461h-1.2l2.4-4.6h-4.8v-3.3H467.8z"
			/>
	</g>
	<g transform="translate(-492 -301)">
		<path class="st4" d="M494.6,433.1h12.4c0.1,0,0.3,0.1,0.3,0.3v4.2c0,0.1-0.1,0.3-0.3,0.3H500v2.4h5.4c0.1,0,0.2,0.1,0.2,0.2v3.5
			c0,0.1-0.1,0.2-0.2,0.2H500v2.3h7.1c0.1,0,0.3,0.1,0.3,0.3v4.3c0,0.1-0.1,0.3-0.3,0.3h-12.4c-0.1,0-0.3-0.1-0.3-0.3v-17.6
			C494.4,433.2,494.5,433.1,494.6,433.1z"/>
		<path class="st4" d="M539.9,433.1h-14.2v0c1.5,1.2,2.6,2.9,3,4.7h2.3V451c0,0.2,0.1,0.3,0.3,0.3h5c0.2,0,0.3-0.1,0.3-0.3v-13.1
			h3.3c0.2,0,0.4-0.2,0.4-0.4v-3.9C540.3,433.3,540.1,433.1,539.9,433.1z"/>
		<path class="st4" d="M516.1,437.9v4h2.4c1.1,0,2-0.9,2-2l0,0c0-1.1-0.9-2-2-2L516.1,437.9L516.1,437.9z M510.8,433.1h8
			c3.8,0,6.9,3.1,6.9,6.9l0,0c0,3.8-3.1,6.9-6.9,6.9h-2.7v4.2c0,0.2-0.1,0.3-0.3,0.3h-5c-0.2,0-0.3-0.1-0.3-0.3v-17.6
			C510.6,433.2,510.7,433.1,510.8,433.1z"/>
	</g>
</g>
</svg>
