<?xml version="1.0" encoding="utf-8"?>
<!-- Generator: Adobe Illustrator 27.9.0, SVG Export Plug-In . SVG Version: 6.00 Build 0)  -->
<svg version="1.1" id="Layer_1" xmlns="http://www.w3.org/2000/svg" xmlns:xlink="http://www.w3.org/1999/xlink" x="0px" y="0px"
	 viewBox="0 0 343.97 107.22" style="enable-background:new 0 0 343.97 107.22;" xml:space="preserve">
<style type="text/css">
	.st0{fill:#424242;}
	
		.st1{clip-path:url(#SVGID_00000125590937056283004270000007788500826677284235_);fill:url(#SVGID_00000024704168354717863040000012407023872502257802_);}
	
		.st2{clip-path:url(#SVGID_00000021804769440249204620000017065732529008540862_);fill:url(#SVGID_00000037685903545016230770000005698467591891519618_);}
</style>
<g>
	<path class="st0" d="M18.56,22.4l-8.43-0.24l0.54-18.93c0.05-1.84,1.58-3.28,3.42-3.23l1.79,0.05c1.84,0.05,3.28,1.58,3.23,3.42
		L18.56,22.4z"/>
	<path class="st0" d="M36.67,22.92l-8.43-0.24l0.54-18.93c0.05-1.84,1.58-3.28,3.42-3.23l1.79,0.05c1.84,0.05,3.28,1.58,3.23,3.42
		L36.67,22.92z"/>
</g>
<g>
	<defs>
		<path id="SVGID_1_" d="M53.96,16.83v54.66c0,6.13-3.6,10.78-11.79,10.78c-7.89,0-11.79-4.66-11.79-10.78V58.92
			c8.9-2.76,15.44-10.39,15.73-19.57l0.66-22.52H0.67l-0.66,21.3c-0.3,9.79,6.6,18.2,16.26,20.95v12.4
			c0,12.66,10.13,22.3,25.91,22.3c16.17,0,25.91-9.64,25.91-22.3V16.83H53.96z"/>
	</defs>
	<clipPath id="SVGID_00000129169342114560870600000003943564749741438088_">
		<use xlink:href="#SVGID_1_"  style="overflow:visible;"/>
	</clipPath>
	
		<linearGradient id="SVGID_00000160870985355353749500000001032317401417958018_" gradientUnits="userSpaceOnUse" x1="180.5324" y1="600.6442" x2="181.5324" y2="600.6442" gradientTransform="matrix(55.9196 34.9617 34.9617 -55.9196 -31084.4609 27316.6738)">
		<stop  offset="0" style="stop-color:#0690B6"/>
		<stop  offset="1" style="stop-color:#004873"/>
	</linearGradient>
	
		<polygon style="clip-path:url(#SVGID_00000129169342114560870600000003943564749741438088_);fill:url(#SVGID_00000160870985355353749500000001032317401417958018_);" points="
		18.92,-13.9 102.68,38.46 48.87,124.53 -34.89,72.17 	"/>
</g>
<g>
	<defs>
		<path id="SVGID_00000069394878656720566220000016311216817441224368_" d="M90.63,29.23h11.05c5.32,0,9.14,2.51,9.14,7.73
			c0,5.12-3.92,7.83-9.04,7.83H90.63V29.23z M76.07,16.68v61.67h14.56V57.15h12.05c13.86,0,23.2-7.83,23.2-20.19
			c0-11.75-9.44-20.29-23.2-20.29H76.07z"/>
	</defs>
	<clipPath id="SVGID_00000081639295336035265680000002727095988223061941_">
		<use xlink:href="#SVGID_00000069394878656720566220000016311216817441224368_"  style="overflow:visible;"/>
	</clipPath>
	
		<linearGradient id="SVGID_00000118378656428683322210000013995402147354354310_" gradientUnits="userSpaceOnUse" x1="177.4889" y1="602.5364" x2="178.4889" y2="602.5364" gradientTransform="matrix(49.8164 0 0 -49.8164 -8794.8389 30063.7051)">
		<stop  offset="0" style="stop-color:#0690B6"/>
		<stop  offset="1" style="stop-color:#004873"/>
	</linearGradient>
	
		<rect x="76.07" y="16.68" style="clip-path:url(#SVGID_00000081639295336035265680000002727095988223061941_);fill:url(#SVGID_00000118378656428683322210000013995402147354354310_);" width="49.82" height="61.67"/>
</g>
<g>
	<path class="st0" d="M179.03,71.04c0,0-6.31,7.3-20.23,7.3c-19.14,0-30.49-14.01-30.49-30.98s11.35-30.88,30.49-30.88
		c13.91,0,20.23,7.2,20.23,7.2l-8.19,10.95c0,0-3.95-4.44-11.84-4.44c-9.27,0-15.88,6.91-15.88,17.17s6.61,17.17,15.88,17.17
		c7.89,0,11.84-4.44,11.84-4.44L179.03,71.04z"/>
	<path class="st0" d="M219.76,16.39h-16.26l-23.56,61.73H196l3.81-11.11h23.66l3.81,11.11h16.05L219.76,16.39z M203.81,55.28
		l7.82-22.84l7.82,22.84H203.81z"/>
	<path class="st0" d="M251.1,59.43c0,0,8.47,5.71,16.45,5.71c4.43,0,6.5-1.97,6.5-4.92c0-3.05-1.87-4.63-10.14-7.09
		c-12.41-3.64-19.5-8.47-19.5-18.22c0-10.74,7.29-18.32,22.85-18.32c16.06,0,22.26,6.3,22.26,6.3l-7.68,11.62
		c0,0-6.21-4.92-14.58-4.92c-4.83,0-6.4,1.87-6.4,4.33c0,2.96,2.56,4.14,9.36,6.11c13.1,3.64,20.59,8.77,20.59,18.62
		c0,10.74-7.19,19.6-22.75,19.6c-16.35,0-24.72-7.88-24.72-7.88L251.1,59.43z"/>
	<polygon class="st0" points="294.38,16.67 343.97,16.67 343.97,29.51 326.62,29.51 326.62,78.27 311.73,78.27 311.73,29.51 
		294.38,29.51 	"/>
	<path class="st0" d="M131.48,106.93c-0.21,0-0.37-0.06-0.49-0.19c-0.11-0.12-0.17-0.28-0.17-0.47V87.51c0-0.21,0.06-0.38,0.17-0.5
		c0.12-0.12,0.28-0.19,0.49-0.19h7.3c1.42,0,2.65,0.23,3.69,0.69c1.04,0.46,1.85,1.15,2.43,2.05c0.58,0.91,0.86,2.04,0.86,3.4
		c0,1.36-0.29,2.49-0.86,3.39c-0.57,0.9-1.38,1.58-2.43,2.04c-1.05,0.46-2.28,0.69-3.69,0.69h-5.09v7.18c0,0.19-0.06,0.35-0.19,0.47
		c-0.12,0.12-0.29,0.19-0.5,0.19H131.48z M133.66,96.68h4.97c1.42,0,2.48-0.32,3.19-0.95c0.71-0.63,1.06-1.55,1.06-2.76
		c0-1.19-0.34-2.11-1.03-2.76c-0.69-0.65-1.76-0.98-3.22-0.98h-4.97V96.68z"/>
	<path class="st0" d="M161.93,106.93c-0.21,0-0.37-0.06-0.49-0.19c-0.12-0.12-0.17-0.28-0.17-0.47V87.51c0-0.21,0.06-0.38,0.17-0.5
		c0.11-0.12,0.28-0.19,0.49-0.19h7.01c2.16,0,3.88,0.51,5.14,1.52c1.26,1.02,1.89,2.52,1.89,4.51c0,1.48-0.37,2.68-1.11,3.61
		s-1.74,1.58-3,1.94l4.42,7.64c0.06,0.12,0.09,0.22,0.09,0.32c0,0.15-0.06,0.29-0.19,0.4s-0.26,0.17-0.42,0.17h-1.38
		c-0.33,0-0.57-0.09-0.72-0.26c-0.15-0.17-0.29-0.34-0.4-0.52l-4.17-7.3h-5.03v7.41c0,0.19-0.06,0.35-0.19,0.47
		c-0.12,0.12-0.29,0.19-0.5,0.19H161.93z M164.09,96.42h4.74c1.44,0,2.51-0.3,3.22-0.9c0.71-0.6,1.06-1.5,1.06-2.69
		c0-1.17-0.35-2.06-1.05-2.67c-0.7-0.61-1.78-0.92-3.23-0.92h-4.74V96.42z"/>
	<path class="st0" d="M199.31,107.22c-1.65,0-3.06-0.28-4.22-0.85c-1.17-0.57-2.07-1.44-2.7-2.61c-0.63-1.18-0.99-2.66-1.06-4.44
		c-0.02-0.84-0.03-1.65-0.03-2.43s0.01-1.58,0.03-2.43c0.08-1.76,0.45-3.23,1.11-4.41c0.66-1.18,1.58-2.06,2.76-2.64
		c1.18-0.58,2.55-0.88,4.12-0.88c1.55,0,2.92,0.29,4.09,0.88c1.18,0.58,2.1,1.46,2.77,2.64c0.67,1.18,1.03,2.65,1.09,4.41
		c0.04,0.84,0.06,1.65,0.06,2.43s-0.02,1.59-0.06,2.43c-0.06,1.78-0.41,3.26-1.05,4.44c-0.64,1.18-1.55,2.05-2.72,2.61
		C202.34,106.94,200.94,107.22,199.31,107.22 M199.31,104.78c1.45,0,2.65-0.44,3.58-1.32c0.93-0.88,1.43-2.31,1.51-4.28
		c0.04-0.86,0.06-1.63,0.06-2.31s-0.02-1.44-0.06-2.28c-0.04-1.32-0.28-2.39-0.73-3.22c-0.45-0.82-1.05-1.43-1.8-1.81
		c-0.75-0.38-1.6-0.57-2.56-0.57c-0.96,0-1.81,0.19-2.56,0.57c-0.75,0.38-1.35,0.99-1.8,1.81c-0.45,0.82-0.7,1.9-0.76,3.22
		c-0.02,0.84-0.03,1.6-0.03,2.28s0.01,1.45,0.03,2.31c0.08,1.97,0.58,3.4,1.52,4.28C196.66,104.34,197.86,104.78,199.31,104.78"/>
	<path class="st0" d="M229.51,107.22c-0.98,0-1.9-0.12-2.77-0.37c-0.87-0.25-1.65-0.62-2.33-1.12c-0.68-0.5-1.22-1.13-1.62-1.9
		c-0.4-0.77-0.62-1.67-0.66-2.7c0-0.17,0.06-0.32,0.17-0.45c0.11-0.12,0.27-0.19,0.46-0.19h1.55c0.21,0,0.38,0.06,0.5,0.19
		c0.12,0.12,0.21,0.28,0.25,0.47c0.08,0.86,0.32,1.56,0.75,2.08c0.42,0.53,0.96,0.91,1.61,1.16c0.65,0.25,1.37,0.37,2.15,0.37
		c1.45,0,2.57-0.48,3.33-1.44c0.77-0.96,1.15-2.23,1.15-3.82v-10.2h-10.2c-0.19,0-0.35-0.06-0.47-0.19
		c-0.12-0.12-0.19-0.28-0.19-0.47v-1.18c0-0.19,0.06-0.35,0.19-0.47c0.12-0.12,0.28-0.19,0.47-0.19h12.38c0.21,0,0.38,0.06,0.5,0.19
		c0.12,0.12,0.19,0.29,0.19,0.5v12.07c0,1.55-0.3,2.9-0.89,4.05c-0.59,1.15-1.44,2.03-2.53,2.66
		C232.41,106.91,231.08,107.22,229.51,107.22"/>
	<path class="st0" d="M254.42,106.93c-0.21,0-0.37-0.06-0.49-0.19c-0.12-0.12-0.17-0.28-0.17-0.47V87.51c0-0.21,0.06-0.38,0.17-0.5
		c0.11-0.12,0.28-0.19,0.49-0.19h11.87c0.21,0,0.37,0.06,0.49,0.19c0.11,0.12,0.17,0.29,0.17,0.5v1.09c0,0.21-0.06,0.37-0.17,0.49
		c-0.12,0.11-0.28,0.17-0.49,0.17h-9.77v6.29h9.14c0.21,0,0.37,0.06,0.49,0.19s0.17,0.29,0.17,0.5v1.06c0,0.19-0.06,0.35-0.17,0.47
		c-0.11,0.12-0.28,0.19-0.49,0.19h-9.14v6.52h10c0.21,0,0.37,0.06,0.49,0.17s0.17,0.28,0.17,0.49v1.12c0,0.19-0.06,0.35-0.17,0.47
		c-0.11,0.12-0.28,0.19-0.49,0.19H254.42z"/>
	<path class="st0" d="M290.21,107.22c-1.76,0-3.22-0.33-4.38-0.98s-2.04-1.56-2.63-2.73c-0.59-1.17-0.92-2.53-0.98-4.08
		c-0.02-0.79-0.03-1.63-0.03-2.53s0.01-1.76,0.03-2.59c0.06-1.55,0.38-2.91,0.98-4.08c0.59-1.17,1.47-2.08,2.63-2.73
		s2.62-0.98,4.38-0.98c1.32,0,2.48,0.18,3.48,0.55s1.83,0.85,2.49,1.46c0.66,0.61,1.16,1.3,1.51,2.05c0.35,0.76,0.54,1.54,0.58,2.34
		c0.02,0.17-0.03,0.32-0.16,0.43c-0.12,0.11-0.27,0.17-0.45,0.17h-1.58c-0.17,0-0.32-0.05-0.45-0.14c-0.12-0.1-0.22-0.27-0.27-0.52
		c-0.33-1.49-0.93-2.52-1.82-3.07c-0.89-0.56-2-0.83-3.32-0.83c-1.55,0-2.78,0.44-3.68,1.31c-0.9,0.87-1.38,2.27-1.44,4.18
		c-0.06,1.57-0.06,3.18,0,4.83c0.06,1.92,0.54,3.31,1.44,4.18c0.9,0.87,2.12,1.31,3.68,1.31c1.32,0,2.43-0.28,3.32-0.83
		c0.89-0.55,1.5-1.58,1.82-3.08c0.06-0.25,0.15-0.42,0.27-0.52c0.12-0.1,0.27-0.14,0.45-0.14h1.58c0.17,0,0.32,0.05,0.45,0.16
		c0.12,0.11,0.18,0.24,0.16,0.42c-0.04,0.8-0.23,1.59-0.58,2.36c-0.34,0.77-0.85,1.46-1.51,2.07c-0.66,0.61-1.49,1.1-2.49,1.47
		S291.54,107.22,290.21,107.22"/>
	<path class="st0" d="M319.17,106.93c-0.19,0-0.35-0.06-0.47-0.19c-0.12-0.12-0.19-0.28-0.19-0.47V89.38H313
		c-0.19,0-0.35-0.06-0.47-0.19c-0.12-0.12-0.19-0.28-0.19-0.47v-1.21c0-0.21,0.06-0.38,0.19-0.5c0.12-0.12,0.28-0.19,0.47-0.19
		h13.85c0.21,0,0.38,0.06,0.5,0.19c0.12,0.12,0.19,0.29,0.19,0.5v1.21c0,0.19-0.06,0.35-0.19,0.47c-0.12,0.12-0.29,0.19-0.5,0.19
		h-5.49v16.89c0,0.19-0.06,0.35-0.19,0.47c-0.12,0.12-0.29,0.19-0.5,0.19H319.17z"/>
</g>
</svg>
